%TF.GenerationSoftware,KiCad,Pcbnew,8.0.6*%
%TF.CreationDate,2024-10-19T21:44:56+02:00*%
%TF.ProjectId,595-PM-EXT,3539352d-504d-42d4-9558-542e6b696361,rev?*%
%TF.SameCoordinates,Original*%
%TF.FileFunction,Legend,Bot*%
%TF.FilePolarity,Positive*%
%FSLAX46Y46*%
G04 Gerber Fmt 4.6, Leading zero omitted, Abs format (unit mm)*
G04 Created by KiCad (PCBNEW 8.0.6) date 2024-10-19 21:44:56*
%MOMM*%
%LPD*%
G01*
G04 APERTURE LIST*
%ADD10C,0.150000*%
G04 APERTURE END LIST*
D10*
X137701316Y-102076009D02*
X137225125Y-102076009D01*
X137867982Y-102647438D02*
X137284649Y-100647438D01*
X137284649Y-100647438D02*
X137201316Y-102647438D01*
X136867982Y-102647438D02*
X136617982Y-100647438D01*
X136617982Y-100647438D02*
X136379887Y-100647438D01*
X136379887Y-100647438D02*
X136248934Y-100742676D01*
X136248934Y-100742676D02*
X136177506Y-100933152D01*
X136177506Y-100933152D02*
X136153696Y-101123628D01*
X136153696Y-101123628D02*
X136153696Y-101504580D01*
X136153696Y-101504580D02*
X136189411Y-101790295D01*
X136189411Y-101790295D02*
X136284649Y-102171247D01*
X136284649Y-102171247D02*
X136356077Y-102361723D01*
X136356077Y-102361723D02*
X136475125Y-102552200D01*
X136475125Y-102552200D02*
X136629887Y-102647438D01*
X136629887Y-102647438D02*
X136867982Y-102647438D01*
X135296553Y-102647438D02*
X135510839Y-101695057D01*
X135867982Y-102647438D02*
X135617982Y-100647438D01*
X135617982Y-100647438D02*
X135237030Y-100647438D01*
X135237030Y-100647438D02*
X135153696Y-100742676D01*
X135153696Y-100742676D02*
X135117982Y-100837914D01*
X135117982Y-100837914D02*
X135094173Y-101028390D01*
X135094173Y-101028390D02*
X135129887Y-101314104D01*
X135129887Y-101314104D02*
X135201315Y-101504580D01*
X135201315Y-101504580D02*
X135260839Y-101599819D01*
X135260839Y-101599819D02*
X135367982Y-101695057D01*
X135367982Y-101695057D02*
X135748934Y-101695057D01*
X134737030Y-101599819D02*
X134403696Y-101599819D01*
X134391792Y-102647438D02*
X134867982Y-102647438D01*
X134867982Y-102647438D02*
X134617982Y-100647438D01*
X134617982Y-100647438D02*
X134141792Y-100647438D01*
X133046553Y-100647438D02*
X132379886Y-100647438D01*
X132379886Y-100647438D02*
X133058458Y-102647438D01*
X131653696Y-101314104D02*
X131820363Y-102647438D01*
X131796553Y-100552200D02*
X132213220Y-101980771D01*
X132213220Y-101980771D02*
X131594172Y-101980771D01*
X131296553Y-102647438D02*
X131046553Y-100647438D01*
X131165601Y-101599819D02*
X130594172Y-101599819D01*
X130725124Y-102647438D02*
X130475124Y-100647438D01*
X129653696Y-102456961D02*
X129713220Y-102552200D01*
X129713220Y-102552200D02*
X129867982Y-102647438D01*
X129867982Y-102647438D02*
X129963220Y-102647438D01*
X129963220Y-102647438D02*
X130094172Y-102552200D01*
X130094172Y-102552200D02*
X130165601Y-102361723D01*
X130165601Y-102361723D02*
X130189410Y-102171247D01*
X130189410Y-102171247D02*
X130189410Y-101790295D01*
X130189410Y-101790295D02*
X130153696Y-101504580D01*
X130153696Y-101504580D02*
X130058458Y-101123628D01*
X130058458Y-101123628D02*
X129987029Y-100933152D01*
X129987029Y-100933152D02*
X129867982Y-100742676D01*
X129867982Y-100742676D02*
X129713220Y-100647438D01*
X129713220Y-100647438D02*
X129617982Y-100647438D01*
X129617982Y-100647438D02*
X129487029Y-100742676D01*
X129487029Y-100742676D02*
X129451315Y-100837914D01*
X128522744Y-100647438D02*
X128998934Y-100647438D01*
X128998934Y-100647438D02*
X129165601Y-101599819D01*
X129165601Y-101599819D02*
X129106077Y-101504580D01*
X129106077Y-101504580D02*
X128998934Y-101409342D01*
X128998934Y-101409342D02*
X128760839Y-101409342D01*
X128760839Y-101409342D02*
X128677505Y-101504580D01*
X128677505Y-101504580D02*
X128641791Y-101599819D01*
X128641791Y-101599819D02*
X128617982Y-101790295D01*
X128617982Y-101790295D02*
X128677505Y-102266485D01*
X128677505Y-102266485D02*
X128748934Y-102456961D01*
X128748934Y-102456961D02*
X128808458Y-102552200D01*
X128808458Y-102552200D02*
X128915601Y-102647438D01*
X128915601Y-102647438D02*
X129153696Y-102647438D01*
X129153696Y-102647438D02*
X129237029Y-102552200D01*
X129237029Y-102552200D02*
X129272744Y-102456961D01*
X128248934Y-102647438D02*
X128058458Y-102647438D01*
X128058458Y-102647438D02*
X127951315Y-102552200D01*
X127951315Y-102552200D02*
X127891791Y-102456961D01*
X127891791Y-102456961D02*
X127760839Y-102171247D01*
X127760839Y-102171247D02*
X127665601Y-101790295D01*
X127665601Y-101790295D02*
X127570363Y-101028390D01*
X127570363Y-101028390D02*
X127594172Y-100837914D01*
X127594172Y-100837914D02*
X127629886Y-100742676D01*
X127629886Y-100742676D02*
X127713220Y-100647438D01*
X127713220Y-100647438D02*
X127903696Y-100647438D01*
X127903696Y-100647438D02*
X128010839Y-100742676D01*
X128010839Y-100742676D02*
X128070363Y-100837914D01*
X128070363Y-100837914D02*
X128141791Y-101028390D01*
X128141791Y-101028390D02*
X128201315Y-101504580D01*
X128201315Y-101504580D02*
X128177505Y-101695057D01*
X128177505Y-101695057D02*
X128141791Y-101790295D01*
X128141791Y-101790295D02*
X128058458Y-101885533D01*
X128058458Y-101885533D02*
X127867982Y-101885533D01*
X127867982Y-101885533D02*
X127760839Y-101790295D01*
X127760839Y-101790295D02*
X127701315Y-101695057D01*
X127701315Y-101695057D02*
X127629886Y-101504580D01*
X126617982Y-100647438D02*
X127094172Y-100647438D01*
X127094172Y-100647438D02*
X127260839Y-101599819D01*
X127260839Y-101599819D02*
X127201315Y-101504580D01*
X127201315Y-101504580D02*
X127094172Y-101409342D01*
X127094172Y-101409342D02*
X126856077Y-101409342D01*
X126856077Y-101409342D02*
X126772743Y-101504580D01*
X126772743Y-101504580D02*
X126737029Y-101599819D01*
X126737029Y-101599819D02*
X126713220Y-101790295D01*
X126713220Y-101790295D02*
X126772743Y-102266485D01*
X126772743Y-102266485D02*
X126844172Y-102456961D01*
X126844172Y-102456961D02*
X126903696Y-102552200D01*
X126903696Y-102552200D02*
X127010839Y-102647438D01*
X127010839Y-102647438D02*
X127248934Y-102647438D01*
X127248934Y-102647438D02*
X127332267Y-102552200D01*
X127332267Y-102552200D02*
X127367982Y-102456961D01*
X125498934Y-101599819D02*
X125165600Y-101599819D01*
X125153696Y-102647438D02*
X125629886Y-102647438D01*
X125629886Y-102647438D02*
X125379886Y-100647438D01*
X125379886Y-100647438D02*
X124903696Y-100647438D01*
X124820362Y-102647438D02*
X124129886Y-101314104D01*
X124653695Y-101314104D02*
X124296553Y-102647438D01*
X123748933Y-101314104D02*
X123998933Y-103314104D01*
X123760838Y-101409342D02*
X123653695Y-101314104D01*
X123653695Y-101314104D02*
X123463219Y-101314104D01*
X123463219Y-101314104D02*
X123379886Y-101409342D01*
X123379886Y-101409342D02*
X123344171Y-101504580D01*
X123344171Y-101504580D02*
X123320362Y-101695057D01*
X123320362Y-101695057D02*
X123391791Y-102266485D01*
X123391791Y-102266485D02*
X123463219Y-102456961D01*
X123463219Y-102456961D02*
X123522743Y-102552200D01*
X123522743Y-102552200D02*
X123629886Y-102647438D01*
X123629886Y-102647438D02*
X123820362Y-102647438D01*
X123820362Y-102647438D02*
X123903695Y-102552200D01*
X122582267Y-102647438D02*
X122451314Y-101599819D01*
X122451314Y-101599819D02*
X122475124Y-101409342D01*
X122475124Y-101409342D02*
X122558457Y-101314104D01*
X122558457Y-101314104D02*
X122748933Y-101314104D01*
X122748933Y-101314104D02*
X122856076Y-101409342D01*
X122570362Y-102552200D02*
X122677505Y-102647438D01*
X122677505Y-102647438D02*
X122915600Y-102647438D01*
X122915600Y-102647438D02*
X122998933Y-102552200D01*
X122998933Y-102552200D02*
X123022743Y-102361723D01*
X123022743Y-102361723D02*
X122998933Y-102171247D01*
X122998933Y-102171247D02*
X122927505Y-101980771D01*
X122927505Y-101980771D02*
X122820362Y-101885533D01*
X122820362Y-101885533D02*
X122582267Y-101885533D01*
X122582267Y-101885533D02*
X122475124Y-101790295D01*
X121939409Y-101314104D02*
X122106076Y-102647438D01*
X121963219Y-101504580D02*
X121903695Y-101409342D01*
X121903695Y-101409342D02*
X121796552Y-101314104D01*
X121796552Y-101314104D02*
X121653695Y-101314104D01*
X121653695Y-101314104D02*
X121570362Y-101409342D01*
X121570362Y-101409342D02*
X121546552Y-101599819D01*
X121546552Y-101599819D02*
X121677505Y-102647438D01*
X120772743Y-102647438D02*
X120522743Y-100647438D01*
X120760838Y-102552200D02*
X120867981Y-102647438D01*
X120867981Y-102647438D02*
X121058457Y-102647438D01*
X121058457Y-102647438D02*
X121141790Y-102552200D01*
X121141790Y-102552200D02*
X121177505Y-102456961D01*
X121177505Y-102456961D02*
X121201314Y-102266485D01*
X121201314Y-102266485D02*
X121129885Y-101695057D01*
X121129885Y-101695057D02*
X121058457Y-101504580D01*
X121058457Y-101504580D02*
X120998933Y-101409342D01*
X120998933Y-101409342D02*
X120891790Y-101314104D01*
X120891790Y-101314104D02*
X120701314Y-101314104D01*
X120701314Y-101314104D02*
X120617981Y-101409342D01*
X119903695Y-102552200D02*
X120010838Y-102647438D01*
X120010838Y-102647438D02*
X120201314Y-102647438D01*
X120201314Y-102647438D02*
X120284647Y-102552200D01*
X120284647Y-102552200D02*
X120308457Y-102361723D01*
X120308457Y-102361723D02*
X120213219Y-101599819D01*
X120213219Y-101599819D02*
X120141790Y-101409342D01*
X120141790Y-101409342D02*
X120034647Y-101314104D01*
X120034647Y-101314104D02*
X119844171Y-101314104D01*
X119844171Y-101314104D02*
X119760838Y-101409342D01*
X119760838Y-101409342D02*
X119737028Y-101599819D01*
X119737028Y-101599819D02*
X119760838Y-101790295D01*
X119760838Y-101790295D02*
X120260838Y-101980771D01*
X119439409Y-102647438D02*
X119272742Y-101314104D01*
X119320361Y-101695057D02*
X119248933Y-101504580D01*
X119248933Y-101504580D02*
X119189409Y-101409342D01*
X119189409Y-101409342D02*
X119082266Y-101314104D01*
X119082266Y-101314104D02*
X118987028Y-101314104D01*
M02*
