%TF.GenerationSoftware,KiCad,Pcbnew,8.0.6*%
%TF.CreationDate,2024-10-19T21:44:56+02:00*%
%TF.ProjectId,595-PM-EXT,3539352d-504d-42d4-9558-542e6b696361,rev?*%
%TF.SameCoordinates,Original*%
%TF.FileFunction,Soldermask,Bot*%
%TF.FilePolarity,Negative*%
%FSLAX46Y46*%
G04 Gerber Fmt 4.6, Leading zero omitted, Abs format (unit mm)*
G04 Created by KiCad (PCBNEW 8.0.6) date 2024-10-19 21:44:56*
%MOMM*%
%LPD*%
G01*
G04 APERTURE LIST*
%ADD10C,1.600000*%
%ADD11C,6.200000*%
%ADD12R,1.600000X2.400000*%
%ADD13O,1.600000X2.400000*%
%ADD14R,1.600000X1.600000*%
%ADD15O,1.600000X1.600000*%
%ADD16R,1.700000X1.700000*%
%ADD17O,1.700000X1.700000*%
%ADD18R,1.431000X1.431000*%
%ADD19C,1.431000*%
G04 APERTURE END LIST*
D10*
%TO.C,C1*%
X120300000Y-61300000D03*
X125300000Y-61300000D03*
%TD*%
D11*
%TO.C,*%
X103300000Y-53040000D03*
%TD*%
D12*
%TO.C,U1*%
X117725000Y-73125000D03*
D13*
X120265000Y-73125000D03*
X122805000Y-73125000D03*
X125345000Y-73125000D03*
X127885000Y-73125000D03*
X130425000Y-73125000D03*
X132965000Y-73125000D03*
X135505000Y-73125000D03*
X135505000Y-65505000D03*
X132965000Y-65505000D03*
X130425000Y-65505000D03*
X127885000Y-65505000D03*
X125345000Y-65505000D03*
X122805000Y-65505000D03*
X120265000Y-65505000D03*
X117725000Y-65505000D03*
%TD*%
D14*
%TO.C,U3*%
X111300000Y-82780000D03*
D15*
X111300000Y-80240000D03*
X111300000Y-77700000D03*
X111300000Y-75160000D03*
X111300000Y-72620000D03*
X111300000Y-70080000D03*
X111300000Y-67540000D03*
X103680000Y-67540000D03*
X103680000Y-70080000D03*
X103680000Y-72620000D03*
X103680000Y-75160000D03*
X103680000Y-77700000D03*
X103680000Y-80240000D03*
X103680000Y-82780000D03*
%TD*%
D16*
%TO.C,J4*%
X121470000Y-95000000D03*
D17*
X124010000Y-95000000D03*
X126550000Y-95000000D03*
X129090000Y-95000000D03*
X131630000Y-95000000D03*
X134170000Y-95000000D03*
%TD*%
D10*
%TO.C,C3*%
X105300000Y-87100000D03*
X110300000Y-87100000D03*
%TD*%
D11*
%TO.C,*%
X152260000Y-53040000D03*
%TD*%
D10*
%TO.C,C2*%
X114500000Y-71600000D03*
X114500000Y-66600000D03*
%TD*%
D16*
%TO.C,J3*%
X121470000Y-53680000D03*
D17*
X124010000Y-53680000D03*
X126550000Y-53680000D03*
X129090000Y-53680000D03*
X131630000Y-53680000D03*
X134170000Y-53680000D03*
%TD*%
D11*
%TO.C,*%
X152260000Y-102000000D03*
%TD*%
D18*
%TO.C,J2*%
X143080000Y-82500000D03*
D19*
X143080000Y-85040000D03*
X143080000Y-87580000D03*
X143080000Y-90120000D03*
X143080000Y-92660000D03*
X143080000Y-95200000D03*
X145620000Y-82500000D03*
X145620000Y-85040000D03*
X145620000Y-87580000D03*
X145620000Y-90120000D03*
X145620000Y-92660000D03*
X145620000Y-95200000D03*
%TD*%
D12*
%TO.C,U2*%
X117720000Y-85620000D03*
D13*
X120260000Y-85620000D03*
X122800000Y-85620000D03*
X125340000Y-85620000D03*
X127880000Y-85620000D03*
X130420000Y-85620000D03*
X132960000Y-85620000D03*
X135500000Y-85620000D03*
X135500000Y-78000000D03*
X132960000Y-78000000D03*
X130420000Y-78000000D03*
X127880000Y-78000000D03*
X125340000Y-78000000D03*
X122800000Y-78000000D03*
X120260000Y-78000000D03*
X117720000Y-78000000D03*
%TD*%
D11*
%TO.C,*%
X103300000Y-102000000D03*
%TD*%
D18*
%TO.C,J1*%
X143080000Y-59640000D03*
D19*
X143080000Y-62180000D03*
X143080000Y-64720000D03*
X143080000Y-67260000D03*
X143080000Y-69800000D03*
X143080000Y-72340000D03*
X145620000Y-59640000D03*
X145620000Y-62180000D03*
X145620000Y-64720000D03*
X145620000Y-67260000D03*
X145620000Y-69800000D03*
X145620000Y-72340000D03*
%TD*%
M02*
