%TF.GenerationSoftware,KiCad,Pcbnew,8.0.6*%
%TF.CreationDate,2024-10-19T21:44:49+02:00*%
%TF.ProjectId,595-PM-EXT,3539352d-504d-42d4-9558-542e6b696361,rev?*%
%TF.SameCoordinates,Original*%
%TF.FileFunction,Drillmap*%
%TF.FilePolarity,Positive*%
%FSLAX45Y45*%
G04 Gerber Fmt 4.5, Leading zero omitted, Abs format (unit mm)*
G04 Created by KiCad (PCBNEW 8.0.6) date 2024-10-19 21:44:49*
%MOMM*%
%LPD*%
G01*
G04 APERTURE LIST*
%ADD10C,0.100000*%
%ADD11C,0.200000*%
G04 APERTURE END LIST*
D10*
X10280000Y-10550000D02*
G75*
G02*
X9980000Y-10250000I0J300000D01*
G01*
X15576000Y-10250000D02*
G75*
G02*
X15276000Y-10550000I-300000J0D01*
G01*
X9980000Y-5250000D02*
X9980000Y-8650000D01*
X15276000Y-4950000D02*
G75*
G02*
X15576000Y-5250000I0J-300000D01*
G01*
X10280000Y-10550000D02*
X15276000Y-10550000D01*
X15276000Y-4950000D02*
X10280000Y-4950000D01*
X9980000Y-8650000D02*
X9980000Y-10250000D01*
X9980000Y-5250000D02*
G75*
G02*
X10280000Y-4950000I300000J0D01*
G01*
X15576000Y-10250000D02*
X15576000Y-5250000D01*
D11*
D10*
X11200000Y-6525000D02*
X11240000Y-6565000D01*
X11240000Y-6525000D02*
X11200000Y-6565000D01*
X12010000Y-6830000D02*
X12050000Y-6870000D01*
X12050000Y-6830000D02*
X12010000Y-6870000D01*
X12380000Y-7955000D02*
X12420000Y-7995000D01*
X12420000Y-7955000D02*
X12380000Y-7995000D01*
X12840000Y-5730000D02*
X12880000Y-5770000D01*
X12880000Y-5730000D02*
X12840000Y-5770000D01*
X12870000Y-9140000D02*
X12910000Y-9180000D01*
X12910000Y-9140000D02*
X12870000Y-9180000D01*
X12970000Y-7550000D02*
X13010000Y-7590000D01*
X13010000Y-7550000D02*
X12970000Y-7590000D01*
X13050000Y-9140000D02*
X13090000Y-9180000D01*
X13090000Y-9140000D02*
X13050000Y-9180000D01*
X13080000Y-7040000D02*
X13120000Y-7080000D01*
X13120000Y-7040000D02*
X13080000Y-7080000D01*
X13250000Y-6980000D02*
X13290000Y-7020000D01*
X13290000Y-6980000D02*
X13250000Y-7020000D01*
X13440000Y-6890500D02*
X13480000Y-6930500D01*
X13480000Y-6890500D02*
X13440000Y-6930500D01*
X13735000Y-8820000D02*
X13775000Y-8860000D01*
X13775000Y-8820000D02*
X13735000Y-8860000D01*
X14190000Y-7780000D02*
X14230000Y-7820000D01*
X14230000Y-7780000D02*
X14190000Y-7820000D01*
X14470000Y-7780000D02*
X14510000Y-7820000D01*
X14510000Y-7780000D02*
X14470000Y-7820000D01*
X14730000Y-7780000D02*
X14770000Y-7820000D01*
X14770000Y-7780000D02*
X14730000Y-7820000D01*
X10408000Y-6754000D02*
G75*
G02*
X10328000Y-6754000I-40000J0D01*
G01*
X10328000Y-6754000D02*
G75*
G02*
X10408000Y-6754000I40000J0D01*
G01*
X10408000Y-7008000D02*
G75*
G02*
X10328000Y-7008000I-40000J0D01*
G01*
X10328000Y-7008000D02*
G75*
G02*
X10408000Y-7008000I40000J0D01*
G01*
X10408000Y-7262000D02*
G75*
G02*
X10328000Y-7262000I-40000J0D01*
G01*
X10328000Y-7262000D02*
G75*
G02*
X10408000Y-7262000I40000J0D01*
G01*
X10408000Y-7516000D02*
G75*
G02*
X10328000Y-7516000I-40000J0D01*
G01*
X10328000Y-7516000D02*
G75*
G02*
X10408000Y-7516000I40000J0D01*
G01*
X10408000Y-7770000D02*
G75*
G02*
X10328000Y-7770000I-40000J0D01*
G01*
X10328000Y-7770000D02*
G75*
G02*
X10408000Y-7770000I40000J0D01*
G01*
X10408000Y-8024000D02*
G75*
G02*
X10328000Y-8024000I-40000J0D01*
G01*
X10328000Y-8024000D02*
G75*
G02*
X10408000Y-8024000I40000J0D01*
G01*
X10408000Y-8278000D02*
G75*
G02*
X10328000Y-8278000I-40000J0D01*
G01*
X10328000Y-8278000D02*
G75*
G02*
X10408000Y-8278000I40000J0D01*
G01*
X10570000Y-8710000D02*
G75*
G02*
X10490000Y-8710000I-40000J0D01*
G01*
X10490000Y-8710000D02*
G75*
G02*
X10570000Y-8710000I40000J0D01*
G01*
X11070000Y-8710000D02*
G75*
G02*
X10990000Y-8710000I-40000J0D01*
G01*
X10990000Y-8710000D02*
G75*
G02*
X11070000Y-8710000I40000J0D01*
G01*
X11170000Y-6754000D02*
G75*
G02*
X11090000Y-6754000I-40000J0D01*
G01*
X11090000Y-6754000D02*
G75*
G02*
X11170000Y-6754000I40000J0D01*
G01*
X11170000Y-7008000D02*
G75*
G02*
X11090000Y-7008000I-40000J0D01*
G01*
X11090000Y-7008000D02*
G75*
G02*
X11170000Y-7008000I40000J0D01*
G01*
X11170000Y-7262000D02*
G75*
G02*
X11090000Y-7262000I-40000J0D01*
G01*
X11090000Y-7262000D02*
G75*
G02*
X11170000Y-7262000I40000J0D01*
G01*
X11170000Y-7516000D02*
G75*
G02*
X11090000Y-7516000I-40000J0D01*
G01*
X11090000Y-7516000D02*
G75*
G02*
X11170000Y-7516000I40000J0D01*
G01*
X11170000Y-7770000D02*
G75*
G02*
X11090000Y-7770000I-40000J0D01*
G01*
X11090000Y-7770000D02*
G75*
G02*
X11170000Y-7770000I40000J0D01*
G01*
X11170000Y-8024000D02*
G75*
G02*
X11090000Y-8024000I-40000J0D01*
G01*
X11090000Y-8024000D02*
G75*
G02*
X11170000Y-8024000I40000J0D01*
G01*
X11170000Y-8278000D02*
G75*
G02*
X11090000Y-8278000I-40000J0D01*
G01*
X11090000Y-8278000D02*
G75*
G02*
X11170000Y-8278000I40000J0D01*
G01*
X11490000Y-6660000D02*
G75*
G02*
X11410000Y-6660000I-40000J0D01*
G01*
X11410000Y-6660000D02*
G75*
G02*
X11490000Y-6660000I40000J0D01*
G01*
X11490000Y-7160000D02*
G75*
G02*
X11410000Y-7160000I-40000J0D01*
G01*
X11410000Y-7160000D02*
G75*
G02*
X11490000Y-7160000I40000J0D01*
G01*
X11812000Y-7800000D02*
G75*
G02*
X11732000Y-7800000I-40000J0D01*
G01*
X11732000Y-7800000D02*
G75*
G02*
X11812000Y-7800000I40000J0D01*
G01*
X11812000Y-8562000D02*
G75*
G02*
X11732000Y-8562000I-40000J0D01*
G01*
X11732000Y-8562000D02*
G75*
G02*
X11812000Y-8562000I40000J0D01*
G01*
X11812500Y-6550500D02*
G75*
G02*
X11732500Y-6550500I-40000J0D01*
G01*
X11732500Y-6550500D02*
G75*
G02*
X11812500Y-6550500I40000J0D01*
G01*
X11812500Y-7312500D02*
G75*
G02*
X11732500Y-7312500I-40000J0D01*
G01*
X11732500Y-7312500D02*
G75*
G02*
X11812500Y-7312500I40000J0D01*
G01*
X12066000Y-7800000D02*
G75*
G02*
X11986000Y-7800000I-40000J0D01*
G01*
X11986000Y-7800000D02*
G75*
G02*
X12066000Y-7800000I40000J0D01*
G01*
X12066000Y-8562000D02*
G75*
G02*
X11986000Y-8562000I-40000J0D01*
G01*
X11986000Y-8562000D02*
G75*
G02*
X12066000Y-8562000I40000J0D01*
G01*
X12066500Y-6550500D02*
G75*
G02*
X11986500Y-6550500I-40000J0D01*
G01*
X11986500Y-6550500D02*
G75*
G02*
X12066500Y-6550500I40000J0D01*
G01*
X12066500Y-7312500D02*
G75*
G02*
X11986500Y-7312500I-40000J0D01*
G01*
X11986500Y-7312500D02*
G75*
G02*
X12066500Y-7312500I40000J0D01*
G01*
X12070000Y-6130000D02*
G75*
G02*
X11990000Y-6130000I-40000J0D01*
G01*
X11990000Y-6130000D02*
G75*
G02*
X12070000Y-6130000I40000J0D01*
G01*
X12320000Y-7800000D02*
G75*
G02*
X12240000Y-7800000I-40000J0D01*
G01*
X12240000Y-7800000D02*
G75*
G02*
X12320000Y-7800000I40000J0D01*
G01*
X12320000Y-8562000D02*
G75*
G02*
X12240000Y-8562000I-40000J0D01*
G01*
X12240000Y-8562000D02*
G75*
G02*
X12320000Y-8562000I40000J0D01*
G01*
X12320500Y-6550500D02*
G75*
G02*
X12240500Y-6550500I-40000J0D01*
G01*
X12240500Y-6550500D02*
G75*
G02*
X12320500Y-6550500I40000J0D01*
G01*
X12320500Y-7312500D02*
G75*
G02*
X12240500Y-7312500I-40000J0D01*
G01*
X12240500Y-7312500D02*
G75*
G02*
X12320500Y-7312500I40000J0D01*
G01*
X12570000Y-6130000D02*
G75*
G02*
X12490000Y-6130000I-40000J0D01*
G01*
X12490000Y-6130000D02*
G75*
G02*
X12570000Y-6130000I40000J0D01*
G01*
X12574000Y-7800000D02*
G75*
G02*
X12494000Y-7800000I-40000J0D01*
G01*
X12494000Y-7800000D02*
G75*
G02*
X12574000Y-7800000I40000J0D01*
G01*
X12574000Y-8562000D02*
G75*
G02*
X12494000Y-8562000I-40000J0D01*
G01*
X12494000Y-8562000D02*
G75*
G02*
X12574000Y-8562000I40000J0D01*
G01*
X12574500Y-6550500D02*
G75*
G02*
X12494500Y-6550500I-40000J0D01*
G01*
X12494500Y-6550500D02*
G75*
G02*
X12574500Y-6550500I40000J0D01*
G01*
X12574500Y-7312500D02*
G75*
G02*
X12494500Y-7312500I-40000J0D01*
G01*
X12494500Y-7312500D02*
G75*
G02*
X12574500Y-7312500I40000J0D01*
G01*
X12828000Y-7800000D02*
G75*
G02*
X12748000Y-7800000I-40000J0D01*
G01*
X12748000Y-7800000D02*
G75*
G02*
X12828000Y-7800000I40000J0D01*
G01*
X12828000Y-8562000D02*
G75*
G02*
X12748000Y-8562000I-40000J0D01*
G01*
X12748000Y-8562000D02*
G75*
G02*
X12828000Y-8562000I40000J0D01*
G01*
X12828500Y-6550500D02*
G75*
G02*
X12748500Y-6550500I-40000J0D01*
G01*
X12748500Y-6550500D02*
G75*
G02*
X12828500Y-6550500I40000J0D01*
G01*
X12828500Y-7312500D02*
G75*
G02*
X12748500Y-7312500I-40000J0D01*
G01*
X12748500Y-7312500D02*
G75*
G02*
X12828500Y-7312500I40000J0D01*
G01*
X13082000Y-7800000D02*
G75*
G02*
X13002000Y-7800000I-40000J0D01*
G01*
X13002000Y-7800000D02*
G75*
G02*
X13082000Y-7800000I40000J0D01*
G01*
X13082000Y-8562000D02*
G75*
G02*
X13002000Y-8562000I-40000J0D01*
G01*
X13002000Y-8562000D02*
G75*
G02*
X13082000Y-8562000I40000J0D01*
G01*
X13082500Y-6550500D02*
G75*
G02*
X13002500Y-6550500I-40000J0D01*
G01*
X13002500Y-6550500D02*
G75*
G02*
X13082500Y-6550500I40000J0D01*
G01*
X13082500Y-7312500D02*
G75*
G02*
X13002500Y-7312500I-40000J0D01*
G01*
X13002500Y-7312500D02*
G75*
G02*
X13082500Y-7312500I40000J0D01*
G01*
X13336000Y-7800000D02*
G75*
G02*
X13256000Y-7800000I-40000J0D01*
G01*
X13256000Y-7800000D02*
G75*
G02*
X13336000Y-7800000I40000J0D01*
G01*
X13336000Y-8562000D02*
G75*
G02*
X13256000Y-8562000I-40000J0D01*
G01*
X13256000Y-8562000D02*
G75*
G02*
X13336000Y-8562000I40000J0D01*
G01*
X13336500Y-6550500D02*
G75*
G02*
X13256500Y-6550500I-40000J0D01*
G01*
X13256500Y-6550500D02*
G75*
G02*
X13336500Y-6550500I40000J0D01*
G01*
X13336500Y-7312500D02*
G75*
G02*
X13256500Y-7312500I-40000J0D01*
G01*
X13256500Y-7312500D02*
G75*
G02*
X13336500Y-7312500I40000J0D01*
G01*
X13590000Y-7800000D02*
G75*
G02*
X13510000Y-7800000I-40000J0D01*
G01*
X13510000Y-7800000D02*
G75*
G02*
X13590000Y-7800000I40000J0D01*
G01*
X13590000Y-8562000D02*
G75*
G02*
X13510000Y-8562000I-40000J0D01*
G01*
X13510000Y-8562000D02*
G75*
G02*
X13590000Y-8562000I40000J0D01*
G01*
X13590500Y-6550500D02*
G75*
G02*
X13510500Y-6550500I-40000J0D01*
G01*
X13510500Y-6550500D02*
G75*
G02*
X13590500Y-6550500I40000J0D01*
G01*
X13590500Y-7312500D02*
G75*
G02*
X13510500Y-7312500I-40000J0D01*
G01*
X13510500Y-7312500D02*
G75*
G02*
X13590500Y-7312500I40000J0D01*
G01*
X14308000Y-5918000D02*
X14308000Y-6010000D01*
X14262000Y-5964000D02*
X14354000Y-5964000D01*
X14308000Y-6172000D02*
X14308000Y-6264000D01*
X14262000Y-6218000D02*
X14354000Y-6218000D01*
X14308000Y-6426000D02*
X14308000Y-6518000D01*
X14262000Y-6472000D02*
X14354000Y-6472000D01*
X14308000Y-6680000D02*
X14308000Y-6772000D01*
X14262000Y-6726000D02*
X14354000Y-6726000D01*
X14308000Y-6934000D02*
X14308000Y-7026000D01*
X14262000Y-6980000D02*
X14354000Y-6980000D01*
X14308000Y-7188000D02*
X14308000Y-7280000D01*
X14262000Y-7234000D02*
X14354000Y-7234000D01*
X14308000Y-8204000D02*
X14308000Y-8296000D01*
X14262000Y-8250000D02*
X14354000Y-8250000D01*
X14308000Y-8458000D02*
X14308000Y-8550000D01*
X14262000Y-8504000D02*
X14354000Y-8504000D01*
X14308000Y-8712000D02*
X14308000Y-8804000D01*
X14262000Y-8758000D02*
X14354000Y-8758000D01*
X14308000Y-8966000D02*
X14308000Y-9058000D01*
X14262000Y-9012000D02*
X14354000Y-9012000D01*
X14308000Y-9220000D02*
X14308000Y-9312000D01*
X14262000Y-9266000D02*
X14354000Y-9266000D01*
X14308000Y-9474000D02*
X14308000Y-9566000D01*
X14262000Y-9520000D02*
X14354000Y-9520000D01*
X14562000Y-5918000D02*
X14562000Y-6010000D01*
X14516000Y-5964000D02*
X14608000Y-5964000D01*
X14562000Y-6172000D02*
X14562000Y-6264000D01*
X14516000Y-6218000D02*
X14608000Y-6218000D01*
X14562000Y-6426000D02*
X14562000Y-6518000D01*
X14516000Y-6472000D02*
X14608000Y-6472000D01*
X14562000Y-6680000D02*
X14562000Y-6772000D01*
X14516000Y-6726000D02*
X14608000Y-6726000D01*
X14562000Y-6934000D02*
X14562000Y-7026000D01*
X14516000Y-6980000D02*
X14608000Y-6980000D01*
X14562000Y-7188000D02*
X14562000Y-7280000D01*
X14516000Y-7234000D02*
X14608000Y-7234000D01*
X14562000Y-8204000D02*
X14562000Y-8296000D01*
X14516000Y-8250000D02*
X14608000Y-8250000D01*
X14562000Y-8458000D02*
X14562000Y-8550000D01*
X14516000Y-8504000D02*
X14608000Y-8504000D01*
X14562000Y-8712000D02*
X14562000Y-8804000D01*
X14516000Y-8758000D02*
X14608000Y-8758000D01*
X14562000Y-8966000D02*
X14562000Y-9058000D01*
X14516000Y-9012000D02*
X14608000Y-9012000D01*
X14562000Y-9220000D02*
X14562000Y-9312000D01*
X14516000Y-9266000D02*
X14608000Y-9266000D01*
X14562000Y-9474000D02*
X14562000Y-9566000D01*
X14516000Y-9520000D02*
X14608000Y-9520000D01*
X12182356Y-5403356D02*
X12182356Y-5332644D01*
X12111644Y-5332644D01*
X12111644Y-5403356D01*
X12182356Y-5403356D01*
X12182356Y-9535356D02*
X12182356Y-9464644D01*
X12111644Y-9464644D01*
X12111644Y-9535356D01*
X12182356Y-9535356D01*
X12436356Y-5403356D02*
X12436356Y-5332644D01*
X12365644Y-5332644D01*
X12365644Y-5403356D01*
X12436356Y-5403356D01*
X12436356Y-9535356D02*
X12436356Y-9464644D01*
X12365644Y-9464644D01*
X12365644Y-9535356D01*
X12436356Y-9535356D01*
X12690356Y-5403356D02*
X12690356Y-5332644D01*
X12619644Y-5332644D01*
X12619644Y-5403356D01*
X12690356Y-5403356D01*
X12690356Y-9535356D02*
X12690356Y-9464644D01*
X12619644Y-9464644D01*
X12619644Y-9535356D01*
X12690356Y-9535356D01*
X12944356Y-5403356D02*
X12944356Y-5332644D01*
X12873644Y-5332644D01*
X12873644Y-5403356D01*
X12944356Y-5403356D01*
X12944356Y-9535356D02*
X12944356Y-9464644D01*
X12873644Y-9464644D01*
X12873644Y-9535356D01*
X12944356Y-9535356D01*
X13198356Y-5403356D02*
X13198356Y-5332644D01*
X13127644Y-5332644D01*
X13127644Y-5403356D01*
X13198356Y-5403356D01*
X13198356Y-9535356D02*
X13198356Y-9464644D01*
X13127644Y-9464644D01*
X13127644Y-9535356D01*
X13198356Y-9535356D01*
X13452356Y-5403356D02*
X13452356Y-5332644D01*
X13381644Y-5332644D01*
X13381644Y-5403356D01*
X13452356Y-5403356D01*
X13452356Y-9535356D02*
X13452356Y-9464644D01*
X13381644Y-9464644D01*
X13381644Y-9535356D01*
X13452356Y-9535356D01*
D11*
X10235777Y-10866484D02*
X10235777Y-10666484D01*
X10235777Y-10666484D02*
X10283396Y-10666484D01*
X10283396Y-10666484D02*
X10311967Y-10676008D01*
X10311967Y-10676008D02*
X10331015Y-10695055D01*
X10331015Y-10695055D02*
X10340539Y-10714103D01*
X10340539Y-10714103D02*
X10350063Y-10752198D01*
X10350063Y-10752198D02*
X10350063Y-10780770D01*
X10350063Y-10780770D02*
X10340539Y-10818865D01*
X10340539Y-10818865D02*
X10331015Y-10837912D01*
X10331015Y-10837912D02*
X10311967Y-10856960D01*
X10311967Y-10856960D02*
X10283396Y-10866484D01*
X10283396Y-10866484D02*
X10235777Y-10866484D01*
X10435777Y-10866484D02*
X10435777Y-10733150D01*
X10435777Y-10771246D02*
X10445301Y-10752198D01*
X10445301Y-10752198D02*
X10454824Y-10742674D01*
X10454824Y-10742674D02*
X10473872Y-10733150D01*
X10473872Y-10733150D02*
X10492920Y-10733150D01*
X10559586Y-10866484D02*
X10559586Y-10733150D01*
X10559586Y-10666484D02*
X10550063Y-10676008D01*
X10550063Y-10676008D02*
X10559586Y-10685531D01*
X10559586Y-10685531D02*
X10569110Y-10676008D01*
X10569110Y-10676008D02*
X10559586Y-10666484D01*
X10559586Y-10666484D02*
X10559586Y-10685531D01*
X10683396Y-10866484D02*
X10664348Y-10856960D01*
X10664348Y-10856960D02*
X10654824Y-10837912D01*
X10654824Y-10837912D02*
X10654824Y-10666484D01*
X10788158Y-10866484D02*
X10769110Y-10856960D01*
X10769110Y-10856960D02*
X10759586Y-10837912D01*
X10759586Y-10837912D02*
X10759586Y-10666484D01*
X11016729Y-10866484D02*
X11016729Y-10666484D01*
X11016729Y-10666484D02*
X11083396Y-10809341D01*
X11083396Y-10809341D02*
X11150063Y-10666484D01*
X11150063Y-10666484D02*
X11150063Y-10866484D01*
X11331015Y-10866484D02*
X11331015Y-10761722D01*
X11331015Y-10761722D02*
X11321491Y-10742674D01*
X11321491Y-10742674D02*
X11302443Y-10733150D01*
X11302443Y-10733150D02*
X11264348Y-10733150D01*
X11264348Y-10733150D02*
X11245301Y-10742674D01*
X11331015Y-10856960D02*
X11311967Y-10866484D01*
X11311967Y-10866484D02*
X11264348Y-10866484D01*
X11264348Y-10866484D02*
X11245301Y-10856960D01*
X11245301Y-10856960D02*
X11235777Y-10837912D01*
X11235777Y-10837912D02*
X11235777Y-10818865D01*
X11235777Y-10818865D02*
X11245301Y-10799817D01*
X11245301Y-10799817D02*
X11264348Y-10790293D01*
X11264348Y-10790293D02*
X11311967Y-10790293D01*
X11311967Y-10790293D02*
X11331015Y-10780770D01*
X11426253Y-10733150D02*
X11426253Y-10933150D01*
X11426253Y-10742674D02*
X11445301Y-10733150D01*
X11445301Y-10733150D02*
X11483396Y-10733150D01*
X11483396Y-10733150D02*
X11502443Y-10742674D01*
X11502443Y-10742674D02*
X11511967Y-10752198D01*
X11511967Y-10752198D02*
X11521491Y-10771246D01*
X11521491Y-10771246D02*
X11521491Y-10828389D01*
X11521491Y-10828389D02*
X11511967Y-10847436D01*
X11511967Y-10847436D02*
X11502443Y-10856960D01*
X11502443Y-10856960D02*
X11483396Y-10866484D01*
X11483396Y-10866484D02*
X11445301Y-10866484D01*
X11445301Y-10866484D02*
X11426253Y-10856960D01*
X11607205Y-10847436D02*
X11616729Y-10856960D01*
X11616729Y-10856960D02*
X11607205Y-10866484D01*
X11607205Y-10866484D02*
X11597682Y-10856960D01*
X11597682Y-10856960D02*
X11607205Y-10847436D01*
X11607205Y-10847436D02*
X11607205Y-10866484D01*
X11607205Y-10742674D02*
X11616729Y-10752198D01*
X11616729Y-10752198D02*
X11607205Y-10761722D01*
X11607205Y-10761722D02*
X11597682Y-10752198D01*
X11597682Y-10752198D02*
X11607205Y-10742674D01*
X11607205Y-10742674D02*
X11607205Y-10761722D01*
D10*
X9935000Y-11175000D02*
X9975000Y-11215000D01*
X9975000Y-11175000D02*
X9935000Y-11215000D01*
D11*
X10273872Y-11086484D02*
X10292920Y-11086484D01*
X10292920Y-11086484D02*
X10311967Y-11096008D01*
X10311967Y-11096008D02*
X10321491Y-11105531D01*
X10321491Y-11105531D02*
X10331015Y-11124579D01*
X10331015Y-11124579D02*
X10340539Y-11162674D01*
X10340539Y-11162674D02*
X10340539Y-11210293D01*
X10340539Y-11210293D02*
X10331015Y-11248388D01*
X10331015Y-11248388D02*
X10321491Y-11267436D01*
X10321491Y-11267436D02*
X10311967Y-11276960D01*
X10311967Y-11276960D02*
X10292920Y-11286484D01*
X10292920Y-11286484D02*
X10273872Y-11286484D01*
X10273872Y-11286484D02*
X10254824Y-11276960D01*
X10254824Y-11276960D02*
X10245301Y-11267436D01*
X10245301Y-11267436D02*
X10235777Y-11248388D01*
X10235777Y-11248388D02*
X10226253Y-11210293D01*
X10226253Y-11210293D02*
X10226253Y-11162674D01*
X10226253Y-11162674D02*
X10235777Y-11124579D01*
X10235777Y-11124579D02*
X10245301Y-11105531D01*
X10245301Y-11105531D02*
X10254824Y-11096008D01*
X10254824Y-11096008D02*
X10273872Y-11086484D01*
X10426253Y-11267436D02*
X10435777Y-11276960D01*
X10435777Y-11276960D02*
X10426253Y-11286484D01*
X10426253Y-11286484D02*
X10416729Y-11276960D01*
X10416729Y-11276960D02*
X10426253Y-11267436D01*
X10426253Y-11267436D02*
X10426253Y-11286484D01*
X10607205Y-11153150D02*
X10607205Y-11286484D01*
X10559586Y-11076960D02*
X10511967Y-11219817D01*
X10511967Y-11219817D02*
X10635777Y-11219817D01*
X10750063Y-11086484D02*
X10769110Y-11086484D01*
X10769110Y-11086484D02*
X10788158Y-11096008D01*
X10788158Y-11096008D02*
X10797682Y-11105531D01*
X10797682Y-11105531D02*
X10807205Y-11124579D01*
X10807205Y-11124579D02*
X10816729Y-11162674D01*
X10816729Y-11162674D02*
X10816729Y-11210293D01*
X10816729Y-11210293D02*
X10807205Y-11248388D01*
X10807205Y-11248388D02*
X10797682Y-11267436D01*
X10797682Y-11267436D02*
X10788158Y-11276960D01*
X10788158Y-11276960D02*
X10769110Y-11286484D01*
X10769110Y-11286484D02*
X10750063Y-11286484D01*
X10750063Y-11286484D02*
X10731015Y-11276960D01*
X10731015Y-11276960D02*
X10721491Y-11267436D01*
X10721491Y-11267436D02*
X10711967Y-11248388D01*
X10711967Y-11248388D02*
X10702444Y-11210293D01*
X10702444Y-11210293D02*
X10702444Y-11162674D01*
X10702444Y-11162674D02*
X10711967Y-11124579D01*
X10711967Y-11124579D02*
X10721491Y-11105531D01*
X10721491Y-11105531D02*
X10731015Y-11096008D01*
X10731015Y-11096008D02*
X10750063Y-11086484D01*
X10940539Y-11086484D02*
X10959586Y-11086484D01*
X10959586Y-11086484D02*
X10978634Y-11096008D01*
X10978634Y-11096008D02*
X10988158Y-11105531D01*
X10988158Y-11105531D02*
X10997682Y-11124579D01*
X10997682Y-11124579D02*
X11007205Y-11162674D01*
X11007205Y-11162674D02*
X11007205Y-11210293D01*
X11007205Y-11210293D02*
X10997682Y-11248388D01*
X10997682Y-11248388D02*
X10988158Y-11267436D01*
X10988158Y-11267436D02*
X10978634Y-11276960D01*
X10978634Y-11276960D02*
X10959586Y-11286484D01*
X10959586Y-11286484D02*
X10940539Y-11286484D01*
X10940539Y-11286484D02*
X10921491Y-11276960D01*
X10921491Y-11276960D02*
X10911967Y-11267436D01*
X10911967Y-11267436D02*
X10902444Y-11248388D01*
X10902444Y-11248388D02*
X10892920Y-11210293D01*
X10892920Y-11210293D02*
X10892920Y-11162674D01*
X10892920Y-11162674D02*
X10902444Y-11124579D01*
X10902444Y-11124579D02*
X10911967Y-11105531D01*
X10911967Y-11105531D02*
X10921491Y-11096008D01*
X10921491Y-11096008D02*
X10940539Y-11086484D01*
X11092920Y-11286484D02*
X11092920Y-11153150D01*
X11092920Y-11172198D02*
X11102444Y-11162674D01*
X11102444Y-11162674D02*
X11121491Y-11153150D01*
X11121491Y-11153150D02*
X11150063Y-11153150D01*
X11150063Y-11153150D02*
X11169110Y-11162674D01*
X11169110Y-11162674D02*
X11178634Y-11181722D01*
X11178634Y-11181722D02*
X11178634Y-11286484D01*
X11178634Y-11181722D02*
X11188158Y-11162674D01*
X11188158Y-11162674D02*
X11207205Y-11153150D01*
X11207205Y-11153150D02*
X11235777Y-11153150D01*
X11235777Y-11153150D02*
X11254824Y-11162674D01*
X11254824Y-11162674D02*
X11264348Y-11181722D01*
X11264348Y-11181722D02*
X11264348Y-11286484D01*
X11359586Y-11286484D02*
X11359586Y-11153150D01*
X11359586Y-11172198D02*
X11369110Y-11162674D01*
X11369110Y-11162674D02*
X11388158Y-11153150D01*
X11388158Y-11153150D02*
X11416729Y-11153150D01*
X11416729Y-11153150D02*
X11435777Y-11162674D01*
X11435777Y-11162674D02*
X11445301Y-11181722D01*
X11445301Y-11181722D02*
X11445301Y-11286484D01*
X11445301Y-11181722D02*
X11454824Y-11162674D01*
X11454824Y-11162674D02*
X11473872Y-11153150D01*
X11473872Y-11153150D02*
X11502443Y-11153150D01*
X11502443Y-11153150D02*
X11521491Y-11162674D01*
X11521491Y-11162674D02*
X11531015Y-11181722D01*
X11531015Y-11181722D02*
X11531015Y-11286484D01*
X11921491Y-11076960D02*
X11750063Y-11334103D01*
X12178634Y-11086484D02*
X12197682Y-11086484D01*
X12197682Y-11086484D02*
X12216729Y-11096008D01*
X12216729Y-11096008D02*
X12226253Y-11105531D01*
X12226253Y-11105531D02*
X12235777Y-11124579D01*
X12235777Y-11124579D02*
X12245301Y-11162674D01*
X12245301Y-11162674D02*
X12245301Y-11210293D01*
X12245301Y-11210293D02*
X12235777Y-11248388D01*
X12235777Y-11248388D02*
X12226253Y-11267436D01*
X12226253Y-11267436D02*
X12216729Y-11276960D01*
X12216729Y-11276960D02*
X12197682Y-11286484D01*
X12197682Y-11286484D02*
X12178634Y-11286484D01*
X12178634Y-11286484D02*
X12159586Y-11276960D01*
X12159586Y-11276960D02*
X12150063Y-11267436D01*
X12150063Y-11267436D02*
X12140539Y-11248388D01*
X12140539Y-11248388D02*
X12131015Y-11210293D01*
X12131015Y-11210293D02*
X12131015Y-11162674D01*
X12131015Y-11162674D02*
X12140539Y-11124579D01*
X12140539Y-11124579D02*
X12150063Y-11105531D01*
X12150063Y-11105531D02*
X12159586Y-11096008D01*
X12159586Y-11096008D02*
X12178634Y-11086484D01*
X12331015Y-11267436D02*
X12340539Y-11276960D01*
X12340539Y-11276960D02*
X12331015Y-11286484D01*
X12331015Y-11286484D02*
X12321491Y-11276960D01*
X12321491Y-11276960D02*
X12331015Y-11267436D01*
X12331015Y-11267436D02*
X12331015Y-11286484D01*
X12464348Y-11086484D02*
X12483396Y-11086484D01*
X12483396Y-11086484D02*
X12502444Y-11096008D01*
X12502444Y-11096008D02*
X12511967Y-11105531D01*
X12511967Y-11105531D02*
X12521491Y-11124579D01*
X12521491Y-11124579D02*
X12531015Y-11162674D01*
X12531015Y-11162674D02*
X12531015Y-11210293D01*
X12531015Y-11210293D02*
X12521491Y-11248388D01*
X12521491Y-11248388D02*
X12511967Y-11267436D01*
X12511967Y-11267436D02*
X12502444Y-11276960D01*
X12502444Y-11276960D02*
X12483396Y-11286484D01*
X12483396Y-11286484D02*
X12464348Y-11286484D01*
X12464348Y-11286484D02*
X12445301Y-11276960D01*
X12445301Y-11276960D02*
X12435777Y-11267436D01*
X12435777Y-11267436D02*
X12426253Y-11248388D01*
X12426253Y-11248388D02*
X12416729Y-11210293D01*
X12416729Y-11210293D02*
X12416729Y-11162674D01*
X12416729Y-11162674D02*
X12426253Y-11124579D01*
X12426253Y-11124579D02*
X12435777Y-11105531D01*
X12435777Y-11105531D02*
X12445301Y-11096008D01*
X12445301Y-11096008D02*
X12464348Y-11086484D01*
X12721491Y-11286484D02*
X12607206Y-11286484D01*
X12664348Y-11286484D02*
X12664348Y-11086484D01*
X12664348Y-11086484D02*
X12645301Y-11115055D01*
X12645301Y-11115055D02*
X12626253Y-11134103D01*
X12626253Y-11134103D02*
X12607206Y-11143627D01*
X12902444Y-11086484D02*
X12807206Y-11086484D01*
X12807206Y-11086484D02*
X12797682Y-11181722D01*
X12797682Y-11181722D02*
X12807206Y-11172198D01*
X12807206Y-11172198D02*
X12826253Y-11162674D01*
X12826253Y-11162674D02*
X12873872Y-11162674D01*
X12873872Y-11162674D02*
X12892920Y-11172198D01*
X12892920Y-11172198D02*
X12902444Y-11181722D01*
X12902444Y-11181722D02*
X12911967Y-11200769D01*
X12911967Y-11200769D02*
X12911967Y-11248388D01*
X12911967Y-11248388D02*
X12902444Y-11267436D01*
X12902444Y-11267436D02*
X12892920Y-11276960D01*
X12892920Y-11276960D02*
X12873872Y-11286484D01*
X12873872Y-11286484D02*
X12826253Y-11286484D01*
X12826253Y-11286484D02*
X12807206Y-11276960D01*
X12807206Y-11276960D02*
X12797682Y-11267436D01*
X12978634Y-11086484D02*
X13111967Y-11086484D01*
X13111967Y-11086484D02*
X13026253Y-11286484D01*
X13178634Y-11086484D02*
X13178634Y-11124579D01*
X13254825Y-11086484D02*
X13254825Y-11124579D01*
X13550063Y-11362674D02*
X13540539Y-11353150D01*
X13540539Y-11353150D02*
X13521491Y-11324579D01*
X13521491Y-11324579D02*
X13511968Y-11305531D01*
X13511968Y-11305531D02*
X13502444Y-11276960D01*
X13502444Y-11276960D02*
X13492920Y-11229341D01*
X13492920Y-11229341D02*
X13492920Y-11191246D01*
X13492920Y-11191246D02*
X13502444Y-11143627D01*
X13502444Y-11143627D02*
X13511968Y-11115055D01*
X13511968Y-11115055D02*
X13521491Y-11096008D01*
X13521491Y-11096008D02*
X13540539Y-11067436D01*
X13540539Y-11067436D02*
X13550063Y-11057912D01*
X13731015Y-11286484D02*
X13616729Y-11286484D01*
X13673872Y-11286484D02*
X13673872Y-11086484D01*
X13673872Y-11086484D02*
X13654825Y-11115055D01*
X13654825Y-11115055D02*
X13635777Y-11134103D01*
X13635777Y-11134103D02*
X13616729Y-11143627D01*
X13902444Y-11153150D02*
X13902444Y-11286484D01*
X13854825Y-11076960D02*
X13807206Y-11219817D01*
X13807206Y-11219817D02*
X13931015Y-11219817D01*
X14159587Y-11286484D02*
X14159587Y-11086484D01*
X14245301Y-11286484D02*
X14245301Y-11181722D01*
X14245301Y-11181722D02*
X14235777Y-11162674D01*
X14235777Y-11162674D02*
X14216730Y-11153150D01*
X14216730Y-11153150D02*
X14188158Y-11153150D01*
X14188158Y-11153150D02*
X14169110Y-11162674D01*
X14169110Y-11162674D02*
X14159587Y-11172198D01*
X14369110Y-11286484D02*
X14350063Y-11276960D01*
X14350063Y-11276960D02*
X14340539Y-11267436D01*
X14340539Y-11267436D02*
X14331015Y-11248388D01*
X14331015Y-11248388D02*
X14331015Y-11191246D01*
X14331015Y-11191246D02*
X14340539Y-11172198D01*
X14340539Y-11172198D02*
X14350063Y-11162674D01*
X14350063Y-11162674D02*
X14369110Y-11153150D01*
X14369110Y-11153150D02*
X14397682Y-11153150D01*
X14397682Y-11153150D02*
X14416730Y-11162674D01*
X14416730Y-11162674D02*
X14426253Y-11172198D01*
X14426253Y-11172198D02*
X14435777Y-11191246D01*
X14435777Y-11191246D02*
X14435777Y-11248388D01*
X14435777Y-11248388D02*
X14426253Y-11267436D01*
X14426253Y-11267436D02*
X14416730Y-11276960D01*
X14416730Y-11276960D02*
X14397682Y-11286484D01*
X14397682Y-11286484D02*
X14369110Y-11286484D01*
X14550063Y-11286484D02*
X14531015Y-11276960D01*
X14531015Y-11276960D02*
X14521491Y-11257912D01*
X14521491Y-11257912D02*
X14521491Y-11086484D01*
X14702444Y-11276960D02*
X14683396Y-11286484D01*
X14683396Y-11286484D02*
X14645301Y-11286484D01*
X14645301Y-11286484D02*
X14626253Y-11276960D01*
X14626253Y-11276960D02*
X14616730Y-11257912D01*
X14616730Y-11257912D02*
X14616730Y-11181722D01*
X14616730Y-11181722D02*
X14626253Y-11162674D01*
X14626253Y-11162674D02*
X14645301Y-11153150D01*
X14645301Y-11153150D02*
X14683396Y-11153150D01*
X14683396Y-11153150D02*
X14702444Y-11162674D01*
X14702444Y-11162674D02*
X14711968Y-11181722D01*
X14711968Y-11181722D02*
X14711968Y-11200769D01*
X14711968Y-11200769D02*
X14616730Y-11219817D01*
X14788158Y-11276960D02*
X14807206Y-11286484D01*
X14807206Y-11286484D02*
X14845301Y-11286484D01*
X14845301Y-11286484D02*
X14864349Y-11276960D01*
X14864349Y-11276960D02*
X14873872Y-11257912D01*
X14873872Y-11257912D02*
X14873872Y-11248388D01*
X14873872Y-11248388D02*
X14864349Y-11229341D01*
X14864349Y-11229341D02*
X14845301Y-11219817D01*
X14845301Y-11219817D02*
X14816730Y-11219817D01*
X14816730Y-11219817D02*
X14797682Y-11210293D01*
X14797682Y-11210293D02*
X14788158Y-11191246D01*
X14788158Y-11191246D02*
X14788158Y-11181722D01*
X14788158Y-11181722D02*
X14797682Y-11162674D01*
X14797682Y-11162674D02*
X14816730Y-11153150D01*
X14816730Y-11153150D02*
X14845301Y-11153150D01*
X14845301Y-11153150D02*
X14864349Y-11162674D01*
X14940539Y-11362674D02*
X14950063Y-11353150D01*
X14950063Y-11353150D02*
X14969111Y-11324579D01*
X14969111Y-11324579D02*
X14978634Y-11305531D01*
X14978634Y-11305531D02*
X14988158Y-11276960D01*
X14988158Y-11276960D02*
X14997682Y-11229341D01*
X14997682Y-11229341D02*
X14997682Y-11191246D01*
X14997682Y-11191246D02*
X14988158Y-11143627D01*
X14988158Y-11143627D02*
X14978634Y-11115055D01*
X14978634Y-11115055D02*
X14969111Y-11096008D01*
X14969111Y-11096008D02*
X14950063Y-11067436D01*
X14950063Y-11067436D02*
X14940539Y-11057912D01*
D10*
X9975000Y-11459000D02*
G75*
G02*
X9895000Y-11459000I-40000J0D01*
G01*
X9895000Y-11459000D02*
G75*
G02*
X9975000Y-11459000I40000J0D01*
G01*
D11*
X10273872Y-11350484D02*
X10292920Y-11350484D01*
X10292920Y-11350484D02*
X10311967Y-11360008D01*
X10311967Y-11360008D02*
X10321491Y-11369531D01*
X10321491Y-11369531D02*
X10331015Y-11388579D01*
X10331015Y-11388579D02*
X10340539Y-11426674D01*
X10340539Y-11426674D02*
X10340539Y-11474293D01*
X10340539Y-11474293D02*
X10331015Y-11512388D01*
X10331015Y-11512388D02*
X10321491Y-11531436D01*
X10321491Y-11531436D02*
X10311967Y-11540960D01*
X10311967Y-11540960D02*
X10292920Y-11550484D01*
X10292920Y-11550484D02*
X10273872Y-11550484D01*
X10273872Y-11550484D02*
X10254824Y-11540960D01*
X10254824Y-11540960D02*
X10245301Y-11531436D01*
X10245301Y-11531436D02*
X10235777Y-11512388D01*
X10235777Y-11512388D02*
X10226253Y-11474293D01*
X10226253Y-11474293D02*
X10226253Y-11426674D01*
X10226253Y-11426674D02*
X10235777Y-11388579D01*
X10235777Y-11388579D02*
X10245301Y-11369531D01*
X10245301Y-11369531D02*
X10254824Y-11360008D01*
X10254824Y-11360008D02*
X10273872Y-11350484D01*
X10426253Y-11531436D02*
X10435777Y-11540960D01*
X10435777Y-11540960D02*
X10426253Y-11550484D01*
X10426253Y-11550484D02*
X10416729Y-11540960D01*
X10416729Y-11540960D02*
X10426253Y-11531436D01*
X10426253Y-11531436D02*
X10426253Y-11550484D01*
X10550063Y-11436198D02*
X10531015Y-11426674D01*
X10531015Y-11426674D02*
X10521491Y-11417150D01*
X10521491Y-11417150D02*
X10511967Y-11398103D01*
X10511967Y-11398103D02*
X10511967Y-11388579D01*
X10511967Y-11388579D02*
X10521491Y-11369531D01*
X10521491Y-11369531D02*
X10531015Y-11360008D01*
X10531015Y-11360008D02*
X10550063Y-11350484D01*
X10550063Y-11350484D02*
X10588158Y-11350484D01*
X10588158Y-11350484D02*
X10607205Y-11360008D01*
X10607205Y-11360008D02*
X10616729Y-11369531D01*
X10616729Y-11369531D02*
X10626253Y-11388579D01*
X10626253Y-11388579D02*
X10626253Y-11398103D01*
X10626253Y-11398103D02*
X10616729Y-11417150D01*
X10616729Y-11417150D02*
X10607205Y-11426674D01*
X10607205Y-11426674D02*
X10588158Y-11436198D01*
X10588158Y-11436198D02*
X10550063Y-11436198D01*
X10550063Y-11436198D02*
X10531015Y-11445722D01*
X10531015Y-11445722D02*
X10521491Y-11455246D01*
X10521491Y-11455246D02*
X10511967Y-11474293D01*
X10511967Y-11474293D02*
X10511967Y-11512388D01*
X10511967Y-11512388D02*
X10521491Y-11531436D01*
X10521491Y-11531436D02*
X10531015Y-11540960D01*
X10531015Y-11540960D02*
X10550063Y-11550484D01*
X10550063Y-11550484D02*
X10588158Y-11550484D01*
X10588158Y-11550484D02*
X10607205Y-11540960D01*
X10607205Y-11540960D02*
X10616729Y-11531436D01*
X10616729Y-11531436D02*
X10626253Y-11512388D01*
X10626253Y-11512388D02*
X10626253Y-11474293D01*
X10626253Y-11474293D02*
X10616729Y-11455246D01*
X10616729Y-11455246D02*
X10607205Y-11445722D01*
X10607205Y-11445722D02*
X10588158Y-11436198D01*
X10750063Y-11350484D02*
X10769110Y-11350484D01*
X10769110Y-11350484D02*
X10788158Y-11360008D01*
X10788158Y-11360008D02*
X10797682Y-11369531D01*
X10797682Y-11369531D02*
X10807205Y-11388579D01*
X10807205Y-11388579D02*
X10816729Y-11426674D01*
X10816729Y-11426674D02*
X10816729Y-11474293D01*
X10816729Y-11474293D02*
X10807205Y-11512388D01*
X10807205Y-11512388D02*
X10797682Y-11531436D01*
X10797682Y-11531436D02*
X10788158Y-11540960D01*
X10788158Y-11540960D02*
X10769110Y-11550484D01*
X10769110Y-11550484D02*
X10750063Y-11550484D01*
X10750063Y-11550484D02*
X10731015Y-11540960D01*
X10731015Y-11540960D02*
X10721491Y-11531436D01*
X10721491Y-11531436D02*
X10711967Y-11512388D01*
X10711967Y-11512388D02*
X10702444Y-11474293D01*
X10702444Y-11474293D02*
X10702444Y-11426674D01*
X10702444Y-11426674D02*
X10711967Y-11388579D01*
X10711967Y-11388579D02*
X10721491Y-11369531D01*
X10721491Y-11369531D02*
X10731015Y-11360008D01*
X10731015Y-11360008D02*
X10750063Y-11350484D01*
X10940539Y-11350484D02*
X10959586Y-11350484D01*
X10959586Y-11350484D02*
X10978634Y-11360008D01*
X10978634Y-11360008D02*
X10988158Y-11369531D01*
X10988158Y-11369531D02*
X10997682Y-11388579D01*
X10997682Y-11388579D02*
X11007205Y-11426674D01*
X11007205Y-11426674D02*
X11007205Y-11474293D01*
X11007205Y-11474293D02*
X10997682Y-11512388D01*
X10997682Y-11512388D02*
X10988158Y-11531436D01*
X10988158Y-11531436D02*
X10978634Y-11540960D01*
X10978634Y-11540960D02*
X10959586Y-11550484D01*
X10959586Y-11550484D02*
X10940539Y-11550484D01*
X10940539Y-11550484D02*
X10921491Y-11540960D01*
X10921491Y-11540960D02*
X10911967Y-11531436D01*
X10911967Y-11531436D02*
X10902444Y-11512388D01*
X10902444Y-11512388D02*
X10892920Y-11474293D01*
X10892920Y-11474293D02*
X10892920Y-11426674D01*
X10892920Y-11426674D02*
X10902444Y-11388579D01*
X10902444Y-11388579D02*
X10911967Y-11369531D01*
X10911967Y-11369531D02*
X10921491Y-11360008D01*
X10921491Y-11360008D02*
X10940539Y-11350484D01*
X11092920Y-11550484D02*
X11092920Y-11417150D01*
X11092920Y-11436198D02*
X11102444Y-11426674D01*
X11102444Y-11426674D02*
X11121491Y-11417150D01*
X11121491Y-11417150D02*
X11150063Y-11417150D01*
X11150063Y-11417150D02*
X11169110Y-11426674D01*
X11169110Y-11426674D02*
X11178634Y-11445722D01*
X11178634Y-11445722D02*
X11178634Y-11550484D01*
X11178634Y-11445722D02*
X11188158Y-11426674D01*
X11188158Y-11426674D02*
X11207205Y-11417150D01*
X11207205Y-11417150D02*
X11235777Y-11417150D01*
X11235777Y-11417150D02*
X11254824Y-11426674D01*
X11254824Y-11426674D02*
X11264348Y-11445722D01*
X11264348Y-11445722D02*
X11264348Y-11550484D01*
X11359586Y-11550484D02*
X11359586Y-11417150D01*
X11359586Y-11436198D02*
X11369110Y-11426674D01*
X11369110Y-11426674D02*
X11388158Y-11417150D01*
X11388158Y-11417150D02*
X11416729Y-11417150D01*
X11416729Y-11417150D02*
X11435777Y-11426674D01*
X11435777Y-11426674D02*
X11445301Y-11445722D01*
X11445301Y-11445722D02*
X11445301Y-11550484D01*
X11445301Y-11445722D02*
X11454824Y-11426674D01*
X11454824Y-11426674D02*
X11473872Y-11417150D01*
X11473872Y-11417150D02*
X11502443Y-11417150D01*
X11502443Y-11417150D02*
X11521491Y-11426674D01*
X11521491Y-11426674D02*
X11531015Y-11445722D01*
X11531015Y-11445722D02*
X11531015Y-11550484D01*
X11921491Y-11340960D02*
X11750063Y-11598103D01*
X12178634Y-11350484D02*
X12197682Y-11350484D01*
X12197682Y-11350484D02*
X12216729Y-11360008D01*
X12216729Y-11360008D02*
X12226253Y-11369531D01*
X12226253Y-11369531D02*
X12235777Y-11388579D01*
X12235777Y-11388579D02*
X12245301Y-11426674D01*
X12245301Y-11426674D02*
X12245301Y-11474293D01*
X12245301Y-11474293D02*
X12235777Y-11512388D01*
X12235777Y-11512388D02*
X12226253Y-11531436D01*
X12226253Y-11531436D02*
X12216729Y-11540960D01*
X12216729Y-11540960D02*
X12197682Y-11550484D01*
X12197682Y-11550484D02*
X12178634Y-11550484D01*
X12178634Y-11550484D02*
X12159586Y-11540960D01*
X12159586Y-11540960D02*
X12150063Y-11531436D01*
X12150063Y-11531436D02*
X12140539Y-11512388D01*
X12140539Y-11512388D02*
X12131015Y-11474293D01*
X12131015Y-11474293D02*
X12131015Y-11426674D01*
X12131015Y-11426674D02*
X12140539Y-11388579D01*
X12140539Y-11388579D02*
X12150063Y-11369531D01*
X12150063Y-11369531D02*
X12159586Y-11360008D01*
X12159586Y-11360008D02*
X12178634Y-11350484D01*
X12331015Y-11531436D02*
X12340539Y-11540960D01*
X12340539Y-11540960D02*
X12331015Y-11550484D01*
X12331015Y-11550484D02*
X12321491Y-11540960D01*
X12321491Y-11540960D02*
X12331015Y-11531436D01*
X12331015Y-11531436D02*
X12331015Y-11550484D01*
X12464348Y-11350484D02*
X12483396Y-11350484D01*
X12483396Y-11350484D02*
X12502444Y-11360008D01*
X12502444Y-11360008D02*
X12511967Y-11369531D01*
X12511967Y-11369531D02*
X12521491Y-11388579D01*
X12521491Y-11388579D02*
X12531015Y-11426674D01*
X12531015Y-11426674D02*
X12531015Y-11474293D01*
X12531015Y-11474293D02*
X12521491Y-11512388D01*
X12521491Y-11512388D02*
X12511967Y-11531436D01*
X12511967Y-11531436D02*
X12502444Y-11540960D01*
X12502444Y-11540960D02*
X12483396Y-11550484D01*
X12483396Y-11550484D02*
X12464348Y-11550484D01*
X12464348Y-11550484D02*
X12445301Y-11540960D01*
X12445301Y-11540960D02*
X12435777Y-11531436D01*
X12435777Y-11531436D02*
X12426253Y-11512388D01*
X12426253Y-11512388D02*
X12416729Y-11474293D01*
X12416729Y-11474293D02*
X12416729Y-11426674D01*
X12416729Y-11426674D02*
X12426253Y-11388579D01*
X12426253Y-11388579D02*
X12435777Y-11369531D01*
X12435777Y-11369531D02*
X12445301Y-11360008D01*
X12445301Y-11360008D02*
X12464348Y-11350484D01*
X12597682Y-11350484D02*
X12721491Y-11350484D01*
X12721491Y-11350484D02*
X12654825Y-11426674D01*
X12654825Y-11426674D02*
X12683396Y-11426674D01*
X12683396Y-11426674D02*
X12702444Y-11436198D01*
X12702444Y-11436198D02*
X12711967Y-11445722D01*
X12711967Y-11445722D02*
X12721491Y-11464769D01*
X12721491Y-11464769D02*
X12721491Y-11512388D01*
X12721491Y-11512388D02*
X12711967Y-11531436D01*
X12711967Y-11531436D02*
X12702444Y-11540960D01*
X12702444Y-11540960D02*
X12683396Y-11550484D01*
X12683396Y-11550484D02*
X12626253Y-11550484D01*
X12626253Y-11550484D02*
X12607206Y-11540960D01*
X12607206Y-11540960D02*
X12597682Y-11531436D01*
X12911967Y-11550484D02*
X12797682Y-11550484D01*
X12854825Y-11550484D02*
X12854825Y-11350484D01*
X12854825Y-11350484D02*
X12835777Y-11379055D01*
X12835777Y-11379055D02*
X12816729Y-11398103D01*
X12816729Y-11398103D02*
X12797682Y-11407627D01*
X13092920Y-11350484D02*
X12997682Y-11350484D01*
X12997682Y-11350484D02*
X12988158Y-11445722D01*
X12988158Y-11445722D02*
X12997682Y-11436198D01*
X12997682Y-11436198D02*
X13016729Y-11426674D01*
X13016729Y-11426674D02*
X13064348Y-11426674D01*
X13064348Y-11426674D02*
X13083396Y-11436198D01*
X13083396Y-11436198D02*
X13092920Y-11445722D01*
X13092920Y-11445722D02*
X13102444Y-11464769D01*
X13102444Y-11464769D02*
X13102444Y-11512388D01*
X13102444Y-11512388D02*
X13092920Y-11531436D01*
X13092920Y-11531436D02*
X13083396Y-11540960D01*
X13083396Y-11540960D02*
X13064348Y-11550484D01*
X13064348Y-11550484D02*
X13016729Y-11550484D01*
X13016729Y-11550484D02*
X12997682Y-11540960D01*
X12997682Y-11540960D02*
X12988158Y-11531436D01*
X13178634Y-11350484D02*
X13178634Y-11388579D01*
X13254825Y-11350484D02*
X13254825Y-11388579D01*
X13550063Y-11626674D02*
X13540539Y-11617150D01*
X13540539Y-11617150D02*
X13521491Y-11588579D01*
X13521491Y-11588579D02*
X13511968Y-11569531D01*
X13511968Y-11569531D02*
X13502444Y-11540960D01*
X13502444Y-11540960D02*
X13492920Y-11493341D01*
X13492920Y-11493341D02*
X13492920Y-11455246D01*
X13492920Y-11455246D02*
X13502444Y-11407627D01*
X13502444Y-11407627D02*
X13511968Y-11379055D01*
X13511968Y-11379055D02*
X13521491Y-11360008D01*
X13521491Y-11360008D02*
X13540539Y-11331436D01*
X13540539Y-11331436D02*
X13550063Y-11321912D01*
X13721491Y-11350484D02*
X13626253Y-11350484D01*
X13626253Y-11350484D02*
X13616729Y-11445722D01*
X13616729Y-11445722D02*
X13626253Y-11436198D01*
X13626253Y-11436198D02*
X13645301Y-11426674D01*
X13645301Y-11426674D02*
X13692920Y-11426674D01*
X13692920Y-11426674D02*
X13711968Y-11436198D01*
X13711968Y-11436198D02*
X13721491Y-11445722D01*
X13721491Y-11445722D02*
X13731015Y-11464769D01*
X13731015Y-11464769D02*
X13731015Y-11512388D01*
X13731015Y-11512388D02*
X13721491Y-11531436D01*
X13721491Y-11531436D02*
X13711968Y-11540960D01*
X13711968Y-11540960D02*
X13692920Y-11550484D01*
X13692920Y-11550484D02*
X13645301Y-11550484D01*
X13645301Y-11550484D02*
X13626253Y-11540960D01*
X13626253Y-11540960D02*
X13616729Y-11531436D01*
X13807206Y-11369531D02*
X13816729Y-11360008D01*
X13816729Y-11360008D02*
X13835777Y-11350484D01*
X13835777Y-11350484D02*
X13883396Y-11350484D01*
X13883396Y-11350484D02*
X13902444Y-11360008D01*
X13902444Y-11360008D02*
X13911968Y-11369531D01*
X13911968Y-11369531D02*
X13921491Y-11388579D01*
X13921491Y-11388579D02*
X13921491Y-11407627D01*
X13921491Y-11407627D02*
X13911968Y-11436198D01*
X13911968Y-11436198D02*
X13797682Y-11550484D01*
X13797682Y-11550484D02*
X13921491Y-11550484D01*
X14159587Y-11550484D02*
X14159587Y-11350484D01*
X14245301Y-11550484D02*
X14245301Y-11445722D01*
X14245301Y-11445722D02*
X14235777Y-11426674D01*
X14235777Y-11426674D02*
X14216730Y-11417150D01*
X14216730Y-11417150D02*
X14188158Y-11417150D01*
X14188158Y-11417150D02*
X14169110Y-11426674D01*
X14169110Y-11426674D02*
X14159587Y-11436198D01*
X14369110Y-11550484D02*
X14350063Y-11540960D01*
X14350063Y-11540960D02*
X14340539Y-11531436D01*
X14340539Y-11531436D02*
X14331015Y-11512388D01*
X14331015Y-11512388D02*
X14331015Y-11455246D01*
X14331015Y-11455246D02*
X14340539Y-11436198D01*
X14340539Y-11436198D02*
X14350063Y-11426674D01*
X14350063Y-11426674D02*
X14369110Y-11417150D01*
X14369110Y-11417150D02*
X14397682Y-11417150D01*
X14397682Y-11417150D02*
X14416730Y-11426674D01*
X14416730Y-11426674D02*
X14426253Y-11436198D01*
X14426253Y-11436198D02*
X14435777Y-11455246D01*
X14435777Y-11455246D02*
X14435777Y-11512388D01*
X14435777Y-11512388D02*
X14426253Y-11531436D01*
X14426253Y-11531436D02*
X14416730Y-11540960D01*
X14416730Y-11540960D02*
X14397682Y-11550484D01*
X14397682Y-11550484D02*
X14369110Y-11550484D01*
X14550063Y-11550484D02*
X14531015Y-11540960D01*
X14531015Y-11540960D02*
X14521491Y-11521912D01*
X14521491Y-11521912D02*
X14521491Y-11350484D01*
X14702444Y-11540960D02*
X14683396Y-11550484D01*
X14683396Y-11550484D02*
X14645301Y-11550484D01*
X14645301Y-11550484D02*
X14626253Y-11540960D01*
X14626253Y-11540960D02*
X14616730Y-11521912D01*
X14616730Y-11521912D02*
X14616730Y-11445722D01*
X14616730Y-11445722D02*
X14626253Y-11426674D01*
X14626253Y-11426674D02*
X14645301Y-11417150D01*
X14645301Y-11417150D02*
X14683396Y-11417150D01*
X14683396Y-11417150D02*
X14702444Y-11426674D01*
X14702444Y-11426674D02*
X14711968Y-11445722D01*
X14711968Y-11445722D02*
X14711968Y-11464769D01*
X14711968Y-11464769D02*
X14616730Y-11483817D01*
X14788158Y-11540960D02*
X14807206Y-11550484D01*
X14807206Y-11550484D02*
X14845301Y-11550484D01*
X14845301Y-11550484D02*
X14864349Y-11540960D01*
X14864349Y-11540960D02*
X14873872Y-11521912D01*
X14873872Y-11521912D02*
X14873872Y-11512388D01*
X14873872Y-11512388D02*
X14864349Y-11493341D01*
X14864349Y-11493341D02*
X14845301Y-11483817D01*
X14845301Y-11483817D02*
X14816730Y-11483817D01*
X14816730Y-11483817D02*
X14797682Y-11474293D01*
X14797682Y-11474293D02*
X14788158Y-11455246D01*
X14788158Y-11455246D02*
X14788158Y-11445722D01*
X14788158Y-11445722D02*
X14797682Y-11426674D01*
X14797682Y-11426674D02*
X14816730Y-11417150D01*
X14816730Y-11417150D02*
X14845301Y-11417150D01*
X14845301Y-11417150D02*
X14864349Y-11426674D01*
X14940539Y-11626674D02*
X14950063Y-11617150D01*
X14950063Y-11617150D02*
X14969111Y-11588579D01*
X14969111Y-11588579D02*
X14978634Y-11569531D01*
X14978634Y-11569531D02*
X14988158Y-11540960D01*
X14988158Y-11540960D02*
X14997682Y-11493341D01*
X14997682Y-11493341D02*
X14997682Y-11455246D01*
X14997682Y-11455246D02*
X14988158Y-11407627D01*
X14988158Y-11407627D02*
X14978634Y-11379055D01*
X14978634Y-11379055D02*
X14969111Y-11360008D01*
X14969111Y-11360008D02*
X14950063Y-11331436D01*
X14950063Y-11331436D02*
X14940539Y-11321912D01*
D10*
X9929000Y-11677000D02*
X9929000Y-11769000D01*
X9883000Y-11723000D02*
X9975000Y-11723000D01*
D11*
X10273872Y-11614484D02*
X10292920Y-11614484D01*
X10292920Y-11614484D02*
X10311967Y-11624008D01*
X10311967Y-11624008D02*
X10321491Y-11633531D01*
X10321491Y-11633531D02*
X10331015Y-11652579D01*
X10331015Y-11652579D02*
X10340539Y-11690674D01*
X10340539Y-11690674D02*
X10340539Y-11738293D01*
X10340539Y-11738293D02*
X10331015Y-11776388D01*
X10331015Y-11776388D02*
X10321491Y-11795436D01*
X10321491Y-11795436D02*
X10311967Y-11804960D01*
X10311967Y-11804960D02*
X10292920Y-11814484D01*
X10292920Y-11814484D02*
X10273872Y-11814484D01*
X10273872Y-11814484D02*
X10254824Y-11804960D01*
X10254824Y-11804960D02*
X10245301Y-11795436D01*
X10245301Y-11795436D02*
X10235777Y-11776388D01*
X10235777Y-11776388D02*
X10226253Y-11738293D01*
X10226253Y-11738293D02*
X10226253Y-11690674D01*
X10226253Y-11690674D02*
X10235777Y-11652579D01*
X10235777Y-11652579D02*
X10245301Y-11633531D01*
X10245301Y-11633531D02*
X10254824Y-11624008D01*
X10254824Y-11624008D02*
X10273872Y-11614484D01*
X10426253Y-11795436D02*
X10435777Y-11804960D01*
X10435777Y-11804960D02*
X10426253Y-11814484D01*
X10426253Y-11814484D02*
X10416729Y-11804960D01*
X10416729Y-11804960D02*
X10426253Y-11795436D01*
X10426253Y-11795436D02*
X10426253Y-11814484D01*
X10531015Y-11814484D02*
X10569110Y-11814484D01*
X10569110Y-11814484D02*
X10588158Y-11804960D01*
X10588158Y-11804960D02*
X10597682Y-11795436D01*
X10597682Y-11795436D02*
X10616729Y-11766865D01*
X10616729Y-11766865D02*
X10626253Y-11728769D01*
X10626253Y-11728769D02*
X10626253Y-11652579D01*
X10626253Y-11652579D02*
X10616729Y-11633531D01*
X10616729Y-11633531D02*
X10607205Y-11624008D01*
X10607205Y-11624008D02*
X10588158Y-11614484D01*
X10588158Y-11614484D02*
X10550063Y-11614484D01*
X10550063Y-11614484D02*
X10531015Y-11624008D01*
X10531015Y-11624008D02*
X10521491Y-11633531D01*
X10521491Y-11633531D02*
X10511967Y-11652579D01*
X10511967Y-11652579D02*
X10511967Y-11700198D01*
X10511967Y-11700198D02*
X10521491Y-11719246D01*
X10521491Y-11719246D02*
X10531015Y-11728769D01*
X10531015Y-11728769D02*
X10550063Y-11738293D01*
X10550063Y-11738293D02*
X10588158Y-11738293D01*
X10588158Y-11738293D02*
X10607205Y-11728769D01*
X10607205Y-11728769D02*
X10616729Y-11719246D01*
X10616729Y-11719246D02*
X10626253Y-11700198D01*
X10702444Y-11633531D02*
X10711967Y-11624008D01*
X10711967Y-11624008D02*
X10731015Y-11614484D01*
X10731015Y-11614484D02*
X10778634Y-11614484D01*
X10778634Y-11614484D02*
X10797682Y-11624008D01*
X10797682Y-11624008D02*
X10807205Y-11633531D01*
X10807205Y-11633531D02*
X10816729Y-11652579D01*
X10816729Y-11652579D02*
X10816729Y-11671627D01*
X10816729Y-11671627D02*
X10807205Y-11700198D01*
X10807205Y-11700198D02*
X10692920Y-11814484D01*
X10692920Y-11814484D02*
X10816729Y-11814484D01*
X10940539Y-11614484D02*
X10959586Y-11614484D01*
X10959586Y-11614484D02*
X10978634Y-11624008D01*
X10978634Y-11624008D02*
X10988158Y-11633531D01*
X10988158Y-11633531D02*
X10997682Y-11652579D01*
X10997682Y-11652579D02*
X11007205Y-11690674D01*
X11007205Y-11690674D02*
X11007205Y-11738293D01*
X11007205Y-11738293D02*
X10997682Y-11776388D01*
X10997682Y-11776388D02*
X10988158Y-11795436D01*
X10988158Y-11795436D02*
X10978634Y-11804960D01*
X10978634Y-11804960D02*
X10959586Y-11814484D01*
X10959586Y-11814484D02*
X10940539Y-11814484D01*
X10940539Y-11814484D02*
X10921491Y-11804960D01*
X10921491Y-11804960D02*
X10911967Y-11795436D01*
X10911967Y-11795436D02*
X10902444Y-11776388D01*
X10902444Y-11776388D02*
X10892920Y-11738293D01*
X10892920Y-11738293D02*
X10892920Y-11690674D01*
X10892920Y-11690674D02*
X10902444Y-11652579D01*
X10902444Y-11652579D02*
X10911967Y-11633531D01*
X10911967Y-11633531D02*
X10921491Y-11624008D01*
X10921491Y-11624008D02*
X10940539Y-11614484D01*
X11092920Y-11814484D02*
X11092920Y-11681150D01*
X11092920Y-11700198D02*
X11102444Y-11690674D01*
X11102444Y-11690674D02*
X11121491Y-11681150D01*
X11121491Y-11681150D02*
X11150063Y-11681150D01*
X11150063Y-11681150D02*
X11169110Y-11690674D01*
X11169110Y-11690674D02*
X11178634Y-11709722D01*
X11178634Y-11709722D02*
X11178634Y-11814484D01*
X11178634Y-11709722D02*
X11188158Y-11690674D01*
X11188158Y-11690674D02*
X11207205Y-11681150D01*
X11207205Y-11681150D02*
X11235777Y-11681150D01*
X11235777Y-11681150D02*
X11254824Y-11690674D01*
X11254824Y-11690674D02*
X11264348Y-11709722D01*
X11264348Y-11709722D02*
X11264348Y-11814484D01*
X11359586Y-11814484D02*
X11359586Y-11681150D01*
X11359586Y-11700198D02*
X11369110Y-11690674D01*
X11369110Y-11690674D02*
X11388158Y-11681150D01*
X11388158Y-11681150D02*
X11416729Y-11681150D01*
X11416729Y-11681150D02*
X11435777Y-11690674D01*
X11435777Y-11690674D02*
X11445301Y-11709722D01*
X11445301Y-11709722D02*
X11445301Y-11814484D01*
X11445301Y-11709722D02*
X11454824Y-11690674D01*
X11454824Y-11690674D02*
X11473872Y-11681150D01*
X11473872Y-11681150D02*
X11502443Y-11681150D01*
X11502443Y-11681150D02*
X11521491Y-11690674D01*
X11521491Y-11690674D02*
X11531015Y-11709722D01*
X11531015Y-11709722D02*
X11531015Y-11814484D01*
X11921491Y-11604960D02*
X11750063Y-11862103D01*
X12178634Y-11614484D02*
X12197682Y-11614484D01*
X12197682Y-11614484D02*
X12216729Y-11624008D01*
X12216729Y-11624008D02*
X12226253Y-11633531D01*
X12226253Y-11633531D02*
X12235777Y-11652579D01*
X12235777Y-11652579D02*
X12245301Y-11690674D01*
X12245301Y-11690674D02*
X12245301Y-11738293D01*
X12245301Y-11738293D02*
X12235777Y-11776388D01*
X12235777Y-11776388D02*
X12226253Y-11795436D01*
X12226253Y-11795436D02*
X12216729Y-11804960D01*
X12216729Y-11804960D02*
X12197682Y-11814484D01*
X12197682Y-11814484D02*
X12178634Y-11814484D01*
X12178634Y-11814484D02*
X12159586Y-11804960D01*
X12159586Y-11804960D02*
X12150063Y-11795436D01*
X12150063Y-11795436D02*
X12140539Y-11776388D01*
X12140539Y-11776388D02*
X12131015Y-11738293D01*
X12131015Y-11738293D02*
X12131015Y-11690674D01*
X12131015Y-11690674D02*
X12140539Y-11652579D01*
X12140539Y-11652579D02*
X12150063Y-11633531D01*
X12150063Y-11633531D02*
X12159586Y-11624008D01*
X12159586Y-11624008D02*
X12178634Y-11614484D01*
X12331015Y-11795436D02*
X12340539Y-11804960D01*
X12340539Y-11804960D02*
X12331015Y-11814484D01*
X12331015Y-11814484D02*
X12321491Y-11804960D01*
X12321491Y-11804960D02*
X12331015Y-11795436D01*
X12331015Y-11795436D02*
X12331015Y-11814484D01*
X12464348Y-11614484D02*
X12483396Y-11614484D01*
X12483396Y-11614484D02*
X12502444Y-11624008D01*
X12502444Y-11624008D02*
X12511967Y-11633531D01*
X12511967Y-11633531D02*
X12521491Y-11652579D01*
X12521491Y-11652579D02*
X12531015Y-11690674D01*
X12531015Y-11690674D02*
X12531015Y-11738293D01*
X12531015Y-11738293D02*
X12521491Y-11776388D01*
X12521491Y-11776388D02*
X12511967Y-11795436D01*
X12511967Y-11795436D02*
X12502444Y-11804960D01*
X12502444Y-11804960D02*
X12483396Y-11814484D01*
X12483396Y-11814484D02*
X12464348Y-11814484D01*
X12464348Y-11814484D02*
X12445301Y-11804960D01*
X12445301Y-11804960D02*
X12435777Y-11795436D01*
X12435777Y-11795436D02*
X12426253Y-11776388D01*
X12426253Y-11776388D02*
X12416729Y-11738293D01*
X12416729Y-11738293D02*
X12416729Y-11690674D01*
X12416729Y-11690674D02*
X12426253Y-11652579D01*
X12426253Y-11652579D02*
X12435777Y-11633531D01*
X12435777Y-11633531D02*
X12445301Y-11624008D01*
X12445301Y-11624008D02*
X12464348Y-11614484D01*
X12597682Y-11614484D02*
X12721491Y-11614484D01*
X12721491Y-11614484D02*
X12654825Y-11690674D01*
X12654825Y-11690674D02*
X12683396Y-11690674D01*
X12683396Y-11690674D02*
X12702444Y-11700198D01*
X12702444Y-11700198D02*
X12711967Y-11709722D01*
X12711967Y-11709722D02*
X12721491Y-11728769D01*
X12721491Y-11728769D02*
X12721491Y-11776388D01*
X12721491Y-11776388D02*
X12711967Y-11795436D01*
X12711967Y-11795436D02*
X12702444Y-11804960D01*
X12702444Y-11804960D02*
X12683396Y-11814484D01*
X12683396Y-11814484D02*
X12626253Y-11814484D01*
X12626253Y-11814484D02*
X12607206Y-11804960D01*
X12607206Y-11804960D02*
X12597682Y-11795436D01*
X12892920Y-11614484D02*
X12854825Y-11614484D01*
X12854825Y-11614484D02*
X12835777Y-11624008D01*
X12835777Y-11624008D02*
X12826253Y-11633531D01*
X12826253Y-11633531D02*
X12807206Y-11662103D01*
X12807206Y-11662103D02*
X12797682Y-11700198D01*
X12797682Y-11700198D02*
X12797682Y-11776388D01*
X12797682Y-11776388D02*
X12807206Y-11795436D01*
X12807206Y-11795436D02*
X12816729Y-11804960D01*
X12816729Y-11804960D02*
X12835777Y-11814484D01*
X12835777Y-11814484D02*
X12873872Y-11814484D01*
X12873872Y-11814484D02*
X12892920Y-11804960D01*
X12892920Y-11804960D02*
X12902444Y-11795436D01*
X12902444Y-11795436D02*
X12911967Y-11776388D01*
X12911967Y-11776388D02*
X12911967Y-11728769D01*
X12911967Y-11728769D02*
X12902444Y-11709722D01*
X12902444Y-11709722D02*
X12892920Y-11700198D01*
X12892920Y-11700198D02*
X12873872Y-11690674D01*
X12873872Y-11690674D02*
X12835777Y-11690674D01*
X12835777Y-11690674D02*
X12816729Y-11700198D01*
X12816729Y-11700198D02*
X12807206Y-11709722D01*
X12807206Y-11709722D02*
X12797682Y-11728769D01*
X12988158Y-11633531D02*
X12997682Y-11624008D01*
X12997682Y-11624008D02*
X13016729Y-11614484D01*
X13016729Y-11614484D02*
X13064348Y-11614484D01*
X13064348Y-11614484D02*
X13083396Y-11624008D01*
X13083396Y-11624008D02*
X13092920Y-11633531D01*
X13092920Y-11633531D02*
X13102444Y-11652579D01*
X13102444Y-11652579D02*
X13102444Y-11671627D01*
X13102444Y-11671627D02*
X13092920Y-11700198D01*
X13092920Y-11700198D02*
X12978634Y-11814484D01*
X12978634Y-11814484D02*
X13102444Y-11814484D01*
X13178634Y-11614484D02*
X13178634Y-11652579D01*
X13254825Y-11614484D02*
X13254825Y-11652579D01*
X13550063Y-11890674D02*
X13540539Y-11881150D01*
X13540539Y-11881150D02*
X13521491Y-11852579D01*
X13521491Y-11852579D02*
X13511968Y-11833531D01*
X13511968Y-11833531D02*
X13502444Y-11804960D01*
X13502444Y-11804960D02*
X13492920Y-11757341D01*
X13492920Y-11757341D02*
X13492920Y-11719246D01*
X13492920Y-11719246D02*
X13502444Y-11671627D01*
X13502444Y-11671627D02*
X13511968Y-11643055D01*
X13511968Y-11643055D02*
X13521491Y-11624008D01*
X13521491Y-11624008D02*
X13540539Y-11595436D01*
X13540539Y-11595436D02*
X13550063Y-11585912D01*
X13616729Y-11633531D02*
X13626253Y-11624008D01*
X13626253Y-11624008D02*
X13645301Y-11614484D01*
X13645301Y-11614484D02*
X13692920Y-11614484D01*
X13692920Y-11614484D02*
X13711968Y-11624008D01*
X13711968Y-11624008D02*
X13721491Y-11633531D01*
X13721491Y-11633531D02*
X13731015Y-11652579D01*
X13731015Y-11652579D02*
X13731015Y-11671627D01*
X13731015Y-11671627D02*
X13721491Y-11700198D01*
X13721491Y-11700198D02*
X13607206Y-11814484D01*
X13607206Y-11814484D02*
X13731015Y-11814484D01*
X13902444Y-11681150D02*
X13902444Y-11814484D01*
X13854825Y-11604960D02*
X13807206Y-11747817D01*
X13807206Y-11747817D02*
X13931015Y-11747817D01*
X14159587Y-11814484D02*
X14159587Y-11614484D01*
X14245301Y-11814484D02*
X14245301Y-11709722D01*
X14245301Y-11709722D02*
X14235777Y-11690674D01*
X14235777Y-11690674D02*
X14216730Y-11681150D01*
X14216730Y-11681150D02*
X14188158Y-11681150D01*
X14188158Y-11681150D02*
X14169110Y-11690674D01*
X14169110Y-11690674D02*
X14159587Y-11700198D01*
X14369110Y-11814484D02*
X14350063Y-11804960D01*
X14350063Y-11804960D02*
X14340539Y-11795436D01*
X14340539Y-11795436D02*
X14331015Y-11776388D01*
X14331015Y-11776388D02*
X14331015Y-11719246D01*
X14331015Y-11719246D02*
X14340539Y-11700198D01*
X14340539Y-11700198D02*
X14350063Y-11690674D01*
X14350063Y-11690674D02*
X14369110Y-11681150D01*
X14369110Y-11681150D02*
X14397682Y-11681150D01*
X14397682Y-11681150D02*
X14416730Y-11690674D01*
X14416730Y-11690674D02*
X14426253Y-11700198D01*
X14426253Y-11700198D02*
X14435777Y-11719246D01*
X14435777Y-11719246D02*
X14435777Y-11776388D01*
X14435777Y-11776388D02*
X14426253Y-11795436D01*
X14426253Y-11795436D02*
X14416730Y-11804960D01*
X14416730Y-11804960D02*
X14397682Y-11814484D01*
X14397682Y-11814484D02*
X14369110Y-11814484D01*
X14550063Y-11814484D02*
X14531015Y-11804960D01*
X14531015Y-11804960D02*
X14521491Y-11785912D01*
X14521491Y-11785912D02*
X14521491Y-11614484D01*
X14702444Y-11804960D02*
X14683396Y-11814484D01*
X14683396Y-11814484D02*
X14645301Y-11814484D01*
X14645301Y-11814484D02*
X14626253Y-11804960D01*
X14626253Y-11804960D02*
X14616730Y-11785912D01*
X14616730Y-11785912D02*
X14616730Y-11709722D01*
X14616730Y-11709722D02*
X14626253Y-11690674D01*
X14626253Y-11690674D02*
X14645301Y-11681150D01*
X14645301Y-11681150D02*
X14683396Y-11681150D01*
X14683396Y-11681150D02*
X14702444Y-11690674D01*
X14702444Y-11690674D02*
X14711968Y-11709722D01*
X14711968Y-11709722D02*
X14711968Y-11728769D01*
X14711968Y-11728769D02*
X14616730Y-11747817D01*
X14788158Y-11804960D02*
X14807206Y-11814484D01*
X14807206Y-11814484D02*
X14845301Y-11814484D01*
X14845301Y-11814484D02*
X14864349Y-11804960D01*
X14864349Y-11804960D02*
X14873872Y-11785912D01*
X14873872Y-11785912D02*
X14873872Y-11776388D01*
X14873872Y-11776388D02*
X14864349Y-11757341D01*
X14864349Y-11757341D02*
X14845301Y-11747817D01*
X14845301Y-11747817D02*
X14816730Y-11747817D01*
X14816730Y-11747817D02*
X14797682Y-11738293D01*
X14797682Y-11738293D02*
X14788158Y-11719246D01*
X14788158Y-11719246D02*
X14788158Y-11709722D01*
X14788158Y-11709722D02*
X14797682Y-11690674D01*
X14797682Y-11690674D02*
X14816730Y-11681150D01*
X14816730Y-11681150D02*
X14845301Y-11681150D01*
X14845301Y-11681150D02*
X14864349Y-11690674D01*
X14940539Y-11890674D02*
X14950063Y-11881150D01*
X14950063Y-11881150D02*
X14969111Y-11852579D01*
X14969111Y-11852579D02*
X14978634Y-11833531D01*
X14978634Y-11833531D02*
X14988158Y-11804960D01*
X14988158Y-11804960D02*
X14997682Y-11757341D01*
X14997682Y-11757341D02*
X14997682Y-11719246D01*
X14997682Y-11719246D02*
X14988158Y-11671627D01*
X14988158Y-11671627D02*
X14978634Y-11643055D01*
X14978634Y-11643055D02*
X14969111Y-11624008D01*
X14969111Y-11624008D02*
X14950063Y-11595436D01*
X14950063Y-11595436D02*
X14940539Y-11585912D01*
D10*
X9960356Y-12022356D02*
X9960356Y-11951644D01*
X9889644Y-11951644D01*
X9889644Y-12022356D01*
X9960356Y-12022356D01*
D11*
X10340539Y-12078484D02*
X10226253Y-12078484D01*
X10283396Y-12078484D02*
X10283396Y-11878484D01*
X10283396Y-11878484D02*
X10264348Y-11907055D01*
X10264348Y-11907055D02*
X10245301Y-11926103D01*
X10245301Y-11926103D02*
X10226253Y-11935627D01*
X10426253Y-12059436D02*
X10435777Y-12068960D01*
X10435777Y-12068960D02*
X10426253Y-12078484D01*
X10426253Y-12078484D02*
X10416729Y-12068960D01*
X10416729Y-12068960D02*
X10426253Y-12059436D01*
X10426253Y-12059436D02*
X10426253Y-12078484D01*
X10559586Y-11878484D02*
X10578634Y-11878484D01*
X10578634Y-11878484D02*
X10597682Y-11888008D01*
X10597682Y-11888008D02*
X10607205Y-11897531D01*
X10607205Y-11897531D02*
X10616729Y-11916579D01*
X10616729Y-11916579D02*
X10626253Y-11954674D01*
X10626253Y-11954674D02*
X10626253Y-12002293D01*
X10626253Y-12002293D02*
X10616729Y-12040388D01*
X10616729Y-12040388D02*
X10607205Y-12059436D01*
X10607205Y-12059436D02*
X10597682Y-12068960D01*
X10597682Y-12068960D02*
X10578634Y-12078484D01*
X10578634Y-12078484D02*
X10559586Y-12078484D01*
X10559586Y-12078484D02*
X10540539Y-12068960D01*
X10540539Y-12068960D02*
X10531015Y-12059436D01*
X10531015Y-12059436D02*
X10521491Y-12040388D01*
X10521491Y-12040388D02*
X10511967Y-12002293D01*
X10511967Y-12002293D02*
X10511967Y-11954674D01*
X10511967Y-11954674D02*
X10521491Y-11916579D01*
X10521491Y-11916579D02*
X10531015Y-11897531D01*
X10531015Y-11897531D02*
X10540539Y-11888008D01*
X10540539Y-11888008D02*
X10559586Y-11878484D01*
X10750063Y-11878484D02*
X10769110Y-11878484D01*
X10769110Y-11878484D02*
X10788158Y-11888008D01*
X10788158Y-11888008D02*
X10797682Y-11897531D01*
X10797682Y-11897531D02*
X10807205Y-11916579D01*
X10807205Y-11916579D02*
X10816729Y-11954674D01*
X10816729Y-11954674D02*
X10816729Y-12002293D01*
X10816729Y-12002293D02*
X10807205Y-12040388D01*
X10807205Y-12040388D02*
X10797682Y-12059436D01*
X10797682Y-12059436D02*
X10788158Y-12068960D01*
X10788158Y-12068960D02*
X10769110Y-12078484D01*
X10769110Y-12078484D02*
X10750063Y-12078484D01*
X10750063Y-12078484D02*
X10731015Y-12068960D01*
X10731015Y-12068960D02*
X10721491Y-12059436D01*
X10721491Y-12059436D02*
X10711967Y-12040388D01*
X10711967Y-12040388D02*
X10702444Y-12002293D01*
X10702444Y-12002293D02*
X10702444Y-11954674D01*
X10702444Y-11954674D02*
X10711967Y-11916579D01*
X10711967Y-11916579D02*
X10721491Y-11897531D01*
X10721491Y-11897531D02*
X10731015Y-11888008D01*
X10731015Y-11888008D02*
X10750063Y-11878484D01*
X10940539Y-11878484D02*
X10959586Y-11878484D01*
X10959586Y-11878484D02*
X10978634Y-11888008D01*
X10978634Y-11888008D02*
X10988158Y-11897531D01*
X10988158Y-11897531D02*
X10997682Y-11916579D01*
X10997682Y-11916579D02*
X11007205Y-11954674D01*
X11007205Y-11954674D02*
X11007205Y-12002293D01*
X11007205Y-12002293D02*
X10997682Y-12040388D01*
X10997682Y-12040388D02*
X10988158Y-12059436D01*
X10988158Y-12059436D02*
X10978634Y-12068960D01*
X10978634Y-12068960D02*
X10959586Y-12078484D01*
X10959586Y-12078484D02*
X10940539Y-12078484D01*
X10940539Y-12078484D02*
X10921491Y-12068960D01*
X10921491Y-12068960D02*
X10911967Y-12059436D01*
X10911967Y-12059436D02*
X10902444Y-12040388D01*
X10902444Y-12040388D02*
X10892920Y-12002293D01*
X10892920Y-12002293D02*
X10892920Y-11954674D01*
X10892920Y-11954674D02*
X10902444Y-11916579D01*
X10902444Y-11916579D02*
X10911967Y-11897531D01*
X10911967Y-11897531D02*
X10921491Y-11888008D01*
X10921491Y-11888008D02*
X10940539Y-11878484D01*
X11092920Y-12078484D02*
X11092920Y-11945150D01*
X11092920Y-11964198D02*
X11102444Y-11954674D01*
X11102444Y-11954674D02*
X11121491Y-11945150D01*
X11121491Y-11945150D02*
X11150063Y-11945150D01*
X11150063Y-11945150D02*
X11169110Y-11954674D01*
X11169110Y-11954674D02*
X11178634Y-11973722D01*
X11178634Y-11973722D02*
X11178634Y-12078484D01*
X11178634Y-11973722D02*
X11188158Y-11954674D01*
X11188158Y-11954674D02*
X11207205Y-11945150D01*
X11207205Y-11945150D02*
X11235777Y-11945150D01*
X11235777Y-11945150D02*
X11254824Y-11954674D01*
X11254824Y-11954674D02*
X11264348Y-11973722D01*
X11264348Y-11973722D02*
X11264348Y-12078484D01*
X11359586Y-12078484D02*
X11359586Y-11945150D01*
X11359586Y-11964198D02*
X11369110Y-11954674D01*
X11369110Y-11954674D02*
X11388158Y-11945150D01*
X11388158Y-11945150D02*
X11416729Y-11945150D01*
X11416729Y-11945150D02*
X11435777Y-11954674D01*
X11435777Y-11954674D02*
X11445301Y-11973722D01*
X11445301Y-11973722D02*
X11445301Y-12078484D01*
X11445301Y-11973722D02*
X11454824Y-11954674D01*
X11454824Y-11954674D02*
X11473872Y-11945150D01*
X11473872Y-11945150D02*
X11502443Y-11945150D01*
X11502443Y-11945150D02*
X11521491Y-11954674D01*
X11521491Y-11954674D02*
X11531015Y-11973722D01*
X11531015Y-11973722D02*
X11531015Y-12078484D01*
X11921491Y-11868960D02*
X11750063Y-12126103D01*
X12178634Y-11878484D02*
X12197682Y-11878484D01*
X12197682Y-11878484D02*
X12216729Y-11888008D01*
X12216729Y-11888008D02*
X12226253Y-11897531D01*
X12226253Y-11897531D02*
X12235777Y-11916579D01*
X12235777Y-11916579D02*
X12245301Y-11954674D01*
X12245301Y-11954674D02*
X12245301Y-12002293D01*
X12245301Y-12002293D02*
X12235777Y-12040388D01*
X12235777Y-12040388D02*
X12226253Y-12059436D01*
X12226253Y-12059436D02*
X12216729Y-12068960D01*
X12216729Y-12068960D02*
X12197682Y-12078484D01*
X12197682Y-12078484D02*
X12178634Y-12078484D01*
X12178634Y-12078484D02*
X12159586Y-12068960D01*
X12159586Y-12068960D02*
X12150063Y-12059436D01*
X12150063Y-12059436D02*
X12140539Y-12040388D01*
X12140539Y-12040388D02*
X12131015Y-12002293D01*
X12131015Y-12002293D02*
X12131015Y-11954674D01*
X12131015Y-11954674D02*
X12140539Y-11916579D01*
X12140539Y-11916579D02*
X12150063Y-11897531D01*
X12150063Y-11897531D02*
X12159586Y-11888008D01*
X12159586Y-11888008D02*
X12178634Y-11878484D01*
X12331015Y-12059436D02*
X12340539Y-12068960D01*
X12340539Y-12068960D02*
X12331015Y-12078484D01*
X12331015Y-12078484D02*
X12321491Y-12068960D01*
X12321491Y-12068960D02*
X12331015Y-12059436D01*
X12331015Y-12059436D02*
X12331015Y-12078484D01*
X12464348Y-11878484D02*
X12483396Y-11878484D01*
X12483396Y-11878484D02*
X12502444Y-11888008D01*
X12502444Y-11888008D02*
X12511967Y-11897531D01*
X12511967Y-11897531D02*
X12521491Y-11916579D01*
X12521491Y-11916579D02*
X12531015Y-11954674D01*
X12531015Y-11954674D02*
X12531015Y-12002293D01*
X12531015Y-12002293D02*
X12521491Y-12040388D01*
X12521491Y-12040388D02*
X12511967Y-12059436D01*
X12511967Y-12059436D02*
X12502444Y-12068960D01*
X12502444Y-12068960D02*
X12483396Y-12078484D01*
X12483396Y-12078484D02*
X12464348Y-12078484D01*
X12464348Y-12078484D02*
X12445301Y-12068960D01*
X12445301Y-12068960D02*
X12435777Y-12059436D01*
X12435777Y-12059436D02*
X12426253Y-12040388D01*
X12426253Y-12040388D02*
X12416729Y-12002293D01*
X12416729Y-12002293D02*
X12416729Y-11954674D01*
X12416729Y-11954674D02*
X12426253Y-11916579D01*
X12426253Y-11916579D02*
X12435777Y-11897531D01*
X12435777Y-11897531D02*
X12445301Y-11888008D01*
X12445301Y-11888008D02*
X12464348Y-11878484D01*
X12597682Y-11878484D02*
X12721491Y-11878484D01*
X12721491Y-11878484D02*
X12654825Y-11954674D01*
X12654825Y-11954674D02*
X12683396Y-11954674D01*
X12683396Y-11954674D02*
X12702444Y-11964198D01*
X12702444Y-11964198D02*
X12711967Y-11973722D01*
X12711967Y-11973722D02*
X12721491Y-11992769D01*
X12721491Y-11992769D02*
X12721491Y-12040388D01*
X12721491Y-12040388D02*
X12711967Y-12059436D01*
X12711967Y-12059436D02*
X12702444Y-12068960D01*
X12702444Y-12068960D02*
X12683396Y-12078484D01*
X12683396Y-12078484D02*
X12626253Y-12078484D01*
X12626253Y-12078484D02*
X12607206Y-12068960D01*
X12607206Y-12068960D02*
X12597682Y-12059436D01*
X12816729Y-12078484D02*
X12854825Y-12078484D01*
X12854825Y-12078484D02*
X12873872Y-12068960D01*
X12873872Y-12068960D02*
X12883396Y-12059436D01*
X12883396Y-12059436D02*
X12902444Y-12030865D01*
X12902444Y-12030865D02*
X12911967Y-11992769D01*
X12911967Y-11992769D02*
X12911967Y-11916579D01*
X12911967Y-11916579D02*
X12902444Y-11897531D01*
X12902444Y-11897531D02*
X12892920Y-11888008D01*
X12892920Y-11888008D02*
X12873872Y-11878484D01*
X12873872Y-11878484D02*
X12835777Y-11878484D01*
X12835777Y-11878484D02*
X12816729Y-11888008D01*
X12816729Y-11888008D02*
X12807206Y-11897531D01*
X12807206Y-11897531D02*
X12797682Y-11916579D01*
X12797682Y-11916579D02*
X12797682Y-11964198D01*
X12797682Y-11964198D02*
X12807206Y-11983246D01*
X12807206Y-11983246D02*
X12816729Y-11992769D01*
X12816729Y-11992769D02*
X12835777Y-12002293D01*
X12835777Y-12002293D02*
X12873872Y-12002293D01*
X12873872Y-12002293D02*
X12892920Y-11992769D01*
X12892920Y-11992769D02*
X12902444Y-11983246D01*
X12902444Y-11983246D02*
X12911967Y-11964198D01*
X13083396Y-11945150D02*
X13083396Y-12078484D01*
X13035777Y-11868960D02*
X12988158Y-12011817D01*
X12988158Y-12011817D02*
X13111967Y-12011817D01*
X13178634Y-11878484D02*
X13178634Y-11916579D01*
X13254825Y-11878484D02*
X13254825Y-11916579D01*
X13550063Y-12154674D02*
X13540539Y-12145150D01*
X13540539Y-12145150D02*
X13521491Y-12116579D01*
X13521491Y-12116579D02*
X13511968Y-12097531D01*
X13511968Y-12097531D02*
X13502444Y-12068960D01*
X13502444Y-12068960D02*
X13492920Y-12021341D01*
X13492920Y-12021341D02*
X13492920Y-11983246D01*
X13492920Y-11983246D02*
X13502444Y-11935627D01*
X13502444Y-11935627D02*
X13511968Y-11907055D01*
X13511968Y-11907055D02*
X13521491Y-11888008D01*
X13521491Y-11888008D02*
X13540539Y-11859436D01*
X13540539Y-11859436D02*
X13550063Y-11849912D01*
X13731015Y-12078484D02*
X13616729Y-12078484D01*
X13673872Y-12078484D02*
X13673872Y-11878484D01*
X13673872Y-11878484D02*
X13654825Y-11907055D01*
X13654825Y-11907055D02*
X13635777Y-11926103D01*
X13635777Y-11926103D02*
X13616729Y-11935627D01*
X13807206Y-11897531D02*
X13816729Y-11888008D01*
X13816729Y-11888008D02*
X13835777Y-11878484D01*
X13835777Y-11878484D02*
X13883396Y-11878484D01*
X13883396Y-11878484D02*
X13902444Y-11888008D01*
X13902444Y-11888008D02*
X13911968Y-11897531D01*
X13911968Y-11897531D02*
X13921491Y-11916579D01*
X13921491Y-11916579D02*
X13921491Y-11935627D01*
X13921491Y-11935627D02*
X13911968Y-11964198D01*
X13911968Y-11964198D02*
X13797682Y-12078484D01*
X13797682Y-12078484D02*
X13921491Y-12078484D01*
X14159587Y-12078484D02*
X14159587Y-11878484D01*
X14245301Y-12078484D02*
X14245301Y-11973722D01*
X14245301Y-11973722D02*
X14235777Y-11954674D01*
X14235777Y-11954674D02*
X14216730Y-11945150D01*
X14216730Y-11945150D02*
X14188158Y-11945150D01*
X14188158Y-11945150D02*
X14169110Y-11954674D01*
X14169110Y-11954674D02*
X14159587Y-11964198D01*
X14369110Y-12078484D02*
X14350063Y-12068960D01*
X14350063Y-12068960D02*
X14340539Y-12059436D01*
X14340539Y-12059436D02*
X14331015Y-12040388D01*
X14331015Y-12040388D02*
X14331015Y-11983246D01*
X14331015Y-11983246D02*
X14340539Y-11964198D01*
X14340539Y-11964198D02*
X14350063Y-11954674D01*
X14350063Y-11954674D02*
X14369110Y-11945150D01*
X14369110Y-11945150D02*
X14397682Y-11945150D01*
X14397682Y-11945150D02*
X14416730Y-11954674D01*
X14416730Y-11954674D02*
X14426253Y-11964198D01*
X14426253Y-11964198D02*
X14435777Y-11983246D01*
X14435777Y-11983246D02*
X14435777Y-12040388D01*
X14435777Y-12040388D02*
X14426253Y-12059436D01*
X14426253Y-12059436D02*
X14416730Y-12068960D01*
X14416730Y-12068960D02*
X14397682Y-12078484D01*
X14397682Y-12078484D02*
X14369110Y-12078484D01*
X14550063Y-12078484D02*
X14531015Y-12068960D01*
X14531015Y-12068960D02*
X14521491Y-12049912D01*
X14521491Y-12049912D02*
X14521491Y-11878484D01*
X14702444Y-12068960D02*
X14683396Y-12078484D01*
X14683396Y-12078484D02*
X14645301Y-12078484D01*
X14645301Y-12078484D02*
X14626253Y-12068960D01*
X14626253Y-12068960D02*
X14616730Y-12049912D01*
X14616730Y-12049912D02*
X14616730Y-11973722D01*
X14616730Y-11973722D02*
X14626253Y-11954674D01*
X14626253Y-11954674D02*
X14645301Y-11945150D01*
X14645301Y-11945150D02*
X14683396Y-11945150D01*
X14683396Y-11945150D02*
X14702444Y-11954674D01*
X14702444Y-11954674D02*
X14711968Y-11973722D01*
X14711968Y-11973722D02*
X14711968Y-11992769D01*
X14711968Y-11992769D02*
X14616730Y-12011817D01*
X14788158Y-12068960D02*
X14807206Y-12078484D01*
X14807206Y-12078484D02*
X14845301Y-12078484D01*
X14845301Y-12078484D02*
X14864349Y-12068960D01*
X14864349Y-12068960D02*
X14873872Y-12049912D01*
X14873872Y-12049912D02*
X14873872Y-12040388D01*
X14873872Y-12040388D02*
X14864349Y-12021341D01*
X14864349Y-12021341D02*
X14845301Y-12011817D01*
X14845301Y-12011817D02*
X14816730Y-12011817D01*
X14816730Y-12011817D02*
X14797682Y-12002293D01*
X14797682Y-12002293D02*
X14788158Y-11983246D01*
X14788158Y-11983246D02*
X14788158Y-11973722D01*
X14788158Y-11973722D02*
X14797682Y-11954674D01*
X14797682Y-11954674D02*
X14816730Y-11945150D01*
X14816730Y-11945150D02*
X14845301Y-11945150D01*
X14845301Y-11945150D02*
X14864349Y-11954674D01*
X14940539Y-12154674D02*
X14950063Y-12145150D01*
X14950063Y-12145150D02*
X14969111Y-12116579D01*
X14969111Y-12116579D02*
X14978634Y-12097531D01*
X14978634Y-12097531D02*
X14988158Y-12068960D01*
X14988158Y-12068960D02*
X14997682Y-12021341D01*
X14997682Y-12021341D02*
X14997682Y-11983246D01*
X14997682Y-11983246D02*
X14988158Y-11935627D01*
X14988158Y-11935627D02*
X14978634Y-11907055D01*
X14978634Y-11907055D02*
X14969111Y-11888008D01*
X14969111Y-11888008D02*
X14950063Y-11859436D01*
X14950063Y-11859436D02*
X14940539Y-11849912D01*
M02*
