%TF.GenerationSoftware,KiCad,Pcbnew,8.0.6*%
%TF.CreationDate,2024-10-19T21:44:57+02:00*%
%TF.ProjectId,595-PM-EXT,3539352d-504d-42d4-9558-542e6b696361,rev?*%
%TF.SameCoordinates,Original*%
%TF.FileFunction,AssemblyDrawing,Top*%
%FSLAX46Y46*%
G04 Gerber Fmt 4.6, Leading zero omitted, Abs format (unit mm)*
G04 Created by KiCad (PCBNEW 8.0.6) date 2024-10-19 21:44:57*
%MOMM*%
%LPD*%
G01*
G04 APERTURE LIST*
%ADD10C,0.150000*%
%ADD11C,0.129000*%
%ADD12C,0.254000*%
%ADD13C,0.100000*%
G04 APERTURE END LIST*
D10*
X122609523Y-61659580D02*
X122561904Y-61707200D01*
X122561904Y-61707200D02*
X122419047Y-61754819D01*
X122419047Y-61754819D02*
X122323809Y-61754819D01*
X122323809Y-61754819D02*
X122180952Y-61707200D01*
X122180952Y-61707200D02*
X122085714Y-61611961D01*
X122085714Y-61611961D02*
X122038095Y-61516723D01*
X122038095Y-61516723D02*
X121990476Y-61326247D01*
X121990476Y-61326247D02*
X121990476Y-61183390D01*
X121990476Y-61183390D02*
X122038095Y-60992914D01*
X122038095Y-60992914D02*
X122085714Y-60897676D01*
X122085714Y-60897676D02*
X122180952Y-60802438D01*
X122180952Y-60802438D02*
X122323809Y-60754819D01*
X122323809Y-60754819D02*
X122419047Y-60754819D01*
X122419047Y-60754819D02*
X122561904Y-60802438D01*
X122561904Y-60802438D02*
X122609523Y-60850057D01*
X123038095Y-61754819D02*
X123038095Y-60754819D01*
X123038095Y-60754819D02*
X123419047Y-60754819D01*
X123419047Y-60754819D02*
X123514285Y-60802438D01*
X123514285Y-60802438D02*
X123561904Y-60850057D01*
X123561904Y-60850057D02*
X123609523Y-60945295D01*
X123609523Y-60945295D02*
X123609523Y-61088152D01*
X123609523Y-61088152D02*
X123561904Y-61183390D01*
X123561904Y-61183390D02*
X123514285Y-61231009D01*
X123514285Y-61231009D02*
X123419047Y-61278628D01*
X123419047Y-61278628D02*
X123038095Y-61278628D01*
D11*
X122656666Y-61609240D02*
X122615714Y-61650193D01*
X122615714Y-61650193D02*
X122492856Y-61691145D01*
X122492856Y-61691145D02*
X122410952Y-61691145D01*
X122410952Y-61691145D02*
X122288095Y-61650193D01*
X122288095Y-61650193D02*
X122206190Y-61568288D01*
X122206190Y-61568288D02*
X122165237Y-61486383D01*
X122165237Y-61486383D02*
X122124285Y-61322573D01*
X122124285Y-61322573D02*
X122124285Y-61199716D01*
X122124285Y-61199716D02*
X122165237Y-61035907D01*
X122165237Y-61035907D02*
X122206190Y-60954002D01*
X122206190Y-60954002D02*
X122288095Y-60872097D01*
X122288095Y-60872097D02*
X122410952Y-60831145D01*
X122410952Y-60831145D02*
X122492856Y-60831145D01*
X122492856Y-60831145D02*
X122615714Y-60872097D01*
X122615714Y-60872097D02*
X122656666Y-60913050D01*
X123475714Y-61691145D02*
X122984285Y-61691145D01*
X123229999Y-61691145D02*
X123229999Y-60831145D01*
X123229999Y-60831145D02*
X123148095Y-60954002D01*
X123148095Y-60954002D02*
X123066190Y-61035907D01*
X123066190Y-61035907D02*
X122984285Y-61076859D01*
D10*
X105728095Y-64664819D02*
X106394761Y-64664819D01*
X106394761Y-64664819D02*
X105966190Y-65664819D01*
X107204285Y-64998152D02*
X107204285Y-65664819D01*
X106966190Y-64617200D02*
X106728095Y-65331485D01*
X106728095Y-65331485D02*
X107347142Y-65331485D01*
X107918571Y-64664819D02*
X108013809Y-64664819D01*
X108013809Y-64664819D02*
X108109047Y-64712438D01*
X108109047Y-64712438D02*
X108156666Y-64760057D01*
X108156666Y-64760057D02*
X108204285Y-64855295D01*
X108204285Y-64855295D02*
X108251904Y-65045771D01*
X108251904Y-65045771D02*
X108251904Y-65283866D01*
X108251904Y-65283866D02*
X108204285Y-65474342D01*
X108204285Y-65474342D02*
X108156666Y-65569580D01*
X108156666Y-65569580D02*
X108109047Y-65617200D01*
X108109047Y-65617200D02*
X108013809Y-65664819D01*
X108013809Y-65664819D02*
X107918571Y-65664819D01*
X107918571Y-65664819D02*
X107823333Y-65617200D01*
X107823333Y-65617200D02*
X107775714Y-65569580D01*
X107775714Y-65569580D02*
X107728095Y-65474342D01*
X107728095Y-65474342D02*
X107680476Y-65283866D01*
X107680476Y-65283866D02*
X107680476Y-65045771D01*
X107680476Y-65045771D02*
X107728095Y-64855295D01*
X107728095Y-64855295D02*
X107775714Y-64760057D01*
X107775714Y-64760057D02*
X107823333Y-64712438D01*
X107823333Y-64712438D02*
X107918571Y-64664819D01*
X108823333Y-65093390D02*
X108728095Y-65045771D01*
X108728095Y-65045771D02*
X108680476Y-64998152D01*
X108680476Y-64998152D02*
X108632857Y-64902914D01*
X108632857Y-64902914D02*
X108632857Y-64855295D01*
X108632857Y-64855295D02*
X108680476Y-64760057D01*
X108680476Y-64760057D02*
X108728095Y-64712438D01*
X108728095Y-64712438D02*
X108823333Y-64664819D01*
X108823333Y-64664819D02*
X109013809Y-64664819D01*
X109013809Y-64664819D02*
X109109047Y-64712438D01*
X109109047Y-64712438D02*
X109156666Y-64760057D01*
X109156666Y-64760057D02*
X109204285Y-64855295D01*
X109204285Y-64855295D02*
X109204285Y-64902914D01*
X109204285Y-64902914D02*
X109156666Y-64998152D01*
X109156666Y-64998152D02*
X109109047Y-65045771D01*
X109109047Y-65045771D02*
X109013809Y-65093390D01*
X109013809Y-65093390D02*
X108823333Y-65093390D01*
X108823333Y-65093390D02*
X108728095Y-65141009D01*
X108728095Y-65141009D02*
X108680476Y-65188628D01*
X108680476Y-65188628D02*
X108632857Y-65283866D01*
X108632857Y-65283866D02*
X108632857Y-65474342D01*
X108632857Y-65474342D02*
X108680476Y-65569580D01*
X108680476Y-65569580D02*
X108728095Y-65617200D01*
X108728095Y-65617200D02*
X108823333Y-65664819D01*
X108823333Y-65664819D02*
X109013809Y-65664819D01*
X109013809Y-65664819D02*
X109109047Y-65617200D01*
X109109047Y-65617200D02*
X109156666Y-65569580D01*
X109156666Y-65569580D02*
X109204285Y-65474342D01*
X109204285Y-65474342D02*
X109204285Y-65283866D01*
X109204285Y-65283866D02*
X109156666Y-65188628D01*
X109156666Y-65188628D02*
X109109047Y-65141009D01*
X109109047Y-65141009D02*
X109013809Y-65093390D01*
X106728095Y-74614819D02*
X106728095Y-75424342D01*
X106728095Y-75424342D02*
X106775714Y-75519580D01*
X106775714Y-75519580D02*
X106823333Y-75567200D01*
X106823333Y-75567200D02*
X106918571Y-75614819D01*
X106918571Y-75614819D02*
X107109047Y-75614819D01*
X107109047Y-75614819D02*
X107204285Y-75567200D01*
X107204285Y-75567200D02*
X107251904Y-75519580D01*
X107251904Y-75519580D02*
X107299523Y-75424342D01*
X107299523Y-75424342D02*
X107299523Y-74614819D01*
X107680476Y-74614819D02*
X108299523Y-74614819D01*
X108299523Y-74614819D02*
X107966190Y-74995771D01*
X107966190Y-74995771D02*
X108109047Y-74995771D01*
X108109047Y-74995771D02*
X108204285Y-75043390D01*
X108204285Y-75043390D02*
X108251904Y-75091009D01*
X108251904Y-75091009D02*
X108299523Y-75186247D01*
X108299523Y-75186247D02*
X108299523Y-75424342D01*
X108299523Y-75424342D02*
X108251904Y-75519580D01*
X108251904Y-75519580D02*
X108204285Y-75567200D01*
X108204285Y-75567200D02*
X108109047Y-75614819D01*
X108109047Y-75614819D02*
X107823333Y-75614819D01*
X107823333Y-75614819D02*
X107728095Y-75567200D01*
X107728095Y-75567200D02*
X107680476Y-75519580D01*
X137299580Y-105975239D02*
X137347200Y-106022858D01*
X137347200Y-106022858D02*
X137394819Y-106165715D01*
X137394819Y-106165715D02*
X137394819Y-106260953D01*
X137394819Y-106260953D02*
X137347200Y-106403810D01*
X137347200Y-106403810D02*
X137251961Y-106499048D01*
X137251961Y-106499048D02*
X137156723Y-106546667D01*
X137156723Y-106546667D02*
X136966247Y-106594286D01*
X136966247Y-106594286D02*
X136823390Y-106594286D01*
X136823390Y-106594286D02*
X136632914Y-106546667D01*
X136632914Y-106546667D02*
X136537676Y-106499048D01*
X136537676Y-106499048D02*
X136442438Y-106403810D01*
X136442438Y-106403810D02*
X136394819Y-106260953D01*
X136394819Y-106260953D02*
X136394819Y-106165715D01*
X136394819Y-106165715D02*
X136442438Y-106022858D01*
X136442438Y-106022858D02*
X136490057Y-105975239D01*
X137394819Y-105403810D02*
X137347200Y-105499048D01*
X137347200Y-105499048D02*
X137299580Y-105546667D01*
X137299580Y-105546667D02*
X137204342Y-105594286D01*
X137204342Y-105594286D02*
X136918628Y-105594286D01*
X136918628Y-105594286D02*
X136823390Y-105546667D01*
X136823390Y-105546667D02*
X136775771Y-105499048D01*
X136775771Y-105499048D02*
X136728152Y-105403810D01*
X136728152Y-105403810D02*
X136728152Y-105260953D01*
X136728152Y-105260953D02*
X136775771Y-105165715D01*
X136775771Y-105165715D02*
X136823390Y-105118096D01*
X136823390Y-105118096D02*
X136918628Y-105070477D01*
X136918628Y-105070477D02*
X137204342Y-105070477D01*
X137204342Y-105070477D02*
X137299580Y-105118096D01*
X137299580Y-105118096D02*
X137347200Y-105165715D01*
X137347200Y-105165715D02*
X137394819Y-105260953D01*
X137394819Y-105260953D02*
X137394819Y-105403810D01*
X136728152Y-104641905D02*
X137394819Y-104641905D01*
X136823390Y-104641905D02*
X136775771Y-104594286D01*
X136775771Y-104594286D02*
X136728152Y-104499048D01*
X136728152Y-104499048D02*
X136728152Y-104356191D01*
X136728152Y-104356191D02*
X136775771Y-104260953D01*
X136775771Y-104260953D02*
X136871009Y-104213334D01*
X136871009Y-104213334D02*
X137394819Y-104213334D01*
X136728152Y-103737143D02*
X137394819Y-103737143D01*
X136823390Y-103737143D02*
X136775771Y-103689524D01*
X136775771Y-103689524D02*
X136728152Y-103594286D01*
X136728152Y-103594286D02*
X136728152Y-103451429D01*
X136728152Y-103451429D02*
X136775771Y-103356191D01*
X136775771Y-103356191D02*
X136871009Y-103308572D01*
X136871009Y-103308572D02*
X137394819Y-103308572D01*
X137490057Y-103070477D02*
X137490057Y-102308572D01*
X136394819Y-101880000D02*
X136394819Y-101784762D01*
X136394819Y-101784762D02*
X136442438Y-101689524D01*
X136442438Y-101689524D02*
X136490057Y-101641905D01*
X136490057Y-101641905D02*
X136585295Y-101594286D01*
X136585295Y-101594286D02*
X136775771Y-101546667D01*
X136775771Y-101546667D02*
X137013866Y-101546667D01*
X137013866Y-101546667D02*
X137204342Y-101594286D01*
X137204342Y-101594286D02*
X137299580Y-101641905D01*
X137299580Y-101641905D02*
X137347200Y-101689524D01*
X137347200Y-101689524D02*
X137394819Y-101784762D01*
X137394819Y-101784762D02*
X137394819Y-101880000D01*
X137394819Y-101880000D02*
X137347200Y-101975238D01*
X137347200Y-101975238D02*
X137299580Y-102022857D01*
X137299580Y-102022857D02*
X137204342Y-102070476D01*
X137204342Y-102070476D02*
X137013866Y-102118095D01*
X137013866Y-102118095D02*
X136775771Y-102118095D01*
X136775771Y-102118095D02*
X136585295Y-102070476D01*
X136585295Y-102070476D02*
X136490057Y-102022857D01*
X136490057Y-102022857D02*
X136442438Y-101975238D01*
X136442438Y-101975238D02*
X136394819Y-101880000D01*
X137394819Y-100594286D02*
X137394819Y-101165714D01*
X137394819Y-100880000D02*
X136394819Y-100880000D01*
X136394819Y-100880000D02*
X136537676Y-100975238D01*
X136537676Y-100975238D02*
X136632914Y-101070476D01*
X136632914Y-101070476D02*
X136680533Y-101165714D01*
X137394819Y-100260952D02*
X136728152Y-99737143D01*
X136728152Y-100260952D02*
X137394819Y-99737143D01*
X136394819Y-99165714D02*
X136394819Y-99070476D01*
X136394819Y-99070476D02*
X136442438Y-98975238D01*
X136442438Y-98975238D02*
X136490057Y-98927619D01*
X136490057Y-98927619D02*
X136585295Y-98880000D01*
X136585295Y-98880000D02*
X136775771Y-98832381D01*
X136775771Y-98832381D02*
X137013866Y-98832381D01*
X137013866Y-98832381D02*
X137204342Y-98880000D01*
X137204342Y-98880000D02*
X137299580Y-98927619D01*
X137299580Y-98927619D02*
X137347200Y-98975238D01*
X137347200Y-98975238D02*
X137394819Y-99070476D01*
X137394819Y-99070476D02*
X137394819Y-99165714D01*
X137394819Y-99165714D02*
X137347200Y-99260952D01*
X137347200Y-99260952D02*
X137299580Y-99308571D01*
X137299580Y-99308571D02*
X137204342Y-99356190D01*
X137204342Y-99356190D02*
X137013866Y-99403809D01*
X137013866Y-99403809D02*
X136775771Y-99403809D01*
X136775771Y-99403809D02*
X136585295Y-99356190D01*
X136585295Y-99356190D02*
X136490057Y-99308571D01*
X136490057Y-99308571D02*
X136442438Y-99260952D01*
X136442438Y-99260952D02*
X136394819Y-99165714D01*
X136394819Y-97975238D02*
X136394819Y-98165714D01*
X136394819Y-98165714D02*
X136442438Y-98260952D01*
X136442438Y-98260952D02*
X136490057Y-98308571D01*
X136490057Y-98308571D02*
X136632914Y-98403809D01*
X136632914Y-98403809D02*
X136823390Y-98451428D01*
X136823390Y-98451428D02*
X137204342Y-98451428D01*
X137204342Y-98451428D02*
X137299580Y-98403809D01*
X137299580Y-98403809D02*
X137347200Y-98356190D01*
X137347200Y-98356190D02*
X137394819Y-98260952D01*
X137394819Y-98260952D02*
X137394819Y-98070476D01*
X137394819Y-98070476D02*
X137347200Y-97975238D01*
X137347200Y-97975238D02*
X137299580Y-97927619D01*
X137299580Y-97927619D02*
X137204342Y-97880000D01*
X137204342Y-97880000D02*
X136966247Y-97880000D01*
X136966247Y-97880000D02*
X136871009Y-97927619D01*
X136871009Y-97927619D02*
X136823390Y-97975238D01*
X136823390Y-97975238D02*
X136775771Y-98070476D01*
X136775771Y-98070476D02*
X136775771Y-98260952D01*
X136775771Y-98260952D02*
X136823390Y-98356190D01*
X136823390Y-98356190D02*
X136871009Y-98403809D01*
X136871009Y-98403809D02*
X136966247Y-98451428D01*
X137490057Y-97689524D02*
X137490057Y-96927619D01*
X137347200Y-96737142D02*
X137394819Y-96594285D01*
X137394819Y-96594285D02*
X137394819Y-96356190D01*
X137394819Y-96356190D02*
X137347200Y-96260952D01*
X137347200Y-96260952D02*
X137299580Y-96213333D01*
X137299580Y-96213333D02*
X137204342Y-96165714D01*
X137204342Y-96165714D02*
X137109104Y-96165714D01*
X137109104Y-96165714D02*
X137013866Y-96213333D01*
X137013866Y-96213333D02*
X136966247Y-96260952D01*
X136966247Y-96260952D02*
X136918628Y-96356190D01*
X136918628Y-96356190D02*
X136871009Y-96546666D01*
X136871009Y-96546666D02*
X136823390Y-96641904D01*
X136823390Y-96641904D02*
X136775771Y-96689523D01*
X136775771Y-96689523D02*
X136680533Y-96737142D01*
X136680533Y-96737142D02*
X136585295Y-96737142D01*
X136585295Y-96737142D02*
X136490057Y-96689523D01*
X136490057Y-96689523D02*
X136442438Y-96641904D01*
X136442438Y-96641904D02*
X136394819Y-96546666D01*
X136394819Y-96546666D02*
X136394819Y-96308571D01*
X136394819Y-96308571D02*
X136442438Y-96165714D01*
X137394819Y-95594285D02*
X137347200Y-95689523D01*
X137347200Y-95689523D02*
X137299580Y-95737142D01*
X137299580Y-95737142D02*
X137204342Y-95784761D01*
X137204342Y-95784761D02*
X136918628Y-95784761D01*
X136918628Y-95784761D02*
X136823390Y-95737142D01*
X136823390Y-95737142D02*
X136775771Y-95689523D01*
X136775771Y-95689523D02*
X136728152Y-95594285D01*
X136728152Y-95594285D02*
X136728152Y-95451428D01*
X136728152Y-95451428D02*
X136775771Y-95356190D01*
X136775771Y-95356190D02*
X136823390Y-95308571D01*
X136823390Y-95308571D02*
X136918628Y-95260952D01*
X136918628Y-95260952D02*
X137204342Y-95260952D01*
X137204342Y-95260952D02*
X137299580Y-95308571D01*
X137299580Y-95308571D02*
X137347200Y-95356190D01*
X137347200Y-95356190D02*
X137394819Y-95451428D01*
X137394819Y-95451428D02*
X137394819Y-95594285D01*
X137347200Y-94403809D02*
X137394819Y-94499047D01*
X137394819Y-94499047D02*
X137394819Y-94689523D01*
X137394819Y-94689523D02*
X137347200Y-94784761D01*
X137347200Y-94784761D02*
X137299580Y-94832380D01*
X137299580Y-94832380D02*
X137204342Y-94879999D01*
X137204342Y-94879999D02*
X136918628Y-94879999D01*
X136918628Y-94879999D02*
X136823390Y-94832380D01*
X136823390Y-94832380D02*
X136775771Y-94784761D01*
X136775771Y-94784761D02*
X136728152Y-94689523D01*
X136728152Y-94689523D02*
X136728152Y-94499047D01*
X136728152Y-94499047D02*
X136775771Y-94403809D01*
X137394819Y-93975237D02*
X136394819Y-93975237D01*
X137013866Y-93879999D02*
X137394819Y-93594285D01*
X136728152Y-93594285D02*
X137109104Y-93975237D01*
X137347200Y-92784761D02*
X137394819Y-92879999D01*
X137394819Y-92879999D02*
X137394819Y-93070475D01*
X137394819Y-93070475D02*
X137347200Y-93165713D01*
X137347200Y-93165713D02*
X137251961Y-93213332D01*
X137251961Y-93213332D02*
X136871009Y-93213332D01*
X136871009Y-93213332D02*
X136775771Y-93165713D01*
X136775771Y-93165713D02*
X136728152Y-93070475D01*
X136728152Y-93070475D02*
X136728152Y-92879999D01*
X136728152Y-92879999D02*
X136775771Y-92784761D01*
X136775771Y-92784761D02*
X136871009Y-92737142D01*
X136871009Y-92737142D02*
X136966247Y-92737142D01*
X136966247Y-92737142D02*
X137061485Y-93213332D01*
X136728152Y-92451427D02*
X136728152Y-92070475D01*
X136394819Y-92308570D02*
X137251961Y-92308570D01*
X137251961Y-92308570D02*
X137347200Y-92260951D01*
X137347200Y-92260951D02*
X137394819Y-92165713D01*
X137394819Y-92165713D02*
X137394819Y-92070475D01*
X127486666Y-100229819D02*
X127486666Y-100944104D01*
X127486666Y-100944104D02*
X127439047Y-101086961D01*
X127439047Y-101086961D02*
X127343809Y-101182200D01*
X127343809Y-101182200D02*
X127200952Y-101229819D01*
X127200952Y-101229819D02*
X127105714Y-101229819D01*
X128391428Y-100563152D02*
X128391428Y-101229819D01*
X128153333Y-100182200D02*
X127915238Y-100896485D01*
X127915238Y-100896485D02*
X128534285Y-100896485D01*
X107609523Y-89659580D02*
X107561904Y-89707200D01*
X107561904Y-89707200D02*
X107419047Y-89754819D01*
X107419047Y-89754819D02*
X107323809Y-89754819D01*
X107323809Y-89754819D02*
X107180952Y-89707200D01*
X107180952Y-89707200D02*
X107085714Y-89611961D01*
X107085714Y-89611961D02*
X107038095Y-89516723D01*
X107038095Y-89516723D02*
X106990476Y-89326247D01*
X106990476Y-89326247D02*
X106990476Y-89183390D01*
X106990476Y-89183390D02*
X107038095Y-88992914D01*
X107038095Y-88992914D02*
X107085714Y-88897676D01*
X107085714Y-88897676D02*
X107180952Y-88802438D01*
X107180952Y-88802438D02*
X107323809Y-88754819D01*
X107323809Y-88754819D02*
X107419047Y-88754819D01*
X107419047Y-88754819D02*
X107561904Y-88802438D01*
X107561904Y-88802438D02*
X107609523Y-88850057D01*
X108038095Y-89754819D02*
X108038095Y-88754819D01*
X108038095Y-88754819D02*
X108419047Y-88754819D01*
X108419047Y-88754819D02*
X108514285Y-88802438D01*
X108514285Y-88802438D02*
X108561904Y-88850057D01*
X108561904Y-88850057D02*
X108609523Y-88945295D01*
X108609523Y-88945295D02*
X108609523Y-89088152D01*
X108609523Y-89088152D02*
X108561904Y-89183390D01*
X108561904Y-89183390D02*
X108514285Y-89231009D01*
X108514285Y-89231009D02*
X108419047Y-89278628D01*
X108419047Y-89278628D02*
X108038095Y-89278628D01*
D11*
X107656666Y-87409240D02*
X107615714Y-87450193D01*
X107615714Y-87450193D02*
X107492856Y-87491145D01*
X107492856Y-87491145D02*
X107410952Y-87491145D01*
X107410952Y-87491145D02*
X107288095Y-87450193D01*
X107288095Y-87450193D02*
X107206190Y-87368288D01*
X107206190Y-87368288D02*
X107165237Y-87286383D01*
X107165237Y-87286383D02*
X107124285Y-87122573D01*
X107124285Y-87122573D02*
X107124285Y-86999716D01*
X107124285Y-86999716D02*
X107165237Y-86835907D01*
X107165237Y-86835907D02*
X107206190Y-86754002D01*
X107206190Y-86754002D02*
X107288095Y-86672097D01*
X107288095Y-86672097D02*
X107410952Y-86631145D01*
X107410952Y-86631145D02*
X107492856Y-86631145D01*
X107492856Y-86631145D02*
X107615714Y-86672097D01*
X107615714Y-86672097D02*
X107656666Y-86713050D01*
X107943333Y-86631145D02*
X108475714Y-86631145D01*
X108475714Y-86631145D02*
X108189047Y-86958764D01*
X108189047Y-86958764D02*
X108311904Y-86958764D01*
X108311904Y-86958764D02*
X108393809Y-86999716D01*
X108393809Y-86999716D02*
X108434761Y-87040669D01*
X108434761Y-87040669D02*
X108475714Y-87122573D01*
X108475714Y-87122573D02*
X108475714Y-87327335D01*
X108475714Y-87327335D02*
X108434761Y-87409240D01*
X108434761Y-87409240D02*
X108393809Y-87450193D01*
X108393809Y-87450193D02*
X108311904Y-87491145D01*
X108311904Y-87491145D02*
X108066190Y-87491145D01*
X108066190Y-87491145D02*
X107984285Y-87450193D01*
X107984285Y-87450193D02*
X107943333Y-87409240D01*
D10*
X114359580Y-70090476D02*
X114407200Y-70138095D01*
X114407200Y-70138095D02*
X114454819Y-70280952D01*
X114454819Y-70280952D02*
X114454819Y-70376190D01*
X114454819Y-70376190D02*
X114407200Y-70519047D01*
X114407200Y-70519047D02*
X114311961Y-70614285D01*
X114311961Y-70614285D02*
X114216723Y-70661904D01*
X114216723Y-70661904D02*
X114026247Y-70709523D01*
X114026247Y-70709523D02*
X113883390Y-70709523D01*
X113883390Y-70709523D02*
X113692914Y-70661904D01*
X113692914Y-70661904D02*
X113597676Y-70614285D01*
X113597676Y-70614285D02*
X113502438Y-70519047D01*
X113502438Y-70519047D02*
X113454819Y-70376190D01*
X113454819Y-70376190D02*
X113454819Y-70280952D01*
X113454819Y-70280952D02*
X113502438Y-70138095D01*
X113502438Y-70138095D02*
X113550057Y-70090476D01*
X114454819Y-69661904D02*
X113454819Y-69661904D01*
X113454819Y-69661904D02*
X113454819Y-69280952D01*
X113454819Y-69280952D02*
X113502438Y-69185714D01*
X113502438Y-69185714D02*
X113550057Y-69138095D01*
X113550057Y-69138095D02*
X113645295Y-69090476D01*
X113645295Y-69090476D02*
X113788152Y-69090476D01*
X113788152Y-69090476D02*
X113883390Y-69138095D01*
X113883390Y-69138095D02*
X113931009Y-69185714D01*
X113931009Y-69185714D02*
X113978628Y-69280952D01*
X113978628Y-69280952D02*
X113978628Y-69661904D01*
D11*
X114809240Y-69243333D02*
X114850193Y-69284285D01*
X114850193Y-69284285D02*
X114891145Y-69407143D01*
X114891145Y-69407143D02*
X114891145Y-69489047D01*
X114891145Y-69489047D02*
X114850193Y-69611904D01*
X114850193Y-69611904D02*
X114768288Y-69693809D01*
X114768288Y-69693809D02*
X114686383Y-69734762D01*
X114686383Y-69734762D02*
X114522573Y-69775714D01*
X114522573Y-69775714D02*
X114399716Y-69775714D01*
X114399716Y-69775714D02*
X114235907Y-69734762D01*
X114235907Y-69734762D02*
X114154002Y-69693809D01*
X114154002Y-69693809D02*
X114072097Y-69611904D01*
X114072097Y-69611904D02*
X114031145Y-69489047D01*
X114031145Y-69489047D02*
X114031145Y-69407143D01*
X114031145Y-69407143D02*
X114072097Y-69284285D01*
X114072097Y-69284285D02*
X114113050Y-69243333D01*
X114113050Y-68915714D02*
X114072097Y-68874762D01*
X114072097Y-68874762D02*
X114031145Y-68792857D01*
X114031145Y-68792857D02*
X114031145Y-68588095D01*
X114031145Y-68588095D02*
X114072097Y-68506190D01*
X114072097Y-68506190D02*
X114113050Y-68465238D01*
X114113050Y-68465238D02*
X114194954Y-68424285D01*
X114194954Y-68424285D02*
X114276859Y-68424285D01*
X114276859Y-68424285D02*
X114399716Y-68465238D01*
X114399716Y-68465238D02*
X114891145Y-68956666D01*
X114891145Y-68956666D02*
X114891145Y-68424285D01*
D10*
X136894819Y-52199761D02*
X135894819Y-52199761D01*
X135894819Y-52199761D02*
X135894819Y-51818809D01*
X135894819Y-51818809D02*
X135942438Y-51723571D01*
X135942438Y-51723571D02*
X135990057Y-51675952D01*
X135990057Y-51675952D02*
X136085295Y-51628333D01*
X136085295Y-51628333D02*
X136228152Y-51628333D01*
X136228152Y-51628333D02*
X136323390Y-51675952D01*
X136323390Y-51675952D02*
X136371009Y-51723571D01*
X136371009Y-51723571D02*
X136418628Y-51818809D01*
X136418628Y-51818809D02*
X136418628Y-52199761D01*
X136894819Y-51199761D02*
X136228152Y-51199761D01*
X136323390Y-51199761D02*
X136275771Y-51152142D01*
X136275771Y-51152142D02*
X136228152Y-51056904D01*
X136228152Y-51056904D02*
X136228152Y-50914047D01*
X136228152Y-50914047D02*
X136275771Y-50818809D01*
X136275771Y-50818809D02*
X136371009Y-50771190D01*
X136371009Y-50771190D02*
X136894819Y-50771190D01*
X136371009Y-50771190D02*
X136275771Y-50723571D01*
X136275771Y-50723571D02*
X136228152Y-50628333D01*
X136228152Y-50628333D02*
X136228152Y-50485476D01*
X136228152Y-50485476D02*
X136275771Y-50390237D01*
X136275771Y-50390237D02*
X136371009Y-50342618D01*
X136371009Y-50342618D02*
X136894819Y-50342618D01*
X136894819Y-49723571D02*
X136847200Y-49818809D01*
X136847200Y-49818809D02*
X136799580Y-49866428D01*
X136799580Y-49866428D02*
X136704342Y-49914047D01*
X136704342Y-49914047D02*
X136418628Y-49914047D01*
X136418628Y-49914047D02*
X136323390Y-49866428D01*
X136323390Y-49866428D02*
X136275771Y-49818809D01*
X136275771Y-49818809D02*
X136228152Y-49723571D01*
X136228152Y-49723571D02*
X136228152Y-49580714D01*
X136228152Y-49580714D02*
X136275771Y-49485476D01*
X136275771Y-49485476D02*
X136323390Y-49437857D01*
X136323390Y-49437857D02*
X136418628Y-49390238D01*
X136418628Y-49390238D02*
X136704342Y-49390238D01*
X136704342Y-49390238D02*
X136799580Y-49437857D01*
X136799580Y-49437857D02*
X136847200Y-49485476D01*
X136847200Y-49485476D02*
X136894819Y-49580714D01*
X136894819Y-49580714D02*
X136894819Y-49723571D01*
X136894819Y-48533095D02*
X135894819Y-48533095D01*
X136847200Y-48533095D02*
X136894819Y-48628333D01*
X136894819Y-48628333D02*
X136894819Y-48818809D01*
X136894819Y-48818809D02*
X136847200Y-48914047D01*
X136847200Y-48914047D02*
X136799580Y-48961666D01*
X136799580Y-48961666D02*
X136704342Y-49009285D01*
X136704342Y-49009285D02*
X136418628Y-49009285D01*
X136418628Y-49009285D02*
X136323390Y-48961666D01*
X136323390Y-48961666D02*
X136275771Y-48914047D01*
X136275771Y-48914047D02*
X136228152Y-48818809D01*
X136228152Y-48818809D02*
X136228152Y-48628333D01*
X136228152Y-48628333D02*
X136275771Y-48533095D01*
X136990057Y-48295000D02*
X136990057Y-47533095D01*
X136894819Y-47294999D02*
X136228152Y-47294999D01*
X135894819Y-47294999D02*
X135942438Y-47342618D01*
X135942438Y-47342618D02*
X135990057Y-47294999D01*
X135990057Y-47294999D02*
X135942438Y-47247380D01*
X135942438Y-47247380D02*
X135894819Y-47294999D01*
X135894819Y-47294999D02*
X135990057Y-47294999D01*
X136228152Y-46818809D02*
X136894819Y-46818809D01*
X136323390Y-46818809D02*
X136275771Y-46771190D01*
X136275771Y-46771190D02*
X136228152Y-46675952D01*
X136228152Y-46675952D02*
X136228152Y-46533095D01*
X136228152Y-46533095D02*
X136275771Y-46437857D01*
X136275771Y-46437857D02*
X136371009Y-46390238D01*
X136371009Y-46390238D02*
X136894819Y-46390238D01*
X127486666Y-50364819D02*
X127486666Y-51079104D01*
X127486666Y-51079104D02*
X127439047Y-51221961D01*
X127439047Y-51221961D02*
X127343809Y-51317200D01*
X127343809Y-51317200D02*
X127200952Y-51364819D01*
X127200952Y-51364819D02*
X127105714Y-51364819D01*
X127867619Y-50364819D02*
X128486666Y-50364819D01*
X128486666Y-50364819D02*
X128153333Y-50745771D01*
X128153333Y-50745771D02*
X128296190Y-50745771D01*
X128296190Y-50745771D02*
X128391428Y-50793390D01*
X128391428Y-50793390D02*
X128439047Y-50841009D01*
X128439047Y-50841009D02*
X128486666Y-50936247D01*
X128486666Y-50936247D02*
X128486666Y-51174342D01*
X128486666Y-51174342D02*
X128439047Y-51269580D01*
X128439047Y-51269580D02*
X128391428Y-51317200D01*
X128391428Y-51317200D02*
X128296190Y-51364819D01*
X128296190Y-51364819D02*
X128010476Y-51364819D01*
X128010476Y-51364819D02*
X127915238Y-51317200D01*
X127915238Y-51317200D02*
X127867619Y-51269580D01*
D12*
X146646318Y-89273332D02*
X147553461Y-89273332D01*
X147553461Y-89273332D02*
X147734889Y-89333809D01*
X147734889Y-89333809D02*
X147855842Y-89454761D01*
X147855842Y-89454761D02*
X147916318Y-89636190D01*
X147916318Y-89636190D02*
X147916318Y-89757142D01*
X146767270Y-88729047D02*
X146706794Y-88668571D01*
X146706794Y-88668571D02*
X146646318Y-88547618D01*
X146646318Y-88547618D02*
X146646318Y-88245237D01*
X146646318Y-88245237D02*
X146706794Y-88124285D01*
X146706794Y-88124285D02*
X146767270Y-88063809D01*
X146767270Y-88063809D02*
X146888222Y-88003332D01*
X146888222Y-88003332D02*
X147009175Y-88003332D01*
X147009175Y-88003332D02*
X147190603Y-88063809D01*
X147190603Y-88063809D02*
X147916318Y-88789523D01*
X147916318Y-88789523D02*
X147916318Y-88003332D01*
D10*
X137284819Y-85071904D02*
X137284819Y-84405238D01*
X137284819Y-84405238D02*
X138284819Y-84833809D01*
X137618152Y-83595714D02*
X138284819Y-83595714D01*
X137237200Y-83833809D02*
X137951485Y-84071904D01*
X137951485Y-84071904D02*
X137951485Y-83452857D01*
X138284819Y-83071904D02*
X137284819Y-83071904D01*
X137761009Y-83071904D02*
X137761009Y-82500476D01*
X138284819Y-82500476D02*
X137284819Y-82500476D01*
X138189580Y-81452857D02*
X138237200Y-81500476D01*
X138237200Y-81500476D02*
X138284819Y-81643333D01*
X138284819Y-81643333D02*
X138284819Y-81738571D01*
X138284819Y-81738571D02*
X138237200Y-81881428D01*
X138237200Y-81881428D02*
X138141961Y-81976666D01*
X138141961Y-81976666D02*
X138046723Y-82024285D01*
X138046723Y-82024285D02*
X137856247Y-82071904D01*
X137856247Y-82071904D02*
X137713390Y-82071904D01*
X137713390Y-82071904D02*
X137522914Y-82024285D01*
X137522914Y-82024285D02*
X137427676Y-81976666D01*
X137427676Y-81976666D02*
X137332438Y-81881428D01*
X137332438Y-81881428D02*
X137284819Y-81738571D01*
X137284819Y-81738571D02*
X137284819Y-81643333D01*
X137284819Y-81643333D02*
X137332438Y-81500476D01*
X137332438Y-81500476D02*
X137380057Y-81452857D01*
X137284819Y-80548095D02*
X137284819Y-81024285D01*
X137284819Y-81024285D02*
X137761009Y-81071904D01*
X137761009Y-81071904D02*
X137713390Y-81024285D01*
X137713390Y-81024285D02*
X137665771Y-80929047D01*
X137665771Y-80929047D02*
X137665771Y-80690952D01*
X137665771Y-80690952D02*
X137713390Y-80595714D01*
X137713390Y-80595714D02*
X137761009Y-80548095D01*
X137761009Y-80548095D02*
X137856247Y-80500476D01*
X137856247Y-80500476D02*
X138094342Y-80500476D01*
X138094342Y-80500476D02*
X138189580Y-80548095D01*
X138189580Y-80548095D02*
X138237200Y-80595714D01*
X138237200Y-80595714D02*
X138284819Y-80690952D01*
X138284819Y-80690952D02*
X138284819Y-80929047D01*
X138284819Y-80929047D02*
X138237200Y-81024285D01*
X138237200Y-81024285D02*
X138189580Y-81071904D01*
X138284819Y-80024285D02*
X138284819Y-79833809D01*
X138284819Y-79833809D02*
X138237200Y-79738571D01*
X138237200Y-79738571D02*
X138189580Y-79690952D01*
X138189580Y-79690952D02*
X138046723Y-79595714D01*
X138046723Y-79595714D02*
X137856247Y-79548095D01*
X137856247Y-79548095D02*
X137475295Y-79548095D01*
X137475295Y-79548095D02*
X137380057Y-79595714D01*
X137380057Y-79595714D02*
X137332438Y-79643333D01*
X137332438Y-79643333D02*
X137284819Y-79738571D01*
X137284819Y-79738571D02*
X137284819Y-79929047D01*
X137284819Y-79929047D02*
X137332438Y-80024285D01*
X137332438Y-80024285D02*
X137380057Y-80071904D01*
X137380057Y-80071904D02*
X137475295Y-80119523D01*
X137475295Y-80119523D02*
X137713390Y-80119523D01*
X137713390Y-80119523D02*
X137808628Y-80071904D01*
X137808628Y-80071904D02*
X137856247Y-80024285D01*
X137856247Y-80024285D02*
X137903866Y-79929047D01*
X137903866Y-79929047D02*
X137903866Y-79738571D01*
X137903866Y-79738571D02*
X137856247Y-79643333D01*
X137856247Y-79643333D02*
X137808628Y-79595714D01*
X137808628Y-79595714D02*
X137713390Y-79548095D01*
X137284819Y-78643333D02*
X137284819Y-79119523D01*
X137284819Y-79119523D02*
X137761009Y-79167142D01*
X137761009Y-79167142D02*
X137713390Y-79119523D01*
X137713390Y-79119523D02*
X137665771Y-79024285D01*
X137665771Y-79024285D02*
X137665771Y-78786190D01*
X137665771Y-78786190D02*
X137713390Y-78690952D01*
X137713390Y-78690952D02*
X137761009Y-78643333D01*
X137761009Y-78643333D02*
X137856247Y-78595714D01*
X137856247Y-78595714D02*
X138094342Y-78595714D01*
X138094342Y-78595714D02*
X138189580Y-78643333D01*
X138189580Y-78643333D02*
X138237200Y-78690952D01*
X138237200Y-78690952D02*
X138284819Y-78786190D01*
X138284819Y-78786190D02*
X138284819Y-79024285D01*
X138284819Y-79024285D02*
X138237200Y-79119523D01*
X138237200Y-79119523D02*
X138189580Y-79167142D01*
X126064819Y-82571904D02*
X126874342Y-82571904D01*
X126874342Y-82571904D02*
X126969580Y-82524285D01*
X126969580Y-82524285D02*
X127017200Y-82476666D01*
X127017200Y-82476666D02*
X127064819Y-82381428D01*
X127064819Y-82381428D02*
X127064819Y-82190952D01*
X127064819Y-82190952D02*
X127017200Y-82095714D01*
X127017200Y-82095714D02*
X126969580Y-82048095D01*
X126969580Y-82048095D02*
X126874342Y-82000476D01*
X126874342Y-82000476D02*
X126064819Y-82000476D01*
X126160057Y-81571904D02*
X126112438Y-81524285D01*
X126112438Y-81524285D02*
X126064819Y-81429047D01*
X126064819Y-81429047D02*
X126064819Y-81190952D01*
X126064819Y-81190952D02*
X126112438Y-81095714D01*
X126112438Y-81095714D02*
X126160057Y-81048095D01*
X126160057Y-81048095D02*
X126255295Y-81000476D01*
X126255295Y-81000476D02*
X126350533Y-81000476D01*
X126350533Y-81000476D02*
X126493390Y-81048095D01*
X126493390Y-81048095D02*
X127064819Y-81619523D01*
X127064819Y-81619523D02*
X127064819Y-81000476D01*
D12*
X146646318Y-66413332D02*
X147553461Y-66413332D01*
X147553461Y-66413332D02*
X147734889Y-66473809D01*
X147734889Y-66473809D02*
X147855842Y-66594761D01*
X147855842Y-66594761D02*
X147916318Y-66776190D01*
X147916318Y-66776190D02*
X147916318Y-66897142D01*
X147916318Y-65143332D02*
X147916318Y-65869047D01*
X147916318Y-65506190D02*
X146646318Y-65506190D01*
X146646318Y-65506190D02*
X146827746Y-65627142D01*
X146827746Y-65627142D02*
X146948699Y-65748094D01*
X146948699Y-65748094D02*
X147009175Y-65869047D01*
D13*
%TO.C,C1*%
X120650000Y-60350000D02*
X120650000Y-62250000D01*
X120650000Y-62250000D02*
X124950000Y-62250000D01*
X124950000Y-60350000D02*
X120650000Y-60350000D01*
X124950000Y-62250000D02*
X124950000Y-60350000D01*
D10*
%TO.C,*%
X106400000Y-53040000D02*
G75*
G02*
X100200000Y-53040000I-3100000J0D01*
G01*
X100200000Y-53040000D02*
G75*
G02*
X106400000Y-53040000I3100000J0D01*
G01*
X104675000Y-53040000D02*
G75*
G02*
X101925000Y-53040000I-1375000J0D01*
G01*
X101925000Y-53040000D02*
G75*
G02*
X104675000Y-53040000I1375000J0D01*
G01*
D13*
%TO.C,U1*%
X116455000Y-66140000D02*
X136775000Y-66140000D01*
X116455000Y-71490000D02*
X116455000Y-66140000D01*
X117455000Y-72490000D02*
X116455000Y-71490000D01*
X136775000Y-66140000D02*
X136775000Y-72490000D01*
X136775000Y-72490000D02*
X117455000Y-72490000D01*
%TO.C,U3*%
X104315000Y-66270000D02*
X110665000Y-66270000D01*
X104315000Y-84050000D02*
X104315000Y-66270000D01*
X109665000Y-84050000D02*
X104315000Y-84050000D01*
X110665000Y-66270000D02*
X110665000Y-83050000D01*
X110665000Y-83050000D02*
X109665000Y-84050000D01*
%TO.C,J4*%
X120200000Y-97490000D02*
X121170000Y-96520000D01*
X120200000Y-105030000D02*
X120200000Y-97490000D01*
X121170000Y-95000000D02*
X121170000Y-96520000D01*
X121170000Y-96520000D02*
X135440000Y-96520000D01*
X121770000Y-95000000D02*
X121170000Y-95000000D01*
X121770000Y-96520000D02*
X121770000Y-95000000D01*
X123710000Y-95000000D02*
X123710000Y-96520000D01*
X124310000Y-95000000D02*
X123710000Y-95000000D01*
X124310000Y-96520000D02*
X124310000Y-95000000D01*
X126250000Y-95000000D02*
X126250000Y-96520000D01*
X126850000Y-95000000D02*
X126250000Y-95000000D01*
X126850000Y-96520000D02*
X126850000Y-95000000D01*
X128790000Y-95000000D02*
X128790000Y-96520000D01*
X129390000Y-95000000D02*
X128790000Y-95000000D01*
X129390000Y-96520000D02*
X129390000Y-95000000D01*
X131330000Y-95000000D02*
X131330000Y-96520000D01*
X131930000Y-95000000D02*
X131330000Y-95000000D01*
X131930000Y-96520000D02*
X131930000Y-95000000D01*
X133870000Y-95000000D02*
X133870000Y-96520000D01*
X134470000Y-95000000D02*
X133870000Y-95000000D01*
X134470000Y-96520000D02*
X134470000Y-95000000D01*
X135440000Y-96520000D02*
X135440000Y-105030000D01*
X135440000Y-105030000D02*
X120200000Y-105030000D01*
%TO.C,C3*%
X105650000Y-86150000D02*
X105650000Y-88050000D01*
X105650000Y-88050000D02*
X109950000Y-88050000D01*
X109950000Y-86150000D02*
X105650000Y-86150000D01*
X109950000Y-88050000D02*
X109950000Y-86150000D01*
D10*
%TO.C,*%
X155360000Y-53040000D02*
G75*
G02*
X149160000Y-53040000I-3100000J0D01*
G01*
X149160000Y-53040000D02*
G75*
G02*
X155360000Y-53040000I3100000J0D01*
G01*
X153635000Y-53040000D02*
G75*
G02*
X150885000Y-53040000I-1375000J0D01*
G01*
X150885000Y-53040000D02*
G75*
G02*
X153635000Y-53040000I1375000J0D01*
G01*
D13*
%TO.C,C2*%
X113550000Y-66950000D02*
X113550000Y-71250000D01*
X113550000Y-71250000D02*
X115450000Y-71250000D01*
X115450000Y-66950000D02*
X113550000Y-66950000D01*
X115450000Y-71250000D02*
X115450000Y-66950000D01*
%TO.C,J3*%
X120200000Y-49640000D02*
X135440000Y-49640000D01*
X120200000Y-51545000D02*
X120200000Y-49640000D01*
X120835000Y-52180000D02*
X120200000Y-51545000D01*
X121150000Y-43640000D02*
X121790000Y-43640000D01*
X121150000Y-49640000D02*
X121150000Y-43640000D01*
X121150000Y-54000000D02*
X121150000Y-52180000D01*
X121150000Y-54000000D02*
X121790000Y-54000000D01*
X121790000Y-49640000D02*
X121790000Y-43640000D01*
X121790000Y-54000000D02*
X121790000Y-52180000D01*
X123690000Y-43640000D02*
X124330000Y-43640000D01*
X123690000Y-49640000D02*
X123690000Y-43640000D01*
X123690000Y-54000000D02*
X123690000Y-52180000D01*
X123690000Y-54000000D02*
X124330000Y-54000000D01*
X124330000Y-49640000D02*
X124330000Y-43640000D01*
X124330000Y-54000000D02*
X124330000Y-52180000D01*
X126230000Y-43640000D02*
X126870000Y-43640000D01*
X126230000Y-49640000D02*
X126230000Y-43640000D01*
X126230000Y-54000000D02*
X126230000Y-52180000D01*
X126230000Y-54000000D02*
X126870000Y-54000000D01*
X126870000Y-49640000D02*
X126870000Y-43640000D01*
X126870000Y-54000000D02*
X126870000Y-52180000D01*
X128770000Y-43640000D02*
X129410000Y-43640000D01*
X128770000Y-49640000D02*
X128770000Y-43640000D01*
X128770000Y-54000000D02*
X128770000Y-52180000D01*
X128770000Y-54000000D02*
X129410000Y-54000000D01*
X129410000Y-49640000D02*
X129410000Y-43640000D01*
X129410000Y-54000000D02*
X129410000Y-52180000D01*
X131310000Y-43640000D02*
X131950000Y-43640000D01*
X131310000Y-49640000D02*
X131310000Y-43640000D01*
X131310000Y-54000000D02*
X131310000Y-52180000D01*
X131310000Y-54000000D02*
X131950000Y-54000000D01*
X131950000Y-49640000D02*
X131950000Y-43640000D01*
X131950000Y-54000000D02*
X131950000Y-52180000D01*
X133850000Y-43640000D02*
X134490000Y-43640000D01*
X133850000Y-49640000D02*
X133850000Y-43640000D01*
X133850000Y-54000000D02*
X133850000Y-52180000D01*
X133850000Y-54000000D02*
X134490000Y-54000000D01*
X134490000Y-49640000D02*
X134490000Y-43640000D01*
X134490000Y-54000000D02*
X134490000Y-52180000D01*
X135440000Y-49640000D02*
X135440000Y-52180000D01*
X135440000Y-52180000D02*
X120835000Y-52180000D01*
D10*
%TO.C,*%
X155360000Y-102000000D02*
G75*
G02*
X149160000Y-102000000I-3100000J0D01*
G01*
X149160000Y-102000000D02*
G75*
G02*
X155360000Y-102000000I3100000J0D01*
G01*
X153635000Y-102000000D02*
G75*
G02*
X150885000Y-102000000I-1375000J0D01*
G01*
X150885000Y-102000000D02*
G75*
G02*
X153635000Y-102000000I1375000J0D01*
G01*
D13*
%TO.C,J2*%
X146820000Y-81230000D02*
X154770000Y-81230000D01*
X146820000Y-96470000D02*
X146820000Y-81230000D01*
X154770000Y-81230000D02*
X154770000Y-96470000D01*
X154770000Y-96470000D02*
X146820000Y-96470000D01*
%TO.C,U2*%
X116450000Y-78635000D02*
X136770000Y-78635000D01*
X116450000Y-83985000D02*
X116450000Y-78635000D01*
X117450000Y-84985000D02*
X116450000Y-83985000D01*
X136770000Y-78635000D02*
X136770000Y-84985000D01*
X136770000Y-84985000D02*
X117450000Y-84985000D01*
D10*
%TO.C,*%
X106400000Y-102000000D02*
G75*
G02*
X100200000Y-102000000I-3100000J0D01*
G01*
X100200000Y-102000000D02*
G75*
G02*
X106400000Y-102000000I3100000J0D01*
G01*
X104675000Y-102000000D02*
G75*
G02*
X101925000Y-102000000I-1375000J0D01*
G01*
X101925000Y-102000000D02*
G75*
G02*
X104675000Y-102000000I1375000J0D01*
G01*
D13*
%TO.C,J1*%
X146820000Y-58370000D02*
X154770000Y-58370000D01*
X146820000Y-73610000D02*
X146820000Y-58370000D01*
X154770000Y-58370000D02*
X154770000Y-73610000D01*
X154770000Y-73610000D02*
X146820000Y-73610000D01*
%TD*%
M02*
