M48
; DRILL file {KiCad 8.0.6} date 2024-10-19T21:44:46+0200
; FORMAT={-:-/ absolute / inch / decimal}
; #@! TF.CreationDate,2024-10-19T21:44:46+02:00
; #@! TF.GenerationSoftware,Kicad,Pcbnew,8.0.6
; #@! TF.FileFunction,Plated,1,2,PTH
FMAT,2
INCH
; #@! TA.AperFunction,Plated,PTH,ViaDrill
T1C0.0157
; #@! TA.AperFunction,Plated,PTH,ComponentDrill
T2C0.0315
; #@! TA.AperFunction,Plated,PTH,ComponentDrill
T3C0.0362
; #@! TA.AperFunction,Plated,PTH,ComponentDrill
T4C0.0394
%
G90
G05
T1
X4.4173Y-2.5768
X4.7362Y-2.6969
X4.8819Y-3.1398
X5.063Y-2.2638
X5.0748Y-3.6063
X5.1142Y-2.9803
X5.1457Y-3.6063
X5.1575Y-2.7795
X5.2244Y-2.7559
X5.2992Y-2.7207
X5.4154Y-3.4803
X5.5945Y-3.0709
X5.7047Y-3.0709
X5.8071Y-3.0709
T2
X4.0819Y-2.6591
X4.0819Y-2.7591
X4.0819Y-2.8591
X4.0819Y-2.9591
X4.0819Y-3.0591
X4.0819Y-3.1591
X4.0819Y-3.2591
X4.1457Y-3.4291
X4.3425Y-3.4291
X4.3819Y-2.6591
X4.3819Y-2.7591
X4.3819Y-2.8591
X4.3819Y-2.9591
X4.3819Y-3.0591
X4.3819Y-3.1591
X4.3819Y-3.2591
X4.5079Y-2.622
X4.5079Y-2.8189
X4.6346Y-3.0709
X4.6346Y-3.3709
X4.6348Y-2.5789
X4.6348Y-2.8789
X4.7346Y-3.0709
X4.7346Y-3.3709
X4.7348Y-2.5789
X4.7348Y-2.8789
X4.7362Y-2.4134
X4.8346Y-3.0709
X4.8346Y-3.3709
X4.8348Y-2.5789
X4.8348Y-2.8789
X4.9331Y-2.4134
X4.9346Y-3.0709
X4.9346Y-3.3709
X4.9348Y-2.5789
X4.9348Y-2.8789
X5.0346Y-3.0709
X5.0346Y-3.3709
X5.0348Y-2.5789
X5.0348Y-2.8789
X5.1346Y-3.0709
X5.1346Y-3.3709
X5.1348Y-2.5789
X5.1348Y-2.8789
X5.2346Y-3.0709
X5.2346Y-3.3709
X5.2348Y-2.5789
X5.2348Y-2.8789
X5.3346Y-3.0709
X5.3346Y-3.3709
X5.3348Y-2.5789
X5.3348Y-2.8789
T3
X5.6331Y-2.348
X5.6331Y-2.448
X5.6331Y-2.548
X5.6331Y-2.648
X5.6331Y-2.748
X5.6331Y-2.848
X5.6331Y-3.248
X5.6331Y-3.348
X5.6331Y-3.448
X5.6331Y-3.548
X5.6331Y-3.648
X5.6331Y-3.748
X5.7331Y-2.348
X5.7331Y-2.448
X5.7331Y-2.548
X5.7331Y-2.648
X5.7331Y-2.748
X5.7331Y-2.848
X5.7331Y-3.248
X5.7331Y-3.348
X5.7331Y-3.448
X5.7331Y-3.548
X5.7331Y-3.648
X5.7331Y-3.748
T4
X4.7823Y-2.1134
X4.7823Y-3.7402
X4.8823Y-2.1134
X4.8823Y-3.7402
X4.9823Y-2.1134
X4.9823Y-3.7402
X5.0823Y-2.1134
X5.0823Y-3.7402
X5.1823Y-2.1134
X5.1823Y-3.7402
X5.2823Y-2.1134
X5.2823Y-3.7402
M30
