%TF.GenerationSoftware,KiCad,Pcbnew,8.0.6*%
%TF.CreationDate,2024-10-19T21:44:56+02:00*%
%TF.ProjectId,595-PM-EXT,3539352d-504d-42d4-9558-542e6b696361,rev?*%
%TF.SameCoordinates,Original*%
%TF.FileFunction,Copper,L2,Bot*%
%TF.FilePolarity,Positive*%
%FSLAX46Y46*%
G04 Gerber Fmt 4.6, Leading zero omitted, Abs format (unit mm)*
G04 Created by KiCad (PCBNEW 8.0.6) date 2024-10-19 21:44:56*
%MOMM*%
%LPD*%
G01*
G04 APERTURE LIST*
%TA.AperFunction,ComponentPad*%
%ADD10C,1.600000*%
%TD*%
%TA.AperFunction,ComponentPad*%
%ADD11R,1.600000X2.400000*%
%TD*%
%TA.AperFunction,ComponentPad*%
%ADD12O,1.600000X2.400000*%
%TD*%
%TA.AperFunction,ComponentPad*%
%ADD13R,1.600000X1.600000*%
%TD*%
%TA.AperFunction,ComponentPad*%
%ADD14O,1.600000X1.600000*%
%TD*%
%TA.AperFunction,ComponentPad*%
%ADD15R,1.700000X1.700000*%
%TD*%
%TA.AperFunction,ComponentPad*%
%ADD16O,1.700000X1.700000*%
%TD*%
%TA.AperFunction,ComponentPad*%
%ADD17R,1.431000X1.431000*%
%TD*%
%TA.AperFunction,ComponentPad*%
%ADD18C,1.431000*%
%TD*%
%TA.AperFunction,ViaPad*%
%ADD19C,0.800000*%
%TD*%
%TA.AperFunction,Conductor*%
%ADD20C,0.250000*%
%TD*%
%TA.AperFunction,Conductor*%
%ADD21C,0.600000*%
%TD*%
G04 APERTURE END LIST*
D10*
%TO.P,C1,1*%
%TO.N,VDD*%
X120300000Y-61300000D03*
%TO.P,C1,2*%
%TO.N,GND*%
X125300000Y-61300000D03*
%TD*%
D11*
%TO.P,U1,1,QB*%
%TO.N,/QB*%
X117725000Y-73125000D03*
D12*
%TO.P,U1,2,QC*%
%TO.N,/QC*%
X120265000Y-73125000D03*
%TO.P,U1,3,QD*%
%TO.N,/QD*%
X122805000Y-73125000D03*
%TO.P,U1,4,QE*%
%TO.N,/QE*%
X125345000Y-73125000D03*
%TO.P,U1,5,QF*%
%TO.N,/QF*%
X127885000Y-73125000D03*
%TO.P,U1,6,QG*%
%TO.N,/QG*%
X130425000Y-73125000D03*
%TO.P,U1,7,QH*%
%TO.N,/QH*%
X132965000Y-73125000D03*
%TO.P,U1,8,GND*%
%TO.N,GND*%
X135505000Y-73125000D03*
%TO.P,U1,9,QH'*%
%TO.N,Net-(U1-QH')*%
X135505000Y-65505000D03*
%TO.P,U1,10,~{SRCLR}*%
%TO.N,VDD*%
X132965000Y-65505000D03*
%TO.P,U1,11,SRCLK*%
%TO.N,/SRCLKO*%
X130425000Y-65505000D03*
%TO.P,U1,12,RCLK*%
%TO.N,/RCLKO*%
X127885000Y-65505000D03*
%TO.P,U1,13,~{OE}*%
%TO.N,GND*%
X125345000Y-65505000D03*
%TO.P,U1,14,SER*%
%TO.N,Net-(U1-SER)*%
X122805000Y-65505000D03*
%TO.P,U1,15,QA*%
%TO.N,/QA*%
X120265000Y-65505000D03*
%TO.P,U1,16,VCC*%
%TO.N,VDD*%
X117725000Y-65505000D03*
%TD*%
D13*
%TO.P,U3,1*%
%TO.N,/SER*%
X111300000Y-82780000D03*
D14*
%TO.P,U3,2*%
%TO.N,VDD*%
X111300000Y-80240000D03*
%TO.P,U3,3*%
%TO.N,Net-(U1-SER)*%
X111300000Y-77700000D03*
%TO.P,U3,4*%
%TO.N,/SRCLK*%
X111300000Y-75160000D03*
%TO.P,U3,5*%
%TO.N,VDD*%
X111300000Y-72620000D03*
%TO.P,U3,6*%
%TO.N,/SRCLKO*%
X111300000Y-70080000D03*
%TO.P,U3,7,GND*%
%TO.N,GND*%
X111300000Y-67540000D03*
%TO.P,U3,8*%
%TO.N,/RCLKO*%
X103680000Y-67540000D03*
%TO.P,U3,9*%
%TO.N,/RCLK*%
X103680000Y-70080000D03*
%TO.P,U3,10*%
%TO.N,VDD*%
X103680000Y-72620000D03*
%TO.P,U3,11*%
%TO.N,/SERO*%
X103680000Y-75160000D03*
%TO.P,U3,12*%
%TO.N,VDD*%
X103680000Y-77700000D03*
%TO.P,U3,13*%
%TO.N,/SER`*%
X103680000Y-80240000D03*
%TO.P,U3,14,VCC*%
%TO.N,VDD*%
X103680000Y-82780000D03*
%TD*%
D15*
%TO.P,J4,1,Pin_1*%
%TO.N,VDD*%
X121470000Y-95000000D03*
D16*
%TO.P,J4,2,Pin_2*%
%TO.N,GND*%
X124010000Y-95000000D03*
%TO.P,J4,3,Pin_3*%
%TO.N,unconnected-(J4-Pin_3-Pad3)*%
X126550000Y-95000000D03*
%TO.P,J4,4,Pin_4*%
%TO.N,/RCLKO*%
X129090000Y-95000000D03*
%TO.P,J4,5,Pin_5*%
%TO.N,/SRCLKO*%
X131630000Y-95000000D03*
%TO.P,J4,6,Pin_6*%
%TO.N,/SERO*%
X134170000Y-95000000D03*
%TD*%
D10*
%TO.P,C3,1*%
%TO.N,VDD*%
X105300000Y-87100000D03*
%TO.P,C3,2*%
%TO.N,GND*%
X110300000Y-87100000D03*
%TD*%
%TO.P,C2,1*%
%TO.N,VDD*%
X114500000Y-71600000D03*
%TO.P,C2,2*%
%TO.N,GND*%
X114500000Y-66600000D03*
%TD*%
D15*
%TO.P,J3,1,Pin_1*%
%TO.N,VDD*%
X121470000Y-53680000D03*
D16*
%TO.P,J3,2,Pin_2*%
%TO.N,GND*%
X124010000Y-53680000D03*
%TO.P,J3,3,Pin_3*%
%TO.N,unconnected-(J3-Pin_3-Pad3)*%
X126550000Y-53680000D03*
%TO.P,J3,4,Pin_4*%
%TO.N,/RCLK*%
X129090000Y-53680000D03*
%TO.P,J3,5,Pin_5*%
%TO.N,/SRCLK*%
X131630000Y-53680000D03*
%TO.P,J3,6,Pin_6*%
%TO.N,/SER*%
X134170000Y-53680000D03*
%TD*%
D17*
%TO.P,J2,1,IO1*%
%TO.N,/QA`*%
X143080000Y-82500000D03*
D18*
%TO.P,J2,2,IO2*%
%TO.N,/QB`*%
X143080000Y-85040000D03*
%TO.P,J2,3,IO3*%
%TO.N,/QC`*%
X143080000Y-87580000D03*
%TO.P,J2,4,IO4*%
%TO.N,/QD`*%
X143080000Y-90120000D03*
%TO.P,J2,5,GND*%
%TO.N,GND*%
X143080000Y-92660000D03*
%TO.P,J2,6,VCC*%
%TO.N,VDD*%
X143080000Y-95200000D03*
%TO.P,J2,7,IO5*%
%TO.N,/QE`*%
X145620000Y-82500000D03*
%TO.P,J2,8,IO6*%
%TO.N,/QF`*%
X145620000Y-85040000D03*
%TO.P,J2,9,IO7*%
%TO.N,/QG`*%
X145620000Y-87580000D03*
%TO.P,J2,10,IO8*%
%TO.N,/QH`*%
X145620000Y-90120000D03*
%TO.P,J2,11,GND*%
%TO.N,GND*%
X145620000Y-92660000D03*
%TO.P,J2,12,VCC*%
%TO.N,VDD*%
X145620000Y-95200000D03*
%TD*%
D11*
%TO.P,U2,1,QB*%
%TO.N,/QB`*%
X117720000Y-85620000D03*
D12*
%TO.P,U2,2,QC*%
%TO.N,/QC`*%
X120260000Y-85620000D03*
%TO.P,U2,3,QD*%
%TO.N,/QD`*%
X122800000Y-85620000D03*
%TO.P,U2,4,QE*%
%TO.N,/QE`*%
X125340000Y-85620000D03*
%TO.P,U2,5,QF*%
%TO.N,/QF`*%
X127880000Y-85620000D03*
%TO.P,U2,6,QG*%
%TO.N,/QG`*%
X130420000Y-85620000D03*
%TO.P,U2,7,QH*%
%TO.N,/QH`*%
X132960000Y-85620000D03*
%TO.P,U2,8,GND*%
%TO.N,GND*%
X135500000Y-85620000D03*
%TO.P,U2,9,QH'*%
%TO.N,/SER`*%
X135500000Y-78000000D03*
%TO.P,U2,10,~{SRCLR}*%
%TO.N,VDD*%
X132960000Y-78000000D03*
%TO.P,U2,11,SRCLK*%
%TO.N,/SRCLKO*%
X130420000Y-78000000D03*
%TO.P,U2,12,RCLK*%
%TO.N,/RCLKO*%
X127880000Y-78000000D03*
%TO.P,U2,13,~{OE}*%
%TO.N,GND*%
X125340000Y-78000000D03*
%TO.P,U2,14,SER*%
%TO.N,Net-(U1-QH')*%
X122800000Y-78000000D03*
%TO.P,U2,15,QA*%
%TO.N,/QA`*%
X120260000Y-78000000D03*
%TO.P,U2,16,VCC*%
%TO.N,VDD*%
X117720000Y-78000000D03*
%TD*%
D17*
%TO.P,J1,1,IO1*%
%TO.N,/QA*%
X143080000Y-59640000D03*
D18*
%TO.P,J1,2,IO2*%
%TO.N,/QB*%
X143080000Y-62180000D03*
%TO.P,J1,3,IO3*%
%TO.N,/QC*%
X143080000Y-64720000D03*
%TO.P,J1,4,IO4*%
%TO.N,/QD*%
X143080000Y-67260000D03*
%TO.P,J1,5,GND*%
%TO.N,GND*%
X143080000Y-69800000D03*
%TO.P,J1,6,VCC*%
%TO.N,VDD*%
X143080000Y-72340000D03*
%TO.P,J1,7,IO5*%
%TO.N,/QE*%
X145620000Y-59640000D03*
%TO.P,J1,8,IO6*%
%TO.N,/QF*%
X145620000Y-62180000D03*
%TO.P,J1,9,IO7*%
%TO.N,/QG*%
X145620000Y-64720000D03*
%TO.P,J1,10,IO8*%
%TO.N,/QH*%
X145620000Y-67260000D03*
%TO.P,J1,11,GND*%
%TO.N,GND*%
X145620000Y-69800000D03*
%TO.P,J1,12,VCC*%
%TO.N,VDD*%
X145620000Y-72340000D03*
%TD*%
D19*
%TO.N,/QG*%
X131000000Y-70600000D03*
%TO.N,/QF*%
X132700000Y-70000000D03*
%TO.N,/QE*%
X134600000Y-69105000D03*
%TO.N,GND*%
X144900000Y-78000000D03*
X130700000Y-91600000D03*
X142100000Y-78000000D03*
X124000000Y-79750000D03*
X128900000Y-91600000D03*
X128600000Y-57500000D03*
X147500000Y-78000000D03*
X129900000Y-75700000D03*
%TO.N,/QG`*%
X137550000Y-88400000D03*
%TO.N,/RCLKO*%
X112200000Y-65450000D03*
%TO.N,Net-(U1-SER)*%
X120300000Y-68500000D03*
%TD*%
D20*
%TO.N,/QG*%
X131000000Y-70600000D02*
X131125000Y-70725000D01*
X134641701Y-70725000D02*
X139606201Y-65760500D01*
X131125000Y-70725000D02*
X134641701Y-70725000D01*
X139606201Y-65760500D02*
X144579500Y-65760500D01*
X144579500Y-65760500D02*
X145620000Y-64720000D01*
%TO.N,/QF*%
X134730305Y-70000000D02*
X141480305Y-63250000D01*
X132700000Y-70000000D02*
X134730305Y-70000000D01*
X141480305Y-63250000D02*
X144550000Y-63250000D01*
X144550000Y-63250000D02*
X145620000Y-62180000D01*
D21*
%TO.N,VDD*%
X117725000Y-63875000D02*
X120300000Y-61300000D01*
X143080000Y-95200000D02*
X145620000Y-95200000D01*
X108900000Y-75020000D02*
X108900000Y-77900000D01*
X116425000Y-71425000D02*
X117550000Y-70300000D01*
X116425000Y-76705000D02*
X116425000Y-71425000D01*
X147400000Y-70900000D02*
X148000000Y-70300000D01*
X112925000Y-81925000D02*
X129035000Y-81925000D01*
X103680000Y-85480000D02*
X105300000Y-87100000D01*
X146960000Y-72340000D02*
X147400000Y-71900000D01*
X114540000Y-85800000D02*
X117240000Y-88500000D01*
X117725000Y-65505000D02*
X117725000Y-63875000D01*
X145620000Y-72340000D02*
X149800000Y-76520000D01*
X103680000Y-72620000D02*
X111300000Y-72620000D01*
X138880000Y-99400000D02*
X143080000Y-95200000D01*
X149800000Y-76520000D02*
X149800000Y-91020000D01*
X121470000Y-95000000D02*
X121470000Y-97720000D01*
X103680000Y-77700000D02*
X104980000Y-76400000D01*
X105300000Y-87100000D02*
X106600000Y-85800000D01*
X114500000Y-71600000D02*
X116250000Y-71600000D01*
X128170000Y-70300000D02*
X132965000Y-65505000D01*
X116250000Y-71600000D02*
X116425000Y-71425000D01*
X149800000Y-91020000D02*
X145620000Y-95200000D01*
X138620000Y-72340000D02*
X145620000Y-72340000D01*
X123050000Y-60000000D02*
X127460000Y-60000000D01*
X147400000Y-70900000D02*
X147400000Y-71900000D01*
X121470000Y-53680000D02*
X121470000Y-58420000D01*
X103680000Y-82780000D02*
X103680000Y-85480000D01*
X147150000Y-57450000D02*
X148550000Y-58850000D01*
X132965000Y-65505000D02*
X127460000Y-60000000D01*
X121470000Y-58420000D02*
X123050000Y-60000000D01*
X104980000Y-76400000D02*
X104980000Y-73920000D01*
X108900000Y-77900000D02*
X112925000Y-81925000D01*
X148550000Y-58850000D02*
X148550000Y-69750000D01*
X117240000Y-88500000D02*
X135368131Y-88500000D01*
X121470000Y-97720000D02*
X123150000Y-99400000D01*
X121600000Y-60000000D02*
X120300000Y-61300000D01*
X130010000Y-57450000D02*
X147150000Y-57450000D01*
X148550000Y-69750000D02*
X147400000Y-70900000D01*
X123150000Y-99400000D02*
X138880000Y-99400000D01*
X142068131Y-95200000D02*
X143080000Y-95200000D01*
X132960000Y-78000000D02*
X138620000Y-72340000D01*
X104980000Y-73920000D02*
X103680000Y-72620000D01*
X145620000Y-72340000D02*
X146960000Y-72340000D01*
X111300000Y-72620000D02*
X108900000Y-75020000D01*
X129035000Y-81925000D02*
X132960000Y-78000000D01*
X117720000Y-78000000D02*
X116425000Y-76705000D01*
X127460000Y-60000000D02*
X121600000Y-60000000D01*
X127460000Y-60000000D02*
X130010000Y-57450000D01*
X117550000Y-70300000D02*
X128170000Y-70300000D01*
X135368131Y-88500000D02*
X142068131Y-95200000D01*
X106600000Y-85800000D02*
X114540000Y-85800000D01*
D20*
%TO.N,/QE*%
X134600000Y-69105000D02*
X143024500Y-60680500D01*
X143024500Y-60680500D02*
X144579500Y-60680500D01*
X144579500Y-60680500D02*
X145620000Y-59640000D01*
%TO.N,GND*%
X125340000Y-76260000D02*
X126000000Y-75600000D01*
X126000000Y-75600000D02*
X129800000Y-75600000D01*
X125340000Y-78000000D02*
X125340000Y-76260000D01*
X129800000Y-75600000D02*
X129900000Y-75700000D01*
%TO.N,/QG`*%
X141988510Y-87200000D02*
X142649010Y-86539500D01*
X137550000Y-88400000D02*
X138750000Y-87200000D01*
X142649010Y-86539500D02*
X144579500Y-86539500D01*
X144579500Y-86539500D02*
X145620000Y-87580000D01*
X138750000Y-87200000D02*
X141988510Y-87200000D01*
%TO.N,/QF`*%
X142180500Y-86080500D02*
X140195000Y-84095000D01*
X144579500Y-86080500D02*
X142180500Y-86080500D01*
X129405000Y-84095000D02*
X127880000Y-85620000D01*
X140195000Y-84095000D02*
X129405000Y-84095000D01*
X145620000Y-85040000D02*
X144579500Y-86080500D01*
%TO.N,Net-(U1-QH')*%
X128400000Y-71050000D02*
X125429010Y-71050000D01*
X131700000Y-67750000D02*
X128400000Y-71050000D01*
X133300000Y-67750000D02*
X131700000Y-67750000D01*
X135505000Y-65545000D02*
X133300000Y-67750000D01*
X124100000Y-72379010D02*
X124100000Y-76700000D01*
X135505000Y-65505000D02*
X135505000Y-65545000D01*
X125429010Y-71050000D02*
X124100000Y-72379010D01*
X124100000Y-76700000D02*
X122800000Y-78000000D01*
%TO.N,/QE`*%
X127419500Y-83540500D02*
X125340000Y-85620000D01*
X144579500Y-83540500D02*
X127419500Y-83540500D01*
X145620000Y-82500000D02*
X144579500Y-83540500D01*
%TO.N,/SRCLKO*%
X126465000Y-77424010D02*
X126465000Y-78865990D01*
X130425000Y-66675000D02*
X127800000Y-69300000D01*
X113200000Y-77800000D02*
X113200000Y-71980000D01*
X130420000Y-78000000D02*
X128895000Y-76475000D01*
X128895000Y-76475000D02*
X127414010Y-76475000D01*
X124530990Y-80800000D02*
X116200000Y-80800000D01*
X112080000Y-69300000D02*
X111300000Y-70080000D01*
X116200000Y-80800000D02*
X113200000Y-77800000D01*
X127414010Y-76475000D02*
X126465000Y-77424010D01*
X126465000Y-78865990D02*
X124530990Y-80800000D01*
X113200000Y-71980000D02*
X111300000Y-70080000D01*
X130425000Y-65505000D02*
X130425000Y-66675000D01*
X127800000Y-69300000D02*
X112080000Y-69300000D01*
%TO.N,/RCLKO*%
X126500000Y-81300000D02*
X127880000Y-79920000D01*
X112425000Y-72154009D02*
X112425000Y-77925000D01*
X103680000Y-67540000D02*
X103990000Y-67540000D01*
X110175000Y-70545991D02*
X110834009Y-71205000D01*
X106995991Y-70545991D02*
X110175000Y-70545991D01*
X111475991Y-71205000D02*
X112425000Y-72154009D01*
X112425000Y-77925000D02*
X115800000Y-81300000D01*
X115800000Y-81300000D02*
X126500000Y-81300000D01*
X107730000Y-65450000D02*
X105640000Y-67540000D01*
X127880000Y-79920000D02*
X127880000Y-78000000D01*
X110834009Y-71205000D02*
X111475991Y-71205000D01*
X105640000Y-67540000D02*
X103680000Y-67540000D01*
X112200000Y-65450000D02*
X107730000Y-65450000D01*
X103990000Y-67540000D02*
X106995991Y-70545991D01*
%TO.N,Net-(U1-SER)*%
X120300000Y-68500000D02*
X122805000Y-65995000D01*
X122805000Y-65995000D02*
X122805000Y-65505000D01*
%TD*%
%TA.AperFunction,Conductor*%
%TO.N,GND*%
G36*
X124985860Y-70820185D02*
G01*
X125031615Y-70872989D01*
X125041559Y-70942147D01*
X125012534Y-71005703D01*
X125006502Y-71012181D01*
X123833788Y-72184895D01*
X123832699Y-72183806D01*
X123783674Y-72219591D01*
X123713928Y-72223733D01*
X123653013Y-72189510D01*
X123638645Y-72171785D01*
X123582139Y-72087217D01*
X123442785Y-71947863D01*
X123442781Y-71947860D01*
X123278920Y-71838371D01*
X123278907Y-71838364D01*
X123096839Y-71762950D01*
X123096829Y-71762947D01*
X122903543Y-71724500D01*
X122903541Y-71724500D01*
X122706459Y-71724500D01*
X122706457Y-71724500D01*
X122513170Y-71762947D01*
X122513160Y-71762950D01*
X122331092Y-71838364D01*
X122331079Y-71838371D01*
X122167218Y-71947860D01*
X122167214Y-71947863D01*
X122027863Y-72087214D01*
X122027860Y-72087218D01*
X121918371Y-72251079D01*
X121918364Y-72251092D01*
X121842950Y-72433160D01*
X121842947Y-72433170D01*
X121804500Y-72626456D01*
X121804500Y-72626459D01*
X121804500Y-73623541D01*
X121804500Y-73623543D01*
X121804499Y-73623543D01*
X121842947Y-73816829D01*
X121842950Y-73816839D01*
X121918364Y-73998907D01*
X121918371Y-73998920D01*
X122027860Y-74162781D01*
X122027863Y-74162785D01*
X122167214Y-74302136D01*
X122167218Y-74302139D01*
X122331079Y-74411628D01*
X122331092Y-74411635D01*
X122470918Y-74469552D01*
X122513165Y-74487051D01*
X122513169Y-74487051D01*
X122513170Y-74487052D01*
X122706456Y-74525500D01*
X122706459Y-74525500D01*
X122903543Y-74525500D01*
X123033582Y-74499632D01*
X123096835Y-74487051D01*
X123278914Y-74411632D01*
X123442782Y-74302139D01*
X123492176Y-74252745D01*
X123562819Y-74182103D01*
X123624142Y-74148618D01*
X123693834Y-74153602D01*
X123749767Y-74195474D01*
X123774184Y-74260938D01*
X123774500Y-74269784D01*
X123774500Y-76513811D01*
X123754815Y-76580850D01*
X123738181Y-76601492D01*
X123557115Y-76782557D01*
X123495792Y-76816042D01*
X123426100Y-76811058D01*
X123400543Y-76797978D01*
X123273920Y-76713371D01*
X123273907Y-76713364D01*
X123091839Y-76637950D01*
X123091829Y-76637947D01*
X122898543Y-76599500D01*
X122898541Y-76599500D01*
X122701459Y-76599500D01*
X122701457Y-76599500D01*
X122508170Y-76637947D01*
X122508160Y-76637950D01*
X122326092Y-76713364D01*
X122326079Y-76713371D01*
X122162218Y-76822860D01*
X122162214Y-76822863D01*
X122022863Y-76962214D01*
X122022860Y-76962218D01*
X121913371Y-77126079D01*
X121913364Y-77126092D01*
X121837950Y-77308160D01*
X121837947Y-77308170D01*
X121799500Y-77501456D01*
X121799500Y-77501459D01*
X121799500Y-78498541D01*
X121799500Y-78498543D01*
X121799499Y-78498543D01*
X121837947Y-78691829D01*
X121837950Y-78691839D01*
X121913364Y-78873907D01*
X121913371Y-78873920D01*
X122022860Y-79037781D01*
X122022863Y-79037785D01*
X122162214Y-79177136D01*
X122162218Y-79177139D01*
X122326079Y-79286628D01*
X122326092Y-79286635D01*
X122503790Y-79360239D01*
X122508165Y-79362051D01*
X122508169Y-79362051D01*
X122508170Y-79362052D01*
X122701456Y-79400500D01*
X122701459Y-79400500D01*
X122898543Y-79400500D01*
X123028582Y-79374632D01*
X123091835Y-79362051D01*
X123271546Y-79287613D01*
X123273907Y-79286635D01*
X123273907Y-79286634D01*
X123273914Y-79286632D01*
X123437782Y-79177139D01*
X123577139Y-79037782D01*
X123686632Y-78873914D01*
X123762051Y-78691835D01*
X123798034Y-78510937D01*
X123830419Y-78449027D01*
X123891134Y-78414453D01*
X123960904Y-78418192D01*
X124017576Y-78459059D01*
X124042124Y-78515731D01*
X124072009Y-78704417D01*
X124135244Y-78899031D01*
X124228140Y-79081349D01*
X124348417Y-79246894D01*
X124348417Y-79246895D01*
X124493104Y-79391582D01*
X124658650Y-79511859D01*
X124840968Y-79604755D01*
X124969250Y-79646437D01*
X125026925Y-79685875D01*
X125054123Y-79750234D01*
X125042208Y-79819080D01*
X125018612Y-79852049D01*
X124432482Y-80438181D01*
X124371159Y-80471666D01*
X124344801Y-80474500D01*
X116386188Y-80474500D01*
X116319149Y-80454815D01*
X116298507Y-80438181D01*
X113561819Y-77701492D01*
X113528334Y-77640169D01*
X113525500Y-77613811D01*
X113525500Y-72336222D01*
X113545185Y-72269183D01*
X113597989Y-72223428D01*
X113667147Y-72213484D01*
X113730703Y-72242509D01*
X113745353Y-72257557D01*
X113789116Y-72310883D01*
X113941460Y-72435909D01*
X113941467Y-72435913D01*
X114115266Y-72528811D01*
X114115269Y-72528811D01*
X114115273Y-72528814D01*
X114303868Y-72586024D01*
X114500000Y-72605341D01*
X114696132Y-72586024D01*
X114884727Y-72528814D01*
X115058538Y-72435910D01*
X115210883Y-72310883D01*
X115335910Y-72158538D01*
X115337871Y-72155604D01*
X115339294Y-72154414D01*
X115339775Y-72153829D01*
X115339886Y-72153920D01*
X115391486Y-72110802D01*
X115440970Y-72100500D01*
X115800500Y-72100500D01*
X115867539Y-72120185D01*
X115913294Y-72172989D01*
X115924500Y-72224500D01*
X115924500Y-76639108D01*
X115924500Y-76770892D01*
X115939169Y-76825638D01*
X115958608Y-76898187D01*
X115966849Y-76912460D01*
X116024500Y-77012314D01*
X116024502Y-77012316D01*
X116683181Y-77670995D01*
X116716666Y-77732318D01*
X116719500Y-77758676D01*
X116719500Y-78498541D01*
X116719500Y-78498543D01*
X116719499Y-78498543D01*
X116757947Y-78691829D01*
X116757950Y-78691839D01*
X116833364Y-78873907D01*
X116833371Y-78873920D01*
X116942860Y-79037781D01*
X116942863Y-79037785D01*
X117082214Y-79177136D01*
X117082218Y-79177139D01*
X117246079Y-79286628D01*
X117246092Y-79286635D01*
X117423790Y-79360239D01*
X117428165Y-79362051D01*
X117428169Y-79362051D01*
X117428170Y-79362052D01*
X117621456Y-79400500D01*
X117621459Y-79400500D01*
X117818543Y-79400500D01*
X117948582Y-79374632D01*
X118011835Y-79362051D01*
X118191546Y-79287613D01*
X118193907Y-79286635D01*
X118193907Y-79286634D01*
X118193914Y-79286632D01*
X118357782Y-79177139D01*
X118497139Y-79037782D01*
X118606632Y-78873914D01*
X118682051Y-78691835D01*
X118697934Y-78611989D01*
X118720500Y-78498543D01*
X119259499Y-78498543D01*
X119297947Y-78691829D01*
X119297950Y-78691839D01*
X119373364Y-78873907D01*
X119373371Y-78873920D01*
X119482860Y-79037781D01*
X119482863Y-79037785D01*
X119622214Y-79177136D01*
X119622218Y-79177139D01*
X119786079Y-79286628D01*
X119786092Y-79286635D01*
X119963790Y-79360239D01*
X119968165Y-79362051D01*
X119968169Y-79362051D01*
X119968170Y-79362052D01*
X120161456Y-79400500D01*
X120161459Y-79400500D01*
X120358543Y-79400500D01*
X120488582Y-79374632D01*
X120551835Y-79362051D01*
X120731546Y-79287613D01*
X120733907Y-79286635D01*
X120733907Y-79286634D01*
X120733914Y-79286632D01*
X120897782Y-79177139D01*
X121037139Y-79037782D01*
X121146632Y-78873914D01*
X121222051Y-78691835D01*
X121237934Y-78611989D01*
X121260500Y-78498543D01*
X121260500Y-77501456D01*
X121222052Y-77308170D01*
X121222051Y-77308169D01*
X121222051Y-77308165D01*
X121217994Y-77298371D01*
X121146635Y-77126092D01*
X121146628Y-77126079D01*
X121037139Y-76962218D01*
X121037136Y-76962214D01*
X120897785Y-76822863D01*
X120897781Y-76822860D01*
X120733920Y-76713371D01*
X120733907Y-76713364D01*
X120551839Y-76637950D01*
X120551829Y-76637947D01*
X120358543Y-76599500D01*
X120358541Y-76599500D01*
X120161459Y-76599500D01*
X120161457Y-76599500D01*
X119968170Y-76637947D01*
X119968160Y-76637950D01*
X119786092Y-76713364D01*
X119786079Y-76713371D01*
X119622218Y-76822860D01*
X119622214Y-76822863D01*
X119482863Y-76962214D01*
X119482860Y-76962218D01*
X119373371Y-77126079D01*
X119373364Y-77126092D01*
X119297950Y-77308160D01*
X119297947Y-77308170D01*
X119259500Y-77501456D01*
X119259500Y-77501459D01*
X119259500Y-78498541D01*
X119259500Y-78498543D01*
X119259499Y-78498543D01*
X118720500Y-78498543D01*
X118720500Y-77501456D01*
X118682052Y-77308170D01*
X118682051Y-77308169D01*
X118682051Y-77308165D01*
X118677994Y-77298371D01*
X118606635Y-77126092D01*
X118606628Y-77126079D01*
X118497139Y-76962218D01*
X118497136Y-76962214D01*
X118357785Y-76822863D01*
X118357781Y-76822860D01*
X118193920Y-76713371D01*
X118193907Y-76713364D01*
X118011839Y-76637950D01*
X118011829Y-76637947D01*
X117818543Y-76599500D01*
X117818541Y-76599500D01*
X117621459Y-76599500D01*
X117621457Y-76599500D01*
X117428170Y-76637947D01*
X117428160Y-76637950D01*
X117248453Y-76712386D01*
X117178983Y-76719855D01*
X117116504Y-76688579D01*
X117113320Y-76685506D01*
X116961819Y-76534005D01*
X116928334Y-76472682D01*
X116925500Y-76446324D01*
X116925500Y-74649500D01*
X116945185Y-74582461D01*
X116997989Y-74536706D01*
X117049500Y-74525500D01*
X118544750Y-74525500D01*
X118544751Y-74525499D01*
X118559568Y-74522552D01*
X118603229Y-74513868D01*
X118603229Y-74513867D01*
X118603231Y-74513867D01*
X118669552Y-74469552D01*
X118713867Y-74403231D01*
X118713867Y-74403229D01*
X118713868Y-74403229D01*
X118722552Y-74359568D01*
X118725500Y-74344748D01*
X118725500Y-73623543D01*
X119264499Y-73623543D01*
X119302947Y-73816829D01*
X119302950Y-73816839D01*
X119378364Y-73998907D01*
X119378371Y-73998920D01*
X119487860Y-74162781D01*
X119487863Y-74162785D01*
X119627214Y-74302136D01*
X119627218Y-74302139D01*
X119791079Y-74411628D01*
X119791092Y-74411635D01*
X119930918Y-74469552D01*
X119973165Y-74487051D01*
X119973169Y-74487051D01*
X119973170Y-74487052D01*
X120166456Y-74525500D01*
X120166459Y-74525500D01*
X120363543Y-74525500D01*
X120493582Y-74499632D01*
X120556835Y-74487051D01*
X120738914Y-74411632D01*
X120902782Y-74302139D01*
X121042139Y-74162782D01*
X121151632Y-73998914D01*
X121227051Y-73816835D01*
X121239632Y-73753582D01*
X121265500Y-73623543D01*
X121265500Y-72626456D01*
X121227052Y-72433170D01*
X121227051Y-72433169D01*
X121227051Y-72433165D01*
X121221839Y-72420581D01*
X121151635Y-72251092D01*
X121151628Y-72251079D01*
X121042139Y-72087218D01*
X121042136Y-72087214D01*
X120902785Y-71947863D01*
X120902781Y-71947860D01*
X120738920Y-71838371D01*
X120738907Y-71838364D01*
X120556839Y-71762950D01*
X120556829Y-71762947D01*
X120363543Y-71724500D01*
X120363541Y-71724500D01*
X120166459Y-71724500D01*
X120166457Y-71724500D01*
X119973170Y-71762947D01*
X119973160Y-71762950D01*
X119791092Y-71838364D01*
X119791079Y-71838371D01*
X119627218Y-71947860D01*
X119627214Y-71947863D01*
X119487863Y-72087214D01*
X119487860Y-72087218D01*
X119378371Y-72251079D01*
X119378364Y-72251092D01*
X119302950Y-72433160D01*
X119302947Y-72433170D01*
X119264500Y-72626456D01*
X119264500Y-72626459D01*
X119264500Y-73623541D01*
X119264500Y-73623543D01*
X119264499Y-73623543D01*
X118725500Y-73623543D01*
X118725500Y-71905252D01*
X118725500Y-71905249D01*
X118725499Y-71905247D01*
X118713868Y-71846770D01*
X118713867Y-71846769D01*
X118669552Y-71780447D01*
X118603230Y-71736132D01*
X118603229Y-71736131D01*
X118544752Y-71724500D01*
X118544748Y-71724500D01*
X117132675Y-71724500D01*
X117065636Y-71704815D01*
X117019881Y-71652011D01*
X117009937Y-71582853D01*
X117038962Y-71519297D01*
X117044994Y-71512819D01*
X117720994Y-70836819D01*
X117782317Y-70803334D01*
X117808675Y-70800500D01*
X124918821Y-70800500D01*
X124985860Y-70820185D01*
G37*
%TD.AperFunction*%
%TA.AperFunction,Conductor*%
G36*
X146958363Y-57970185D02*
G01*
X146979005Y-57986819D01*
X148013181Y-59020995D01*
X148046666Y-59082318D01*
X148049500Y-59108676D01*
X148049500Y-69491324D01*
X148029815Y-69558363D01*
X148013181Y-69579005D01*
X146999502Y-70592683D01*
X146999500Y-70592686D01*
X146933608Y-70706812D01*
X146899500Y-70834108D01*
X146899500Y-71641324D01*
X146879815Y-71708363D01*
X146863181Y-71729005D01*
X146789005Y-71803181D01*
X146727682Y-71836666D01*
X146701324Y-71839500D01*
X146457157Y-71839500D01*
X146390118Y-71819815D01*
X146365007Y-71798472D01*
X146236305Y-71655533D01*
X146236301Y-71655530D01*
X146236300Y-71655529D01*
X146173261Y-71609729D01*
X146080527Y-71542353D01*
X146080522Y-71542350D01*
X145904624Y-71464034D01*
X145904618Y-71464032D01*
X145756308Y-71432508D01*
X145716276Y-71424000D01*
X145523724Y-71424000D01*
X145490709Y-71431017D01*
X145335381Y-71464032D01*
X145335375Y-71464034D01*
X145159477Y-71542350D01*
X145159472Y-71542353D01*
X145003701Y-71655528D01*
X145003694Y-71655533D01*
X144874993Y-71798472D01*
X144815507Y-71835121D01*
X144782843Y-71839500D01*
X143917157Y-71839500D01*
X143850118Y-71819815D01*
X143825007Y-71798472D01*
X143696305Y-71655533D01*
X143696301Y-71655530D01*
X143696300Y-71655529D01*
X143633261Y-71609729D01*
X143540527Y-71542353D01*
X143540522Y-71542350D01*
X143364624Y-71464034D01*
X143364618Y-71464032D01*
X143216308Y-71432508D01*
X143176276Y-71424000D01*
X142983724Y-71424000D01*
X142950709Y-71431017D01*
X142795381Y-71464032D01*
X142795375Y-71464034D01*
X142619477Y-71542350D01*
X142619472Y-71542353D01*
X142463701Y-71655528D01*
X142463694Y-71655533D01*
X142334993Y-71798472D01*
X142275507Y-71835121D01*
X142242843Y-71839500D01*
X138554108Y-71839500D01*
X138426812Y-71873608D01*
X138312686Y-71939500D01*
X138312683Y-71939502D01*
X136913504Y-73338681D01*
X136852181Y-73372166D01*
X136825823Y-73375000D01*
X135820686Y-73375000D01*
X135825080Y-73370606D01*
X135877741Y-73279394D01*
X135905000Y-73177661D01*
X135905000Y-73072339D01*
X135877741Y-72970606D01*
X135825080Y-72879394D01*
X135820686Y-72875000D01*
X136805000Y-72875000D01*
X136805000Y-72622682D01*
X136772990Y-72420582D01*
X136709755Y-72225968D01*
X136616859Y-72043650D01*
X136496582Y-71878105D01*
X136496582Y-71878104D01*
X136351895Y-71733417D01*
X136186349Y-71613140D01*
X136004029Y-71520244D01*
X135809413Y-71457009D01*
X135755000Y-71448390D01*
X135755000Y-72809314D01*
X135750606Y-72804920D01*
X135659394Y-72752259D01*
X135557661Y-72725000D01*
X135452339Y-72725000D01*
X135350606Y-72752259D01*
X135259394Y-72804920D01*
X135255000Y-72809314D01*
X135255000Y-71448390D01*
X135200586Y-71457009D01*
X135005970Y-71520244D01*
X134823650Y-71613140D01*
X134658105Y-71733417D01*
X134658104Y-71733417D01*
X134513417Y-71878104D01*
X134513417Y-71878105D01*
X134393140Y-72043650D01*
X134300244Y-72225968D01*
X134237010Y-72420581D01*
X134207124Y-72609269D01*
X134177194Y-72672403D01*
X134117883Y-72709334D01*
X134048020Y-72708336D01*
X133989788Y-72669726D01*
X133963034Y-72614061D01*
X133934500Y-72470613D01*
X133927051Y-72433165D01*
X133921839Y-72420581D01*
X133851635Y-72251092D01*
X133851628Y-72251079D01*
X133742139Y-72087218D01*
X133742136Y-72087214D01*
X133602785Y-71947863D01*
X133602781Y-71947860D01*
X133438920Y-71838371D01*
X133438907Y-71838364D01*
X133256839Y-71762950D01*
X133256829Y-71762947D01*
X133063543Y-71724500D01*
X133063541Y-71724500D01*
X132866459Y-71724500D01*
X132866457Y-71724500D01*
X132673170Y-71762947D01*
X132673160Y-71762950D01*
X132491092Y-71838364D01*
X132491079Y-71838371D01*
X132327218Y-71947860D01*
X132327214Y-71947863D01*
X132187863Y-72087214D01*
X132187860Y-72087218D01*
X132078371Y-72251079D01*
X132078364Y-72251092D01*
X132002950Y-72433160D01*
X132002947Y-72433170D01*
X131964500Y-72626456D01*
X131964500Y-72626459D01*
X131964500Y-73623541D01*
X131964500Y-73623543D01*
X131964499Y-73623543D01*
X132002947Y-73816829D01*
X132002950Y-73816839D01*
X132078364Y-73998907D01*
X132078371Y-73998920D01*
X132187860Y-74162781D01*
X132187863Y-74162785D01*
X132327214Y-74302136D01*
X132327218Y-74302139D01*
X132491079Y-74411628D01*
X132491092Y-74411635D01*
X132630918Y-74469552D01*
X132673165Y-74487051D01*
X132673169Y-74487051D01*
X132673170Y-74487052D01*
X132866456Y-74525500D01*
X132866459Y-74525500D01*
X133063543Y-74525500D01*
X133193582Y-74499632D01*
X133256835Y-74487051D01*
X133438914Y-74411632D01*
X133602782Y-74302139D01*
X133742139Y-74162782D01*
X133851632Y-73998914D01*
X133927051Y-73816835D01*
X133963034Y-73635937D01*
X133995419Y-73574027D01*
X134056134Y-73539453D01*
X134125904Y-73543192D01*
X134182576Y-73584059D01*
X134207124Y-73640731D01*
X134237009Y-73829417D01*
X134300244Y-74024031D01*
X134393140Y-74206349D01*
X134513417Y-74371894D01*
X134513417Y-74371895D01*
X134658104Y-74516582D01*
X134823650Y-74636859D01*
X135005968Y-74729755D01*
X135203328Y-74793882D01*
X135261003Y-74833320D01*
X135288201Y-74897679D01*
X135276286Y-74966525D01*
X135252690Y-74999494D01*
X133566678Y-76685506D01*
X133505355Y-76718991D01*
X133435663Y-76714007D01*
X133431545Y-76712386D01*
X133251839Y-76637950D01*
X133251829Y-76637947D01*
X133058543Y-76599500D01*
X133058541Y-76599500D01*
X132861459Y-76599500D01*
X132861457Y-76599500D01*
X132668170Y-76637947D01*
X132668160Y-76637950D01*
X132486092Y-76713364D01*
X132486079Y-76713371D01*
X132322218Y-76822860D01*
X132322214Y-76822863D01*
X132182863Y-76962214D01*
X132182860Y-76962218D01*
X132073371Y-77126079D01*
X132073364Y-77126092D01*
X131997950Y-77308160D01*
X131997947Y-77308170D01*
X131959500Y-77501456D01*
X131959500Y-78241324D01*
X131939815Y-78308363D01*
X131923181Y-78329005D01*
X131626825Y-78625360D01*
X131565502Y-78658845D01*
X131495810Y-78653861D01*
X131439877Y-78611989D01*
X131415460Y-78546525D01*
X131417527Y-78513485D01*
X131420500Y-78498543D01*
X131420500Y-78498541D01*
X131420500Y-77501459D01*
X131420500Y-77501456D01*
X131382052Y-77308170D01*
X131382051Y-77308169D01*
X131382051Y-77308165D01*
X131377994Y-77298371D01*
X131306635Y-77126092D01*
X131306628Y-77126079D01*
X131197139Y-76962218D01*
X131197136Y-76962214D01*
X131057785Y-76822863D01*
X131057781Y-76822860D01*
X130893920Y-76713371D01*
X130893907Y-76713364D01*
X130711839Y-76637950D01*
X130711829Y-76637947D01*
X130518543Y-76599500D01*
X130518541Y-76599500D01*
X130321459Y-76599500D01*
X130321457Y-76599500D01*
X130128170Y-76637947D01*
X130128160Y-76637950D01*
X129946092Y-76713364D01*
X129946079Y-76713371D01*
X129819456Y-76797979D01*
X129752778Y-76818857D01*
X129685398Y-76800372D01*
X129662884Y-76782558D01*
X129418294Y-76537968D01*
X129094862Y-76214535D01*
X129057019Y-76192686D01*
X129020640Y-76171682D01*
X128979246Y-76160591D01*
X128937853Y-76149500D01*
X127456863Y-76149500D01*
X127371157Y-76149500D01*
X127288371Y-76171682D01*
X127288368Y-76171683D01*
X127251260Y-76193107D01*
X127251260Y-76193108D01*
X127224840Y-76208362D01*
X127214148Y-76214535D01*
X127214145Y-76214537D01*
X127153543Y-76275140D01*
X126579000Y-76849681D01*
X126517677Y-76883166D01*
X126447985Y-76878182D01*
X126392052Y-76836310D01*
X126391001Y-76834886D01*
X126331583Y-76753105D01*
X126186895Y-76608417D01*
X126021349Y-76488140D01*
X125839029Y-76395244D01*
X125644413Y-76332009D01*
X125590000Y-76323390D01*
X125590000Y-77684314D01*
X125585606Y-77679920D01*
X125494394Y-77627259D01*
X125392661Y-77600000D01*
X125287339Y-77600000D01*
X125185606Y-77627259D01*
X125094394Y-77679920D01*
X125090000Y-77684314D01*
X125090000Y-76323390D01*
X125035586Y-76332009D01*
X124840970Y-76395244D01*
X124658647Y-76488142D01*
X124622385Y-76514488D01*
X124556579Y-76537968D01*
X124488525Y-76522142D01*
X124439830Y-76472037D01*
X124425500Y-76414170D01*
X124425500Y-74319784D01*
X124445185Y-74252745D01*
X124497989Y-74206990D01*
X124567147Y-74197046D01*
X124630703Y-74226071D01*
X124637181Y-74232103D01*
X124707214Y-74302136D01*
X124707218Y-74302139D01*
X124871079Y-74411628D01*
X124871092Y-74411635D01*
X125010918Y-74469552D01*
X125053165Y-74487051D01*
X125053169Y-74487051D01*
X125053170Y-74487052D01*
X125246456Y-74525500D01*
X125246459Y-74525500D01*
X125443543Y-74525500D01*
X125573582Y-74499632D01*
X125636835Y-74487051D01*
X125818914Y-74411632D01*
X125982782Y-74302139D01*
X126122139Y-74162782D01*
X126231632Y-73998914D01*
X126307051Y-73816835D01*
X126319632Y-73753582D01*
X126345500Y-73623543D01*
X126884499Y-73623543D01*
X126922947Y-73816829D01*
X126922950Y-73816839D01*
X126998364Y-73998907D01*
X126998371Y-73998920D01*
X127107860Y-74162781D01*
X127107863Y-74162785D01*
X127247214Y-74302136D01*
X127247218Y-74302139D01*
X127411079Y-74411628D01*
X127411092Y-74411635D01*
X127550918Y-74469552D01*
X127593165Y-74487051D01*
X127593169Y-74487051D01*
X127593170Y-74487052D01*
X127786456Y-74525500D01*
X127786459Y-74525500D01*
X127983543Y-74525500D01*
X128113582Y-74499632D01*
X128176835Y-74487051D01*
X128358914Y-74411632D01*
X128522782Y-74302139D01*
X128662139Y-74162782D01*
X128771632Y-73998914D01*
X128847051Y-73816835D01*
X128859632Y-73753582D01*
X128885500Y-73623543D01*
X129424499Y-73623543D01*
X129462947Y-73816829D01*
X129462950Y-73816839D01*
X129538364Y-73998907D01*
X129538371Y-73998920D01*
X129647860Y-74162781D01*
X129647863Y-74162785D01*
X129787214Y-74302136D01*
X129787218Y-74302139D01*
X129951079Y-74411628D01*
X129951092Y-74411635D01*
X130090918Y-74469552D01*
X130133165Y-74487051D01*
X130133169Y-74487051D01*
X130133170Y-74487052D01*
X130326456Y-74525500D01*
X130326459Y-74525500D01*
X130523543Y-74525500D01*
X130653582Y-74499632D01*
X130716835Y-74487051D01*
X130898914Y-74411632D01*
X131062782Y-74302139D01*
X131202139Y-74162782D01*
X131311632Y-73998914D01*
X131387051Y-73816835D01*
X131399632Y-73753582D01*
X131425500Y-73623543D01*
X131425500Y-72626456D01*
X131387052Y-72433170D01*
X131387051Y-72433169D01*
X131387051Y-72433165D01*
X131381839Y-72420581D01*
X131311635Y-72251092D01*
X131311628Y-72251079D01*
X131202139Y-72087218D01*
X131202136Y-72087214D01*
X131062785Y-71947863D01*
X131062781Y-71947860D01*
X130898920Y-71838371D01*
X130898907Y-71838364D01*
X130716839Y-71762950D01*
X130716829Y-71762947D01*
X130523543Y-71724500D01*
X130523541Y-71724500D01*
X130326459Y-71724500D01*
X130326457Y-71724500D01*
X130133170Y-71762947D01*
X130133160Y-71762950D01*
X129951092Y-71838364D01*
X129951079Y-71838371D01*
X129787218Y-71947860D01*
X129787214Y-71947863D01*
X129647863Y-72087214D01*
X129647860Y-72087218D01*
X129538371Y-72251079D01*
X129538364Y-72251092D01*
X129462950Y-72433160D01*
X129462947Y-72433170D01*
X129424500Y-72626456D01*
X129424500Y-72626459D01*
X129424500Y-73623541D01*
X129424500Y-73623543D01*
X129424499Y-73623543D01*
X128885500Y-73623543D01*
X128885500Y-72626456D01*
X128847052Y-72433170D01*
X128847051Y-72433169D01*
X128847051Y-72433165D01*
X128841839Y-72420581D01*
X128771635Y-72251092D01*
X128771628Y-72251079D01*
X128662139Y-72087218D01*
X128662136Y-72087214D01*
X128522785Y-71947863D01*
X128522781Y-71947860D01*
X128358920Y-71838371D01*
X128358907Y-71838364D01*
X128176839Y-71762950D01*
X128176829Y-71762947D01*
X127983543Y-71724500D01*
X127983541Y-71724500D01*
X127786459Y-71724500D01*
X127786457Y-71724500D01*
X127593170Y-71762947D01*
X127593160Y-71762950D01*
X127411092Y-71838364D01*
X127411079Y-71838371D01*
X127247218Y-71947860D01*
X127247214Y-71947863D01*
X127107863Y-72087214D01*
X127107860Y-72087218D01*
X126998371Y-72251079D01*
X126998364Y-72251092D01*
X126922950Y-72433160D01*
X126922947Y-72433170D01*
X126884500Y-72626456D01*
X126884500Y-72626459D01*
X126884500Y-73623541D01*
X126884500Y-73623543D01*
X126884499Y-73623543D01*
X126345500Y-73623543D01*
X126345500Y-72626456D01*
X126307052Y-72433170D01*
X126307051Y-72433169D01*
X126307051Y-72433165D01*
X126301839Y-72420581D01*
X126231635Y-72251092D01*
X126231628Y-72251079D01*
X126122139Y-72087218D01*
X126122136Y-72087214D01*
X125982785Y-71947863D01*
X125982781Y-71947860D01*
X125818920Y-71838371D01*
X125818907Y-71838364D01*
X125636839Y-71762950D01*
X125636829Y-71762947D01*
X125480310Y-71731813D01*
X125418399Y-71699428D01*
X125383825Y-71638712D01*
X125387566Y-71568942D01*
X125416818Y-71522518D01*
X125527519Y-71411816D01*
X125588841Y-71378334D01*
X125615199Y-71375500D01*
X128442851Y-71375500D01*
X128442853Y-71375500D01*
X128525639Y-71353318D01*
X128599862Y-71310465D01*
X129310329Y-70599998D01*
X130394318Y-70599998D01*
X130394318Y-70600001D01*
X130414955Y-70756760D01*
X130414956Y-70756762D01*
X130435539Y-70806455D01*
X130475464Y-70902841D01*
X130571718Y-71028282D01*
X130697159Y-71124536D01*
X130843238Y-71185044D01*
X130921619Y-71195363D01*
X130999999Y-71205682D01*
X131000000Y-71205682D01*
X131000001Y-71205682D01*
X131052254Y-71198802D01*
X131156762Y-71185044D01*
X131302841Y-71124536D01*
X131365933Y-71076123D01*
X131431102Y-71050930D01*
X131441419Y-71050500D01*
X134684552Y-71050500D01*
X134684554Y-71050500D01*
X134767340Y-71028318D01*
X134841563Y-70985465D01*
X136027029Y-69799999D01*
X141859857Y-69799999D01*
X141859857Y-69800000D01*
X141878393Y-70011871D01*
X141878395Y-70011880D01*
X141933438Y-70217305D01*
X141933443Y-70217319D01*
X142023323Y-70410068D01*
X142023324Y-70410070D01*
X142061646Y-70464800D01*
X142629697Y-69896748D01*
X142651349Y-69977553D01*
X142711909Y-70082446D01*
X142797554Y-70168091D01*
X142902447Y-70228651D01*
X142983249Y-70250302D01*
X142415198Y-70818352D01*
X142469929Y-70856675D01*
X142469931Y-70856676D01*
X142662680Y-70946556D01*
X142662694Y-70946561D01*
X142868119Y-71001604D01*
X142868128Y-71001606D01*
X143079999Y-71020143D01*
X143080001Y-71020143D01*
X143291871Y-71001606D01*
X143291880Y-71001604D01*
X143497305Y-70946561D01*
X143497319Y-70946556D01*
X143690069Y-70856676D01*
X143690076Y-70856672D01*
X143744800Y-70818352D01*
X143176750Y-70250302D01*
X143257553Y-70228651D01*
X143362446Y-70168091D01*
X143448091Y-70082446D01*
X143508651Y-69977553D01*
X143530302Y-69896749D01*
X144098352Y-70464799D01*
X144136672Y-70410076D01*
X144136676Y-70410069D01*
X144226556Y-70217319D01*
X144226562Y-70217303D01*
X144230225Y-70203633D01*
X144266589Y-70143972D01*
X144329436Y-70113442D01*
X144398812Y-70121736D01*
X144452690Y-70166221D01*
X144469775Y-70203633D01*
X144473437Y-70217303D01*
X144473443Y-70217319D01*
X144563323Y-70410068D01*
X144563324Y-70410070D01*
X144601646Y-70464800D01*
X145169697Y-69896748D01*
X145191349Y-69977553D01*
X145251909Y-70082446D01*
X145337554Y-70168091D01*
X145442447Y-70228651D01*
X145523249Y-70250302D01*
X144955198Y-70818352D01*
X145009929Y-70856675D01*
X145009931Y-70856676D01*
X145202680Y-70946556D01*
X145202694Y-70946561D01*
X145408119Y-71001604D01*
X145408128Y-71001606D01*
X145619999Y-71020143D01*
X145620001Y-71020143D01*
X145831871Y-71001606D01*
X145831880Y-71001604D01*
X146037305Y-70946561D01*
X146037319Y-70946556D01*
X146230069Y-70856676D01*
X146230076Y-70856672D01*
X146284800Y-70818352D01*
X145716750Y-70250302D01*
X145797553Y-70228651D01*
X145902446Y-70168091D01*
X145988091Y-70082446D01*
X146048651Y-69977553D01*
X146070302Y-69896749D01*
X146638352Y-70464799D01*
X146676672Y-70410076D01*
X146676676Y-70410069D01*
X146766556Y-70217319D01*
X146766561Y-70217305D01*
X146821604Y-70011880D01*
X146821606Y-70011871D01*
X146840143Y-69800000D01*
X146840143Y-69799999D01*
X146821606Y-69588128D01*
X146821604Y-69588119D01*
X146766561Y-69382694D01*
X146766556Y-69382680D01*
X146676676Y-69189932D01*
X146676675Y-69189930D01*
X146638352Y-69135199D01*
X146070302Y-69703249D01*
X146048651Y-69622447D01*
X145988091Y-69517554D01*
X145902446Y-69431909D01*
X145797553Y-69371349D01*
X145716748Y-69349697D01*
X146284800Y-68781646D01*
X146230070Y-68743324D01*
X146230068Y-68743323D01*
X146037319Y-68653443D01*
X146037305Y-68653438D01*
X145831880Y-68598395D01*
X145831871Y-68598393D01*
X145620001Y-68579857D01*
X145619999Y-68579857D01*
X145408128Y-68598393D01*
X145408119Y-68598395D01*
X145202694Y-68653438D01*
X145202680Y-68653443D01*
X145009928Y-68743325D01*
X145009926Y-68743326D01*
X144955200Y-68781645D01*
X144955199Y-68781646D01*
X145523250Y-69349697D01*
X145442447Y-69371349D01*
X145337554Y-69431909D01*
X145251909Y-69517554D01*
X145191349Y-69622447D01*
X145169697Y-69703250D01*
X144601646Y-69135199D01*
X144601645Y-69135200D01*
X144563326Y-69189926D01*
X144563325Y-69189928D01*
X144473443Y-69382680D01*
X144473439Y-69382692D01*
X144469775Y-69396368D01*
X144433410Y-69456028D01*
X144370562Y-69486557D01*
X144301187Y-69478262D01*
X144247309Y-69433777D01*
X144230225Y-69396368D01*
X144226560Y-69382692D01*
X144226556Y-69382680D01*
X144136676Y-69189932D01*
X144136675Y-69189930D01*
X144098352Y-69135199D01*
X143530302Y-69703249D01*
X143508651Y-69622447D01*
X143448091Y-69517554D01*
X143362446Y-69431909D01*
X143257553Y-69371349D01*
X143176748Y-69349697D01*
X143744800Y-68781646D01*
X143690070Y-68743324D01*
X143690068Y-68743323D01*
X143497319Y-68653443D01*
X143497305Y-68653438D01*
X143291880Y-68598395D01*
X143291871Y-68598393D01*
X143080001Y-68579857D01*
X143079999Y-68579857D01*
X142868128Y-68598393D01*
X142868119Y-68598395D01*
X142662694Y-68653438D01*
X142662680Y-68653443D01*
X142469928Y-68743325D01*
X142469926Y-68743326D01*
X142415200Y-68781645D01*
X142415199Y-68781646D01*
X142983250Y-69349697D01*
X142902447Y-69371349D01*
X142797554Y-69431909D01*
X142711909Y-69517554D01*
X142651349Y-69622447D01*
X142629697Y-69703250D01*
X142061646Y-69135199D01*
X142061645Y-69135200D01*
X142023326Y-69189926D01*
X142023325Y-69189928D01*
X141933443Y-69382680D01*
X141933438Y-69382694D01*
X141878395Y-69588119D01*
X141878393Y-69588128D01*
X141859857Y-69799999D01*
X136027029Y-69799999D01*
X138567028Y-67260000D01*
X142158954Y-67260000D01*
X142179081Y-67451498D01*
X142179082Y-67451500D01*
X142238580Y-67634616D01*
X142238585Y-67634628D01*
X142334854Y-67801372D01*
X142334856Y-67801374D01*
X142334858Y-67801377D01*
X142357271Y-67826269D01*
X142463694Y-67944466D01*
X142463698Y-67944468D01*
X142463700Y-67944471D01*
X142521309Y-67986326D01*
X142619472Y-68057646D01*
X142619477Y-68057649D01*
X142795375Y-68135965D01*
X142795381Y-68135967D01*
X142983724Y-68176000D01*
X142983725Y-68176000D01*
X143176275Y-68176000D01*
X143176276Y-68176000D01*
X143364619Y-68135967D01*
X143364621Y-68135965D01*
X143364624Y-68135965D01*
X143448699Y-68098532D01*
X143540523Y-68057649D01*
X143696300Y-67944471D01*
X143825142Y-67801377D01*
X143831711Y-67790000D01*
X143921414Y-67634628D01*
X143921413Y-67634628D01*
X143921417Y-67634623D01*
X143980919Y-67451496D01*
X144001046Y-67260000D01*
X144698954Y-67260000D01*
X144719081Y-67451498D01*
X144719082Y-67451500D01*
X144778580Y-67634616D01*
X144778585Y-67634628D01*
X144874854Y-67801372D01*
X144874856Y-67801374D01*
X144874858Y-67801377D01*
X144897271Y-67826269D01*
X145003694Y-67944466D01*
X145003698Y-67944468D01*
X145003700Y-67944471D01*
X145061309Y-67986326D01*
X145159472Y-68057646D01*
X145159477Y-68057649D01*
X145335375Y-68135965D01*
X145335381Y-68135967D01*
X145523724Y-68176000D01*
X145523725Y-68176000D01*
X145716275Y-68176000D01*
X145716276Y-68176000D01*
X145904619Y-68135967D01*
X145904621Y-68135965D01*
X145904624Y-68135965D01*
X145988699Y-68098532D01*
X146080523Y-68057649D01*
X146236300Y-67944471D01*
X146365142Y-67801377D01*
X146371711Y-67790000D01*
X146461414Y-67634628D01*
X146461413Y-67634628D01*
X146461417Y-67634623D01*
X146520919Y-67451496D01*
X146541046Y-67260000D01*
X146520919Y-67068504D01*
X146461417Y-66885377D01*
X146461414Y-66885371D01*
X146365145Y-66718627D01*
X146365143Y-66718625D01*
X146365142Y-66718623D01*
X146305750Y-66652661D01*
X146236305Y-66575533D01*
X146236301Y-66575530D01*
X146236300Y-66575529D01*
X146180047Y-66534659D01*
X146080527Y-66462353D01*
X146080522Y-66462350D01*
X145904624Y-66384034D01*
X145904618Y-66384032D01*
X145756308Y-66352508D01*
X145716276Y-66344000D01*
X145523724Y-66344000D01*
X145490709Y-66351017D01*
X145335381Y-66384032D01*
X145335375Y-66384034D01*
X145159477Y-66462350D01*
X145159472Y-66462353D01*
X145003701Y-66575528D01*
X145003694Y-66575533D01*
X144874857Y-66718624D01*
X144874854Y-66718627D01*
X144778585Y-66885371D01*
X144778580Y-66885383D01*
X144719082Y-67068499D01*
X144719081Y-67068501D01*
X144698954Y-67260000D01*
X144001046Y-67260000D01*
X143980919Y-67068504D01*
X143921417Y-66885377D01*
X143921414Y-66885371D01*
X143825145Y-66718627D01*
X143825143Y-66718625D01*
X143825142Y-66718623D01*
X143765750Y-66652661D01*
X143696305Y-66575533D01*
X143696301Y-66575530D01*
X143696300Y-66575529D01*
X143640047Y-66534659D01*
X143540527Y-66462353D01*
X143540522Y-66462350D01*
X143364624Y-66384034D01*
X143364618Y-66384032D01*
X143216308Y-66352508D01*
X143176276Y-66344000D01*
X142983724Y-66344000D01*
X142950709Y-66351017D01*
X142795381Y-66384032D01*
X142795375Y-66384034D01*
X142619477Y-66462350D01*
X142619472Y-66462353D01*
X142463701Y-66575528D01*
X142463694Y-66575533D01*
X142334857Y-66718624D01*
X142334854Y-66718627D01*
X142238585Y-66885371D01*
X142238580Y-66885383D01*
X142179082Y-67068499D01*
X142179081Y-67068501D01*
X142158954Y-67260000D01*
X138567028Y-67260000D01*
X139704709Y-66122319D01*
X139766032Y-66088834D01*
X139792390Y-66086000D01*
X144622351Y-66086000D01*
X144622353Y-66086000D01*
X144705139Y-66063818D01*
X144779362Y-66020965D01*
X145184462Y-65615863D01*
X145245783Y-65582380D01*
X145315474Y-65587364D01*
X145322576Y-65590266D01*
X145335381Y-65595967D01*
X145523724Y-65636000D01*
X145523725Y-65636000D01*
X145716275Y-65636000D01*
X145716276Y-65636000D01*
X145904619Y-65595967D01*
X145904621Y-65595965D01*
X145904624Y-65595965D01*
X145995277Y-65555603D01*
X146080523Y-65517649D01*
X146236300Y-65404471D01*
X146241514Y-65398681D01*
X146284800Y-65350606D01*
X146365142Y-65261377D01*
X146461417Y-65094623D01*
X146520919Y-64911496D01*
X146541046Y-64720000D01*
X146520919Y-64528504D01*
X146461417Y-64345377D01*
X146461414Y-64345371D01*
X146365145Y-64178627D01*
X146365143Y-64178625D01*
X146365142Y-64178623D01*
X146314678Y-64122577D01*
X146236305Y-64035533D01*
X146236301Y-64035530D01*
X146236300Y-64035529D01*
X146177956Y-63993140D01*
X146080527Y-63922353D01*
X146080522Y-63922350D01*
X145904624Y-63844034D01*
X145904618Y-63844032D01*
X145756308Y-63812508D01*
X145716276Y-63804000D01*
X145523724Y-63804000D01*
X145490709Y-63811017D01*
X145335381Y-63844032D01*
X145335375Y-63844034D01*
X145159477Y-63922350D01*
X145159472Y-63922353D01*
X145003701Y-64035528D01*
X145003694Y-64035533D01*
X144874857Y-64178624D01*
X144874854Y-64178627D01*
X144778585Y-64345371D01*
X144778580Y-64345383D01*
X144719082Y-64528499D01*
X144719081Y-64528501D01*
X144698954Y-64720000D01*
X144719081Y-64911498D01*
X144719082Y-64911500D01*
X144756687Y-65027235D01*
X144758682Y-65097076D01*
X144726437Y-65153234D01*
X144480990Y-65398682D01*
X144419670Y-65432166D01*
X144393311Y-65435000D01*
X143939675Y-65435000D01*
X143872636Y-65415315D01*
X143826881Y-65362511D01*
X143816937Y-65293353D01*
X143832288Y-65249000D01*
X143853468Y-65212314D01*
X143921417Y-65094623D01*
X143980919Y-64911496D01*
X144001046Y-64720000D01*
X143980919Y-64528504D01*
X143921417Y-64345377D01*
X143921414Y-64345371D01*
X143825145Y-64178627D01*
X143825143Y-64178625D01*
X143825142Y-64178623D01*
X143774678Y-64122577D01*
X143696305Y-64035533D01*
X143696301Y-64035530D01*
X143696300Y-64035529D01*
X143637956Y-63993140D01*
X143540527Y-63922353D01*
X143540522Y-63922350D01*
X143364624Y-63844034D01*
X143364618Y-63844032D01*
X143274806Y-63824943D01*
X143255266Y-63820789D01*
X143193785Y-63787598D01*
X143160009Y-63726435D01*
X143164661Y-63656720D01*
X143206265Y-63600588D01*
X143271613Y-63575859D01*
X143281048Y-63575500D01*
X144592851Y-63575500D01*
X144592853Y-63575500D01*
X144675639Y-63553318D01*
X144749862Y-63510465D01*
X145184462Y-63075863D01*
X145245783Y-63042380D01*
X145315474Y-63047364D01*
X145322576Y-63050266D01*
X145335381Y-63055967D01*
X145523724Y-63096000D01*
X145523725Y-63096000D01*
X145716275Y-63096000D01*
X145716276Y-63096000D01*
X145904619Y-63055967D01*
X145904621Y-63055965D01*
X145904624Y-63055965D01*
X145995277Y-63015603D01*
X146080523Y-62977649D01*
X146236300Y-62864471D01*
X146365142Y-62721377D01*
X146461417Y-62554623D01*
X146520919Y-62371496D01*
X146541046Y-62180000D01*
X146520919Y-61988504D01*
X146461417Y-61805377D01*
X146400578Y-61700000D01*
X146365145Y-61638627D01*
X146365143Y-61638625D01*
X146365142Y-61638623D01*
X146293545Y-61559106D01*
X146236305Y-61495533D01*
X146236301Y-61495530D01*
X146236300Y-61495529D01*
X146179682Y-61454394D01*
X146080527Y-61382353D01*
X146080522Y-61382350D01*
X145904624Y-61304034D01*
X145904618Y-61304032D01*
X145756308Y-61272508D01*
X145716276Y-61264000D01*
X145523724Y-61264000D01*
X145490709Y-61271017D01*
X145335381Y-61304032D01*
X145335375Y-61304034D01*
X145159477Y-61382350D01*
X145159472Y-61382353D01*
X145003701Y-61495528D01*
X145003694Y-61495533D01*
X144874857Y-61638624D01*
X144874854Y-61638627D01*
X144778585Y-61805371D01*
X144778580Y-61805383D01*
X144719082Y-61988499D01*
X144719081Y-61988501D01*
X144698954Y-62180000D01*
X144719081Y-62371498D01*
X144719082Y-62371500D01*
X144756687Y-62487236D01*
X144758682Y-62557077D01*
X144726437Y-62613235D01*
X144451492Y-62888181D01*
X144390169Y-62921666D01*
X144363811Y-62924500D01*
X143920758Y-62924500D01*
X143853719Y-62904815D01*
X143807964Y-62852011D01*
X143798020Y-62782853D01*
X143823104Y-62727925D01*
X143821324Y-62726632D01*
X143825138Y-62721380D01*
X143825142Y-62721377D01*
X143921417Y-62554623D01*
X143980919Y-62371496D01*
X144001046Y-62180000D01*
X143980919Y-61988504D01*
X143921417Y-61805377D01*
X143860578Y-61700000D01*
X143825145Y-61638627D01*
X143825143Y-61638625D01*
X143825142Y-61638623D01*
X143753545Y-61559106D01*
X143696305Y-61495533D01*
X143696301Y-61495530D01*
X143696300Y-61495529D01*
X143639682Y-61454394D01*
X143540527Y-61382353D01*
X143540522Y-61382350D01*
X143364624Y-61304034D01*
X143364618Y-61304032D01*
X143172912Y-61263285D01*
X143111430Y-61230093D01*
X143077654Y-61168930D01*
X143082306Y-61099215D01*
X143111011Y-61054315D01*
X143123012Y-61042313D01*
X143184336Y-61008833D01*
X143210689Y-61006000D01*
X144622351Y-61006000D01*
X144622353Y-61006000D01*
X144705139Y-60983818D01*
X144779362Y-60940965D01*
X145184462Y-60535863D01*
X145245783Y-60502380D01*
X145315474Y-60507364D01*
X145322576Y-60510266D01*
X145335381Y-60515967D01*
X145523724Y-60556000D01*
X145523725Y-60556000D01*
X145716275Y-60556000D01*
X145716276Y-60556000D01*
X145904619Y-60515967D01*
X145904621Y-60515965D01*
X145904624Y-60515965D01*
X145995277Y-60475603D01*
X146080523Y-60437649D01*
X146236300Y-60324471D01*
X146241514Y-60318681D01*
X146275688Y-60280726D01*
X146365142Y-60181377D01*
X146461417Y-60014623D01*
X146520919Y-59831496D01*
X146541046Y-59640000D01*
X146520919Y-59448504D01*
X146461417Y-59265377D01*
X146461414Y-59265371D01*
X146365145Y-59098627D01*
X146365143Y-59098625D01*
X146365142Y-59098623D01*
X146295246Y-59020995D01*
X146236305Y-58955533D01*
X146236301Y-58955530D01*
X146236300Y-58955529D01*
X146166404Y-58904747D01*
X146080527Y-58842353D01*
X146080522Y-58842350D01*
X145904624Y-58764034D01*
X145904618Y-58764032D01*
X145756308Y-58732508D01*
X145716276Y-58724000D01*
X145523724Y-58724000D01*
X145490709Y-58731017D01*
X145335381Y-58764032D01*
X145335375Y-58764034D01*
X145159477Y-58842350D01*
X145159472Y-58842353D01*
X145003701Y-58955528D01*
X145003694Y-58955533D01*
X144874857Y-59098624D01*
X144874854Y-59098627D01*
X144778585Y-59265371D01*
X144778580Y-59265383D01*
X144719082Y-59448499D01*
X144719081Y-59448501D01*
X144698954Y-59640000D01*
X144719081Y-59831498D01*
X144719082Y-59831500D01*
X144756687Y-59947235D01*
X144758682Y-60017076D01*
X144726437Y-60073234D01*
X144480990Y-60318682D01*
X144419670Y-60352166D01*
X144393311Y-60355000D01*
X144120000Y-60355000D01*
X144052961Y-60335315D01*
X144007206Y-60282511D01*
X143996000Y-60231000D01*
X143996000Y-58904749D01*
X143995999Y-58904747D01*
X143984368Y-58846270D01*
X143984367Y-58846269D01*
X143940052Y-58779947D01*
X143873730Y-58735632D01*
X143873729Y-58735631D01*
X143815252Y-58724000D01*
X143815248Y-58724000D01*
X142344752Y-58724000D01*
X142344747Y-58724000D01*
X142286270Y-58735631D01*
X142286269Y-58735632D01*
X142219947Y-58779947D01*
X142175632Y-58846269D01*
X142175631Y-58846270D01*
X142164000Y-58904747D01*
X142164000Y-60375252D01*
X142175631Y-60433729D01*
X142175632Y-60433730D01*
X142219947Y-60500052D01*
X142286269Y-60544367D01*
X142286270Y-60544368D01*
X142344747Y-60555999D01*
X142344750Y-60556000D01*
X142344752Y-60556000D01*
X142389311Y-60556000D01*
X142456350Y-60575685D01*
X142502105Y-60628489D01*
X142512049Y-60697647D01*
X142483024Y-60761203D01*
X142476992Y-60767681D01*
X134771683Y-68472988D01*
X134710360Y-68506473D01*
X134667817Y-68508246D01*
X134600001Y-68499318D01*
X134599999Y-68499318D01*
X134443239Y-68519955D01*
X134443237Y-68519956D01*
X134297160Y-68580463D01*
X134171718Y-68676718D01*
X134075463Y-68802160D01*
X134014956Y-68948237D01*
X134014955Y-68948239D01*
X133994318Y-69104998D01*
X133994318Y-69105001D01*
X134014955Y-69261760D01*
X134014956Y-69261762D01*
X134075464Y-69407842D01*
X134127007Y-69475013D01*
X134152202Y-69540182D01*
X134138164Y-69608627D01*
X134089350Y-69658617D01*
X134028632Y-69674500D01*
X133268299Y-69674500D01*
X133201260Y-69654815D01*
X133169923Y-69625986D01*
X133167207Y-69622447D01*
X133140867Y-69588119D01*
X133128283Y-69571719D01*
X133128282Y-69571718D01*
X133002841Y-69475464D01*
X133001752Y-69475013D01*
X132856762Y-69414956D01*
X132856760Y-69414955D01*
X132700001Y-69394318D01*
X132699999Y-69394318D01*
X132543239Y-69414955D01*
X132543237Y-69414956D01*
X132397160Y-69475463D01*
X132271718Y-69571718D01*
X132175463Y-69697160D01*
X132114956Y-69843237D01*
X132114955Y-69843239D01*
X132094318Y-69999998D01*
X132094318Y-70000001D01*
X132114955Y-70156760D01*
X132114957Y-70156765D01*
X132144483Y-70228048D01*
X132151952Y-70297517D01*
X132120676Y-70359996D01*
X132060587Y-70395648D01*
X132029922Y-70399500D01*
X131649781Y-70399500D01*
X131582742Y-70379815D01*
X131536987Y-70327011D01*
X131535220Y-70322952D01*
X131524537Y-70297161D01*
X131524536Y-70297160D01*
X131524536Y-70297159D01*
X131428282Y-70171718D01*
X131302841Y-70075464D01*
X131156762Y-70014956D01*
X131156760Y-70014955D01*
X131000001Y-69994318D01*
X130999999Y-69994318D01*
X130843239Y-70014955D01*
X130843237Y-70014956D01*
X130697160Y-70075463D01*
X130571718Y-70171718D01*
X130475463Y-70297160D01*
X130414956Y-70443237D01*
X130414955Y-70443239D01*
X130394318Y-70599998D01*
X129310329Y-70599998D01*
X131798507Y-68111818D01*
X131859830Y-68078334D01*
X131886188Y-68075500D01*
X133342851Y-68075500D01*
X133342853Y-68075500D01*
X133425639Y-68053318D01*
X133499862Y-68010465D01*
X134771864Y-66738462D01*
X134833185Y-66704979D01*
X134902877Y-66709963D01*
X134928434Y-66723043D01*
X135031079Y-66791628D01*
X135031092Y-66791635D01*
X135213160Y-66867049D01*
X135213165Y-66867051D01*
X135213169Y-66867051D01*
X135213170Y-66867052D01*
X135406456Y-66905500D01*
X135406459Y-66905500D01*
X135603543Y-66905500D01*
X135766490Y-66873087D01*
X135796835Y-66867051D01*
X135978914Y-66791632D01*
X136142782Y-66682139D01*
X136282139Y-66542782D01*
X136391632Y-66378914D01*
X136467051Y-66196835D01*
X136493510Y-66063817D01*
X136505500Y-66003543D01*
X136505500Y-65006456D01*
X136467052Y-64813170D01*
X136467051Y-64813169D01*
X136467051Y-64813165D01*
X136428461Y-64720000D01*
X136391635Y-64631092D01*
X136391628Y-64631079D01*
X136282139Y-64467218D01*
X136282136Y-64467214D01*
X136142785Y-64327863D01*
X136142781Y-64327860D01*
X135978920Y-64218371D01*
X135978907Y-64218364D01*
X135796839Y-64142950D01*
X135796829Y-64142947D01*
X135603543Y-64104500D01*
X135603541Y-64104500D01*
X135406459Y-64104500D01*
X135406457Y-64104500D01*
X135213170Y-64142947D01*
X135213160Y-64142950D01*
X135031092Y-64218364D01*
X135031079Y-64218371D01*
X134867218Y-64327860D01*
X134867214Y-64327863D01*
X134727863Y-64467214D01*
X134727860Y-64467218D01*
X134618371Y-64631079D01*
X134618364Y-64631092D01*
X134542950Y-64813160D01*
X134542947Y-64813170D01*
X134504500Y-65006456D01*
X134504500Y-65006458D01*
X134504500Y-65006459D01*
X134504500Y-66003541D01*
X134504500Y-66003542D01*
X134504499Y-66003542D01*
X134505114Y-66006630D01*
X134504966Y-66008278D01*
X134505097Y-66009605D01*
X134504845Y-66009629D01*
X134498882Y-66076221D01*
X134471176Y-66118495D01*
X134018713Y-66570959D01*
X133957390Y-66604444D01*
X133887699Y-66599460D01*
X133831765Y-66557589D01*
X133807348Y-66492124D01*
X133822200Y-66423851D01*
X133827930Y-66414387D01*
X133836333Y-66401810D01*
X133851632Y-66378914D01*
X133927051Y-66196835D01*
X133953510Y-66063817D01*
X133965500Y-66003543D01*
X133965500Y-65006456D01*
X133927052Y-64813170D01*
X133927051Y-64813169D01*
X133927051Y-64813165D01*
X133888461Y-64720000D01*
X133851635Y-64631092D01*
X133851628Y-64631079D01*
X133742139Y-64467218D01*
X133742136Y-64467214D01*
X133602785Y-64327863D01*
X133602781Y-64327860D01*
X133438920Y-64218371D01*
X133438907Y-64218364D01*
X133256839Y-64142950D01*
X133256829Y-64142947D01*
X133063543Y-64104500D01*
X133063541Y-64104500D01*
X132866459Y-64104500D01*
X132866457Y-64104500D01*
X132673170Y-64142947D01*
X132673160Y-64142950D01*
X132493453Y-64217386D01*
X132423983Y-64224855D01*
X132361504Y-64193579D01*
X132358320Y-64190506D01*
X128255495Y-60087681D01*
X128222010Y-60026358D01*
X128226994Y-59956666D01*
X128255495Y-59912319D01*
X130180995Y-57986819D01*
X130242318Y-57953334D01*
X130268676Y-57950500D01*
X146891324Y-57950500D01*
X146958363Y-57970185D01*
G37*
%TD.AperFunction*%
%TA.AperFunction,Conductor*%
G36*
X152760855Y-49500011D02*
G01*
X152922269Y-49502274D01*
X152934390Y-49503041D01*
X153238553Y-49537312D01*
X153255992Y-49539277D01*
X153269700Y-49541606D01*
X153584366Y-49613426D01*
X153597725Y-49617273D01*
X153902392Y-49723881D01*
X153915228Y-49729199D01*
X154206025Y-49869239D01*
X154218195Y-49875965D01*
X154491486Y-50047685D01*
X154502827Y-50055732D01*
X154755173Y-50256971D01*
X154765541Y-50266237D01*
X154993762Y-50494458D01*
X155003028Y-50504826D01*
X155204267Y-50757172D01*
X155212314Y-50768513D01*
X155384034Y-51041804D01*
X155390760Y-51053974D01*
X155530798Y-51344766D01*
X155536120Y-51357613D01*
X155642724Y-51662270D01*
X155646573Y-51675633D01*
X155718393Y-51990299D01*
X155720722Y-52004007D01*
X155756957Y-52325597D01*
X155757725Y-52337743D01*
X155759988Y-52499144D01*
X155760000Y-52500882D01*
X155760000Y-102499117D01*
X155759988Y-102500855D01*
X155757725Y-102662256D01*
X155756957Y-102674402D01*
X155720722Y-102995992D01*
X155718393Y-103009700D01*
X155646573Y-103324366D01*
X155642724Y-103337729D01*
X155536120Y-103642386D01*
X155530798Y-103655233D01*
X155390760Y-103946025D01*
X155384034Y-103958195D01*
X155212314Y-104231486D01*
X155204267Y-104242827D01*
X155003028Y-104495173D01*
X154993762Y-104505541D01*
X154765541Y-104733762D01*
X154755173Y-104743028D01*
X154502827Y-104944267D01*
X154491486Y-104952314D01*
X154218195Y-105124034D01*
X154206025Y-105130760D01*
X153915233Y-105270798D01*
X153902386Y-105276120D01*
X153597729Y-105382724D01*
X153584366Y-105386573D01*
X153269700Y-105458393D01*
X153255992Y-105460722D01*
X152934402Y-105496957D01*
X152922256Y-105497725D01*
X152760856Y-105499988D01*
X152759118Y-105500000D01*
X102800882Y-105500000D01*
X102799144Y-105499988D01*
X102637743Y-105497725D01*
X102625597Y-105496957D01*
X102304007Y-105460722D01*
X102290299Y-105458393D01*
X101975633Y-105386573D01*
X101962270Y-105382724D01*
X101657613Y-105276120D01*
X101644766Y-105270798D01*
X101353974Y-105130760D01*
X101341804Y-105124034D01*
X101068513Y-104952314D01*
X101057172Y-104944267D01*
X100804826Y-104743028D01*
X100794458Y-104733762D01*
X100566237Y-104505541D01*
X100556971Y-104495173D01*
X100355730Y-104242824D01*
X100347685Y-104231486D01*
X100175965Y-103958195D01*
X100169239Y-103946025D01*
X100029201Y-103655233D01*
X100023879Y-103642386D01*
X99974801Y-103502130D01*
X99917273Y-103337725D01*
X99913426Y-103324366D01*
X99841606Y-103009700D01*
X99839277Y-102995992D01*
X99837312Y-102978553D01*
X99803041Y-102674390D01*
X99802274Y-102662269D01*
X99800012Y-102500855D01*
X99800000Y-102499117D01*
X99800000Y-101825875D01*
X100199500Y-101825875D01*
X100199500Y-102174124D01*
X100238489Y-102520158D01*
X100238491Y-102520170D01*
X100315982Y-102859684D01*
X100315985Y-102859692D01*
X100430999Y-103188382D01*
X100582092Y-103502130D01*
X100767371Y-103796999D01*
X100767372Y-103797001D01*
X100984487Y-104069256D01*
X101230743Y-104315512D01*
X101502998Y-104532627D01*
X101503001Y-104532628D01*
X101503003Y-104532630D01*
X101797867Y-104717906D01*
X102111621Y-104869002D01*
X102326717Y-104944267D01*
X102440307Y-104984014D01*
X102440315Y-104984017D01*
X102440318Y-104984017D01*
X102440319Y-104984018D01*
X102779829Y-105061509D01*
X103125876Y-105100499D01*
X103125877Y-105100500D01*
X103125880Y-105100500D01*
X103474123Y-105100500D01*
X103474123Y-105100499D01*
X103820171Y-105061509D01*
X104159681Y-104984018D01*
X104488379Y-104869002D01*
X104802133Y-104717906D01*
X105096997Y-104532630D01*
X105143967Y-104495173D01*
X105369256Y-104315512D01*
X105369258Y-104315509D01*
X105369263Y-104315506D01*
X105615506Y-104069263D01*
X105704080Y-103958195D01*
X105832627Y-103797001D01*
X105832628Y-103796999D01*
X105832630Y-103796997D01*
X106017906Y-103502133D01*
X106169002Y-103188379D01*
X106284018Y-102859681D01*
X106361509Y-102520171D01*
X106400500Y-102174120D01*
X106400500Y-101825880D01*
X106400499Y-101825875D01*
X149159500Y-101825875D01*
X149159500Y-102174124D01*
X149198489Y-102520158D01*
X149198491Y-102520170D01*
X149275982Y-102859684D01*
X149275985Y-102859692D01*
X149390999Y-103188382D01*
X149542092Y-103502130D01*
X149727371Y-103796999D01*
X149727372Y-103797001D01*
X149944487Y-104069256D01*
X150190743Y-104315512D01*
X150462998Y-104532627D01*
X150463001Y-104532628D01*
X150463003Y-104532630D01*
X150757867Y-104717906D01*
X151071621Y-104869002D01*
X151286717Y-104944267D01*
X151400307Y-104984014D01*
X151400315Y-104984017D01*
X151400318Y-104984017D01*
X151400319Y-104984018D01*
X151739829Y-105061509D01*
X152085876Y-105100499D01*
X152085877Y-105100500D01*
X152085880Y-105100500D01*
X152434123Y-105100500D01*
X152434123Y-105100499D01*
X152780171Y-105061509D01*
X153119681Y-104984018D01*
X153448379Y-104869002D01*
X153762133Y-104717906D01*
X154056997Y-104532630D01*
X154103967Y-104495173D01*
X154329256Y-104315512D01*
X154329258Y-104315509D01*
X154329263Y-104315506D01*
X154575506Y-104069263D01*
X154664080Y-103958195D01*
X154792627Y-103797001D01*
X154792628Y-103796999D01*
X154792630Y-103796997D01*
X154977906Y-103502133D01*
X155129002Y-103188379D01*
X155244018Y-102859681D01*
X155321509Y-102520171D01*
X155360500Y-102174120D01*
X155360500Y-101825880D01*
X155321509Y-101479829D01*
X155244018Y-101140319D01*
X155129002Y-100811621D01*
X154977906Y-100497867D01*
X154792630Y-100203003D01*
X154792628Y-100203000D01*
X154792627Y-100202998D01*
X154575512Y-99930743D01*
X154329256Y-99684487D01*
X154057001Y-99467372D01*
X154056999Y-99467371D01*
X153762130Y-99282092D01*
X153448382Y-99130999D01*
X153119692Y-99015985D01*
X153119684Y-99015982D01*
X152865048Y-98957863D01*
X152780171Y-98938491D01*
X152780167Y-98938490D01*
X152780158Y-98938489D01*
X152434124Y-98899500D01*
X152434120Y-98899500D01*
X152085880Y-98899500D01*
X152085875Y-98899500D01*
X151739841Y-98938489D01*
X151739829Y-98938491D01*
X151400315Y-99015982D01*
X151400307Y-99015985D01*
X151071617Y-99130999D01*
X150757869Y-99282092D01*
X150463000Y-99467371D01*
X150462998Y-99467372D01*
X150190743Y-99684487D01*
X149944487Y-99930743D01*
X149727372Y-100202998D01*
X149727371Y-100203000D01*
X149542092Y-100497869D01*
X149390999Y-100811617D01*
X149275985Y-101140307D01*
X149275982Y-101140315D01*
X149198491Y-101479829D01*
X149198489Y-101479841D01*
X149159500Y-101825875D01*
X106400499Y-101825875D01*
X106361509Y-101479829D01*
X106284018Y-101140319D01*
X106169002Y-100811621D01*
X106017906Y-100497867D01*
X105832630Y-100203003D01*
X105832628Y-100203000D01*
X105832627Y-100202998D01*
X105615512Y-99930743D01*
X105369256Y-99684487D01*
X105097001Y-99467372D01*
X105096999Y-99467371D01*
X104802130Y-99282092D01*
X104488382Y-99130999D01*
X104159692Y-99015985D01*
X104159684Y-99015982D01*
X103905048Y-98957863D01*
X103820171Y-98938491D01*
X103820167Y-98938490D01*
X103820158Y-98938489D01*
X103474124Y-98899500D01*
X103474120Y-98899500D01*
X103125880Y-98899500D01*
X103125875Y-98899500D01*
X102779841Y-98938489D01*
X102779829Y-98938491D01*
X102440315Y-99015982D01*
X102440307Y-99015985D01*
X102111617Y-99130999D01*
X101797869Y-99282092D01*
X101503000Y-99467371D01*
X101502998Y-99467372D01*
X101230743Y-99684487D01*
X100984487Y-99930743D01*
X100767372Y-100202998D01*
X100767371Y-100203000D01*
X100582092Y-100497869D01*
X100430999Y-100811617D01*
X100315985Y-101140307D01*
X100315982Y-101140315D01*
X100238491Y-101479829D01*
X100238489Y-101479841D01*
X100199500Y-101825875D01*
X99800000Y-101825875D01*
X99800000Y-80240000D01*
X102674659Y-80240000D01*
X102693975Y-80436129D01*
X102751188Y-80624733D01*
X102844086Y-80798532D01*
X102844090Y-80798539D01*
X102969116Y-80950883D01*
X103121460Y-81075909D01*
X103121467Y-81075913D01*
X103295266Y-81168811D01*
X103295269Y-81168811D01*
X103295273Y-81168814D01*
X103483868Y-81226024D01*
X103680000Y-81245341D01*
X103876132Y-81226024D01*
X104064727Y-81168814D01*
X104238538Y-81075910D01*
X104390883Y-80950883D01*
X104515910Y-80798538D01*
X104608814Y-80624727D01*
X104666024Y-80436132D01*
X104685341Y-80240000D01*
X104666024Y-80043868D01*
X104608814Y-79855273D01*
X104608811Y-79855269D01*
X104608811Y-79855266D01*
X104515913Y-79681467D01*
X104515909Y-79681460D01*
X104390883Y-79529116D01*
X104238539Y-79404090D01*
X104238532Y-79404086D01*
X104064733Y-79311188D01*
X104064727Y-79311186D01*
X103876132Y-79253976D01*
X103876129Y-79253975D01*
X103680000Y-79234659D01*
X103483870Y-79253975D01*
X103295266Y-79311188D01*
X103121467Y-79404086D01*
X103121460Y-79404090D01*
X102969116Y-79529116D01*
X102844090Y-79681460D01*
X102844086Y-79681467D01*
X102751188Y-79855266D01*
X102693975Y-80043870D01*
X102674659Y-80240000D01*
X99800000Y-80240000D01*
X99800000Y-70080000D01*
X102674659Y-70080000D01*
X102693975Y-70276129D01*
X102700355Y-70297160D01*
X102731399Y-70399500D01*
X102751188Y-70464733D01*
X102844086Y-70638532D01*
X102844090Y-70638539D01*
X102969116Y-70790883D01*
X103121460Y-70915909D01*
X103121467Y-70915913D01*
X103295266Y-71008811D01*
X103295269Y-71008811D01*
X103295273Y-71008814D01*
X103483868Y-71066024D01*
X103680000Y-71085341D01*
X103876132Y-71066024D01*
X104064727Y-71008814D01*
X104070548Y-71005703D01*
X104238532Y-70915913D01*
X104238538Y-70915910D01*
X104390883Y-70790883D01*
X104515910Y-70638538D01*
X104579638Y-70519311D01*
X104608811Y-70464733D01*
X104608811Y-70464732D01*
X104608814Y-70464727D01*
X104666024Y-70276132D01*
X104685341Y-70080000D01*
X104666024Y-69883868D01*
X104608814Y-69695273D01*
X104608811Y-69695269D01*
X104608811Y-69695266D01*
X104515913Y-69521467D01*
X104515909Y-69521460D01*
X104390883Y-69369116D01*
X104238539Y-69244090D01*
X104238532Y-69244086D01*
X104064733Y-69151188D01*
X104064727Y-69151186D01*
X103912473Y-69105000D01*
X103876129Y-69093975D01*
X103680000Y-69074659D01*
X103483870Y-69093975D01*
X103295266Y-69151188D01*
X103121467Y-69244086D01*
X103121460Y-69244090D01*
X102969116Y-69369116D01*
X102844090Y-69521460D01*
X102844086Y-69521467D01*
X102751188Y-69695266D01*
X102693975Y-69883870D01*
X102674659Y-70080000D01*
X99800000Y-70080000D01*
X99800000Y-67540000D01*
X102674659Y-67540000D01*
X102693975Y-67736129D01*
X102693976Y-67736132D01*
X102741961Y-67894318D01*
X102751188Y-67924733D01*
X102844086Y-68098532D01*
X102844090Y-68098539D01*
X102969116Y-68250883D01*
X103121460Y-68375909D01*
X103121467Y-68375913D01*
X103295266Y-68468811D01*
X103295269Y-68468811D01*
X103295273Y-68468814D01*
X103483868Y-68526024D01*
X103680000Y-68545341D01*
X103876132Y-68526024D01*
X104064727Y-68468814D01*
X104238538Y-68375910D01*
X104238542Y-68375906D01*
X104240223Y-68375008D01*
X104308626Y-68360766D01*
X104373870Y-68385766D01*
X104386358Y-68396685D01*
X106796129Y-70806456D01*
X106870352Y-70849309D01*
X106953138Y-70871491D01*
X107038844Y-70871491D01*
X109988811Y-70871491D01*
X110055850Y-70891176D01*
X110076492Y-70907810D01*
X110573543Y-71404861D01*
X110573544Y-71404862D01*
X110634147Y-71465465D01*
X110634149Y-71465466D01*
X110634153Y-71465469D01*
X110708364Y-71508314D01*
X110708371Y-71508318D01*
X110770975Y-71525092D01*
X110830634Y-71561455D01*
X110861164Y-71624301D01*
X110852870Y-71693677D01*
X110808385Y-71747556D01*
X110797335Y-71754224D01*
X110741464Y-71784088D01*
X110741460Y-71784090D01*
X110589116Y-71909116D01*
X110464089Y-72061461D01*
X110462129Y-72064396D01*
X110460705Y-72065585D01*
X110460225Y-72066171D01*
X110460113Y-72066079D01*
X110408514Y-72109198D01*
X110359030Y-72119500D01*
X104620970Y-72119500D01*
X104553931Y-72099815D01*
X104517871Y-72064396D01*
X104515910Y-72061461D01*
X104390883Y-71909116D01*
X104238539Y-71784090D01*
X104238532Y-71784086D01*
X104064733Y-71691188D01*
X104064727Y-71691186D01*
X103893841Y-71639348D01*
X103876129Y-71633975D01*
X103680000Y-71614659D01*
X103483870Y-71633975D01*
X103295266Y-71691188D01*
X103121467Y-71784086D01*
X103121460Y-71784090D01*
X102969116Y-71909116D01*
X102844090Y-72061460D01*
X102844086Y-72061467D01*
X102751188Y-72235266D01*
X102693975Y-72423870D01*
X102674659Y-72620000D01*
X102693975Y-72816129D01*
X102693976Y-72816132D01*
X102741500Y-72972798D01*
X102751188Y-73004733D01*
X102844086Y-73178532D01*
X102844090Y-73178539D01*
X102969116Y-73330883D01*
X103121460Y-73455909D01*
X103121467Y-73455913D01*
X103295266Y-73548811D01*
X103295269Y-73548811D01*
X103295273Y-73548814D01*
X103483868Y-73606024D01*
X103680000Y-73625341D01*
X103876132Y-73606024D01*
X103879581Y-73605338D01*
X103881424Y-73605502D01*
X103882195Y-73605427D01*
X103882209Y-73605573D01*
X103949173Y-73611562D01*
X103991459Y-73639273D01*
X104443181Y-74090995D01*
X104476666Y-74152318D01*
X104479500Y-74178676D01*
X104479500Y-74259666D01*
X104459815Y-74326705D01*
X104407011Y-74372460D01*
X104337853Y-74382404D01*
X104276835Y-74355519D01*
X104238539Y-74324091D01*
X104238532Y-74324086D01*
X104064733Y-74231188D01*
X104064727Y-74231186D01*
X103876132Y-74173976D01*
X103876129Y-74173975D01*
X103680000Y-74154659D01*
X103483870Y-74173975D01*
X103295266Y-74231188D01*
X103121467Y-74324086D01*
X103121460Y-74324090D01*
X102969116Y-74449116D01*
X102844090Y-74601460D01*
X102844086Y-74601467D01*
X102751188Y-74775266D01*
X102693975Y-74963870D01*
X102674659Y-75160000D01*
X102693975Y-75356129D01*
X102751188Y-75544733D01*
X102844086Y-75718532D01*
X102844090Y-75718539D01*
X102969116Y-75870883D01*
X103121460Y-75995909D01*
X103121467Y-75995913D01*
X103295266Y-76088811D01*
X103295269Y-76088811D01*
X103295273Y-76088814D01*
X103483868Y-76146024D01*
X103680000Y-76165341D01*
X103876132Y-76146024D01*
X104064727Y-76088814D01*
X104238538Y-75995910D01*
X104276834Y-75964480D01*
X104341144Y-75937167D01*
X104410011Y-75948957D01*
X104461572Y-75996109D01*
X104479500Y-76060333D01*
X104479500Y-76141323D01*
X104459815Y-76208362D01*
X104443181Y-76229004D01*
X103991458Y-76680726D01*
X103930135Y-76714211D01*
X103879593Y-76714664D01*
X103876133Y-76713976D01*
X103680000Y-76694659D01*
X103483870Y-76713975D01*
X103295266Y-76771188D01*
X103121467Y-76864086D01*
X103121460Y-76864090D01*
X102969116Y-76989116D01*
X102844090Y-77141460D01*
X102844086Y-77141467D01*
X102751188Y-77315266D01*
X102693975Y-77503870D01*
X102674659Y-77700000D01*
X102693975Y-77896129D01*
X102751188Y-78084733D01*
X102844086Y-78258532D01*
X102844090Y-78258539D01*
X102969116Y-78410883D01*
X103121460Y-78535909D01*
X103121467Y-78535913D01*
X103295266Y-78628811D01*
X103295269Y-78628811D01*
X103295273Y-78628814D01*
X103483868Y-78686024D01*
X103680000Y-78705341D01*
X103876132Y-78686024D01*
X104064727Y-78628814D01*
X104096205Y-78611989D01*
X104151632Y-78582362D01*
X104238538Y-78535910D01*
X104390883Y-78410883D01*
X104515910Y-78258538D01*
X104608814Y-78084727D01*
X104666024Y-77896132D01*
X104685341Y-77700000D01*
X104666024Y-77503868D01*
X104666023Y-77503864D01*
X104665337Y-77500412D01*
X104665502Y-77498567D01*
X104665427Y-77497805D01*
X104665571Y-77497790D01*
X104671564Y-77430820D01*
X104699270Y-77388542D01*
X105380500Y-76707314D01*
X105446392Y-76593186D01*
X105480500Y-76465892D01*
X105480500Y-76334107D01*
X105480500Y-73854108D01*
X105446392Y-73726814D01*
X105380500Y-73612686D01*
X105287314Y-73519500D01*
X105099995Y-73332181D01*
X105066510Y-73270858D01*
X105071494Y-73201166D01*
X105113366Y-73145233D01*
X105178830Y-73120816D01*
X105187676Y-73120500D01*
X109792324Y-73120500D01*
X109859363Y-73140185D01*
X109905118Y-73192989D01*
X109915062Y-73262147D01*
X109886037Y-73325703D01*
X109880005Y-73332181D01*
X108499502Y-74712683D01*
X108499500Y-74712686D01*
X108433608Y-74826812D01*
X108399500Y-74954108D01*
X108399500Y-77965891D01*
X108433608Y-78093187D01*
X108452553Y-78126000D01*
X108499500Y-78207314D01*
X108499502Y-78207316D01*
X110274485Y-79982299D01*
X110307970Y-80043622D01*
X110310207Y-80082134D01*
X110294659Y-80239999D01*
X110313975Y-80436129D01*
X110371188Y-80624733D01*
X110464086Y-80798532D01*
X110464090Y-80798539D01*
X110589116Y-80950883D01*
X110741460Y-81075909D01*
X110741467Y-81075913D01*
X110915266Y-81168811D01*
X110915269Y-81168811D01*
X110915273Y-81168814D01*
X111103868Y-81226024D01*
X111300000Y-81245341D01*
X111457867Y-81229792D01*
X111526511Y-81242811D01*
X111557700Y-81265514D01*
X111860005Y-81567819D01*
X111893490Y-81629142D01*
X111888506Y-81698834D01*
X111846634Y-81754767D01*
X111781170Y-81779184D01*
X111772324Y-81779500D01*
X110480247Y-81779500D01*
X110421770Y-81791131D01*
X110421769Y-81791132D01*
X110355447Y-81835447D01*
X110311132Y-81901769D01*
X110311131Y-81901770D01*
X110299500Y-81960247D01*
X110299500Y-83599752D01*
X110311131Y-83658229D01*
X110311132Y-83658230D01*
X110355447Y-83724552D01*
X110421769Y-83768867D01*
X110421770Y-83768868D01*
X110480247Y-83780499D01*
X110480250Y-83780500D01*
X110480252Y-83780500D01*
X112119750Y-83780500D01*
X112119751Y-83780499D01*
X112134568Y-83777552D01*
X112178229Y-83768868D01*
X112178229Y-83768867D01*
X112178231Y-83768867D01*
X112244552Y-83724552D01*
X112288867Y-83658231D01*
X112288867Y-83658229D01*
X112288868Y-83658229D01*
X112300499Y-83599752D01*
X112300500Y-83599750D01*
X112300500Y-82307676D01*
X112320185Y-82240637D01*
X112372989Y-82194882D01*
X112442147Y-82184938D01*
X112505703Y-82213963D01*
X112512181Y-82219995D01*
X112617686Y-82325500D01*
X112731814Y-82391392D01*
X112859108Y-82425500D01*
X112859110Y-82425500D01*
X129100890Y-82425500D01*
X129100892Y-82425500D01*
X129228186Y-82391392D01*
X129342314Y-82325500D01*
X132353320Y-79314492D01*
X132414643Y-79281008D01*
X132484335Y-79285992D01*
X132488453Y-79287613D01*
X132663790Y-79360239D01*
X132668165Y-79362051D01*
X132668169Y-79362051D01*
X132668170Y-79362052D01*
X132861456Y-79400500D01*
X132861459Y-79400500D01*
X133058543Y-79400500D01*
X133188582Y-79374632D01*
X133251835Y-79362051D01*
X133431546Y-79287613D01*
X133433907Y-79286635D01*
X133433907Y-79286634D01*
X133433914Y-79286632D01*
X133597782Y-79177139D01*
X133737139Y-79037782D01*
X133846632Y-78873914D01*
X133922051Y-78691835D01*
X133937934Y-78611989D01*
X133960500Y-78498543D01*
X133960500Y-77758676D01*
X133980185Y-77691637D01*
X133996819Y-77670995D01*
X134108978Y-77558836D01*
X134293176Y-77374637D01*
X134354497Y-77341154D01*
X134424188Y-77346138D01*
X134480122Y-77388009D01*
X134504539Y-77453474D01*
X134502473Y-77486508D01*
X134499500Y-77501456D01*
X134499500Y-77501459D01*
X134499500Y-78498541D01*
X134499500Y-78498543D01*
X134499499Y-78498543D01*
X134537947Y-78691829D01*
X134537950Y-78691839D01*
X134613364Y-78873907D01*
X134613371Y-78873920D01*
X134722860Y-79037781D01*
X134722863Y-79037785D01*
X134862214Y-79177136D01*
X134862218Y-79177139D01*
X135026079Y-79286628D01*
X135026092Y-79286635D01*
X135203790Y-79360239D01*
X135208165Y-79362051D01*
X135208169Y-79362051D01*
X135208170Y-79362052D01*
X135401456Y-79400500D01*
X135401459Y-79400500D01*
X135598543Y-79400500D01*
X135728582Y-79374632D01*
X135791835Y-79362051D01*
X135971546Y-79287613D01*
X135973907Y-79286635D01*
X135973907Y-79286634D01*
X135973914Y-79286632D01*
X136137782Y-79177139D01*
X136277139Y-79037782D01*
X136386632Y-78873914D01*
X136462051Y-78691835D01*
X136477934Y-78611989D01*
X136500500Y-78498543D01*
X136500500Y-77501456D01*
X136462052Y-77308170D01*
X136462051Y-77308169D01*
X136462051Y-77308165D01*
X136457994Y-77298371D01*
X136386635Y-77126092D01*
X136386628Y-77126079D01*
X136277139Y-76962218D01*
X136277136Y-76962214D01*
X136137785Y-76822863D01*
X136137781Y-76822860D01*
X135973920Y-76713371D01*
X135973907Y-76713364D01*
X135791839Y-76637950D01*
X135791829Y-76637947D01*
X135598543Y-76599500D01*
X135598541Y-76599500D01*
X135401459Y-76599500D01*
X135401457Y-76599500D01*
X135386508Y-76602473D01*
X135316916Y-76596243D01*
X135261740Y-76553379D01*
X135238498Y-76487488D01*
X135254568Y-76419492D01*
X135274635Y-76393178D01*
X138790995Y-72876819D01*
X138852318Y-72843334D01*
X138878676Y-72840500D01*
X142242843Y-72840500D01*
X142309882Y-72860185D01*
X142334993Y-72881528D01*
X142463694Y-73024466D01*
X142463698Y-73024468D01*
X142463700Y-73024471D01*
X142529585Y-73072339D01*
X142619472Y-73137646D01*
X142619477Y-73137649D01*
X142795375Y-73215965D01*
X142795381Y-73215967D01*
X142983724Y-73256000D01*
X142983725Y-73256000D01*
X143176275Y-73256000D01*
X143176276Y-73256000D01*
X143364619Y-73215967D01*
X143364621Y-73215965D01*
X143364624Y-73215965D01*
X143450655Y-73177661D01*
X143540523Y-73137649D01*
X143696300Y-73024471D01*
X143696305Y-73024466D01*
X143825007Y-72881528D01*
X143884493Y-72844879D01*
X143917157Y-72840500D01*
X144782843Y-72840500D01*
X144849882Y-72860185D01*
X144874993Y-72881528D01*
X145003694Y-73024466D01*
X145003698Y-73024468D01*
X145003700Y-73024471D01*
X145069585Y-73072339D01*
X145159472Y-73137646D01*
X145159477Y-73137649D01*
X145335375Y-73215965D01*
X145335381Y-73215967D01*
X145523724Y-73256000D01*
X145523725Y-73256000D01*
X145716273Y-73256000D01*
X145716276Y-73256000D01*
X145742713Y-73250380D01*
X145812378Y-73255695D01*
X145856175Y-73283989D01*
X149263181Y-76690995D01*
X149296666Y-76752318D01*
X149299500Y-76778676D01*
X149299500Y-90761323D01*
X149279815Y-90828362D01*
X149263181Y-90849004D01*
X146995580Y-93116604D01*
X146934257Y-93150089D01*
X146864565Y-93145105D01*
X146808632Y-93103233D01*
X146784215Y-93037769D01*
X146788124Y-92996829D01*
X146821605Y-92871877D01*
X146821606Y-92871871D01*
X146840143Y-92660000D01*
X146840143Y-92659999D01*
X146821606Y-92448128D01*
X146821604Y-92448119D01*
X146766561Y-92242694D01*
X146766556Y-92242680D01*
X146676676Y-92049932D01*
X146676675Y-92049930D01*
X146638352Y-91995199D01*
X146070302Y-92563249D01*
X146048651Y-92482447D01*
X145988091Y-92377554D01*
X145902446Y-92291909D01*
X145797553Y-92231349D01*
X145716748Y-92209697D01*
X146284800Y-91641646D01*
X146230070Y-91603324D01*
X146230068Y-91603323D01*
X146037319Y-91513443D01*
X146037305Y-91513438D01*
X145831880Y-91458395D01*
X145831871Y-91458393D01*
X145620001Y-91439857D01*
X145619999Y-91439857D01*
X145408128Y-91458393D01*
X145408119Y-91458395D01*
X145202694Y-91513438D01*
X145202680Y-91513443D01*
X145009928Y-91603325D01*
X145009926Y-91603326D01*
X144955200Y-91641645D01*
X144955199Y-91641646D01*
X145523250Y-92209697D01*
X145442447Y-92231349D01*
X145337554Y-92291909D01*
X145251909Y-92377554D01*
X145191349Y-92482447D01*
X145169697Y-92563250D01*
X144601646Y-91995199D01*
X144601645Y-91995200D01*
X144563326Y-92049926D01*
X144563325Y-92049928D01*
X144473443Y-92242680D01*
X144473439Y-92242692D01*
X144469775Y-92256368D01*
X144433410Y-92316028D01*
X144370562Y-92346557D01*
X144301187Y-92338262D01*
X144247309Y-92293777D01*
X144230225Y-92256368D01*
X144226560Y-92242692D01*
X144226556Y-92242680D01*
X144136676Y-92049932D01*
X144136675Y-92049930D01*
X144098352Y-91995199D01*
X143530302Y-92563249D01*
X143508651Y-92482447D01*
X143448091Y-92377554D01*
X143362446Y-92291909D01*
X143257553Y-92231349D01*
X143176748Y-92209697D01*
X143744800Y-91641646D01*
X143690070Y-91603324D01*
X143690068Y-91603323D01*
X143497319Y-91513443D01*
X143497305Y-91513438D01*
X143291880Y-91458395D01*
X143291871Y-91458393D01*
X143080001Y-91439857D01*
X143079999Y-91439857D01*
X142868128Y-91458393D01*
X142868119Y-91458395D01*
X142662694Y-91513438D01*
X142662680Y-91513443D01*
X142469928Y-91603325D01*
X142469926Y-91603326D01*
X142415200Y-91641645D01*
X142415199Y-91641646D01*
X142983250Y-92209697D01*
X142902447Y-92231349D01*
X142797554Y-92291909D01*
X142711909Y-92377554D01*
X142651349Y-92482447D01*
X142629697Y-92563250D01*
X142061646Y-91995199D01*
X142061645Y-91995200D01*
X142023326Y-92049926D01*
X142023325Y-92049928D01*
X141933443Y-92242680D01*
X141933438Y-92242694D01*
X141878395Y-92448119D01*
X141878393Y-92448128D01*
X141859857Y-92659999D01*
X141859857Y-92660000D01*
X141878393Y-92871871D01*
X141878395Y-92871880D01*
X141933438Y-93077305D01*
X141933443Y-93077319D01*
X142023323Y-93270068D01*
X142023324Y-93270070D01*
X142061646Y-93324800D01*
X142629697Y-92756748D01*
X142651349Y-92837553D01*
X142711909Y-92942446D01*
X142797554Y-93028091D01*
X142902447Y-93088651D01*
X142983249Y-93110302D01*
X142415198Y-93678352D01*
X142469929Y-93716675D01*
X142469931Y-93716676D01*
X142662680Y-93806556D01*
X142662694Y-93806561D01*
X142868119Y-93861604D01*
X142868128Y-93861606D01*
X143079999Y-93880143D01*
X143080001Y-93880143D01*
X143291871Y-93861606D01*
X143291880Y-93861604D01*
X143497305Y-93806561D01*
X143497319Y-93806556D01*
X143690069Y-93716676D01*
X143690076Y-93716672D01*
X143744800Y-93678352D01*
X143176750Y-93110302D01*
X143257553Y-93088651D01*
X143362446Y-93028091D01*
X143448091Y-92942446D01*
X143508651Y-92837553D01*
X143530302Y-92756749D01*
X144098352Y-93324799D01*
X144136672Y-93270076D01*
X144136676Y-93270069D01*
X144226556Y-93077319D01*
X144226562Y-93077303D01*
X144230225Y-93063633D01*
X144266589Y-93003972D01*
X144329436Y-92973442D01*
X144398812Y-92981736D01*
X144452690Y-93026221D01*
X144469775Y-93063633D01*
X144473437Y-93077303D01*
X144473443Y-93077319D01*
X144563323Y-93270068D01*
X144563324Y-93270070D01*
X144601646Y-93324800D01*
X145169697Y-92756748D01*
X145191349Y-92837553D01*
X145251909Y-92942446D01*
X145337554Y-93028091D01*
X145442447Y-93088651D01*
X145523249Y-93110302D01*
X144955198Y-93678352D01*
X145009929Y-93716675D01*
X145009931Y-93716676D01*
X145202680Y-93806556D01*
X145202694Y-93806561D01*
X145408119Y-93861604D01*
X145408128Y-93861606D01*
X145619999Y-93880143D01*
X145620001Y-93880143D01*
X145831871Y-93861606D01*
X145831877Y-93861605D01*
X145956829Y-93828124D01*
X146026679Y-93829787D01*
X146084542Y-93868949D01*
X146112046Y-93933177D01*
X146100460Y-94002080D01*
X146076604Y-94035580D01*
X145856174Y-94256010D01*
X145794851Y-94289495D01*
X145742716Y-94289619D01*
X145716276Y-94284000D01*
X145523724Y-94284000D01*
X145497872Y-94289495D01*
X145335381Y-94324032D01*
X145335375Y-94324034D01*
X145159477Y-94402350D01*
X145159472Y-94402353D01*
X145003701Y-94515528D01*
X145003694Y-94515533D01*
X144874993Y-94658472D01*
X144815507Y-94695121D01*
X144782843Y-94699500D01*
X143917157Y-94699500D01*
X143850118Y-94679815D01*
X143825007Y-94658472D01*
X143696305Y-94515533D01*
X143696301Y-94515530D01*
X143696300Y-94515529D01*
X143644374Y-94477803D01*
X143540527Y-94402353D01*
X143540522Y-94402350D01*
X143364624Y-94324034D01*
X143364618Y-94324032D01*
X143202128Y-94289495D01*
X143176276Y-94284000D01*
X142983724Y-94284000D01*
X142957872Y-94289495D01*
X142795381Y-94324032D01*
X142795375Y-94324034D01*
X142619477Y-94402350D01*
X142619472Y-94402353D01*
X142463701Y-94515528D01*
X142463693Y-94515534D01*
X142374773Y-94614290D01*
X142315287Y-94650938D01*
X142245430Y-94649607D01*
X142194943Y-94618998D01*
X137695945Y-90120000D01*
X142158954Y-90120000D01*
X142179081Y-90311498D01*
X142179082Y-90311500D01*
X142238580Y-90494616D01*
X142238585Y-90494628D01*
X142334854Y-90661372D01*
X142334856Y-90661374D01*
X142334858Y-90661377D01*
X142379738Y-90711221D01*
X142463694Y-90804466D01*
X142463698Y-90804468D01*
X142463700Y-90804471D01*
X142524995Y-90849004D01*
X142619472Y-90917646D01*
X142619477Y-90917649D01*
X142795375Y-90995965D01*
X142795381Y-90995967D01*
X142983724Y-91036000D01*
X142983725Y-91036000D01*
X143176275Y-91036000D01*
X143176276Y-91036000D01*
X143364619Y-90995967D01*
X143364621Y-90995965D01*
X143364624Y-90995965D01*
X143423875Y-90969584D01*
X143540523Y-90917649D01*
X143696300Y-90804471D01*
X143825142Y-90661377D01*
X143921417Y-90494623D01*
X143980919Y-90311496D01*
X144001046Y-90120000D01*
X144698954Y-90120000D01*
X144719081Y-90311498D01*
X144719082Y-90311500D01*
X144778580Y-90494616D01*
X144778585Y-90494628D01*
X144874854Y-90661372D01*
X144874856Y-90661374D01*
X144874858Y-90661377D01*
X144919738Y-90711221D01*
X145003694Y-90804466D01*
X145003698Y-90804468D01*
X145003700Y-90804471D01*
X145064995Y-90849004D01*
X145159472Y-90917646D01*
X145159477Y-90917649D01*
X145335375Y-90995965D01*
X145335381Y-90995967D01*
X145523724Y-91036000D01*
X145523725Y-91036000D01*
X145716275Y-91036000D01*
X145716276Y-91036000D01*
X145904619Y-90995967D01*
X145904621Y-90995965D01*
X145904624Y-90995965D01*
X145963875Y-90969584D01*
X146080523Y-90917649D01*
X146236300Y-90804471D01*
X146365142Y-90661377D01*
X146461417Y-90494623D01*
X146520919Y-90311496D01*
X146541046Y-90120000D01*
X146520919Y-89928504D01*
X146461417Y-89745377D01*
X146461414Y-89745371D01*
X146365145Y-89578627D01*
X146365143Y-89578625D01*
X146365142Y-89578623D01*
X146314678Y-89522577D01*
X146236305Y-89435533D01*
X146236301Y-89435530D01*
X146236300Y-89435529D01*
X146184374Y-89397803D01*
X146080527Y-89322353D01*
X146080522Y-89322350D01*
X145904624Y-89244034D01*
X145904618Y-89244032D01*
X145756308Y-89212508D01*
X145716276Y-89204000D01*
X145523724Y-89204000D01*
X145490709Y-89211017D01*
X145335381Y-89244032D01*
X145335375Y-89244034D01*
X145159477Y-89322350D01*
X145159472Y-89322353D01*
X145003701Y-89435528D01*
X145003694Y-89435533D01*
X144874857Y-89578624D01*
X144874854Y-89578627D01*
X144778585Y-89745371D01*
X144778580Y-89745383D01*
X144719082Y-89928499D01*
X144719081Y-89928501D01*
X144698954Y-90120000D01*
X144001046Y-90120000D01*
X143980919Y-89928504D01*
X143921417Y-89745377D01*
X143921414Y-89745371D01*
X143825145Y-89578627D01*
X143825143Y-89578625D01*
X143825142Y-89578623D01*
X143774678Y-89522577D01*
X143696305Y-89435533D01*
X143696301Y-89435530D01*
X143696300Y-89435529D01*
X143644374Y-89397803D01*
X143540527Y-89322353D01*
X143540522Y-89322350D01*
X143364624Y-89244034D01*
X143364618Y-89244032D01*
X143216308Y-89212508D01*
X143176276Y-89204000D01*
X142983724Y-89204000D01*
X142950709Y-89211017D01*
X142795381Y-89244032D01*
X142795375Y-89244034D01*
X142619477Y-89322350D01*
X142619472Y-89322353D01*
X142463701Y-89435528D01*
X142463694Y-89435533D01*
X142334857Y-89578624D01*
X142334854Y-89578627D01*
X142238585Y-89745371D01*
X142238580Y-89745383D01*
X142179082Y-89928499D01*
X142179081Y-89928501D01*
X142158954Y-90120000D01*
X137695945Y-90120000D01*
X135675447Y-88099502D01*
X135675445Y-88099500D01*
X135618381Y-88066554D01*
X135561318Y-88033608D01*
X135497670Y-88016554D01*
X135434023Y-87999500D01*
X135434022Y-87999500D01*
X117498676Y-87999500D01*
X117431637Y-87979815D01*
X117410995Y-87963181D01*
X114847316Y-85399502D01*
X114847314Y-85399500D01*
X114756789Y-85347235D01*
X114733187Y-85333608D01*
X114607459Y-85299920D01*
X114605892Y-85299500D01*
X106665893Y-85299500D01*
X106534108Y-85299500D01*
X106406812Y-85333608D01*
X106292686Y-85399500D01*
X106292683Y-85399502D01*
X105611458Y-86080726D01*
X105550135Y-86114211D01*
X105499593Y-86114664D01*
X105496133Y-86113976D01*
X105300000Y-86094659D01*
X105103865Y-86113976D01*
X105100401Y-86114665D01*
X105098552Y-86114499D01*
X105097806Y-86114573D01*
X105097792Y-86114431D01*
X105030810Y-86108430D01*
X104988540Y-86080726D01*
X104216819Y-85309005D01*
X104183334Y-85247682D01*
X104180500Y-85221324D01*
X104180500Y-84400247D01*
X116719500Y-84400247D01*
X116719500Y-86839752D01*
X116731131Y-86898229D01*
X116731132Y-86898230D01*
X116775447Y-86964552D01*
X116841769Y-87008867D01*
X116841770Y-87008868D01*
X116900247Y-87020499D01*
X116900250Y-87020500D01*
X116900252Y-87020500D01*
X118539750Y-87020500D01*
X118539751Y-87020499D01*
X118554568Y-87017552D01*
X118598229Y-87008868D01*
X118598229Y-87008867D01*
X118598231Y-87008867D01*
X118664552Y-86964552D01*
X118708867Y-86898231D01*
X118708867Y-86898229D01*
X118708868Y-86898229D01*
X118720499Y-86839752D01*
X118720500Y-86839750D01*
X118720500Y-86118543D01*
X119259499Y-86118543D01*
X119297947Y-86311829D01*
X119297950Y-86311839D01*
X119373364Y-86493907D01*
X119373371Y-86493920D01*
X119482860Y-86657781D01*
X119482863Y-86657785D01*
X119622214Y-86797136D01*
X119622218Y-86797139D01*
X119786079Y-86906628D01*
X119786092Y-86906635D01*
X119865521Y-86939535D01*
X119968165Y-86982051D01*
X119968169Y-86982051D01*
X119968170Y-86982052D01*
X120161456Y-87020500D01*
X120161459Y-87020500D01*
X120358543Y-87020500D01*
X120546566Y-86983099D01*
X120551835Y-86982051D01*
X120733914Y-86906632D01*
X120897782Y-86797139D01*
X121037139Y-86657782D01*
X121146632Y-86493914D01*
X121222051Y-86311835D01*
X121257081Y-86135731D01*
X121260500Y-86118543D01*
X121799499Y-86118543D01*
X121837947Y-86311829D01*
X121837950Y-86311839D01*
X121913364Y-86493907D01*
X121913371Y-86493920D01*
X122022860Y-86657781D01*
X122022863Y-86657785D01*
X122162214Y-86797136D01*
X122162218Y-86797139D01*
X122326079Y-86906628D01*
X122326092Y-86906635D01*
X122405521Y-86939535D01*
X122508165Y-86982051D01*
X122508169Y-86982051D01*
X122508170Y-86982052D01*
X122701456Y-87020500D01*
X122701459Y-87020500D01*
X122898543Y-87020500D01*
X123086566Y-86983099D01*
X123091835Y-86982051D01*
X123273914Y-86906632D01*
X123437782Y-86797139D01*
X123577139Y-86657782D01*
X123686632Y-86493914D01*
X123762051Y-86311835D01*
X123797081Y-86135731D01*
X123800500Y-86118543D01*
X124339499Y-86118543D01*
X124377947Y-86311829D01*
X124377950Y-86311839D01*
X124453364Y-86493907D01*
X124453371Y-86493920D01*
X124562860Y-86657781D01*
X124562863Y-86657785D01*
X124702214Y-86797136D01*
X124702218Y-86797139D01*
X124866079Y-86906628D01*
X124866092Y-86906635D01*
X124945521Y-86939535D01*
X125048165Y-86982051D01*
X125048169Y-86982051D01*
X125048170Y-86982052D01*
X125241456Y-87020500D01*
X125241459Y-87020500D01*
X125438543Y-87020500D01*
X125626566Y-86983099D01*
X125631835Y-86982051D01*
X125813914Y-86906632D01*
X125977782Y-86797139D01*
X126117139Y-86657782D01*
X126226632Y-86493914D01*
X126302051Y-86311835D01*
X126337081Y-86135731D01*
X126340500Y-86118543D01*
X126340500Y-85131188D01*
X126360185Y-85064149D01*
X126376819Y-85043507D01*
X126571827Y-84848499D01*
X126778225Y-84642101D01*
X126839545Y-84608618D01*
X126909236Y-84613602D01*
X126965170Y-84655473D01*
X126989587Y-84720938D01*
X126980464Y-84777236D01*
X126917950Y-84928160D01*
X126917947Y-84928170D01*
X126879500Y-85121456D01*
X126879500Y-85121459D01*
X126879500Y-86118541D01*
X126879500Y-86118543D01*
X126879499Y-86118543D01*
X126917947Y-86311829D01*
X126917950Y-86311839D01*
X126993364Y-86493907D01*
X126993371Y-86493920D01*
X127102860Y-86657781D01*
X127102863Y-86657785D01*
X127242214Y-86797136D01*
X127242218Y-86797139D01*
X127406079Y-86906628D01*
X127406092Y-86906635D01*
X127485521Y-86939535D01*
X127588165Y-86982051D01*
X127588169Y-86982051D01*
X127588170Y-86982052D01*
X127781456Y-87020500D01*
X127781459Y-87020500D01*
X127978543Y-87020500D01*
X128166566Y-86983099D01*
X128171835Y-86982051D01*
X128353914Y-86906632D01*
X128517782Y-86797139D01*
X128657139Y-86657782D01*
X128766632Y-86493914D01*
X128842051Y-86311835D01*
X128877081Y-86135731D01*
X128880500Y-86118543D01*
X128880500Y-85131187D01*
X128900185Y-85064148D01*
X128916819Y-85043506D01*
X129111826Y-84848499D01*
X129318225Y-84642099D01*
X129379545Y-84608617D01*
X129449236Y-84613601D01*
X129505170Y-84655472D01*
X129529587Y-84720937D01*
X129520465Y-84777234D01*
X129457949Y-84928165D01*
X129457947Y-84928170D01*
X129419500Y-85121456D01*
X129419500Y-85121459D01*
X129419500Y-86118541D01*
X129419500Y-86118543D01*
X129419499Y-86118543D01*
X129457947Y-86311829D01*
X129457950Y-86311839D01*
X129533364Y-86493907D01*
X129533371Y-86493920D01*
X129642860Y-86657781D01*
X129642863Y-86657785D01*
X129782214Y-86797136D01*
X129782218Y-86797139D01*
X129946079Y-86906628D01*
X129946092Y-86906635D01*
X130025521Y-86939535D01*
X130128165Y-86982051D01*
X130128169Y-86982051D01*
X130128170Y-86982052D01*
X130321456Y-87020500D01*
X130321459Y-87020500D01*
X130518543Y-87020500D01*
X130706566Y-86983099D01*
X130711835Y-86982051D01*
X130893914Y-86906632D01*
X131057782Y-86797139D01*
X131197139Y-86657782D01*
X131306632Y-86493914D01*
X131382051Y-86311835D01*
X131417081Y-86135731D01*
X131420500Y-86118543D01*
X131420500Y-85121456D01*
X131382052Y-84928170D01*
X131382051Y-84928169D01*
X131382051Y-84928165D01*
X131349055Y-84848504D01*
X131306635Y-84746092D01*
X131306628Y-84746079D01*
X131217969Y-84613391D01*
X131197091Y-84546713D01*
X131215576Y-84479333D01*
X131267555Y-84432643D01*
X131321071Y-84420500D01*
X132058929Y-84420500D01*
X132125968Y-84440185D01*
X132171723Y-84492989D01*
X132181667Y-84562147D01*
X132162031Y-84613391D01*
X132073371Y-84746079D01*
X132073364Y-84746092D01*
X131997950Y-84928160D01*
X131997947Y-84928170D01*
X131959500Y-85121456D01*
X131959500Y-85121459D01*
X131959500Y-86118541D01*
X131959500Y-86118543D01*
X131959499Y-86118543D01*
X131997947Y-86311829D01*
X131997950Y-86311839D01*
X132073364Y-86493907D01*
X132073371Y-86493920D01*
X132182860Y-86657781D01*
X132182863Y-86657785D01*
X132322214Y-86797136D01*
X132322218Y-86797139D01*
X132486079Y-86906628D01*
X132486092Y-86906635D01*
X132565521Y-86939535D01*
X132668165Y-86982051D01*
X132668169Y-86982051D01*
X132668170Y-86982052D01*
X132861456Y-87020500D01*
X132861459Y-87020500D01*
X133058543Y-87020500D01*
X133246566Y-86983099D01*
X133251835Y-86982051D01*
X133433914Y-86906632D01*
X133597782Y-86797139D01*
X133737139Y-86657782D01*
X133846632Y-86493914D01*
X133922051Y-86311835D01*
X133958034Y-86130937D01*
X133990419Y-86069027D01*
X134051134Y-86034453D01*
X134120904Y-86038192D01*
X134177576Y-86079059D01*
X134202124Y-86135731D01*
X134232009Y-86324417D01*
X134295244Y-86519031D01*
X134388140Y-86701349D01*
X134508417Y-86866894D01*
X134508417Y-86866895D01*
X134653104Y-87011582D01*
X134818650Y-87131859D01*
X135000968Y-87224754D01*
X135195578Y-87287988D01*
X135250000Y-87296607D01*
X135250000Y-85935686D01*
X135254394Y-85940080D01*
X135345606Y-85992741D01*
X135447339Y-86020000D01*
X135552661Y-86020000D01*
X135654394Y-85992741D01*
X135745606Y-85940080D01*
X135750000Y-85935686D01*
X135750000Y-87296606D01*
X135804421Y-87287988D01*
X135999031Y-87224754D01*
X136181349Y-87131859D01*
X136346894Y-87011582D01*
X136346895Y-87011582D01*
X136491582Y-86866895D01*
X136491582Y-86866894D01*
X136611859Y-86701349D01*
X136704755Y-86519031D01*
X136767990Y-86324417D01*
X136800000Y-86122317D01*
X136800000Y-85870000D01*
X135815686Y-85870000D01*
X135820080Y-85865606D01*
X135872741Y-85774394D01*
X135900000Y-85672661D01*
X135900000Y-85567339D01*
X135872741Y-85465606D01*
X135820080Y-85374394D01*
X135815686Y-85370000D01*
X136800000Y-85370000D01*
X136800000Y-85117682D01*
X136767990Y-84915582D01*
X136704754Y-84720965D01*
X136643524Y-84600794D01*
X136630628Y-84532125D01*
X136656905Y-84467385D01*
X136714011Y-84427128D01*
X136754009Y-84420500D01*
X140008811Y-84420500D01*
X140075850Y-84440185D01*
X140096492Y-84456819D01*
X141980638Y-86340965D01*
X142054861Y-86383818D01*
X142075730Y-86389409D01*
X142135389Y-86425773D01*
X142165919Y-86488620D01*
X142157625Y-86557996D01*
X142131317Y-86596865D01*
X141890002Y-86838181D01*
X141828679Y-86871666D01*
X141802321Y-86874500D01*
X138707147Y-86874500D01*
X138624359Y-86896682D01*
X138550138Y-86939535D01*
X138550135Y-86939537D01*
X137721683Y-87767988D01*
X137660360Y-87801473D01*
X137617817Y-87803246D01*
X137550001Y-87794318D01*
X137549999Y-87794318D01*
X137393239Y-87814955D01*
X137393237Y-87814956D01*
X137247160Y-87875463D01*
X137121718Y-87971718D01*
X137025463Y-88097160D01*
X136964956Y-88243237D01*
X136964955Y-88243239D01*
X136944318Y-88399998D01*
X136944318Y-88400001D01*
X136964955Y-88556760D01*
X136964956Y-88556762D01*
X137025464Y-88702841D01*
X137121718Y-88828282D01*
X137247159Y-88924536D01*
X137393238Y-88985044D01*
X137471619Y-88995363D01*
X137549999Y-89005682D01*
X137550000Y-89005682D01*
X137550001Y-89005682D01*
X137602254Y-88998802D01*
X137706762Y-88985044D01*
X137852841Y-88924536D01*
X137978282Y-88828282D01*
X138074536Y-88702841D01*
X138135044Y-88556762D01*
X138155682Y-88400000D01*
X138153725Y-88385139D01*
X138146753Y-88332181D01*
X138157518Y-88263146D01*
X138182008Y-88228317D01*
X138848508Y-87561819D01*
X138909831Y-87528334D01*
X138936189Y-87525500D01*
X142039490Y-87525500D01*
X142039490Y-87528494D01*
X142094387Y-87537051D01*
X142146647Y-87583426D01*
X142164868Y-87636267D01*
X142179081Y-87771498D01*
X142179082Y-87771500D01*
X142238580Y-87954616D01*
X142238585Y-87954628D01*
X142334854Y-88121372D01*
X142334856Y-88121374D01*
X142334858Y-88121377D01*
X142379738Y-88171221D01*
X142463694Y-88264466D01*
X142463698Y-88264468D01*
X142463700Y-88264471D01*
X142546963Y-88324965D01*
X142619472Y-88377646D01*
X142619477Y-88377649D01*
X142795375Y-88455965D01*
X142795381Y-88455967D01*
X142983724Y-88496000D01*
X142983725Y-88496000D01*
X143176275Y-88496000D01*
X143176276Y-88496000D01*
X143364619Y-88455967D01*
X143364621Y-88455965D01*
X143364624Y-88455965D01*
X143479168Y-88404966D01*
X143540523Y-88377649D01*
X143696300Y-88264471D01*
X143697494Y-88263146D01*
X143728856Y-88228314D01*
X143825142Y-88121377D01*
X143837772Y-88099502D01*
X143921414Y-87954628D01*
X143921413Y-87954628D01*
X143921417Y-87954623D01*
X143980919Y-87771496D01*
X144001046Y-87580000D01*
X143980919Y-87388504D01*
X143921417Y-87205377D01*
X143832288Y-87051000D01*
X143815815Y-86983099D01*
X143838668Y-86917073D01*
X143893589Y-86873882D01*
X143939675Y-86865000D01*
X144393311Y-86865000D01*
X144460350Y-86884685D01*
X144480992Y-86901319D01*
X144726437Y-87146764D01*
X144759922Y-87208087D01*
X144756687Y-87272763D01*
X144719082Y-87388499D01*
X144719081Y-87388501D01*
X144698954Y-87580000D01*
X144719081Y-87771498D01*
X144719082Y-87771500D01*
X144778580Y-87954616D01*
X144778585Y-87954628D01*
X144874854Y-88121372D01*
X144874856Y-88121374D01*
X144874858Y-88121377D01*
X144919738Y-88171221D01*
X145003694Y-88264466D01*
X145003698Y-88264468D01*
X145003700Y-88264471D01*
X145086963Y-88324965D01*
X145159472Y-88377646D01*
X145159477Y-88377649D01*
X145335375Y-88455965D01*
X145335381Y-88455967D01*
X145523724Y-88496000D01*
X145523725Y-88496000D01*
X145716275Y-88496000D01*
X145716276Y-88496000D01*
X145904619Y-88455967D01*
X145904621Y-88455965D01*
X145904624Y-88455965D01*
X146019168Y-88404966D01*
X146080523Y-88377649D01*
X146236300Y-88264471D01*
X146237494Y-88263146D01*
X146268856Y-88228314D01*
X146365142Y-88121377D01*
X146377772Y-88099502D01*
X146461414Y-87954628D01*
X146461413Y-87954628D01*
X146461417Y-87954623D01*
X146520919Y-87771496D01*
X146541046Y-87580000D01*
X146520919Y-87388504D01*
X146461417Y-87205377D01*
X146418972Y-87131859D01*
X146365145Y-87038627D01*
X146365143Y-87038625D01*
X146365142Y-87038623D01*
X146314203Y-86982049D01*
X146236305Y-86895533D01*
X146236301Y-86895530D01*
X146236300Y-86895529D01*
X146159529Y-86839752D01*
X146080527Y-86782353D01*
X146080522Y-86782350D01*
X145904624Y-86704034D01*
X145904618Y-86704032D01*
X145756308Y-86672508D01*
X145716276Y-86664000D01*
X145523724Y-86664000D01*
X145483692Y-86672508D01*
X145335382Y-86704032D01*
X145335377Y-86704034D01*
X145322572Y-86709735D01*
X145253322Y-86719016D01*
X145190047Y-86689385D01*
X145184461Y-86684134D01*
X144898007Y-86397680D01*
X144864522Y-86336357D01*
X144869506Y-86266665D01*
X144898003Y-86222323D01*
X145184462Y-85935863D01*
X145245783Y-85902380D01*
X145315475Y-85907364D01*
X145322576Y-85910266D01*
X145335381Y-85915967D01*
X145523724Y-85956000D01*
X145523725Y-85956000D01*
X145716275Y-85956000D01*
X145716276Y-85956000D01*
X145904619Y-85915967D01*
X145904621Y-85915965D01*
X145904624Y-85915965D01*
X146007862Y-85870000D01*
X146080523Y-85837649D01*
X146236300Y-85724471D01*
X146241514Y-85718681D01*
X146282477Y-85673186D01*
X146365142Y-85581377D01*
X146461417Y-85414623D01*
X146520919Y-85231496D01*
X146541046Y-85040000D01*
X146520919Y-84848504D01*
X146461417Y-84665377D01*
X146455699Y-84655473D01*
X146365145Y-84498627D01*
X146365143Y-84498625D01*
X146365142Y-84498623D01*
X146305734Y-84432643D01*
X146236305Y-84355533D01*
X146236301Y-84355530D01*
X146236300Y-84355529D01*
X146184374Y-84317803D01*
X146080527Y-84242353D01*
X146080522Y-84242350D01*
X145904624Y-84164034D01*
X145904618Y-84164032D01*
X145756308Y-84132508D01*
X145716276Y-84124000D01*
X145523724Y-84124000D01*
X145490709Y-84131017D01*
X145335381Y-84164032D01*
X145335375Y-84164034D01*
X145159477Y-84242350D01*
X145159472Y-84242353D01*
X145003701Y-84355528D01*
X145003694Y-84355533D01*
X144874857Y-84498624D01*
X144874854Y-84498627D01*
X144778585Y-84665371D01*
X144778580Y-84665383D01*
X144719082Y-84848499D01*
X144719081Y-84848501D01*
X144698954Y-85040000D01*
X144719081Y-85231498D01*
X144719082Y-85231500D01*
X144756687Y-85347235D01*
X144758682Y-85417076D01*
X144726437Y-85473234D01*
X144480990Y-85718682D01*
X144419670Y-85752166D01*
X144393311Y-85755000D01*
X143939675Y-85755000D01*
X143872636Y-85735315D01*
X143826881Y-85682511D01*
X143816937Y-85613353D01*
X143832288Y-85569000D01*
X143845630Y-85545891D01*
X143921417Y-85414623D01*
X143980919Y-85231496D01*
X144001046Y-85040000D01*
X143980919Y-84848504D01*
X143921417Y-84665377D01*
X143915699Y-84655473D01*
X143825145Y-84498627D01*
X143825143Y-84498625D01*
X143825142Y-84498623D01*
X143765734Y-84432643D01*
X143696305Y-84355533D01*
X143696301Y-84355530D01*
X143696300Y-84355529D01*
X143644374Y-84317803D01*
X143540527Y-84242353D01*
X143540522Y-84242350D01*
X143364624Y-84164034D01*
X143364618Y-84164032D01*
X143216308Y-84132508D01*
X143176276Y-84124000D01*
X142983724Y-84124000D01*
X142950709Y-84131017D01*
X142795381Y-84164032D01*
X142795375Y-84164034D01*
X142619477Y-84242350D01*
X142619472Y-84242353D01*
X142463701Y-84355528D01*
X142463694Y-84355533D01*
X142334857Y-84498624D01*
X142334854Y-84498627D01*
X142238585Y-84665371D01*
X142238580Y-84665383D01*
X142179082Y-84848499D01*
X142179081Y-84848501D01*
X142158954Y-85040000D01*
X142179081Y-85231498D01*
X142179082Y-85231500D01*
X142205864Y-85313926D01*
X142207859Y-85383767D01*
X142171779Y-85443600D01*
X142109078Y-85474428D01*
X142039663Y-85466463D01*
X142000252Y-85439925D01*
X140638008Y-84077681D01*
X140604523Y-84016358D01*
X140609507Y-83946666D01*
X140651379Y-83890733D01*
X140716843Y-83866316D01*
X140725689Y-83866000D01*
X144622351Y-83866000D01*
X144622353Y-83866000D01*
X144705139Y-83843818D01*
X144779362Y-83800965D01*
X145184462Y-83395863D01*
X145245783Y-83362380D01*
X145315474Y-83367364D01*
X145322576Y-83370266D01*
X145335381Y-83375967D01*
X145523724Y-83416000D01*
X145523725Y-83416000D01*
X145716275Y-83416000D01*
X145716276Y-83416000D01*
X145904619Y-83375967D01*
X145904621Y-83375965D01*
X145904624Y-83375965D01*
X145995277Y-83335603D01*
X146080523Y-83297649D01*
X146236300Y-83184471D01*
X146241514Y-83178681D01*
X146274081Y-83142511D01*
X146365142Y-83041377D01*
X146461417Y-82874623D01*
X146520919Y-82691496D01*
X146541046Y-82500000D01*
X146520919Y-82308504D01*
X146461417Y-82125377D01*
X146461414Y-82125371D01*
X146365145Y-81958627D01*
X146365143Y-81958625D01*
X146365142Y-81958623D01*
X146314678Y-81902577D01*
X146236305Y-81815533D01*
X146236301Y-81815530D01*
X146236300Y-81815529D01*
X146152668Y-81754767D01*
X146080527Y-81702353D01*
X146080522Y-81702350D01*
X145904624Y-81624034D01*
X145904618Y-81624032D01*
X145756308Y-81592508D01*
X145716276Y-81584000D01*
X145523724Y-81584000D01*
X145490709Y-81591017D01*
X145335381Y-81624032D01*
X145335375Y-81624034D01*
X145159477Y-81702350D01*
X145159472Y-81702353D01*
X145003701Y-81815528D01*
X145003694Y-81815533D01*
X144874857Y-81958624D01*
X144874854Y-81958627D01*
X144778585Y-82125371D01*
X144778580Y-82125383D01*
X144719082Y-82308499D01*
X144719081Y-82308501D01*
X144698954Y-82500000D01*
X144719081Y-82691498D01*
X144719082Y-82691500D01*
X144756687Y-82807235D01*
X144758682Y-82877076D01*
X144726437Y-82933234D01*
X144480990Y-83178682D01*
X144419670Y-83212166D01*
X144393311Y-83215000D01*
X144120000Y-83215000D01*
X144052961Y-83195315D01*
X144007206Y-83142511D01*
X143996000Y-83091000D01*
X143996000Y-81764749D01*
X143995999Y-81764747D01*
X143984368Y-81706270D01*
X143984367Y-81706269D01*
X143940052Y-81639947D01*
X143873730Y-81595632D01*
X143873729Y-81595631D01*
X143815252Y-81584000D01*
X143815248Y-81584000D01*
X142344752Y-81584000D01*
X142344747Y-81584000D01*
X142286270Y-81595631D01*
X142286269Y-81595632D01*
X142219947Y-81639947D01*
X142175632Y-81706269D01*
X142175631Y-81706270D01*
X142164000Y-81764747D01*
X142164000Y-83091000D01*
X142144315Y-83158039D01*
X142091511Y-83203794D01*
X142040000Y-83215000D01*
X127376647Y-83215000D01*
X127293859Y-83237182D01*
X127219638Y-83280035D01*
X127219635Y-83280037D01*
X126097115Y-84402557D01*
X126035792Y-84436042D01*
X125966100Y-84431058D01*
X125940543Y-84417978D01*
X125813920Y-84333371D01*
X125813907Y-84333364D01*
X125631839Y-84257950D01*
X125631829Y-84257947D01*
X125438543Y-84219500D01*
X125438541Y-84219500D01*
X125241459Y-84219500D01*
X125241457Y-84219500D01*
X125048170Y-84257947D01*
X125048160Y-84257950D01*
X124866092Y-84333364D01*
X124866079Y-84333371D01*
X124702218Y-84442860D01*
X124702214Y-84442863D01*
X124562863Y-84582214D01*
X124562860Y-84582218D01*
X124453371Y-84746079D01*
X124453364Y-84746092D01*
X124377950Y-84928160D01*
X124377947Y-84928170D01*
X124339500Y-85121456D01*
X124339500Y-85121459D01*
X124339500Y-86118541D01*
X124339500Y-86118543D01*
X124339499Y-86118543D01*
X123800500Y-86118543D01*
X123800500Y-85121456D01*
X123762052Y-84928170D01*
X123762051Y-84928169D01*
X123762051Y-84928165D01*
X123729055Y-84848504D01*
X123686635Y-84746092D01*
X123686628Y-84746079D01*
X123577139Y-84582218D01*
X123577136Y-84582214D01*
X123437785Y-84442863D01*
X123437781Y-84442860D01*
X123273920Y-84333371D01*
X123273907Y-84333364D01*
X123091839Y-84257950D01*
X123091829Y-84257947D01*
X122898543Y-84219500D01*
X122898541Y-84219500D01*
X122701459Y-84219500D01*
X122701457Y-84219500D01*
X122508170Y-84257947D01*
X122508160Y-84257950D01*
X122326092Y-84333364D01*
X122326079Y-84333371D01*
X122162218Y-84442860D01*
X122162214Y-84442863D01*
X122022863Y-84582214D01*
X122022860Y-84582218D01*
X121913371Y-84746079D01*
X121913364Y-84746092D01*
X121837950Y-84928160D01*
X121837947Y-84928170D01*
X121799500Y-85121456D01*
X121799500Y-85121459D01*
X121799500Y-86118541D01*
X121799500Y-86118543D01*
X121799499Y-86118543D01*
X121260500Y-86118543D01*
X121260500Y-85121456D01*
X121222052Y-84928170D01*
X121222051Y-84928169D01*
X121222051Y-84928165D01*
X121189055Y-84848504D01*
X121146635Y-84746092D01*
X121146628Y-84746079D01*
X121037139Y-84582218D01*
X121037136Y-84582214D01*
X120897785Y-84442863D01*
X120897781Y-84442860D01*
X120733920Y-84333371D01*
X120733907Y-84333364D01*
X120551839Y-84257950D01*
X120551829Y-84257947D01*
X120358543Y-84219500D01*
X120358541Y-84219500D01*
X120161459Y-84219500D01*
X120161457Y-84219500D01*
X119968170Y-84257947D01*
X119968160Y-84257950D01*
X119786092Y-84333364D01*
X119786079Y-84333371D01*
X119622218Y-84442860D01*
X119622214Y-84442863D01*
X119482863Y-84582214D01*
X119482860Y-84582218D01*
X119373371Y-84746079D01*
X119373364Y-84746092D01*
X119297950Y-84928160D01*
X119297947Y-84928170D01*
X119259500Y-85121456D01*
X119259500Y-85121459D01*
X119259500Y-86118541D01*
X119259500Y-86118543D01*
X119259499Y-86118543D01*
X118720500Y-86118543D01*
X118720500Y-84400249D01*
X118720499Y-84400247D01*
X118708868Y-84341770D01*
X118708867Y-84341769D01*
X118664552Y-84275447D01*
X118598230Y-84231132D01*
X118598229Y-84231131D01*
X118539752Y-84219500D01*
X118539748Y-84219500D01*
X116900252Y-84219500D01*
X116900247Y-84219500D01*
X116841770Y-84231131D01*
X116841769Y-84231132D01*
X116775447Y-84275447D01*
X116731132Y-84341769D01*
X116731131Y-84341770D01*
X116719500Y-84400247D01*
X104180500Y-84400247D01*
X104180500Y-83720969D01*
X104200185Y-83653930D01*
X104235613Y-83617864D01*
X104238528Y-83615915D01*
X104238538Y-83615910D01*
X104390883Y-83490883D01*
X104515910Y-83338538D01*
X104570086Y-83237182D01*
X104608811Y-83164733D01*
X104608811Y-83164732D01*
X104608814Y-83164727D01*
X104666024Y-82976132D01*
X104685341Y-82780000D01*
X104666024Y-82583868D01*
X104608814Y-82395273D01*
X104608811Y-82395269D01*
X104608811Y-82395266D01*
X104515913Y-82221467D01*
X104515909Y-82221460D01*
X104390883Y-82069116D01*
X104238539Y-81944090D01*
X104238532Y-81944086D01*
X104064733Y-81851188D01*
X104064727Y-81851186D01*
X103876132Y-81793976D01*
X103876129Y-81793975D01*
X103680000Y-81774659D01*
X103483870Y-81793975D01*
X103295266Y-81851188D01*
X103121467Y-81944086D01*
X103121460Y-81944090D01*
X102969116Y-82069116D01*
X102844090Y-82221460D01*
X102844086Y-82221467D01*
X102751188Y-82395266D01*
X102693975Y-82583870D01*
X102674659Y-82780000D01*
X102693975Y-82976129D01*
X102751188Y-83164733D01*
X102844086Y-83338532D01*
X102844090Y-83338539D01*
X102969116Y-83490883D01*
X103121457Y-83615906D01*
X103121462Y-83615910D01*
X103121466Y-83615912D01*
X103124387Y-83617864D01*
X103125576Y-83619286D01*
X103126171Y-83619775D01*
X103126078Y-83619887D01*
X103169194Y-83671475D01*
X103179500Y-83720969D01*
X103179500Y-85545891D01*
X103213608Y-85673187D01*
X103239875Y-85718681D01*
X103279500Y-85787314D01*
X103279502Y-85787316D01*
X104280726Y-86788540D01*
X104314211Y-86849863D01*
X104314665Y-86900401D01*
X104313976Y-86903865D01*
X104294659Y-87100000D01*
X104313975Y-87296129D01*
X104313976Y-87296132D01*
X104361729Y-87453553D01*
X104371188Y-87484733D01*
X104464086Y-87658532D01*
X104464090Y-87658539D01*
X104589116Y-87810883D01*
X104741460Y-87935909D01*
X104741467Y-87935913D01*
X104915266Y-88028811D01*
X104915269Y-88028811D01*
X104915273Y-88028814D01*
X105103868Y-88086024D01*
X105300000Y-88105341D01*
X105496132Y-88086024D01*
X105684727Y-88028814D01*
X105858538Y-87935910D01*
X106010883Y-87810883D01*
X106135910Y-87658538D01*
X106218877Y-87503318D01*
X106228811Y-87484733D01*
X106228811Y-87484732D01*
X106228814Y-87484727D01*
X106286024Y-87296132D01*
X106305341Y-87100000D01*
X106286024Y-86903868D01*
X106286023Y-86903864D01*
X106285337Y-86900412D01*
X106285502Y-86898567D01*
X106285427Y-86897805D01*
X106285571Y-86897790D01*
X106291564Y-86830820D01*
X106319270Y-86788542D01*
X106770995Y-86336819D01*
X106832318Y-86303334D01*
X106858676Y-86300500D01*
X109043780Y-86300500D01*
X109110819Y-86320185D01*
X109156574Y-86372989D01*
X109166518Y-86442147D01*
X109156162Y-86476904D01*
X109073735Y-86653668D01*
X109073730Y-86653682D01*
X109014860Y-86873389D01*
X109014858Y-86873400D01*
X108995034Y-87099997D01*
X108995034Y-87100002D01*
X109014858Y-87326599D01*
X109014860Y-87326610D01*
X109073730Y-87546317D01*
X109073735Y-87546331D01*
X109169863Y-87752478D01*
X109220974Y-87825472D01*
X109900000Y-87146446D01*
X109900000Y-87152661D01*
X109927259Y-87254394D01*
X109979920Y-87345606D01*
X110054394Y-87420080D01*
X110145606Y-87472741D01*
X110247339Y-87500000D01*
X110253553Y-87500000D01*
X109574526Y-88179025D01*
X109647513Y-88230132D01*
X109647521Y-88230136D01*
X109853668Y-88326264D01*
X109853682Y-88326269D01*
X110073389Y-88385139D01*
X110073400Y-88385141D01*
X110299998Y-88404966D01*
X110300002Y-88404966D01*
X110526599Y-88385141D01*
X110526610Y-88385139D01*
X110746317Y-88326269D01*
X110746331Y-88326264D01*
X110952478Y-88230136D01*
X111025471Y-88179024D01*
X110346447Y-87500000D01*
X110352661Y-87500000D01*
X110454394Y-87472741D01*
X110545606Y-87420080D01*
X110620080Y-87345606D01*
X110672741Y-87254394D01*
X110700000Y-87152661D01*
X110700000Y-87146447D01*
X111379024Y-87825471D01*
X111430136Y-87752478D01*
X111526264Y-87546331D01*
X111526269Y-87546317D01*
X111585139Y-87326610D01*
X111585141Y-87326599D01*
X111604966Y-87100002D01*
X111604966Y-87099997D01*
X111585141Y-86873400D01*
X111585139Y-86873389D01*
X111526269Y-86653682D01*
X111526264Y-86653668D01*
X111443838Y-86476904D01*
X111433346Y-86407827D01*
X111461866Y-86344043D01*
X111520343Y-86305804D01*
X111556220Y-86300500D01*
X114281324Y-86300500D01*
X114348363Y-86320185D01*
X114369005Y-86336819D01*
X116839500Y-88807314D01*
X116932686Y-88900500D01*
X117046814Y-88966392D01*
X117174108Y-89000500D01*
X135109455Y-89000500D01*
X135176494Y-89020185D01*
X135197136Y-89036819D01*
X141760817Y-95600500D01*
X141760820Y-95600502D01*
X141767266Y-95605448D01*
X141765239Y-95608088D01*
X141802775Y-95647464D01*
X141815989Y-95716073D01*
X141790013Y-95780934D01*
X141780233Y-95791951D01*
X138709005Y-98863181D01*
X138647682Y-98896666D01*
X138621324Y-98899500D01*
X123408676Y-98899500D01*
X123341637Y-98879815D01*
X123320995Y-98863181D01*
X122006819Y-97549005D01*
X121973334Y-97487682D01*
X121970500Y-97461324D01*
X121970500Y-96174500D01*
X121990185Y-96107461D01*
X122042989Y-96061706D01*
X122094500Y-96050500D01*
X122339750Y-96050500D01*
X122339751Y-96050499D01*
X122354568Y-96047552D01*
X122398229Y-96038868D01*
X122398229Y-96038867D01*
X122398231Y-96038867D01*
X122464552Y-95994552D01*
X122508867Y-95928231D01*
X122508867Y-95928229D01*
X122508868Y-95928229D01*
X122518922Y-95877682D01*
X122520500Y-95869748D01*
X122520500Y-95559456D01*
X122540185Y-95492417D01*
X122592989Y-95446662D01*
X122662147Y-95436718D01*
X122725703Y-95465743D01*
X122756882Y-95507051D01*
X122836400Y-95677578D01*
X122971894Y-95871082D01*
X123138917Y-96038105D01*
X123332421Y-96173600D01*
X123546507Y-96273429D01*
X123546516Y-96273433D01*
X123760000Y-96330634D01*
X123760000Y-95433012D01*
X123817007Y-95465925D01*
X123944174Y-95500000D01*
X124075826Y-95500000D01*
X124202993Y-95465925D01*
X124260000Y-95433012D01*
X124260000Y-96330633D01*
X124473483Y-96273433D01*
X124473492Y-96273429D01*
X124687578Y-96173600D01*
X124881082Y-96038105D01*
X125048105Y-95871082D01*
X125183600Y-95677578D01*
X125283429Y-95463492D01*
X125283433Y-95463483D01*
X125316158Y-95341350D01*
X125352522Y-95281690D01*
X125415369Y-95251160D01*
X125484745Y-95259454D01*
X125538623Y-95303939D01*
X125554593Y-95337447D01*
X125574768Y-95403954D01*
X125672315Y-95586450D01*
X125687906Y-95605448D01*
X125803589Y-95746410D01*
X125859082Y-95791951D01*
X125963550Y-95877685D01*
X126146046Y-95975232D01*
X126344066Y-96035300D01*
X126344065Y-96035300D01*
X126362529Y-96037118D01*
X126550000Y-96055583D01*
X126755934Y-96035300D01*
X126953954Y-95975232D01*
X127136450Y-95877685D01*
X127296410Y-95746410D01*
X127427685Y-95586450D01*
X127525232Y-95403954D01*
X127585300Y-95205934D01*
X127605583Y-95000000D01*
X128034417Y-95000000D01*
X128054699Y-95205932D01*
X128054700Y-95205934D01*
X128114768Y-95403954D01*
X128212315Y-95586450D01*
X128227906Y-95605448D01*
X128343589Y-95746410D01*
X128399082Y-95791951D01*
X128503550Y-95877685D01*
X128686046Y-95975232D01*
X128884066Y-96035300D01*
X128884065Y-96035300D01*
X128902529Y-96037118D01*
X129090000Y-96055583D01*
X129295934Y-96035300D01*
X129493954Y-95975232D01*
X129676450Y-95877685D01*
X129836410Y-95746410D01*
X129967685Y-95586450D01*
X130065232Y-95403954D01*
X130125300Y-95205934D01*
X130145583Y-95000000D01*
X130574417Y-95000000D01*
X130594699Y-95205932D01*
X130594700Y-95205934D01*
X130654768Y-95403954D01*
X130752315Y-95586450D01*
X130767906Y-95605448D01*
X130883589Y-95746410D01*
X130939082Y-95791951D01*
X131043550Y-95877685D01*
X131226046Y-95975232D01*
X131424066Y-96035300D01*
X131424065Y-96035300D01*
X131442529Y-96037118D01*
X131630000Y-96055583D01*
X131835934Y-96035300D01*
X132033954Y-95975232D01*
X132216450Y-95877685D01*
X132376410Y-95746410D01*
X132507685Y-95586450D01*
X132605232Y-95403954D01*
X132665300Y-95205934D01*
X132685583Y-95000000D01*
X133114417Y-95000000D01*
X133134699Y-95205932D01*
X133134700Y-95205934D01*
X133194768Y-95403954D01*
X133292315Y-95586450D01*
X133307906Y-95605448D01*
X133423589Y-95746410D01*
X133479082Y-95791951D01*
X133583550Y-95877685D01*
X133766046Y-95975232D01*
X133964066Y-96035300D01*
X133964065Y-96035300D01*
X133982529Y-96037118D01*
X134170000Y-96055583D01*
X134375934Y-96035300D01*
X134573954Y-95975232D01*
X134756450Y-95877685D01*
X134916410Y-95746410D01*
X135047685Y-95586450D01*
X135145232Y-95403954D01*
X135205300Y-95205934D01*
X135225583Y-95000000D01*
X135205300Y-94794066D01*
X135145232Y-94596046D01*
X135047685Y-94413550D01*
X134945979Y-94289620D01*
X134916410Y-94253589D01*
X134766121Y-94130252D01*
X134756450Y-94122315D01*
X134573954Y-94024768D01*
X134375934Y-93964700D01*
X134375932Y-93964699D01*
X134375934Y-93964699D01*
X134170000Y-93944417D01*
X133964067Y-93964699D01*
X133766043Y-94024769D01*
X133678114Y-94071769D01*
X133583550Y-94122315D01*
X133583548Y-94122316D01*
X133583547Y-94122317D01*
X133423589Y-94253589D01*
X133292317Y-94413547D01*
X133194769Y-94596043D01*
X133134699Y-94794067D01*
X133114417Y-95000000D01*
X132685583Y-95000000D01*
X132665300Y-94794066D01*
X132605232Y-94596046D01*
X132507685Y-94413550D01*
X132405979Y-94289620D01*
X132376410Y-94253589D01*
X132226121Y-94130252D01*
X132216450Y-94122315D01*
X132033954Y-94024768D01*
X131835934Y-93964700D01*
X131835932Y-93964699D01*
X131835934Y-93964699D01*
X131630000Y-93944417D01*
X131424067Y-93964699D01*
X131226043Y-94024769D01*
X131138114Y-94071769D01*
X131043550Y-94122315D01*
X131043548Y-94122316D01*
X131043547Y-94122317D01*
X130883589Y-94253589D01*
X130752317Y-94413547D01*
X130654769Y-94596043D01*
X130594699Y-94794067D01*
X130574417Y-95000000D01*
X130145583Y-95000000D01*
X130125300Y-94794066D01*
X130065232Y-94596046D01*
X129967685Y-94413550D01*
X129865979Y-94289620D01*
X129836410Y-94253589D01*
X129686121Y-94130252D01*
X129676450Y-94122315D01*
X129493954Y-94024768D01*
X129295934Y-93964700D01*
X129295932Y-93964699D01*
X129295934Y-93964699D01*
X129090000Y-93944417D01*
X128884067Y-93964699D01*
X128686043Y-94024769D01*
X128598114Y-94071769D01*
X128503550Y-94122315D01*
X128503548Y-94122316D01*
X128503547Y-94122317D01*
X128343589Y-94253589D01*
X128212317Y-94413547D01*
X128114769Y-94596043D01*
X128054699Y-94794067D01*
X128034417Y-95000000D01*
X127605583Y-95000000D01*
X127585300Y-94794066D01*
X127525232Y-94596046D01*
X127427685Y-94413550D01*
X127325979Y-94289620D01*
X127296410Y-94253589D01*
X127146121Y-94130252D01*
X127136450Y-94122315D01*
X126953954Y-94024768D01*
X126755934Y-93964700D01*
X126755932Y-93964699D01*
X126755934Y-93964699D01*
X126550000Y-93944417D01*
X126344067Y-93964699D01*
X126146043Y-94024769D01*
X126058114Y-94071769D01*
X125963550Y-94122315D01*
X125963548Y-94122316D01*
X125963547Y-94122317D01*
X125803589Y-94253589D01*
X125672317Y-94413547D01*
X125574767Y-94596046D01*
X125554593Y-94662552D01*
X125516296Y-94720990D01*
X125452483Y-94749447D01*
X125383416Y-94738886D01*
X125331023Y-94692661D01*
X125316158Y-94658649D01*
X125283433Y-94536516D01*
X125283429Y-94536507D01*
X125183600Y-94322422D01*
X125183599Y-94322420D01*
X125048113Y-94128926D01*
X125048108Y-94128920D01*
X124881082Y-93961894D01*
X124687578Y-93826399D01*
X124473492Y-93726570D01*
X124473486Y-93726567D01*
X124260000Y-93669364D01*
X124260000Y-94566988D01*
X124202993Y-94534075D01*
X124075826Y-94500000D01*
X123944174Y-94500000D01*
X123817007Y-94534075D01*
X123760000Y-94566988D01*
X123760000Y-93669364D01*
X123759999Y-93669364D01*
X123546513Y-93726567D01*
X123546507Y-93726570D01*
X123332422Y-93826399D01*
X123332420Y-93826400D01*
X123138926Y-93961886D01*
X123138920Y-93961891D01*
X122971891Y-94128920D01*
X122971886Y-94128926D01*
X122836400Y-94322420D01*
X122836399Y-94322422D01*
X122756882Y-94492948D01*
X122710710Y-94545387D01*
X122643516Y-94564539D01*
X122576635Y-94544323D01*
X122531300Y-94491158D01*
X122520500Y-94440543D01*
X122520500Y-94130249D01*
X122520499Y-94130247D01*
X122508868Y-94071770D01*
X122508867Y-94071769D01*
X122464552Y-94005447D01*
X122398230Y-93961132D01*
X122398229Y-93961131D01*
X122339752Y-93949500D01*
X122339748Y-93949500D01*
X120600252Y-93949500D01*
X120600247Y-93949500D01*
X120541770Y-93961131D01*
X120541769Y-93961132D01*
X120475447Y-94005447D01*
X120431132Y-94071769D01*
X120431131Y-94071770D01*
X120419500Y-94130247D01*
X120419500Y-95869752D01*
X120431131Y-95928229D01*
X120431132Y-95928230D01*
X120475447Y-95994552D01*
X120541769Y-96038867D01*
X120541770Y-96038868D01*
X120600247Y-96050499D01*
X120600250Y-96050500D01*
X120600252Y-96050500D01*
X120845500Y-96050500D01*
X120912539Y-96070185D01*
X120958294Y-96122989D01*
X120969500Y-96174500D01*
X120969500Y-97785891D01*
X121003608Y-97913187D01*
X121036554Y-97970250D01*
X121069500Y-98027314D01*
X122749500Y-99707314D01*
X122842686Y-99800500D01*
X122956814Y-99866392D01*
X123084108Y-99900500D01*
X123084110Y-99900500D01*
X138945890Y-99900500D01*
X138945892Y-99900500D01*
X139073186Y-99866392D01*
X139187314Y-99800500D01*
X142843825Y-96143987D01*
X142905146Y-96110504D01*
X142957284Y-96110380D01*
X142983724Y-96116000D01*
X142983725Y-96116000D01*
X143176275Y-96116000D01*
X143176276Y-96116000D01*
X143364619Y-96075967D01*
X143364621Y-96075965D01*
X143364624Y-96075965D01*
X143455958Y-96035300D01*
X143540523Y-95997649D01*
X143696300Y-95884471D01*
X143696305Y-95884466D01*
X143825007Y-95741528D01*
X143884493Y-95704879D01*
X143917157Y-95700500D01*
X144782843Y-95700500D01*
X144849882Y-95720185D01*
X144874993Y-95741528D01*
X145003694Y-95884466D01*
X145003698Y-95884468D01*
X145003700Y-95884471D01*
X145063931Y-95928231D01*
X145159472Y-95997646D01*
X145159477Y-95997649D01*
X145335375Y-96075965D01*
X145335381Y-96075967D01*
X145523724Y-96116000D01*
X145523725Y-96116000D01*
X145716275Y-96116000D01*
X145716276Y-96116000D01*
X145904619Y-96075967D01*
X145904621Y-96075965D01*
X145904624Y-96075965D01*
X145995958Y-96035300D01*
X146080523Y-95997649D01*
X146236300Y-95884471D01*
X146242411Y-95877685D01*
X146264215Y-95853467D01*
X146365142Y-95741377D01*
X146461417Y-95574623D01*
X146520919Y-95391496D01*
X146541046Y-95200000D01*
X146526947Y-95065863D01*
X146539516Y-94997138D01*
X146562584Y-94965228D01*
X150200500Y-91327314D01*
X150266392Y-91213186D01*
X150300500Y-91085892D01*
X150300500Y-90954107D01*
X150300500Y-76454108D01*
X150266392Y-76326814D01*
X150200500Y-76212686D01*
X150107314Y-76119500D01*
X147021935Y-73034121D01*
X146988450Y-72972798D01*
X146993434Y-72903106D01*
X147035306Y-72847173D01*
X147077520Y-72826666D01*
X147153186Y-72806392D01*
X147267314Y-72740500D01*
X147800500Y-72207314D01*
X147866392Y-72093186D01*
X147900500Y-71965892D01*
X147900500Y-71834108D01*
X147900500Y-71158676D01*
X147920185Y-71091637D01*
X147936819Y-71070995D01*
X148426268Y-70581546D01*
X148950500Y-70057314D01*
X149016392Y-69943186D01*
X149050500Y-69815892D01*
X149050500Y-69684107D01*
X149050500Y-58784108D01*
X149016392Y-58656814D01*
X148950500Y-58542686D01*
X148857314Y-58449500D01*
X147457314Y-57049500D01*
X147400250Y-57016554D01*
X147343187Y-56983608D01*
X147279539Y-56966554D01*
X147215892Y-56949500D01*
X130075893Y-56949500D01*
X129944108Y-56949500D01*
X129816812Y-56983608D01*
X129702686Y-57049500D01*
X129702683Y-57049502D01*
X127289005Y-59463181D01*
X127227682Y-59496666D01*
X127201324Y-59499500D01*
X123308676Y-59499500D01*
X123241637Y-59479815D01*
X123220995Y-59463181D01*
X122006819Y-58249005D01*
X121973334Y-58187682D01*
X121970500Y-58161324D01*
X121970500Y-54854500D01*
X121990185Y-54787461D01*
X122042989Y-54741706D01*
X122094500Y-54730500D01*
X122339750Y-54730500D01*
X122339751Y-54730499D01*
X122354568Y-54727552D01*
X122398229Y-54718868D01*
X122398229Y-54718867D01*
X122398231Y-54718867D01*
X122464552Y-54674552D01*
X122508867Y-54608231D01*
X122508867Y-54608229D01*
X122508868Y-54608229D01*
X122518922Y-54557682D01*
X122520500Y-54549748D01*
X122520500Y-54239456D01*
X122540185Y-54172417D01*
X122592989Y-54126662D01*
X122662147Y-54116718D01*
X122725703Y-54145743D01*
X122756882Y-54187051D01*
X122836400Y-54357578D01*
X122971894Y-54551082D01*
X123138917Y-54718105D01*
X123332421Y-54853600D01*
X123546507Y-54953429D01*
X123546516Y-54953433D01*
X123760000Y-55010634D01*
X123760000Y-54113012D01*
X123817007Y-54145925D01*
X123944174Y-54180000D01*
X124075826Y-54180000D01*
X124202993Y-54145925D01*
X124260000Y-54113012D01*
X124260000Y-55010633D01*
X124473483Y-54953433D01*
X124473492Y-54953429D01*
X124687578Y-54853600D01*
X124881082Y-54718105D01*
X125048105Y-54551082D01*
X125183600Y-54357578D01*
X125283429Y-54143492D01*
X125283433Y-54143483D01*
X125316158Y-54021350D01*
X125352522Y-53961690D01*
X125415369Y-53931160D01*
X125484745Y-53939454D01*
X125538623Y-53983939D01*
X125554593Y-54017447D01*
X125574768Y-54083954D01*
X125672315Y-54266450D01*
X125672317Y-54266452D01*
X125803589Y-54426410D01*
X125900209Y-54505702D01*
X125963550Y-54557685D01*
X126146046Y-54655232D01*
X126344066Y-54715300D01*
X126344065Y-54715300D01*
X126362529Y-54717118D01*
X126550000Y-54735583D01*
X126755934Y-54715300D01*
X126953954Y-54655232D01*
X127136450Y-54557685D01*
X127296410Y-54426410D01*
X127427685Y-54266450D01*
X127525232Y-54083954D01*
X127585300Y-53885934D01*
X127605583Y-53680000D01*
X128034417Y-53680000D01*
X128054699Y-53885932D01*
X128054700Y-53885934D01*
X128114768Y-54083954D01*
X128212315Y-54266450D01*
X128212317Y-54266452D01*
X128343589Y-54426410D01*
X128440209Y-54505702D01*
X128503550Y-54557685D01*
X128686046Y-54655232D01*
X128884066Y-54715300D01*
X128884065Y-54715300D01*
X128902529Y-54717118D01*
X129090000Y-54735583D01*
X129295934Y-54715300D01*
X129493954Y-54655232D01*
X129676450Y-54557685D01*
X129836410Y-54426410D01*
X129967685Y-54266450D01*
X130065232Y-54083954D01*
X130125300Y-53885934D01*
X130145583Y-53680000D01*
X130574417Y-53680000D01*
X130594699Y-53885932D01*
X130594700Y-53885934D01*
X130654768Y-54083954D01*
X130752315Y-54266450D01*
X130752317Y-54266452D01*
X130883589Y-54426410D01*
X130980209Y-54505702D01*
X131043550Y-54557685D01*
X131226046Y-54655232D01*
X131424066Y-54715300D01*
X131424065Y-54715300D01*
X131442529Y-54717118D01*
X131630000Y-54735583D01*
X131835934Y-54715300D01*
X132033954Y-54655232D01*
X132216450Y-54557685D01*
X132376410Y-54426410D01*
X132507685Y-54266450D01*
X132605232Y-54083954D01*
X132665300Y-53885934D01*
X132685583Y-53680000D01*
X133114417Y-53680000D01*
X133134699Y-53885932D01*
X133134700Y-53885934D01*
X133194768Y-54083954D01*
X133292315Y-54266450D01*
X133292317Y-54266452D01*
X133423589Y-54426410D01*
X133520209Y-54505702D01*
X133583550Y-54557685D01*
X133766046Y-54655232D01*
X133964066Y-54715300D01*
X133964065Y-54715300D01*
X133982529Y-54717118D01*
X134170000Y-54735583D01*
X134375934Y-54715300D01*
X134573954Y-54655232D01*
X134756450Y-54557685D01*
X134916410Y-54426410D01*
X135047685Y-54266450D01*
X135145232Y-54083954D01*
X135205300Y-53885934D01*
X135225583Y-53680000D01*
X135205300Y-53474066D01*
X135145232Y-53276046D01*
X135047685Y-53093550D01*
X134972897Y-53002420D01*
X134916410Y-52933589D01*
X134833899Y-52865875D01*
X149159500Y-52865875D01*
X149159500Y-53214124D01*
X149198489Y-53560158D01*
X149198491Y-53560170D01*
X149275982Y-53899684D01*
X149275985Y-53899692D01*
X149390999Y-54228382D01*
X149542092Y-54542130D01*
X149727371Y-54836999D01*
X149727372Y-54837001D01*
X149944487Y-55109256D01*
X150190743Y-55355512D01*
X150462998Y-55572627D01*
X150463001Y-55572628D01*
X150463003Y-55572630D01*
X150757867Y-55757906D01*
X151071621Y-55909002D01*
X151318488Y-55995384D01*
X151400307Y-56024014D01*
X151400315Y-56024017D01*
X151400318Y-56024017D01*
X151400319Y-56024018D01*
X151739829Y-56101509D01*
X152085876Y-56140499D01*
X152085877Y-56140500D01*
X152085880Y-56140500D01*
X152434123Y-56140500D01*
X152434123Y-56140499D01*
X152780171Y-56101509D01*
X153119681Y-56024018D01*
X153448379Y-55909002D01*
X153762133Y-55757906D01*
X154056997Y-55572630D01*
X154057001Y-55572627D01*
X154329256Y-55355512D01*
X154329258Y-55355509D01*
X154329263Y-55355506D01*
X154575506Y-55109263D01*
X154654161Y-55010633D01*
X154792627Y-54837001D01*
X154792628Y-54836999D01*
X154792630Y-54836997D01*
X154977906Y-54542133D01*
X155129002Y-54228379D01*
X155244018Y-53899681D01*
X155321509Y-53560171D01*
X155360500Y-53214120D01*
X155360500Y-52865880D01*
X155321509Y-52519829D01*
X155244018Y-52180319D01*
X155129002Y-51851621D01*
X154977906Y-51537867D01*
X154792630Y-51243003D01*
X154792628Y-51243000D01*
X154792627Y-51242998D01*
X154575512Y-50970743D01*
X154329256Y-50724487D01*
X154057001Y-50507372D01*
X154056999Y-50507371D01*
X153762130Y-50322092D01*
X153448382Y-50170999D01*
X153119692Y-50055985D01*
X153119684Y-50055982D01*
X152865048Y-49997863D01*
X152780171Y-49978491D01*
X152780167Y-49978490D01*
X152780158Y-49978489D01*
X152434124Y-49939500D01*
X152434120Y-49939500D01*
X152085880Y-49939500D01*
X152085875Y-49939500D01*
X151739841Y-49978489D01*
X151739829Y-49978491D01*
X151400315Y-50055982D01*
X151400307Y-50055985D01*
X151071617Y-50170999D01*
X150757869Y-50322092D01*
X150463000Y-50507371D01*
X150462998Y-50507372D01*
X150190743Y-50724487D01*
X149944487Y-50970743D01*
X149727372Y-51242998D01*
X149727371Y-51243000D01*
X149542092Y-51537869D01*
X149390999Y-51851617D01*
X149275985Y-52180307D01*
X149275982Y-52180315D01*
X149198491Y-52519829D01*
X149198489Y-52519841D01*
X149159500Y-52865875D01*
X134833899Y-52865875D01*
X134766121Y-52810252D01*
X134756450Y-52802315D01*
X134573954Y-52704768D01*
X134375934Y-52644700D01*
X134375932Y-52644699D01*
X134375934Y-52644699D01*
X134170000Y-52624417D01*
X133964067Y-52644699D01*
X133766043Y-52704769D01*
X133678114Y-52751769D01*
X133583550Y-52802315D01*
X133583548Y-52802316D01*
X133583547Y-52802317D01*
X133423589Y-52933589D01*
X133292317Y-53093547D01*
X133194769Y-53276043D01*
X133134699Y-53474067D01*
X133114417Y-53680000D01*
X132685583Y-53680000D01*
X132665300Y-53474066D01*
X132605232Y-53276046D01*
X132507685Y-53093550D01*
X132432897Y-53002420D01*
X132376410Y-52933589D01*
X132226121Y-52810252D01*
X132216450Y-52802315D01*
X132033954Y-52704768D01*
X131835934Y-52644700D01*
X131835932Y-52644699D01*
X131835934Y-52644699D01*
X131630000Y-52624417D01*
X131424067Y-52644699D01*
X131226043Y-52704769D01*
X131138114Y-52751769D01*
X131043550Y-52802315D01*
X131043548Y-52802316D01*
X131043547Y-52802317D01*
X130883589Y-52933589D01*
X130752317Y-53093547D01*
X130654769Y-53276043D01*
X130594699Y-53474067D01*
X130574417Y-53680000D01*
X130145583Y-53680000D01*
X130125300Y-53474066D01*
X130065232Y-53276046D01*
X129967685Y-53093550D01*
X129892897Y-53002420D01*
X129836410Y-52933589D01*
X129686121Y-52810252D01*
X129676450Y-52802315D01*
X129493954Y-52704768D01*
X129295934Y-52644700D01*
X129295932Y-52644699D01*
X129295934Y-52644699D01*
X129090000Y-52624417D01*
X128884067Y-52644699D01*
X128686043Y-52704769D01*
X128598114Y-52751769D01*
X128503550Y-52802315D01*
X128503548Y-52802316D01*
X128503547Y-52802317D01*
X128343589Y-52933589D01*
X128212317Y-53093547D01*
X128114769Y-53276043D01*
X128054699Y-53474067D01*
X128034417Y-53680000D01*
X127605583Y-53680000D01*
X127585300Y-53474066D01*
X127525232Y-53276046D01*
X127427685Y-53093550D01*
X127352897Y-53002420D01*
X127296410Y-52933589D01*
X127146121Y-52810252D01*
X127136450Y-52802315D01*
X126953954Y-52704768D01*
X126755934Y-52644700D01*
X126755932Y-52644699D01*
X126755934Y-52644699D01*
X126550000Y-52624417D01*
X126344067Y-52644699D01*
X126146043Y-52704769D01*
X126058114Y-52751769D01*
X125963550Y-52802315D01*
X125963548Y-52802316D01*
X125963547Y-52802317D01*
X125803589Y-52933589D01*
X125672317Y-53093547D01*
X125574767Y-53276046D01*
X125554593Y-53342552D01*
X125516296Y-53400990D01*
X125452483Y-53429447D01*
X125383416Y-53418886D01*
X125331023Y-53372661D01*
X125316158Y-53338649D01*
X125283433Y-53216516D01*
X125283429Y-53216507D01*
X125183600Y-53002422D01*
X125183599Y-53002420D01*
X125048113Y-52808926D01*
X125048108Y-52808920D01*
X124881082Y-52641894D01*
X124687578Y-52506399D01*
X124473492Y-52406570D01*
X124473486Y-52406567D01*
X124260000Y-52349364D01*
X124260000Y-53246988D01*
X124202993Y-53214075D01*
X124075826Y-53180000D01*
X123944174Y-53180000D01*
X123817007Y-53214075D01*
X123760000Y-53246988D01*
X123760000Y-52349364D01*
X123759999Y-52349364D01*
X123546513Y-52406567D01*
X123546507Y-52406570D01*
X123332422Y-52506399D01*
X123332420Y-52506400D01*
X123138926Y-52641886D01*
X123138920Y-52641891D01*
X122971891Y-52808920D01*
X122971886Y-52808926D01*
X122836400Y-53002420D01*
X122836399Y-53002422D01*
X122756882Y-53172948D01*
X122710710Y-53225387D01*
X122643516Y-53244539D01*
X122576635Y-53224323D01*
X122531300Y-53171158D01*
X122520500Y-53120543D01*
X122520500Y-52810249D01*
X122520499Y-52810247D01*
X122508868Y-52751770D01*
X122508867Y-52751769D01*
X122464552Y-52685447D01*
X122398230Y-52641132D01*
X122398229Y-52641131D01*
X122339752Y-52629500D01*
X122339748Y-52629500D01*
X120600252Y-52629500D01*
X120600247Y-52629500D01*
X120541770Y-52641131D01*
X120541769Y-52641132D01*
X120475447Y-52685447D01*
X120431132Y-52751769D01*
X120431131Y-52751770D01*
X120419500Y-52810247D01*
X120419500Y-54549752D01*
X120431131Y-54608229D01*
X120431132Y-54608230D01*
X120475447Y-54674552D01*
X120541769Y-54718867D01*
X120541770Y-54718868D01*
X120600247Y-54730499D01*
X120600250Y-54730500D01*
X120600252Y-54730500D01*
X120845500Y-54730500D01*
X120912539Y-54750185D01*
X120958294Y-54802989D01*
X120969500Y-54854500D01*
X120969500Y-58485891D01*
X121003608Y-58613187D01*
X121028797Y-58656814D01*
X121069500Y-58727314D01*
X121069502Y-58727316D01*
X121630005Y-59287819D01*
X121663490Y-59349142D01*
X121658506Y-59418834D01*
X121616634Y-59474767D01*
X121551170Y-59499184D01*
X121542324Y-59499500D01*
X121534108Y-59499500D01*
X121406812Y-59533608D01*
X121292686Y-59599500D01*
X121292683Y-59599502D01*
X120611458Y-60280726D01*
X120550135Y-60314211D01*
X120499593Y-60314664D01*
X120496133Y-60313976D01*
X120300000Y-60294659D01*
X120103870Y-60313975D01*
X119915266Y-60371188D01*
X119741467Y-60464086D01*
X119741460Y-60464090D01*
X119589116Y-60589116D01*
X119464090Y-60741460D01*
X119464086Y-60741467D01*
X119371188Y-60915266D01*
X119313975Y-61103870D01*
X119294659Y-61300000D01*
X119313976Y-61496133D01*
X119314664Y-61499593D01*
X119314498Y-61501439D01*
X119314573Y-61502194D01*
X119314429Y-61502208D01*
X119308432Y-61569184D01*
X119280726Y-61611458D01*
X117417686Y-63474500D01*
X117324502Y-63567683D01*
X117324500Y-63567686D01*
X117258608Y-63681812D01*
X117224500Y-63809108D01*
X117224500Y-64169852D01*
X117204815Y-64236891D01*
X117169391Y-64272954D01*
X117087218Y-64327860D01*
X117087214Y-64327863D01*
X116947863Y-64467214D01*
X116947860Y-64467218D01*
X116838371Y-64631079D01*
X116838364Y-64631092D01*
X116762950Y-64813160D01*
X116762947Y-64813170D01*
X116724500Y-65006456D01*
X116724500Y-65006458D01*
X116724500Y-65006459D01*
X116724500Y-66003541D01*
X116724500Y-66003543D01*
X116724499Y-66003543D01*
X116762947Y-66196829D01*
X116762950Y-66196839D01*
X116838364Y-66378907D01*
X116838371Y-66378920D01*
X116947860Y-66542781D01*
X116947863Y-66542785D01*
X117087214Y-66682136D01*
X117087218Y-66682139D01*
X117251079Y-66791628D01*
X117251092Y-66791635D01*
X117433160Y-66867049D01*
X117433165Y-66867051D01*
X117433169Y-66867051D01*
X117433170Y-66867052D01*
X117626456Y-66905500D01*
X117626459Y-66905500D01*
X117823543Y-66905500D01*
X117986490Y-66873087D01*
X118016835Y-66867051D01*
X118198914Y-66791632D01*
X118362782Y-66682139D01*
X118502139Y-66542782D01*
X118611632Y-66378914D01*
X118687051Y-66196835D01*
X118713510Y-66063817D01*
X118725500Y-66003543D01*
X119264499Y-66003543D01*
X119302947Y-66196829D01*
X119302950Y-66196839D01*
X119378364Y-66378907D01*
X119378371Y-66378920D01*
X119487860Y-66542781D01*
X119487863Y-66542785D01*
X119627214Y-66682136D01*
X119627218Y-66682139D01*
X119791079Y-66791628D01*
X119791092Y-66791635D01*
X119973160Y-66867049D01*
X119973165Y-66867051D01*
X119973169Y-66867051D01*
X119973170Y-66867052D01*
X120166456Y-66905500D01*
X120166459Y-66905500D01*
X120363543Y-66905500D01*
X120526490Y-66873087D01*
X120556835Y-66867051D01*
X120738914Y-66791632D01*
X120902782Y-66682139D01*
X121042139Y-66542782D01*
X121151632Y-66378914D01*
X121227051Y-66196835D01*
X121253510Y-66063817D01*
X121265500Y-66003543D01*
X121265500Y-65006456D01*
X121227052Y-64813170D01*
X121227051Y-64813169D01*
X121227051Y-64813165D01*
X121188461Y-64720000D01*
X121151635Y-64631092D01*
X121151628Y-64631079D01*
X121042139Y-64467218D01*
X121042136Y-64467214D01*
X120902785Y-64327863D01*
X120902781Y-64327860D01*
X120738920Y-64218371D01*
X120738907Y-64218364D01*
X120556839Y-64142950D01*
X120556829Y-64142947D01*
X120363543Y-64104500D01*
X120363541Y-64104500D01*
X120166459Y-64104500D01*
X120166457Y-64104500D01*
X119973170Y-64142947D01*
X119973160Y-64142950D01*
X119791092Y-64218364D01*
X119791079Y-64218371D01*
X119627218Y-64327860D01*
X119627214Y-64327863D01*
X119487863Y-64467214D01*
X119487860Y-64467218D01*
X119378371Y-64631079D01*
X119378364Y-64631092D01*
X119302950Y-64813160D01*
X119302947Y-64813170D01*
X119264500Y-65006456D01*
X119264500Y-65006458D01*
X119264500Y-65006459D01*
X119264500Y-66003541D01*
X119264500Y-66003543D01*
X119264499Y-66003543D01*
X118725500Y-66003543D01*
X118725500Y-65006456D01*
X118687052Y-64813170D01*
X118687051Y-64813169D01*
X118687051Y-64813165D01*
X118648461Y-64720000D01*
X118611635Y-64631092D01*
X118611628Y-64631079D01*
X118502139Y-64467218D01*
X118502136Y-64467214D01*
X118362785Y-64327863D01*
X118362781Y-64327860D01*
X118280609Y-64272954D01*
X118235804Y-64219342D01*
X118225500Y-64169852D01*
X118225500Y-64133675D01*
X118245185Y-64066636D01*
X118261814Y-64045999D01*
X119988541Y-62319271D01*
X120049862Y-62285788D01*
X120100412Y-62285337D01*
X120103864Y-62286023D01*
X120103865Y-62286023D01*
X120103868Y-62286024D01*
X120300000Y-62305341D01*
X120496132Y-62286024D01*
X120684727Y-62228814D01*
X120701064Y-62220082D01*
X120858532Y-62135913D01*
X120858538Y-62135910D01*
X121010883Y-62010883D01*
X121135910Y-61858538D01*
X121195893Y-61746317D01*
X121228811Y-61684733D01*
X121228811Y-61684732D01*
X121228814Y-61684727D01*
X121286024Y-61496132D01*
X121305341Y-61300000D01*
X121286024Y-61103868D01*
X121286023Y-61103864D01*
X121285337Y-61100412D01*
X121285502Y-61098567D01*
X121285427Y-61097805D01*
X121285571Y-61097790D01*
X121291564Y-61030820D01*
X121319270Y-60988542D01*
X121770995Y-60536819D01*
X121832318Y-60503334D01*
X121858676Y-60500500D01*
X122984107Y-60500500D01*
X122984108Y-60500500D01*
X124043780Y-60500500D01*
X124110819Y-60520185D01*
X124156574Y-60572989D01*
X124166518Y-60642147D01*
X124156162Y-60676904D01*
X124073735Y-60853668D01*
X124073730Y-60853682D01*
X124014860Y-61073389D01*
X124014858Y-61073400D01*
X123995034Y-61299997D01*
X123995034Y-61300002D01*
X124014858Y-61526599D01*
X124014860Y-61526610D01*
X124073730Y-61746317D01*
X124073735Y-61746331D01*
X124169863Y-61952478D01*
X124220974Y-62025472D01*
X124900000Y-61346446D01*
X124900000Y-61352661D01*
X124927259Y-61454394D01*
X124979920Y-61545606D01*
X125054394Y-61620080D01*
X125145606Y-61672741D01*
X125247339Y-61700000D01*
X125253553Y-61700000D01*
X124574526Y-62379025D01*
X124647513Y-62430132D01*
X124647521Y-62430136D01*
X124853668Y-62526264D01*
X124853682Y-62526269D01*
X125073389Y-62585139D01*
X125073400Y-62585141D01*
X125299998Y-62604966D01*
X125300002Y-62604966D01*
X125526599Y-62585141D01*
X125526610Y-62585139D01*
X125746317Y-62526269D01*
X125746331Y-62526264D01*
X125952478Y-62430136D01*
X126025471Y-62379024D01*
X125346447Y-61700000D01*
X125352661Y-61700000D01*
X125454394Y-61672741D01*
X125545606Y-61620080D01*
X125620080Y-61545606D01*
X125672741Y-61454394D01*
X125700000Y-61352661D01*
X125700000Y-61346447D01*
X126379024Y-62025471D01*
X126430136Y-61952478D01*
X126526264Y-61746331D01*
X126526269Y-61746317D01*
X126585139Y-61526610D01*
X126585141Y-61526599D01*
X126604966Y-61300002D01*
X126604966Y-61299997D01*
X126585141Y-61073400D01*
X126585139Y-61073389D01*
X126526269Y-60853682D01*
X126526264Y-60853668D01*
X126443838Y-60676904D01*
X126433346Y-60607827D01*
X126461866Y-60544043D01*
X126520343Y-60505804D01*
X126556220Y-60500500D01*
X127201324Y-60500500D01*
X127268363Y-60520185D01*
X127289005Y-60536819D01*
X130650360Y-63898174D01*
X130683845Y-63959497D01*
X130678861Y-64029189D01*
X130636989Y-64085122D01*
X130571525Y-64109539D01*
X130538490Y-64107473D01*
X130523542Y-64104500D01*
X130523541Y-64104500D01*
X130326459Y-64104500D01*
X130326457Y-64104500D01*
X130133170Y-64142947D01*
X130133160Y-64142950D01*
X129951092Y-64218364D01*
X129951079Y-64218371D01*
X129787218Y-64327860D01*
X129787214Y-64327863D01*
X129647863Y-64467214D01*
X129647860Y-64467218D01*
X129538371Y-64631079D01*
X129538364Y-64631092D01*
X129462950Y-64813160D01*
X129462947Y-64813170D01*
X129424500Y-65006456D01*
X129424500Y-65006458D01*
X129424500Y-65006459D01*
X129424500Y-66003541D01*
X129424500Y-66003543D01*
X129424499Y-66003543D01*
X129462947Y-66196829D01*
X129462950Y-66196839D01*
X129538364Y-66378907D01*
X129538371Y-66378920D01*
X129647860Y-66542781D01*
X129647863Y-66542785D01*
X129784694Y-66679616D01*
X129818179Y-66740939D01*
X129813195Y-66810631D01*
X129784694Y-66854978D01*
X127701492Y-68938181D01*
X127640169Y-68971666D01*
X127613811Y-68974500D01*
X120939012Y-68974500D01*
X120871973Y-68954815D01*
X120826218Y-68902011D01*
X120816274Y-68832853D01*
X120824451Y-68803048D01*
X120854443Y-68730638D01*
X120885044Y-68656762D01*
X120903546Y-68516228D01*
X120905682Y-68500001D01*
X120905682Y-68499999D01*
X120896753Y-68432181D01*
X120907518Y-68363146D01*
X120932008Y-68328317D01*
X122369805Y-66890520D01*
X122431126Y-66857037D01*
X122500818Y-66862021D01*
X122504916Y-66863634D01*
X122513165Y-66867051D01*
X122513169Y-66867051D01*
X122513170Y-66867052D01*
X122706456Y-66905500D01*
X122706459Y-66905500D01*
X122903543Y-66905500D01*
X123066490Y-66873087D01*
X123096835Y-66867051D01*
X123278914Y-66791632D01*
X123442782Y-66682139D01*
X123582139Y-66542782D01*
X123691632Y-66378914D01*
X123767051Y-66196835D01*
X123803034Y-66015937D01*
X123835419Y-65954027D01*
X123896134Y-65919453D01*
X123965904Y-65923192D01*
X124022576Y-65964059D01*
X124047124Y-66020731D01*
X124077009Y-66209417D01*
X124140244Y-66404031D01*
X124233140Y-66586349D01*
X124353417Y-66751894D01*
X124353417Y-66751895D01*
X124498104Y-66896582D01*
X124663650Y-67016859D01*
X124845968Y-67109754D01*
X125040578Y-67172988D01*
X125095000Y-67181607D01*
X125095000Y-65820686D01*
X125099394Y-65825080D01*
X125190606Y-65877741D01*
X125292339Y-65905000D01*
X125397661Y-65905000D01*
X125499394Y-65877741D01*
X125590606Y-65825080D01*
X125595000Y-65820686D01*
X125595000Y-67181606D01*
X125649421Y-67172988D01*
X125844031Y-67109754D01*
X126026349Y-67016859D01*
X126191894Y-66896582D01*
X126191895Y-66896582D01*
X126336582Y-66751895D01*
X126336582Y-66751894D01*
X126456859Y-66586349D01*
X126549755Y-66404031D01*
X126612990Y-66209417D01*
X126642875Y-66020731D01*
X126672804Y-65957596D01*
X126732116Y-65920665D01*
X126801978Y-65921663D01*
X126860211Y-65960273D01*
X126886965Y-66015937D01*
X126922947Y-66196829D01*
X126922950Y-66196839D01*
X126998364Y-66378907D01*
X126998371Y-66378920D01*
X127107860Y-66542781D01*
X127107863Y-66542785D01*
X127247214Y-66682136D01*
X127247218Y-66682139D01*
X127411079Y-66791628D01*
X127411092Y-66791635D01*
X127593160Y-66867049D01*
X127593165Y-66867051D01*
X127593169Y-66867051D01*
X127593170Y-66867052D01*
X127786456Y-66905500D01*
X127786459Y-66905500D01*
X127983543Y-66905500D01*
X128146490Y-66873087D01*
X128176835Y-66867051D01*
X128358914Y-66791632D01*
X128522782Y-66682139D01*
X128662139Y-66542782D01*
X128771632Y-66378914D01*
X128847051Y-66196835D01*
X128873510Y-66063817D01*
X128885500Y-66003543D01*
X128885500Y-65006456D01*
X128847052Y-64813170D01*
X128847051Y-64813169D01*
X128847051Y-64813165D01*
X128808461Y-64720000D01*
X128771635Y-64631092D01*
X128771628Y-64631079D01*
X128662139Y-64467218D01*
X128662136Y-64467214D01*
X128522785Y-64327863D01*
X128522781Y-64327860D01*
X128358920Y-64218371D01*
X128358907Y-64218364D01*
X128176839Y-64142950D01*
X128176829Y-64142947D01*
X127983543Y-64104500D01*
X127983541Y-64104500D01*
X127786459Y-64104500D01*
X127786457Y-64104500D01*
X127593170Y-64142947D01*
X127593160Y-64142950D01*
X127411092Y-64218364D01*
X127411079Y-64218371D01*
X127247218Y-64327860D01*
X127247214Y-64327863D01*
X127107863Y-64467214D01*
X127107860Y-64467218D01*
X126998371Y-64631079D01*
X126998364Y-64631092D01*
X126922950Y-64813160D01*
X126922947Y-64813170D01*
X126886965Y-64994062D01*
X126854580Y-65055973D01*
X126793864Y-65090547D01*
X126724094Y-65086806D01*
X126667423Y-65045940D01*
X126642875Y-64989268D01*
X126612990Y-64800582D01*
X126549755Y-64605968D01*
X126456859Y-64423650D01*
X126336582Y-64258105D01*
X126336582Y-64258104D01*
X126191895Y-64113417D01*
X126026349Y-63993140D01*
X125844029Y-63900244D01*
X125649413Y-63837009D01*
X125595000Y-63828390D01*
X125595000Y-65189314D01*
X125590606Y-65184920D01*
X125499394Y-65132259D01*
X125397661Y-65105000D01*
X125292339Y-65105000D01*
X125190606Y-65132259D01*
X125099394Y-65184920D01*
X125095000Y-65189314D01*
X125095000Y-63828390D01*
X125040586Y-63837009D01*
X124845970Y-63900244D01*
X124663650Y-63993140D01*
X124498105Y-64113417D01*
X124498104Y-64113417D01*
X124353417Y-64258104D01*
X124353417Y-64258105D01*
X124233140Y-64423650D01*
X124140244Y-64605968D01*
X124077010Y-64800581D01*
X124047124Y-64989269D01*
X124017194Y-65052403D01*
X123957883Y-65089334D01*
X123888020Y-65088336D01*
X123829788Y-65049726D01*
X123803034Y-64994061D01*
X123786610Y-64911496D01*
X123767051Y-64813165D01*
X123728461Y-64720000D01*
X123691635Y-64631092D01*
X123691628Y-64631079D01*
X123582139Y-64467218D01*
X123582136Y-64467214D01*
X123442785Y-64327863D01*
X123442781Y-64327860D01*
X123278920Y-64218371D01*
X123278907Y-64218364D01*
X123096839Y-64142950D01*
X123096829Y-64142947D01*
X122903543Y-64104500D01*
X122903541Y-64104500D01*
X122706459Y-64104500D01*
X122706457Y-64104500D01*
X122513170Y-64142947D01*
X122513160Y-64142950D01*
X122331092Y-64218364D01*
X122331079Y-64218371D01*
X122167218Y-64327860D01*
X122167214Y-64327863D01*
X122027863Y-64467214D01*
X122027860Y-64467218D01*
X121918371Y-64631079D01*
X121918364Y-64631092D01*
X121842950Y-64813160D01*
X121842947Y-64813170D01*
X121804500Y-65006456D01*
X121804500Y-65006458D01*
X121804500Y-65006459D01*
X121804500Y-66003541D01*
X121804500Y-66003543D01*
X121804499Y-66003543D01*
X121842947Y-66196829D01*
X121842949Y-66196835D01*
X121869579Y-66261127D01*
X121899077Y-66332340D01*
X121906546Y-66401810D01*
X121875271Y-66464289D01*
X121872197Y-66467474D01*
X120471683Y-67867988D01*
X120410360Y-67901473D01*
X120367817Y-67903246D01*
X120300001Y-67894318D01*
X120299999Y-67894318D01*
X120143239Y-67914955D01*
X120143237Y-67914956D01*
X119997160Y-67975463D01*
X119871718Y-68071718D01*
X119775463Y-68197160D01*
X119714956Y-68343237D01*
X119714955Y-68343239D01*
X119694318Y-68499998D01*
X119694318Y-68500001D01*
X119714955Y-68656760D01*
X119714957Y-68656765D01*
X119775549Y-68803048D01*
X119783018Y-68872517D01*
X119751743Y-68934996D01*
X119691654Y-68970648D01*
X119660988Y-68974500D01*
X112130465Y-68974500D01*
X112130449Y-68974499D01*
X112122853Y-68974499D01*
X112037148Y-68974499D01*
X111995755Y-68985590D01*
X111954360Y-68996682D01*
X111954355Y-68996685D01*
X111880144Y-69039530D01*
X111880136Y-69039536D01*
X111845014Y-69074659D01*
X111819535Y-69100138D01*
X111819533Y-69100140D01*
X111801544Y-69118129D01*
X111740220Y-69151612D01*
X111677870Y-69149106D01*
X111496130Y-69093975D01*
X111300000Y-69074659D01*
X111103870Y-69093975D01*
X110915266Y-69151188D01*
X110741467Y-69244086D01*
X110741460Y-69244090D01*
X110589116Y-69369116D01*
X110464090Y-69521460D01*
X110464086Y-69521467D01*
X110371188Y-69695266D01*
X110313975Y-69883870D01*
X110294659Y-70080000D01*
X110294659Y-70080002D01*
X110295086Y-70084339D01*
X110282066Y-70152985D01*
X110234000Y-70203694D01*
X110171683Y-70220491D01*
X107182180Y-70220491D01*
X107115141Y-70200806D01*
X107094499Y-70184172D01*
X104987508Y-68077181D01*
X104954023Y-68015858D01*
X104959007Y-67946166D01*
X105000879Y-67890233D01*
X105066343Y-67865816D01*
X105075189Y-67865500D01*
X105682851Y-67865500D01*
X105682853Y-67865500D01*
X105765639Y-67843318D01*
X105839862Y-67800465D01*
X106350328Y-67289999D01*
X110021127Y-67289999D01*
X110021128Y-67290000D01*
X110984314Y-67290000D01*
X110979920Y-67294394D01*
X110927259Y-67385606D01*
X110900000Y-67487339D01*
X110900000Y-67592661D01*
X110927259Y-67694394D01*
X110979920Y-67785606D01*
X110984314Y-67790000D01*
X110021128Y-67790000D01*
X110073730Y-67986317D01*
X110073734Y-67986326D01*
X110169865Y-68192482D01*
X110300342Y-68378820D01*
X110461179Y-68539657D01*
X110647517Y-68670134D01*
X110853673Y-68766265D01*
X110853682Y-68766269D01*
X111049999Y-68818872D01*
X111050000Y-68818871D01*
X111050000Y-67855686D01*
X111054394Y-67860080D01*
X111145606Y-67912741D01*
X111247339Y-67940000D01*
X111352661Y-67940000D01*
X111454394Y-67912741D01*
X111545606Y-67860080D01*
X111550000Y-67855686D01*
X111550000Y-68818872D01*
X111746317Y-68766269D01*
X111746326Y-68766265D01*
X111952482Y-68670134D01*
X112138820Y-68539657D01*
X112299657Y-68378820D01*
X112430134Y-68192482D01*
X112526265Y-67986326D01*
X112526269Y-67986317D01*
X112578872Y-67790000D01*
X111615686Y-67790000D01*
X111620080Y-67785606D01*
X111672741Y-67694394D01*
X111700000Y-67592661D01*
X111700000Y-67487339D01*
X111672741Y-67385606D01*
X111620080Y-67294394D01*
X111615686Y-67290000D01*
X112578872Y-67290000D01*
X112578872Y-67289999D01*
X112526269Y-67093682D01*
X112526265Y-67093673D01*
X112430134Y-66887517D01*
X112299657Y-66701179D01*
X112198475Y-66599997D01*
X113195034Y-66599997D01*
X113195034Y-66600002D01*
X113214858Y-66826599D01*
X113214860Y-66826610D01*
X113273730Y-67046317D01*
X113273735Y-67046331D01*
X113369863Y-67252478D01*
X113420974Y-67325472D01*
X114100000Y-66646446D01*
X114100000Y-66652661D01*
X114127259Y-66754394D01*
X114179920Y-66845606D01*
X114254394Y-66920080D01*
X114345606Y-66972741D01*
X114447339Y-67000000D01*
X114453553Y-67000000D01*
X113774526Y-67679025D01*
X113847513Y-67730132D01*
X113847521Y-67730136D01*
X114053668Y-67826264D01*
X114053682Y-67826269D01*
X114273389Y-67885139D01*
X114273400Y-67885141D01*
X114499998Y-67904966D01*
X114500002Y-67904966D01*
X114726599Y-67885141D01*
X114726610Y-67885139D01*
X114946317Y-67826269D01*
X114946331Y-67826264D01*
X115152478Y-67730136D01*
X115225471Y-67679024D01*
X114546447Y-67000000D01*
X114552661Y-67000000D01*
X114654394Y-66972741D01*
X114745606Y-66920080D01*
X114820080Y-66845606D01*
X114872741Y-66754394D01*
X114900000Y-66652661D01*
X114900000Y-66646447D01*
X115579024Y-67325471D01*
X115630136Y-67252478D01*
X115726264Y-67046331D01*
X115726269Y-67046317D01*
X115785139Y-66826610D01*
X115785141Y-66826599D01*
X115804966Y-66600002D01*
X115804966Y-66599997D01*
X115785141Y-66373400D01*
X115785139Y-66373389D01*
X115726269Y-66153682D01*
X115726264Y-66153668D01*
X115630136Y-65947521D01*
X115630132Y-65947513D01*
X115579025Y-65874526D01*
X114900000Y-66553551D01*
X114900000Y-66547339D01*
X114872741Y-66445606D01*
X114820080Y-66354394D01*
X114745606Y-66279920D01*
X114654394Y-66227259D01*
X114552661Y-66200000D01*
X114546448Y-66200000D01*
X115225472Y-65520974D01*
X115152478Y-65469863D01*
X114946331Y-65373735D01*
X114946317Y-65373730D01*
X114726610Y-65314860D01*
X114726599Y-65314858D01*
X114500002Y-65295034D01*
X114499998Y-65295034D01*
X114273400Y-65314858D01*
X114273389Y-65314860D01*
X114053682Y-65373730D01*
X114053673Y-65373734D01*
X113847516Y-65469866D01*
X113847512Y-65469868D01*
X113774526Y-65520973D01*
X113774526Y-65520974D01*
X114453553Y-66200000D01*
X114447339Y-66200000D01*
X114345606Y-66227259D01*
X114254394Y-66279920D01*
X114179920Y-66354394D01*
X114127259Y-66445606D01*
X114100000Y-66547339D01*
X114100000Y-66553552D01*
X113420974Y-65874526D01*
X113420973Y-65874526D01*
X113369868Y-65947512D01*
X113369866Y-65947516D01*
X113273734Y-66153673D01*
X113273730Y-66153682D01*
X113214860Y-66373389D01*
X113214858Y-66373400D01*
X113195034Y-66599997D01*
X112198475Y-66599997D01*
X112138820Y-66540342D01*
X111952482Y-66409865D01*
X111746328Y-66313734D01*
X111550000Y-66261127D01*
X111550000Y-67224314D01*
X111545606Y-67219920D01*
X111454394Y-67167259D01*
X111352661Y-67140000D01*
X111247339Y-67140000D01*
X111145606Y-67167259D01*
X111054394Y-67219920D01*
X111050000Y-67224314D01*
X111050000Y-66261127D01*
X110853671Y-66313734D01*
X110647517Y-66409865D01*
X110461179Y-66540342D01*
X110300342Y-66701179D01*
X110169865Y-66887517D01*
X110073734Y-67093673D01*
X110073730Y-67093682D01*
X110021127Y-67289999D01*
X106350328Y-67289999D01*
X107828508Y-65811819D01*
X107889831Y-65778334D01*
X107916189Y-65775500D01*
X111631701Y-65775500D01*
X111698740Y-65795185D01*
X111730077Y-65824014D01*
X111771302Y-65877741D01*
X111771718Y-65878282D01*
X111897159Y-65974536D01*
X112043238Y-66035044D01*
X112121619Y-66045363D01*
X112199999Y-66055682D01*
X112200000Y-66055682D01*
X112200001Y-66055682D01*
X112252254Y-66048802D01*
X112356762Y-66035044D01*
X112502841Y-65974536D01*
X112628282Y-65878282D01*
X112724536Y-65752841D01*
X112785044Y-65606762D01*
X112805682Y-65450000D01*
X112799687Y-65404466D01*
X112788159Y-65316901D01*
X112785044Y-65293238D01*
X112724536Y-65147159D01*
X112628282Y-65021718D01*
X112502841Y-64925464D01*
X112469119Y-64911496D01*
X112356762Y-64864956D01*
X112356760Y-64864955D01*
X112200001Y-64844318D01*
X112199999Y-64844318D01*
X112043239Y-64864955D01*
X112043237Y-64864956D01*
X111897160Y-64925463D01*
X111771716Y-65021719D01*
X111730077Y-65075986D01*
X111673649Y-65117189D01*
X111631701Y-65124500D01*
X107687147Y-65124500D01*
X107604362Y-65146682D01*
X107604359Y-65146683D01*
X107547519Y-65179500D01*
X107530141Y-65189533D01*
X107530135Y-65189537D01*
X105541492Y-67178181D01*
X105480169Y-67211666D01*
X105453811Y-67214500D01*
X104714795Y-67214500D01*
X104647756Y-67194815D01*
X104605437Y-67148953D01*
X104515914Y-66981467D01*
X104515909Y-66981460D01*
X104390883Y-66829116D01*
X104238539Y-66704090D01*
X104238532Y-66704086D01*
X104064733Y-66611188D01*
X104064727Y-66611186D01*
X103932117Y-66570959D01*
X103876129Y-66553975D01*
X103680000Y-66534659D01*
X103483870Y-66553975D01*
X103295266Y-66611188D01*
X103121467Y-66704086D01*
X103121460Y-66704090D01*
X102969116Y-66829116D01*
X102844090Y-66981460D01*
X102844086Y-66981467D01*
X102751188Y-67155266D01*
X102693975Y-67343870D01*
X102674659Y-67540000D01*
X99800000Y-67540000D01*
X99800000Y-52865875D01*
X100199500Y-52865875D01*
X100199500Y-53214124D01*
X100238489Y-53560158D01*
X100238491Y-53560170D01*
X100315982Y-53899684D01*
X100315985Y-53899692D01*
X100430999Y-54228382D01*
X100582092Y-54542130D01*
X100767371Y-54836999D01*
X100767372Y-54837001D01*
X100984487Y-55109256D01*
X101230743Y-55355512D01*
X101502998Y-55572627D01*
X101503001Y-55572628D01*
X101503003Y-55572630D01*
X101797867Y-55757906D01*
X102111621Y-55909002D01*
X102358488Y-55995384D01*
X102440307Y-56024014D01*
X102440315Y-56024017D01*
X102440318Y-56024017D01*
X102440319Y-56024018D01*
X102779829Y-56101509D01*
X103125876Y-56140499D01*
X103125877Y-56140500D01*
X103125880Y-56140500D01*
X103474123Y-56140500D01*
X103474123Y-56140499D01*
X103820171Y-56101509D01*
X104159681Y-56024018D01*
X104488379Y-55909002D01*
X104802133Y-55757906D01*
X105096997Y-55572630D01*
X105097001Y-55572627D01*
X105369256Y-55355512D01*
X105369258Y-55355509D01*
X105369263Y-55355506D01*
X105615506Y-55109263D01*
X105694161Y-55010633D01*
X105832627Y-54837001D01*
X105832628Y-54836999D01*
X105832630Y-54836997D01*
X106017906Y-54542133D01*
X106169002Y-54228379D01*
X106284018Y-53899681D01*
X106361509Y-53560171D01*
X106400500Y-53214120D01*
X106400500Y-52865880D01*
X106361509Y-52519829D01*
X106284018Y-52180319D01*
X106169002Y-51851621D01*
X106017906Y-51537867D01*
X105832630Y-51243003D01*
X105832628Y-51243000D01*
X105832627Y-51242998D01*
X105615512Y-50970743D01*
X105369256Y-50724487D01*
X105097001Y-50507372D01*
X105096999Y-50507371D01*
X104802130Y-50322092D01*
X104488382Y-50170999D01*
X104159692Y-50055985D01*
X104159684Y-50055982D01*
X103905048Y-49997863D01*
X103820171Y-49978491D01*
X103820167Y-49978490D01*
X103820158Y-49978489D01*
X103474124Y-49939500D01*
X103474120Y-49939500D01*
X103125880Y-49939500D01*
X103125875Y-49939500D01*
X102779841Y-49978489D01*
X102779829Y-49978491D01*
X102440315Y-50055982D01*
X102440307Y-50055985D01*
X102111617Y-50170999D01*
X101797869Y-50322092D01*
X101503000Y-50507371D01*
X101502998Y-50507372D01*
X101230743Y-50724487D01*
X100984487Y-50970743D01*
X100767372Y-51242998D01*
X100767371Y-51243000D01*
X100582092Y-51537869D01*
X100430999Y-51851617D01*
X100315985Y-52180307D01*
X100315982Y-52180315D01*
X100238491Y-52519829D01*
X100238489Y-52519841D01*
X100199500Y-52865875D01*
X99800000Y-52865875D01*
X99800000Y-52500882D01*
X99800012Y-52499144D01*
X99802274Y-52337729D01*
X99803041Y-52325610D01*
X99839277Y-52004005D01*
X99841606Y-51990299D01*
X99913426Y-51675633D01*
X99917272Y-51662279D01*
X100023883Y-51357601D01*
X100029196Y-51344777D01*
X100169243Y-51053965D01*
X100175959Y-51041813D01*
X100347693Y-50768501D01*
X100355723Y-50757183D01*
X100556979Y-50504816D01*
X100566228Y-50494467D01*
X100794467Y-50266228D01*
X100804816Y-50256979D01*
X101057183Y-50055723D01*
X101068501Y-50047693D01*
X101341813Y-49875959D01*
X101353965Y-49869243D01*
X101644777Y-49729196D01*
X101657601Y-49723883D01*
X101962279Y-49617272D01*
X101975627Y-49613427D01*
X102193293Y-49563746D01*
X102290299Y-49541606D01*
X102304005Y-49539277D01*
X102625610Y-49503041D01*
X102637729Y-49502274D01*
X102799144Y-49500011D01*
X102800882Y-49500000D01*
X152759118Y-49500000D01*
X152760855Y-49500011D01*
G37*
%TD.AperFunction*%
%TD*%
M02*
