%TF.GenerationSoftware,KiCad,Pcbnew,8.0.6*%
%TF.CreationDate,2024-10-19T21:44:49+02:00*%
%TF.ProjectId,595-PM-EXT,3539352d-504d-42d4-9558-542e6b696361,rev?*%
%TF.SameCoordinates,Original*%
%TF.FileFunction,Drillmap*%
%TF.FilePolarity,Positive*%
%FSLAX45Y45*%
G04 Gerber Fmt 4.5, Leading zero omitted, Abs format (unit mm)*
G04 Created by KiCad (PCBNEW 8.0.6) date 2024-10-19 21:44:49*
%MOMM*%
%LPD*%
G01*
G04 APERTURE LIST*
%ADD10C,0.100000*%
%ADD11C,0.200000*%
%ADD12C,0.275000*%
G04 APERTURE END LIST*
D10*
X10280000Y-10550000D02*
G75*
G02*
X9980000Y-10250000I0J300000D01*
G01*
X15576000Y-10250000D02*
G75*
G02*
X15276000Y-10550000I-300000J0D01*
G01*
X9980000Y-5250000D02*
X9980000Y-8650000D01*
X15276000Y-4950000D02*
G75*
G02*
X15576000Y-5250000I0J-300000D01*
G01*
X10280000Y-10550000D02*
X15276000Y-10550000D01*
X15276000Y-4950000D02*
X10280000Y-4950000D01*
X9980000Y-8650000D02*
X9980000Y-10250000D01*
X9980000Y-5250000D02*
G75*
G02*
X10280000Y-4950000I300000J0D01*
G01*
X15576000Y-10250000D02*
X15576000Y-5250000D01*
D11*
D12*
X10192500Y-5166500D02*
X10467500Y-5441500D01*
X10467500Y-5166500D02*
X10192500Y-5441500D01*
X10192500Y-10062500D02*
X10467500Y-10337500D01*
X10467500Y-10062500D02*
X10192500Y-10337500D01*
X15088500Y-5166500D02*
X15363500Y-5441500D01*
X15363500Y-5166500D02*
X15088500Y-5441500D01*
X15088500Y-10062500D02*
X15363500Y-10337500D01*
X15363500Y-10062500D02*
X15088500Y-10337500D01*
D11*
X10235777Y-10866484D02*
X10235777Y-10666484D01*
X10235777Y-10666484D02*
X10283396Y-10666484D01*
X10283396Y-10666484D02*
X10311967Y-10676008D01*
X10311967Y-10676008D02*
X10331015Y-10695055D01*
X10331015Y-10695055D02*
X10340539Y-10714103D01*
X10340539Y-10714103D02*
X10350063Y-10752198D01*
X10350063Y-10752198D02*
X10350063Y-10780770D01*
X10350063Y-10780770D02*
X10340539Y-10818865D01*
X10340539Y-10818865D02*
X10331015Y-10837912D01*
X10331015Y-10837912D02*
X10311967Y-10856960D01*
X10311967Y-10856960D02*
X10283396Y-10866484D01*
X10283396Y-10866484D02*
X10235777Y-10866484D01*
X10435777Y-10866484D02*
X10435777Y-10733150D01*
X10435777Y-10771246D02*
X10445301Y-10752198D01*
X10445301Y-10752198D02*
X10454824Y-10742674D01*
X10454824Y-10742674D02*
X10473872Y-10733150D01*
X10473872Y-10733150D02*
X10492920Y-10733150D01*
X10559586Y-10866484D02*
X10559586Y-10733150D01*
X10559586Y-10666484D02*
X10550063Y-10676008D01*
X10550063Y-10676008D02*
X10559586Y-10685531D01*
X10559586Y-10685531D02*
X10569110Y-10676008D01*
X10569110Y-10676008D02*
X10559586Y-10666484D01*
X10559586Y-10666484D02*
X10559586Y-10685531D01*
X10683396Y-10866484D02*
X10664348Y-10856960D01*
X10664348Y-10856960D02*
X10654824Y-10837912D01*
X10654824Y-10837912D02*
X10654824Y-10666484D01*
X10788158Y-10866484D02*
X10769110Y-10856960D01*
X10769110Y-10856960D02*
X10759586Y-10837912D01*
X10759586Y-10837912D02*
X10759586Y-10666484D01*
X11016729Y-10866484D02*
X11016729Y-10666484D01*
X11016729Y-10666484D02*
X11083396Y-10809341D01*
X11083396Y-10809341D02*
X11150063Y-10666484D01*
X11150063Y-10666484D02*
X11150063Y-10866484D01*
X11331015Y-10866484D02*
X11331015Y-10761722D01*
X11331015Y-10761722D02*
X11321491Y-10742674D01*
X11321491Y-10742674D02*
X11302443Y-10733150D01*
X11302443Y-10733150D02*
X11264348Y-10733150D01*
X11264348Y-10733150D02*
X11245301Y-10742674D01*
X11331015Y-10856960D02*
X11311967Y-10866484D01*
X11311967Y-10866484D02*
X11264348Y-10866484D01*
X11264348Y-10866484D02*
X11245301Y-10856960D01*
X11245301Y-10856960D02*
X11235777Y-10837912D01*
X11235777Y-10837912D02*
X11235777Y-10818865D01*
X11235777Y-10818865D02*
X11245301Y-10799817D01*
X11245301Y-10799817D02*
X11264348Y-10790293D01*
X11264348Y-10790293D02*
X11311967Y-10790293D01*
X11311967Y-10790293D02*
X11331015Y-10780770D01*
X11426253Y-10733150D02*
X11426253Y-10933150D01*
X11426253Y-10742674D02*
X11445301Y-10733150D01*
X11445301Y-10733150D02*
X11483396Y-10733150D01*
X11483396Y-10733150D02*
X11502443Y-10742674D01*
X11502443Y-10742674D02*
X11511967Y-10752198D01*
X11511967Y-10752198D02*
X11521491Y-10771246D01*
X11521491Y-10771246D02*
X11521491Y-10828389D01*
X11521491Y-10828389D02*
X11511967Y-10847436D01*
X11511967Y-10847436D02*
X11502443Y-10856960D01*
X11502443Y-10856960D02*
X11483396Y-10866484D01*
X11483396Y-10866484D02*
X11445301Y-10866484D01*
X11445301Y-10866484D02*
X11426253Y-10856960D01*
X11607205Y-10847436D02*
X11616729Y-10856960D01*
X11616729Y-10856960D02*
X11607205Y-10866484D01*
X11607205Y-10866484D02*
X11597682Y-10856960D01*
X11597682Y-10856960D02*
X11607205Y-10847436D01*
X11607205Y-10847436D02*
X11607205Y-10866484D01*
X11607205Y-10742674D02*
X11616729Y-10752198D01*
X11616729Y-10752198D02*
X11607205Y-10761722D01*
X11607205Y-10761722D02*
X11597682Y-10752198D01*
X11597682Y-10752198D02*
X11607205Y-10742674D01*
X11607205Y-10742674D02*
X11607205Y-10761722D01*
X9775000Y-11095000D02*
X9975000Y-11295000D01*
X9975000Y-11095000D02*
X9775000Y-11295000D01*
X10226253Y-11105531D02*
X10235777Y-11096008D01*
X10235777Y-11096008D02*
X10254824Y-11086484D01*
X10254824Y-11086484D02*
X10302444Y-11086484D01*
X10302444Y-11086484D02*
X10321491Y-11096008D01*
X10321491Y-11096008D02*
X10331015Y-11105531D01*
X10331015Y-11105531D02*
X10340539Y-11124579D01*
X10340539Y-11124579D02*
X10340539Y-11143627D01*
X10340539Y-11143627D02*
X10331015Y-11172198D01*
X10331015Y-11172198D02*
X10216729Y-11286484D01*
X10216729Y-11286484D02*
X10340539Y-11286484D01*
X10426253Y-11267436D02*
X10435777Y-11276960D01*
X10435777Y-11276960D02*
X10426253Y-11286484D01*
X10426253Y-11286484D02*
X10416729Y-11276960D01*
X10416729Y-11276960D02*
X10426253Y-11267436D01*
X10426253Y-11267436D02*
X10426253Y-11286484D01*
X10502444Y-11086484D02*
X10635777Y-11086484D01*
X10635777Y-11086484D02*
X10550063Y-11286484D01*
X10807205Y-11086484D02*
X10711967Y-11086484D01*
X10711967Y-11086484D02*
X10702444Y-11181722D01*
X10702444Y-11181722D02*
X10711967Y-11172198D01*
X10711967Y-11172198D02*
X10731015Y-11162674D01*
X10731015Y-11162674D02*
X10778634Y-11162674D01*
X10778634Y-11162674D02*
X10797682Y-11172198D01*
X10797682Y-11172198D02*
X10807205Y-11181722D01*
X10807205Y-11181722D02*
X10816729Y-11200769D01*
X10816729Y-11200769D02*
X10816729Y-11248388D01*
X10816729Y-11248388D02*
X10807205Y-11267436D01*
X10807205Y-11267436D02*
X10797682Y-11276960D01*
X10797682Y-11276960D02*
X10778634Y-11286484D01*
X10778634Y-11286484D02*
X10731015Y-11286484D01*
X10731015Y-11286484D02*
X10711967Y-11276960D01*
X10711967Y-11276960D02*
X10702444Y-11267436D01*
X10940539Y-11086484D02*
X10959586Y-11086484D01*
X10959586Y-11086484D02*
X10978634Y-11096008D01*
X10978634Y-11096008D02*
X10988158Y-11105531D01*
X10988158Y-11105531D02*
X10997682Y-11124579D01*
X10997682Y-11124579D02*
X11007205Y-11162674D01*
X11007205Y-11162674D02*
X11007205Y-11210293D01*
X11007205Y-11210293D02*
X10997682Y-11248388D01*
X10997682Y-11248388D02*
X10988158Y-11267436D01*
X10988158Y-11267436D02*
X10978634Y-11276960D01*
X10978634Y-11276960D02*
X10959586Y-11286484D01*
X10959586Y-11286484D02*
X10940539Y-11286484D01*
X10940539Y-11286484D02*
X10921491Y-11276960D01*
X10921491Y-11276960D02*
X10911967Y-11267436D01*
X10911967Y-11267436D02*
X10902444Y-11248388D01*
X10902444Y-11248388D02*
X10892920Y-11210293D01*
X10892920Y-11210293D02*
X10892920Y-11162674D01*
X10892920Y-11162674D02*
X10902444Y-11124579D01*
X10902444Y-11124579D02*
X10911967Y-11105531D01*
X10911967Y-11105531D02*
X10921491Y-11096008D01*
X10921491Y-11096008D02*
X10940539Y-11086484D01*
X11092920Y-11286484D02*
X11092920Y-11153150D01*
X11092920Y-11172198D02*
X11102444Y-11162674D01*
X11102444Y-11162674D02*
X11121491Y-11153150D01*
X11121491Y-11153150D02*
X11150063Y-11153150D01*
X11150063Y-11153150D02*
X11169110Y-11162674D01*
X11169110Y-11162674D02*
X11178634Y-11181722D01*
X11178634Y-11181722D02*
X11178634Y-11286484D01*
X11178634Y-11181722D02*
X11188158Y-11162674D01*
X11188158Y-11162674D02*
X11207205Y-11153150D01*
X11207205Y-11153150D02*
X11235777Y-11153150D01*
X11235777Y-11153150D02*
X11254824Y-11162674D01*
X11254824Y-11162674D02*
X11264348Y-11181722D01*
X11264348Y-11181722D02*
X11264348Y-11286484D01*
X11359586Y-11286484D02*
X11359586Y-11153150D01*
X11359586Y-11172198D02*
X11369110Y-11162674D01*
X11369110Y-11162674D02*
X11388158Y-11153150D01*
X11388158Y-11153150D02*
X11416729Y-11153150D01*
X11416729Y-11153150D02*
X11435777Y-11162674D01*
X11435777Y-11162674D02*
X11445301Y-11181722D01*
X11445301Y-11181722D02*
X11445301Y-11286484D01*
X11445301Y-11181722D02*
X11454824Y-11162674D01*
X11454824Y-11162674D02*
X11473872Y-11153150D01*
X11473872Y-11153150D02*
X11502443Y-11153150D01*
X11502443Y-11153150D02*
X11521491Y-11162674D01*
X11521491Y-11162674D02*
X11531015Y-11181722D01*
X11531015Y-11181722D02*
X11531015Y-11286484D01*
X11921491Y-11076960D02*
X11750063Y-11334103D01*
X12178634Y-11086484D02*
X12197682Y-11086484D01*
X12197682Y-11086484D02*
X12216729Y-11096008D01*
X12216729Y-11096008D02*
X12226253Y-11105531D01*
X12226253Y-11105531D02*
X12235777Y-11124579D01*
X12235777Y-11124579D02*
X12245301Y-11162674D01*
X12245301Y-11162674D02*
X12245301Y-11210293D01*
X12245301Y-11210293D02*
X12235777Y-11248388D01*
X12235777Y-11248388D02*
X12226253Y-11267436D01*
X12226253Y-11267436D02*
X12216729Y-11276960D01*
X12216729Y-11276960D02*
X12197682Y-11286484D01*
X12197682Y-11286484D02*
X12178634Y-11286484D01*
X12178634Y-11286484D02*
X12159586Y-11276960D01*
X12159586Y-11276960D02*
X12150063Y-11267436D01*
X12150063Y-11267436D02*
X12140539Y-11248388D01*
X12140539Y-11248388D02*
X12131015Y-11210293D01*
X12131015Y-11210293D02*
X12131015Y-11162674D01*
X12131015Y-11162674D02*
X12140539Y-11124579D01*
X12140539Y-11124579D02*
X12150063Y-11105531D01*
X12150063Y-11105531D02*
X12159586Y-11096008D01*
X12159586Y-11096008D02*
X12178634Y-11086484D01*
X12331015Y-11267436D02*
X12340539Y-11276960D01*
X12340539Y-11276960D02*
X12331015Y-11286484D01*
X12331015Y-11286484D02*
X12321491Y-11276960D01*
X12321491Y-11276960D02*
X12331015Y-11267436D01*
X12331015Y-11267436D02*
X12331015Y-11286484D01*
X12531015Y-11286484D02*
X12416729Y-11286484D01*
X12473872Y-11286484D02*
X12473872Y-11086484D01*
X12473872Y-11086484D02*
X12454825Y-11115055D01*
X12454825Y-11115055D02*
X12435777Y-11134103D01*
X12435777Y-11134103D02*
X12416729Y-11143627D01*
X12654825Y-11086484D02*
X12673872Y-11086484D01*
X12673872Y-11086484D02*
X12692920Y-11096008D01*
X12692920Y-11096008D02*
X12702444Y-11105531D01*
X12702444Y-11105531D02*
X12711967Y-11124579D01*
X12711967Y-11124579D02*
X12721491Y-11162674D01*
X12721491Y-11162674D02*
X12721491Y-11210293D01*
X12721491Y-11210293D02*
X12711967Y-11248388D01*
X12711967Y-11248388D02*
X12702444Y-11267436D01*
X12702444Y-11267436D02*
X12692920Y-11276960D01*
X12692920Y-11276960D02*
X12673872Y-11286484D01*
X12673872Y-11286484D02*
X12654825Y-11286484D01*
X12654825Y-11286484D02*
X12635777Y-11276960D01*
X12635777Y-11276960D02*
X12626253Y-11267436D01*
X12626253Y-11267436D02*
X12616729Y-11248388D01*
X12616729Y-11248388D02*
X12607206Y-11210293D01*
X12607206Y-11210293D02*
X12607206Y-11162674D01*
X12607206Y-11162674D02*
X12616729Y-11124579D01*
X12616729Y-11124579D02*
X12626253Y-11105531D01*
X12626253Y-11105531D02*
X12635777Y-11096008D01*
X12635777Y-11096008D02*
X12654825Y-11086484D01*
X12835777Y-11172198D02*
X12816729Y-11162674D01*
X12816729Y-11162674D02*
X12807206Y-11153150D01*
X12807206Y-11153150D02*
X12797682Y-11134103D01*
X12797682Y-11134103D02*
X12797682Y-11124579D01*
X12797682Y-11124579D02*
X12807206Y-11105531D01*
X12807206Y-11105531D02*
X12816729Y-11096008D01*
X12816729Y-11096008D02*
X12835777Y-11086484D01*
X12835777Y-11086484D02*
X12873872Y-11086484D01*
X12873872Y-11086484D02*
X12892920Y-11096008D01*
X12892920Y-11096008D02*
X12902444Y-11105531D01*
X12902444Y-11105531D02*
X12911967Y-11124579D01*
X12911967Y-11124579D02*
X12911967Y-11134103D01*
X12911967Y-11134103D02*
X12902444Y-11153150D01*
X12902444Y-11153150D02*
X12892920Y-11162674D01*
X12892920Y-11162674D02*
X12873872Y-11172198D01*
X12873872Y-11172198D02*
X12835777Y-11172198D01*
X12835777Y-11172198D02*
X12816729Y-11181722D01*
X12816729Y-11181722D02*
X12807206Y-11191246D01*
X12807206Y-11191246D02*
X12797682Y-11210293D01*
X12797682Y-11210293D02*
X12797682Y-11248388D01*
X12797682Y-11248388D02*
X12807206Y-11267436D01*
X12807206Y-11267436D02*
X12816729Y-11276960D01*
X12816729Y-11276960D02*
X12835777Y-11286484D01*
X12835777Y-11286484D02*
X12873872Y-11286484D01*
X12873872Y-11286484D02*
X12892920Y-11276960D01*
X12892920Y-11276960D02*
X12902444Y-11267436D01*
X12902444Y-11267436D02*
X12911967Y-11248388D01*
X12911967Y-11248388D02*
X12911967Y-11210293D01*
X12911967Y-11210293D02*
X12902444Y-11191246D01*
X12902444Y-11191246D02*
X12892920Y-11181722D01*
X12892920Y-11181722D02*
X12873872Y-11172198D01*
X12978634Y-11086484D02*
X13102444Y-11086484D01*
X13102444Y-11086484D02*
X13035777Y-11162674D01*
X13035777Y-11162674D02*
X13064348Y-11162674D01*
X13064348Y-11162674D02*
X13083396Y-11172198D01*
X13083396Y-11172198D02*
X13092920Y-11181722D01*
X13092920Y-11181722D02*
X13102444Y-11200769D01*
X13102444Y-11200769D02*
X13102444Y-11248388D01*
X13102444Y-11248388D02*
X13092920Y-11267436D01*
X13092920Y-11267436D02*
X13083396Y-11276960D01*
X13083396Y-11276960D02*
X13064348Y-11286484D01*
X13064348Y-11286484D02*
X13007206Y-11286484D01*
X13007206Y-11286484D02*
X12988158Y-11276960D01*
X12988158Y-11276960D02*
X12978634Y-11267436D01*
X13178634Y-11086484D02*
X13178634Y-11124579D01*
X13254825Y-11086484D02*
X13254825Y-11124579D01*
X13550063Y-11362674D02*
X13540539Y-11353150D01*
X13540539Y-11353150D02*
X13521491Y-11324579D01*
X13521491Y-11324579D02*
X13511968Y-11305531D01*
X13511968Y-11305531D02*
X13502444Y-11276960D01*
X13502444Y-11276960D02*
X13492920Y-11229341D01*
X13492920Y-11229341D02*
X13492920Y-11191246D01*
X13492920Y-11191246D02*
X13502444Y-11143627D01*
X13502444Y-11143627D02*
X13511968Y-11115055D01*
X13511968Y-11115055D02*
X13521491Y-11096008D01*
X13521491Y-11096008D02*
X13540539Y-11067436D01*
X13540539Y-11067436D02*
X13550063Y-11057912D01*
X13711968Y-11153150D02*
X13711968Y-11286484D01*
X13664348Y-11076960D02*
X13616729Y-11219817D01*
X13616729Y-11219817D02*
X13740539Y-11219817D01*
X13969110Y-11286484D02*
X13969110Y-11086484D01*
X14054825Y-11286484D02*
X14054825Y-11181722D01*
X14054825Y-11181722D02*
X14045301Y-11162674D01*
X14045301Y-11162674D02*
X14026253Y-11153150D01*
X14026253Y-11153150D02*
X13997682Y-11153150D01*
X13997682Y-11153150D02*
X13978634Y-11162674D01*
X13978634Y-11162674D02*
X13969110Y-11172198D01*
X14178634Y-11286484D02*
X14159587Y-11276960D01*
X14159587Y-11276960D02*
X14150063Y-11267436D01*
X14150063Y-11267436D02*
X14140539Y-11248388D01*
X14140539Y-11248388D02*
X14140539Y-11191246D01*
X14140539Y-11191246D02*
X14150063Y-11172198D01*
X14150063Y-11172198D02*
X14159587Y-11162674D01*
X14159587Y-11162674D02*
X14178634Y-11153150D01*
X14178634Y-11153150D02*
X14207206Y-11153150D01*
X14207206Y-11153150D02*
X14226253Y-11162674D01*
X14226253Y-11162674D02*
X14235777Y-11172198D01*
X14235777Y-11172198D02*
X14245301Y-11191246D01*
X14245301Y-11191246D02*
X14245301Y-11248388D01*
X14245301Y-11248388D02*
X14235777Y-11267436D01*
X14235777Y-11267436D02*
X14226253Y-11276960D01*
X14226253Y-11276960D02*
X14207206Y-11286484D01*
X14207206Y-11286484D02*
X14178634Y-11286484D01*
X14359587Y-11286484D02*
X14340539Y-11276960D01*
X14340539Y-11276960D02*
X14331015Y-11257912D01*
X14331015Y-11257912D02*
X14331015Y-11086484D01*
X14511968Y-11276960D02*
X14492920Y-11286484D01*
X14492920Y-11286484D02*
X14454825Y-11286484D01*
X14454825Y-11286484D02*
X14435777Y-11276960D01*
X14435777Y-11276960D02*
X14426253Y-11257912D01*
X14426253Y-11257912D02*
X14426253Y-11181722D01*
X14426253Y-11181722D02*
X14435777Y-11162674D01*
X14435777Y-11162674D02*
X14454825Y-11153150D01*
X14454825Y-11153150D02*
X14492920Y-11153150D01*
X14492920Y-11153150D02*
X14511968Y-11162674D01*
X14511968Y-11162674D02*
X14521491Y-11181722D01*
X14521491Y-11181722D02*
X14521491Y-11200769D01*
X14521491Y-11200769D02*
X14426253Y-11219817D01*
X14597682Y-11276960D02*
X14616730Y-11286484D01*
X14616730Y-11286484D02*
X14654825Y-11286484D01*
X14654825Y-11286484D02*
X14673872Y-11276960D01*
X14673872Y-11276960D02*
X14683396Y-11257912D01*
X14683396Y-11257912D02*
X14683396Y-11248388D01*
X14683396Y-11248388D02*
X14673872Y-11229341D01*
X14673872Y-11229341D02*
X14654825Y-11219817D01*
X14654825Y-11219817D02*
X14626253Y-11219817D01*
X14626253Y-11219817D02*
X14607206Y-11210293D01*
X14607206Y-11210293D02*
X14597682Y-11191246D01*
X14597682Y-11191246D02*
X14597682Y-11181722D01*
X14597682Y-11181722D02*
X14607206Y-11162674D01*
X14607206Y-11162674D02*
X14626253Y-11153150D01*
X14626253Y-11153150D02*
X14654825Y-11153150D01*
X14654825Y-11153150D02*
X14673872Y-11162674D01*
X14750063Y-11362674D02*
X14759587Y-11353150D01*
X14759587Y-11353150D02*
X14778634Y-11324579D01*
X14778634Y-11324579D02*
X14788158Y-11305531D01*
X14788158Y-11305531D02*
X14797682Y-11276960D01*
X14797682Y-11276960D02*
X14807206Y-11229341D01*
X14807206Y-11229341D02*
X14807206Y-11191246D01*
X14807206Y-11191246D02*
X14797682Y-11143627D01*
X14797682Y-11143627D02*
X14788158Y-11115055D01*
X14788158Y-11115055D02*
X14778634Y-11096008D01*
X14778634Y-11096008D02*
X14759587Y-11067436D01*
X14759587Y-11067436D02*
X14750063Y-11057912D01*
X15111968Y-11362674D02*
X15102444Y-11353150D01*
X15102444Y-11353150D02*
X15083396Y-11324579D01*
X15083396Y-11324579D02*
X15073872Y-11305531D01*
X15073872Y-11305531D02*
X15064349Y-11276960D01*
X15064349Y-11276960D02*
X15054825Y-11229341D01*
X15054825Y-11229341D02*
X15054825Y-11191246D01*
X15054825Y-11191246D02*
X15064349Y-11143627D01*
X15064349Y-11143627D02*
X15073872Y-11115055D01*
X15073872Y-11115055D02*
X15083396Y-11096008D01*
X15083396Y-11096008D02*
X15102444Y-11067436D01*
X15102444Y-11067436D02*
X15111968Y-11057912D01*
X15188158Y-11153150D02*
X15188158Y-11286484D01*
X15188158Y-11172198D02*
X15197682Y-11162674D01*
X15197682Y-11162674D02*
X15216730Y-11153150D01*
X15216730Y-11153150D02*
X15245301Y-11153150D01*
X15245301Y-11153150D02*
X15264349Y-11162674D01*
X15264349Y-11162674D02*
X15273872Y-11181722D01*
X15273872Y-11181722D02*
X15273872Y-11286484D01*
X15397682Y-11286484D02*
X15378634Y-11276960D01*
X15378634Y-11276960D02*
X15369111Y-11267436D01*
X15369111Y-11267436D02*
X15359587Y-11248388D01*
X15359587Y-11248388D02*
X15359587Y-11191246D01*
X15359587Y-11191246D02*
X15369111Y-11172198D01*
X15369111Y-11172198D02*
X15378634Y-11162674D01*
X15378634Y-11162674D02*
X15397682Y-11153150D01*
X15397682Y-11153150D02*
X15426253Y-11153150D01*
X15426253Y-11153150D02*
X15445301Y-11162674D01*
X15445301Y-11162674D02*
X15454825Y-11172198D01*
X15454825Y-11172198D02*
X15464349Y-11191246D01*
X15464349Y-11191246D02*
X15464349Y-11248388D01*
X15464349Y-11248388D02*
X15454825Y-11267436D01*
X15454825Y-11267436D02*
X15445301Y-11276960D01*
X15445301Y-11276960D02*
X15426253Y-11286484D01*
X15426253Y-11286484D02*
X15397682Y-11286484D01*
X15521492Y-11153150D02*
X15597682Y-11153150D01*
X15550063Y-11086484D02*
X15550063Y-11257912D01*
X15550063Y-11257912D02*
X15559587Y-11276960D01*
X15559587Y-11276960D02*
X15578634Y-11286484D01*
X15578634Y-11286484D02*
X15597682Y-11286484D01*
X15816730Y-11153150D02*
X15816730Y-11353150D01*
X15816730Y-11162674D02*
X15835777Y-11153150D01*
X15835777Y-11153150D02*
X15873873Y-11153150D01*
X15873873Y-11153150D02*
X15892920Y-11162674D01*
X15892920Y-11162674D02*
X15902444Y-11172198D01*
X15902444Y-11172198D02*
X15911968Y-11191246D01*
X15911968Y-11191246D02*
X15911968Y-11248388D01*
X15911968Y-11248388D02*
X15902444Y-11267436D01*
X15902444Y-11267436D02*
X15892920Y-11276960D01*
X15892920Y-11276960D02*
X15873873Y-11286484D01*
X15873873Y-11286484D02*
X15835777Y-11286484D01*
X15835777Y-11286484D02*
X15816730Y-11276960D01*
X16026253Y-11286484D02*
X16007206Y-11276960D01*
X16007206Y-11276960D02*
X15997682Y-11257912D01*
X15997682Y-11257912D02*
X15997682Y-11086484D01*
X16188158Y-11286484D02*
X16188158Y-11181722D01*
X16188158Y-11181722D02*
X16178634Y-11162674D01*
X16178634Y-11162674D02*
X16159587Y-11153150D01*
X16159587Y-11153150D02*
X16121492Y-11153150D01*
X16121492Y-11153150D02*
X16102444Y-11162674D01*
X16188158Y-11276960D02*
X16169111Y-11286484D01*
X16169111Y-11286484D02*
X16121492Y-11286484D01*
X16121492Y-11286484D02*
X16102444Y-11276960D01*
X16102444Y-11276960D02*
X16092920Y-11257912D01*
X16092920Y-11257912D02*
X16092920Y-11238865D01*
X16092920Y-11238865D02*
X16102444Y-11219817D01*
X16102444Y-11219817D02*
X16121492Y-11210293D01*
X16121492Y-11210293D02*
X16169111Y-11210293D01*
X16169111Y-11210293D02*
X16188158Y-11200769D01*
X16254825Y-11153150D02*
X16331015Y-11153150D01*
X16283396Y-11086484D02*
X16283396Y-11257912D01*
X16283396Y-11257912D02*
X16292920Y-11276960D01*
X16292920Y-11276960D02*
X16311968Y-11286484D01*
X16311968Y-11286484D02*
X16331015Y-11286484D01*
X16473873Y-11276960D02*
X16454825Y-11286484D01*
X16454825Y-11286484D02*
X16416730Y-11286484D01*
X16416730Y-11286484D02*
X16397682Y-11276960D01*
X16397682Y-11276960D02*
X16388158Y-11257912D01*
X16388158Y-11257912D02*
X16388158Y-11181722D01*
X16388158Y-11181722D02*
X16397682Y-11162674D01*
X16397682Y-11162674D02*
X16416730Y-11153150D01*
X16416730Y-11153150D02*
X16454825Y-11153150D01*
X16454825Y-11153150D02*
X16473873Y-11162674D01*
X16473873Y-11162674D02*
X16483396Y-11181722D01*
X16483396Y-11181722D02*
X16483396Y-11200769D01*
X16483396Y-11200769D02*
X16388158Y-11219817D01*
X16654825Y-11286484D02*
X16654825Y-11086484D01*
X16654825Y-11276960D02*
X16635777Y-11286484D01*
X16635777Y-11286484D02*
X16597682Y-11286484D01*
X16597682Y-11286484D02*
X16578634Y-11276960D01*
X16578634Y-11276960D02*
X16569111Y-11267436D01*
X16569111Y-11267436D02*
X16559587Y-11248388D01*
X16559587Y-11248388D02*
X16559587Y-11191246D01*
X16559587Y-11191246D02*
X16569111Y-11172198D01*
X16569111Y-11172198D02*
X16578634Y-11162674D01*
X16578634Y-11162674D02*
X16597682Y-11153150D01*
X16597682Y-11153150D02*
X16635777Y-11153150D01*
X16635777Y-11153150D02*
X16654825Y-11162674D01*
X16731015Y-11362674D02*
X16740539Y-11353150D01*
X16740539Y-11353150D02*
X16759587Y-11324579D01*
X16759587Y-11324579D02*
X16769111Y-11305531D01*
X16769111Y-11305531D02*
X16778635Y-11276960D01*
X16778635Y-11276960D02*
X16788158Y-11229341D01*
X16788158Y-11229341D02*
X16788158Y-11191246D01*
X16788158Y-11191246D02*
X16778635Y-11143627D01*
X16778635Y-11143627D02*
X16769111Y-11115055D01*
X16769111Y-11115055D02*
X16759587Y-11096008D01*
X16759587Y-11096008D02*
X16740539Y-11067436D01*
X16740539Y-11067436D02*
X16731015Y-11057912D01*
M02*
