%TF.GenerationSoftware,KiCad,Pcbnew,8.0.6*%
%TF.CreationDate,2024-10-19T21:44:56+02:00*%
%TF.ProjectId,595-PM-EXT,3539352d-504d-42d4-9558-542e6b696361,rev?*%
%TF.SameCoordinates,Original*%
%TF.FileFunction,Legend,Top*%
%TF.FilePolarity,Positive*%
%FSLAX46Y46*%
G04 Gerber Fmt 4.6, Leading zero omitted, Abs format (unit mm)*
G04 Created by KiCad (PCBNEW 8.0.6) date 2024-10-19 21:44:56*
%MOMM*%
%LPD*%
G01*
G04 APERTURE LIST*
%ADD10C,0.150000*%
%ADD11C,0.254000*%
%ADD12C,0.120000*%
%ADD13C,0.400000*%
%ADD14C,0.100000*%
%ADD15C,0.800000*%
%ADD16C,0.300000*%
%ADD17C,0.200000*%
G04 APERTURE END LIST*
D10*
X111750000Y-94950000D02*
X111750000Y-93350000D01*
X111800000Y-61100000D02*
X111800000Y-59500000D01*
X108750000Y-92450000D02*
X108750000Y-93350000D01*
X110300000Y-58600000D02*
X110300000Y-59500000D01*
X108750000Y-92450000D02*
X108750000Y-91750000D01*
X111800000Y-53200000D02*
X111800000Y-51600000D01*
X110300000Y-53200000D02*
X111800000Y-53200000D01*
X110300000Y-58000000D02*
X110300000Y-56400000D01*
X110250000Y-92450000D02*
X110250000Y-93350000D01*
X110300000Y-56400000D02*
X111800000Y-56400000D01*
X110250000Y-93350000D02*
X110250000Y-91750000D01*
X108800000Y-61100000D02*
X110300000Y-61100000D01*
X110250000Y-94950000D02*
X111750000Y-94950000D01*
X108750000Y-100350000D02*
X108750000Y-99650000D01*
X110250000Y-95650000D02*
X110250000Y-94950000D01*
X110300000Y-59500000D02*
X110300000Y-57900000D01*
X108800000Y-60200000D02*
X108800000Y-59500000D01*
X110300000Y-53200000D02*
X110300000Y-51600000D01*
X111800000Y-59500000D02*
X111800000Y-57900000D01*
X110300000Y-54800000D02*
X110300000Y-53200000D01*
X108750000Y-98750000D02*
X108750000Y-98050000D01*
X108750000Y-97250000D02*
X108750000Y-98150000D01*
X108800000Y-55500000D02*
X108800000Y-56400000D01*
X110300000Y-52300000D02*
X110300000Y-53200000D01*
X108750000Y-101250000D02*
X110250000Y-101250000D01*
X110250000Y-94050000D02*
X110250000Y-93350000D01*
X108800000Y-53200000D02*
X110300000Y-53200000D01*
X110250000Y-98150000D02*
X111750000Y-98150000D01*
X110300000Y-54800000D02*
X111800000Y-54800000D01*
X111800000Y-54800000D02*
X111800000Y-53200000D01*
X110300000Y-60200000D02*
X110300000Y-61100000D01*
X110300000Y-55500000D02*
X110300000Y-54800000D01*
X110250000Y-101250000D02*
X111750000Y-101250000D01*
X110300000Y-55500000D02*
X110300000Y-56400000D01*
X110250000Y-100350000D02*
X110250000Y-99650000D01*
X108750000Y-97250000D02*
X108750000Y-96550000D01*
X110250000Y-96550000D02*
X110250000Y-94950000D01*
X110250000Y-98750000D02*
X110250000Y-99650000D01*
X108750000Y-95650000D02*
X108750000Y-96550000D01*
X110300000Y-57100000D02*
X110300000Y-58000000D01*
X108750000Y-95650000D02*
X108750000Y-94950000D01*
X108800000Y-57100000D02*
X108800000Y-58000000D01*
X108750000Y-94050000D02*
X108750000Y-94950000D01*
X108800000Y-58600000D02*
X108800000Y-57900000D01*
X110250000Y-99650000D02*
X110250000Y-98050000D01*
X110250000Y-95650000D02*
X110250000Y-96550000D01*
X108800000Y-52300000D02*
X108800000Y-53200000D01*
X108750000Y-93350000D02*
X110250000Y-93350000D01*
X110300000Y-61100000D02*
X111800000Y-61100000D01*
X110250000Y-98150000D02*
X110250000Y-96550000D01*
X110300000Y-61100000D02*
X110300000Y-59500000D01*
X110300000Y-53900000D02*
X110300000Y-53200000D01*
X111750000Y-96550000D02*
X111750000Y-94950000D01*
X110250000Y-96550000D02*
X111750000Y-96550000D01*
X108750000Y-91750000D02*
X110250000Y-91750000D01*
X111750000Y-98150000D02*
X111750000Y-96550000D01*
X108750000Y-94050000D02*
X108750000Y-93350000D01*
X111750000Y-93350000D02*
X111750000Y-91750000D01*
X108800000Y-57100000D02*
X108800000Y-56400000D01*
X108800000Y-53900000D02*
X108800000Y-54800000D01*
X110250000Y-94050000D02*
X110250000Y-94950000D01*
X110250000Y-101250000D02*
X110250000Y-99650000D01*
X108800000Y-54800000D02*
X110300000Y-54800000D01*
X111750000Y-101250000D02*
X111750000Y-99650000D01*
X110300000Y-57100000D02*
X110300000Y-56400000D01*
X111800000Y-58000000D02*
X111800000Y-56400000D01*
X108750000Y-99650000D02*
X110250000Y-99650000D01*
X108800000Y-52300000D02*
X108800000Y-51600000D01*
X108750000Y-98150000D02*
X110250000Y-98150000D01*
X110250000Y-94950000D02*
X110250000Y-93350000D01*
X110300000Y-59500000D02*
X111800000Y-59500000D01*
X110250000Y-97250000D02*
X110250000Y-98150000D01*
X108750000Y-100350000D02*
X108750000Y-101250000D01*
X108750000Y-94950000D02*
X110250000Y-94950000D01*
X110250000Y-93350000D02*
X111750000Y-93350000D01*
X108800000Y-58000000D02*
X110300000Y-58000000D01*
X108800000Y-60200000D02*
X108800000Y-61100000D01*
X110300000Y-58000000D02*
X111800000Y-58000000D01*
X110300000Y-58600000D02*
X110300000Y-57900000D01*
X110300000Y-56400000D02*
X110300000Y-54800000D01*
X110300000Y-51600000D02*
X111800000Y-51600000D01*
X110250000Y-97250000D02*
X110250000Y-96550000D01*
X108750000Y-98750000D02*
X108750000Y-99650000D01*
X108750000Y-96550000D02*
X110250000Y-96550000D01*
X110250000Y-92450000D02*
X110250000Y-91750000D01*
X108800000Y-55500000D02*
X108800000Y-54800000D01*
X108800000Y-51600000D02*
X110300000Y-51600000D01*
X108800000Y-59500000D02*
X110300000Y-59500000D01*
X110250000Y-99650000D02*
X111750000Y-99650000D01*
X110250000Y-91750000D02*
X111750000Y-91750000D01*
X108800000Y-56400000D02*
X110300000Y-56400000D01*
X110300000Y-53900000D02*
X110300000Y-54800000D01*
X110250000Y-98750000D02*
X110250000Y-98050000D01*
X108800000Y-58600000D02*
X108800000Y-59500000D01*
X110300000Y-52300000D02*
X110300000Y-51600000D01*
X108800000Y-53900000D02*
X108800000Y-53200000D01*
X111800000Y-56400000D02*
X111800000Y-54800000D01*
X111750000Y-99650000D02*
X111750000Y-98050000D01*
X110300000Y-60200000D02*
X110300000Y-59500000D01*
X110250000Y-100350000D02*
X110250000Y-101250000D01*
X121880180Y-56343922D02*
X120880180Y-56677255D01*
X120880180Y-56677255D02*
X121880180Y-57010588D01*
X120880180Y-57343922D02*
X121880180Y-57343922D01*
X120880180Y-57820112D02*
X121880180Y-57820112D01*
X121880180Y-57820112D02*
X120880180Y-58391540D01*
X120880180Y-58391540D02*
X121880180Y-58391540D01*
X131077800Y-88539160D02*
X131030180Y-88682017D01*
X131030180Y-88682017D02*
X131030180Y-88920112D01*
X131030180Y-88920112D02*
X131077800Y-89015350D01*
X131077800Y-89015350D02*
X131125419Y-89062969D01*
X131125419Y-89062969D02*
X131220657Y-89110588D01*
X131220657Y-89110588D02*
X131315895Y-89110588D01*
X131315895Y-89110588D02*
X131411133Y-89062969D01*
X131411133Y-89062969D02*
X131458752Y-89015350D01*
X131458752Y-89015350D02*
X131506371Y-88920112D01*
X131506371Y-88920112D02*
X131553990Y-88729636D01*
X131553990Y-88729636D02*
X131601609Y-88634398D01*
X131601609Y-88634398D02*
X131649228Y-88586779D01*
X131649228Y-88586779D02*
X131744466Y-88539160D01*
X131744466Y-88539160D02*
X131839704Y-88539160D01*
X131839704Y-88539160D02*
X131934942Y-88586779D01*
X131934942Y-88586779D02*
X131982561Y-88634398D01*
X131982561Y-88634398D02*
X132030180Y-88729636D01*
X132030180Y-88729636D02*
X132030180Y-88967731D01*
X132030180Y-88967731D02*
X131982561Y-89110588D01*
X131030180Y-90110588D02*
X131506371Y-89777255D01*
X131030180Y-89539160D02*
X132030180Y-89539160D01*
X132030180Y-89539160D02*
X132030180Y-89920112D01*
X132030180Y-89920112D02*
X131982561Y-90015350D01*
X131982561Y-90015350D02*
X131934942Y-90062969D01*
X131934942Y-90062969D02*
X131839704Y-90110588D01*
X131839704Y-90110588D02*
X131696847Y-90110588D01*
X131696847Y-90110588D02*
X131601609Y-90062969D01*
X131601609Y-90062969D02*
X131553990Y-90015350D01*
X131553990Y-90015350D02*
X131506371Y-89920112D01*
X131506371Y-89920112D02*
X131506371Y-89539160D01*
X131125419Y-91110588D02*
X131077800Y-91062969D01*
X131077800Y-91062969D02*
X131030180Y-90920112D01*
X131030180Y-90920112D02*
X131030180Y-90824874D01*
X131030180Y-90824874D02*
X131077800Y-90682017D01*
X131077800Y-90682017D02*
X131173038Y-90586779D01*
X131173038Y-90586779D02*
X131268276Y-90539160D01*
X131268276Y-90539160D02*
X131458752Y-90491541D01*
X131458752Y-90491541D02*
X131601609Y-90491541D01*
X131601609Y-90491541D02*
X131792085Y-90539160D01*
X131792085Y-90539160D02*
X131887323Y-90586779D01*
X131887323Y-90586779D02*
X131982561Y-90682017D01*
X131982561Y-90682017D02*
X132030180Y-90824874D01*
X132030180Y-90824874D02*
X132030180Y-90920112D01*
X132030180Y-90920112D02*
X131982561Y-91062969D01*
X131982561Y-91062969D02*
X131934942Y-91110588D01*
X131030180Y-91539160D02*
X132030180Y-91539160D01*
X131030180Y-92110588D02*
X131601609Y-91682017D01*
X132030180Y-92110588D02*
X131458752Y-91539160D01*
X132030180Y-92729636D02*
X132030180Y-92920112D01*
X132030180Y-92920112D02*
X131982561Y-93015350D01*
X131982561Y-93015350D02*
X131887323Y-93110588D01*
X131887323Y-93110588D02*
X131696847Y-93158207D01*
X131696847Y-93158207D02*
X131363514Y-93158207D01*
X131363514Y-93158207D02*
X131173038Y-93110588D01*
X131173038Y-93110588D02*
X131077800Y-93015350D01*
X131077800Y-93015350D02*
X131030180Y-92920112D01*
X131030180Y-92920112D02*
X131030180Y-92729636D01*
X131030180Y-92729636D02*
X131077800Y-92634398D01*
X131077800Y-92634398D02*
X131173038Y-92539160D01*
X131173038Y-92539160D02*
X131363514Y-92491541D01*
X131363514Y-92491541D02*
X131696847Y-92491541D01*
X131696847Y-92491541D02*
X131887323Y-92539160D01*
X131887323Y-92539160D02*
X131982561Y-92634398D01*
X131982561Y-92634398D02*
X132030180Y-92729636D01*
X108969819Y-96008458D02*
X108969819Y-95389411D01*
X108969819Y-95389411D02*
X109350771Y-95722744D01*
X109350771Y-95722744D02*
X109350771Y-95579887D01*
X109350771Y-95579887D02*
X109398390Y-95484649D01*
X109398390Y-95484649D02*
X109446009Y-95437030D01*
X109446009Y-95437030D02*
X109541247Y-95389411D01*
X109541247Y-95389411D02*
X109779342Y-95389411D01*
X109779342Y-95389411D02*
X109874580Y-95437030D01*
X109874580Y-95437030D02*
X109922200Y-95484649D01*
X109922200Y-95484649D02*
X109969819Y-95579887D01*
X109969819Y-95579887D02*
X109969819Y-95865601D01*
X109969819Y-95865601D02*
X109922200Y-95960839D01*
X109922200Y-95960839D02*
X109874580Y-96008458D01*
X109353152Y-56884649D02*
X110019819Y-56884649D01*
X108972200Y-57122744D02*
X109686485Y-57360839D01*
X109686485Y-57360839D02*
X109686485Y-56741792D01*
X110469819Y-100756077D02*
X111469819Y-100422744D01*
X111469819Y-100422744D02*
X110469819Y-100089411D01*
X133677800Y-56339160D02*
X133630180Y-56482017D01*
X133630180Y-56482017D02*
X133630180Y-56720112D01*
X133630180Y-56720112D02*
X133677800Y-56815350D01*
X133677800Y-56815350D02*
X133725419Y-56862969D01*
X133725419Y-56862969D02*
X133820657Y-56910588D01*
X133820657Y-56910588D02*
X133915895Y-56910588D01*
X133915895Y-56910588D02*
X134011133Y-56862969D01*
X134011133Y-56862969D02*
X134058752Y-56815350D01*
X134058752Y-56815350D02*
X134106371Y-56720112D01*
X134106371Y-56720112D02*
X134153990Y-56529636D01*
X134153990Y-56529636D02*
X134201609Y-56434398D01*
X134201609Y-56434398D02*
X134249228Y-56386779D01*
X134249228Y-56386779D02*
X134344466Y-56339160D01*
X134344466Y-56339160D02*
X134439704Y-56339160D01*
X134439704Y-56339160D02*
X134534942Y-56386779D01*
X134534942Y-56386779D02*
X134582561Y-56434398D01*
X134582561Y-56434398D02*
X134630180Y-56529636D01*
X134630180Y-56529636D02*
X134630180Y-56767731D01*
X134630180Y-56767731D02*
X134582561Y-56910588D01*
X134153990Y-57339160D02*
X134153990Y-57672493D01*
X133630180Y-57815350D02*
X133630180Y-57339160D01*
X133630180Y-57339160D02*
X134630180Y-57339160D01*
X134630180Y-57339160D02*
X134630180Y-57815350D01*
X133630180Y-58815350D02*
X134106371Y-58482017D01*
X133630180Y-58243922D02*
X134630180Y-58243922D01*
X134630180Y-58243922D02*
X134630180Y-58624874D01*
X134630180Y-58624874D02*
X134582561Y-58720112D01*
X134582561Y-58720112D02*
X134534942Y-58767731D01*
X134534942Y-58767731D02*
X134439704Y-58815350D01*
X134439704Y-58815350D02*
X134296847Y-58815350D01*
X134296847Y-58815350D02*
X134201609Y-58767731D01*
X134201609Y-58767731D02*
X134153990Y-58720112D01*
X134153990Y-58720112D02*
X134106371Y-58624874D01*
X134106371Y-58624874D02*
X134106371Y-58243922D01*
X110898390Y-97320363D02*
X110850771Y-97415601D01*
X110850771Y-97415601D02*
X110803152Y-97463220D01*
X110803152Y-97463220D02*
X110707914Y-97510839D01*
X110707914Y-97510839D02*
X110660295Y-97510839D01*
X110660295Y-97510839D02*
X110565057Y-97463220D01*
X110565057Y-97463220D02*
X110517438Y-97415601D01*
X110517438Y-97415601D02*
X110469819Y-97320363D01*
X110469819Y-97320363D02*
X110469819Y-97129887D01*
X110469819Y-97129887D02*
X110517438Y-97034649D01*
X110517438Y-97034649D02*
X110565057Y-96987030D01*
X110565057Y-96987030D02*
X110660295Y-96939411D01*
X110660295Y-96939411D02*
X110707914Y-96939411D01*
X110707914Y-96939411D02*
X110803152Y-96987030D01*
X110803152Y-96987030D02*
X110850771Y-97034649D01*
X110850771Y-97034649D02*
X110898390Y-97129887D01*
X110898390Y-97129887D02*
X110898390Y-97320363D01*
X110898390Y-97320363D02*
X110946009Y-97415601D01*
X110946009Y-97415601D02*
X110993628Y-97463220D01*
X110993628Y-97463220D02*
X111088866Y-97510839D01*
X111088866Y-97510839D02*
X111279342Y-97510839D01*
X111279342Y-97510839D02*
X111374580Y-97463220D01*
X111374580Y-97463220D02*
X111422200Y-97415601D01*
X111422200Y-97415601D02*
X111469819Y-97320363D01*
X111469819Y-97320363D02*
X111469819Y-97129887D01*
X111469819Y-97129887D02*
X111422200Y-97034649D01*
X111422200Y-97034649D02*
X111374580Y-96987030D01*
X111374580Y-96987030D02*
X111279342Y-96939411D01*
X111279342Y-96939411D02*
X111088866Y-96939411D01*
X111088866Y-96939411D02*
X110993628Y-96987030D01*
X110993628Y-96987030D02*
X110946009Y-97034649D01*
X110946009Y-97034649D02*
X110898390Y-97129887D01*
X121580180Y-90793922D02*
X120580180Y-91127255D01*
X120580180Y-91127255D02*
X121580180Y-91460588D01*
X120580180Y-91793922D02*
X121580180Y-91793922D01*
X120580180Y-92270112D02*
X121580180Y-92270112D01*
X121580180Y-92270112D02*
X120580180Y-92841540D01*
X120580180Y-92841540D02*
X121580180Y-92841540D01*
X108969819Y-100756077D02*
X109969819Y-100422744D01*
X109969819Y-100422744D02*
X108969819Y-100089411D01*
X140119819Y-90863220D02*
X139119819Y-90863220D01*
X139119819Y-90863220D02*
X139119819Y-90482268D01*
X139119819Y-90482268D02*
X139167438Y-90387030D01*
X139167438Y-90387030D02*
X139215057Y-90339411D01*
X139215057Y-90339411D02*
X139310295Y-90291792D01*
X139310295Y-90291792D02*
X139453152Y-90291792D01*
X139453152Y-90291792D02*
X139548390Y-90339411D01*
X139548390Y-90339411D02*
X139596009Y-90387030D01*
X139596009Y-90387030D02*
X139643628Y-90482268D01*
X139643628Y-90482268D02*
X139643628Y-90863220D01*
X140119819Y-89863220D02*
X139119819Y-89863220D01*
X139119819Y-89863220D02*
X139834104Y-89529887D01*
X139834104Y-89529887D02*
X139119819Y-89196554D01*
X139119819Y-89196554D02*
X140119819Y-89196554D01*
X139119819Y-88529887D02*
X139119819Y-88339411D01*
X139119819Y-88339411D02*
X139167438Y-88244173D01*
X139167438Y-88244173D02*
X139262676Y-88148935D01*
X139262676Y-88148935D02*
X139453152Y-88101316D01*
X139453152Y-88101316D02*
X139786485Y-88101316D01*
X139786485Y-88101316D02*
X139976961Y-88148935D01*
X139976961Y-88148935D02*
X140072200Y-88244173D01*
X140072200Y-88244173D02*
X140119819Y-88339411D01*
X140119819Y-88339411D02*
X140119819Y-88529887D01*
X140119819Y-88529887D02*
X140072200Y-88625125D01*
X140072200Y-88625125D02*
X139976961Y-88720363D01*
X139976961Y-88720363D02*
X139786485Y-88767982D01*
X139786485Y-88767982D02*
X139453152Y-88767982D01*
X139453152Y-88767982D02*
X139262676Y-88720363D01*
X139262676Y-88720363D02*
X139167438Y-88625125D01*
X139167438Y-88625125D02*
X139119819Y-88529887D01*
X140119819Y-87672744D02*
X139119819Y-87672744D01*
X139119819Y-87672744D02*
X139119819Y-87434649D01*
X139119819Y-87434649D02*
X139167438Y-87291792D01*
X139167438Y-87291792D02*
X139262676Y-87196554D01*
X139262676Y-87196554D02*
X139357914Y-87148935D01*
X139357914Y-87148935D02*
X139548390Y-87101316D01*
X139548390Y-87101316D02*
X139691247Y-87101316D01*
X139691247Y-87101316D02*
X139881723Y-87148935D01*
X139881723Y-87148935D02*
X139976961Y-87196554D01*
X139976961Y-87196554D02*
X140072200Y-87291792D01*
X140072200Y-87291792D02*
X140119819Y-87434649D01*
X140119819Y-87434649D02*
X140119819Y-87672744D01*
X139215057Y-85958458D02*
X139167438Y-85910839D01*
X139167438Y-85910839D02*
X139119819Y-85815601D01*
X139119819Y-85815601D02*
X139119819Y-85577506D01*
X139119819Y-85577506D02*
X139167438Y-85482268D01*
X139167438Y-85482268D02*
X139215057Y-85434649D01*
X139215057Y-85434649D02*
X139310295Y-85387030D01*
X139310295Y-85387030D02*
X139405533Y-85387030D01*
X139405533Y-85387030D02*
X139548390Y-85434649D01*
X139548390Y-85434649D02*
X140119819Y-86006077D01*
X140119819Y-86006077D02*
X140119819Y-85387030D01*
X110517438Y-98589411D02*
X110469819Y-98684649D01*
X110469819Y-98684649D02*
X110469819Y-98827506D01*
X110469819Y-98827506D02*
X110517438Y-98970363D01*
X110517438Y-98970363D02*
X110612676Y-99065601D01*
X110612676Y-99065601D02*
X110707914Y-99113220D01*
X110707914Y-99113220D02*
X110898390Y-99160839D01*
X110898390Y-99160839D02*
X111041247Y-99160839D01*
X111041247Y-99160839D02*
X111231723Y-99113220D01*
X111231723Y-99113220D02*
X111326961Y-99065601D01*
X111326961Y-99065601D02*
X111422200Y-98970363D01*
X111422200Y-98970363D02*
X111469819Y-98827506D01*
X111469819Y-98827506D02*
X111469819Y-98732268D01*
X111469819Y-98732268D02*
X111422200Y-98589411D01*
X111422200Y-98589411D02*
X111374580Y-98541792D01*
X111374580Y-98541792D02*
X111041247Y-98541792D01*
X111041247Y-98541792D02*
X111041247Y-98732268D01*
X110948390Y-57170363D02*
X110900771Y-57265601D01*
X110900771Y-57265601D02*
X110853152Y-57313220D01*
X110853152Y-57313220D02*
X110757914Y-57360839D01*
X110757914Y-57360839D02*
X110710295Y-57360839D01*
X110710295Y-57360839D02*
X110615057Y-57313220D01*
X110615057Y-57313220D02*
X110567438Y-57265601D01*
X110567438Y-57265601D02*
X110519819Y-57170363D01*
X110519819Y-57170363D02*
X110519819Y-56979887D01*
X110519819Y-56979887D02*
X110567438Y-56884649D01*
X110567438Y-56884649D02*
X110615057Y-56837030D01*
X110615057Y-56837030D02*
X110710295Y-56789411D01*
X110710295Y-56789411D02*
X110757914Y-56789411D01*
X110757914Y-56789411D02*
X110853152Y-56837030D01*
X110853152Y-56837030D02*
X110900771Y-56884649D01*
X110900771Y-56884649D02*
X110948390Y-56979887D01*
X110948390Y-56979887D02*
X110948390Y-57170363D01*
X110948390Y-57170363D02*
X110996009Y-57265601D01*
X110996009Y-57265601D02*
X111043628Y-57313220D01*
X111043628Y-57313220D02*
X111138866Y-57360839D01*
X111138866Y-57360839D02*
X111329342Y-57360839D01*
X111329342Y-57360839D02*
X111424580Y-57313220D01*
X111424580Y-57313220D02*
X111472200Y-57265601D01*
X111472200Y-57265601D02*
X111519819Y-57170363D01*
X111519819Y-57170363D02*
X111519819Y-56979887D01*
X111519819Y-56979887D02*
X111472200Y-56884649D01*
X111472200Y-56884649D02*
X111424580Y-56837030D01*
X111424580Y-56837030D02*
X111329342Y-56789411D01*
X111329342Y-56789411D02*
X111138866Y-56789411D01*
X111138866Y-56789411D02*
X111043628Y-56837030D01*
X111043628Y-56837030D02*
X110996009Y-56884649D01*
X110996009Y-56884649D02*
X110948390Y-56979887D01*
X110519819Y-93834649D02*
X110519819Y-94025125D01*
X110519819Y-94025125D02*
X110567438Y-94120363D01*
X110567438Y-94120363D02*
X110615057Y-94167982D01*
X110615057Y-94167982D02*
X110757914Y-94263220D01*
X110757914Y-94263220D02*
X110948390Y-94310839D01*
X110948390Y-94310839D02*
X111329342Y-94310839D01*
X111329342Y-94310839D02*
X111424580Y-94263220D01*
X111424580Y-94263220D02*
X111472200Y-94215601D01*
X111472200Y-94215601D02*
X111519819Y-94120363D01*
X111519819Y-94120363D02*
X111519819Y-93929887D01*
X111519819Y-93929887D02*
X111472200Y-93834649D01*
X111472200Y-93834649D02*
X111424580Y-93787030D01*
X111424580Y-93787030D02*
X111329342Y-93739411D01*
X111329342Y-93739411D02*
X111091247Y-93739411D01*
X111091247Y-93739411D02*
X110996009Y-93787030D01*
X110996009Y-93787030D02*
X110948390Y-93834649D01*
X110948390Y-93834649D02*
X110900771Y-93929887D01*
X110900771Y-93929887D02*
X110900771Y-94120363D01*
X110900771Y-94120363D02*
X110948390Y-94215601D01*
X110948390Y-94215601D02*
X110996009Y-94263220D01*
X110996009Y-94263220D02*
X111091247Y-94310839D01*
X109303152Y-97034649D02*
X109969819Y-97034649D01*
X108922200Y-97272744D02*
X109636485Y-97510839D01*
X109636485Y-97510839D02*
X109636485Y-96891792D01*
X109019819Y-55858458D02*
X109019819Y-55239411D01*
X109019819Y-55239411D02*
X109400771Y-55572744D01*
X109400771Y-55572744D02*
X109400771Y-55429887D01*
X109400771Y-55429887D02*
X109448390Y-55334649D01*
X109448390Y-55334649D02*
X109496009Y-55287030D01*
X109496009Y-55287030D02*
X109591247Y-55239411D01*
X109591247Y-55239411D02*
X109829342Y-55239411D01*
X109829342Y-55239411D02*
X109924580Y-55287030D01*
X109924580Y-55287030D02*
X109972200Y-55334649D01*
X109972200Y-55334649D02*
X110019819Y-55429887D01*
X110019819Y-55429887D02*
X110019819Y-55715601D01*
X110019819Y-55715601D02*
X109972200Y-55810839D01*
X109972200Y-55810839D02*
X109924580Y-55858458D01*
X126091541Y-91669819D02*
X126758207Y-92669819D01*
X126758207Y-91669819D02*
X126091541Y-92669819D01*
X110519819Y-60606077D02*
X111519819Y-60272744D01*
X111519819Y-60272744D02*
X110519819Y-59939411D01*
X109165057Y-54160839D02*
X109117438Y-54113220D01*
X109117438Y-54113220D02*
X109069819Y-54017982D01*
X109069819Y-54017982D02*
X109069819Y-53779887D01*
X109069819Y-53779887D02*
X109117438Y-53684649D01*
X109117438Y-53684649D02*
X109165057Y-53637030D01*
X109165057Y-53637030D02*
X109260295Y-53589411D01*
X109260295Y-53589411D02*
X109355533Y-53589411D01*
X109355533Y-53589411D02*
X109498390Y-53637030D01*
X109498390Y-53637030D02*
X110069819Y-54208458D01*
X110069819Y-54208458D02*
X110069819Y-53589411D01*
X108019819Y-98563220D02*
X107019819Y-98563220D01*
X107019819Y-98563220D02*
X107019819Y-98182268D01*
X107019819Y-98182268D02*
X107067438Y-98087030D01*
X107067438Y-98087030D02*
X107115057Y-98039411D01*
X107115057Y-98039411D02*
X107210295Y-97991792D01*
X107210295Y-97991792D02*
X107353152Y-97991792D01*
X107353152Y-97991792D02*
X107448390Y-98039411D01*
X107448390Y-98039411D02*
X107496009Y-98087030D01*
X107496009Y-98087030D02*
X107543628Y-98182268D01*
X107543628Y-98182268D02*
X107543628Y-98563220D01*
X108019819Y-97563220D02*
X107019819Y-97563220D01*
X107019819Y-97563220D02*
X107734104Y-97229887D01*
X107734104Y-97229887D02*
X107019819Y-96896554D01*
X107019819Y-96896554D02*
X108019819Y-96896554D01*
X107019819Y-96229887D02*
X107019819Y-96039411D01*
X107019819Y-96039411D02*
X107067438Y-95944173D01*
X107067438Y-95944173D02*
X107162676Y-95848935D01*
X107162676Y-95848935D02*
X107353152Y-95801316D01*
X107353152Y-95801316D02*
X107686485Y-95801316D01*
X107686485Y-95801316D02*
X107876961Y-95848935D01*
X107876961Y-95848935D02*
X107972200Y-95944173D01*
X107972200Y-95944173D02*
X108019819Y-96039411D01*
X108019819Y-96039411D02*
X108019819Y-96229887D01*
X108019819Y-96229887D02*
X107972200Y-96325125D01*
X107972200Y-96325125D02*
X107876961Y-96420363D01*
X107876961Y-96420363D02*
X107686485Y-96467982D01*
X107686485Y-96467982D02*
X107353152Y-96467982D01*
X107353152Y-96467982D02*
X107162676Y-96420363D01*
X107162676Y-96420363D02*
X107067438Y-96325125D01*
X107067438Y-96325125D02*
X107019819Y-96229887D01*
X108019819Y-95372744D02*
X107019819Y-95372744D01*
X107019819Y-95372744D02*
X107019819Y-95134649D01*
X107019819Y-95134649D02*
X107067438Y-94991792D01*
X107067438Y-94991792D02*
X107162676Y-94896554D01*
X107162676Y-94896554D02*
X107257914Y-94848935D01*
X107257914Y-94848935D02*
X107448390Y-94801316D01*
X107448390Y-94801316D02*
X107591247Y-94801316D01*
X107591247Y-94801316D02*
X107781723Y-94848935D01*
X107781723Y-94848935D02*
X107876961Y-94896554D01*
X107876961Y-94896554D02*
X107972200Y-94991792D01*
X107972200Y-94991792D02*
X108019819Y-95134649D01*
X108019819Y-95134649D02*
X108019819Y-95372744D01*
X107115057Y-93658458D02*
X107067438Y-93610839D01*
X107067438Y-93610839D02*
X107019819Y-93515601D01*
X107019819Y-93515601D02*
X107019819Y-93277506D01*
X107019819Y-93277506D02*
X107067438Y-93182268D01*
X107067438Y-93182268D02*
X107115057Y-93134649D01*
X107115057Y-93134649D02*
X107210295Y-93087030D01*
X107210295Y-93087030D02*
X107305533Y-93087030D01*
X107305533Y-93087030D02*
X107448390Y-93134649D01*
X107448390Y-93134649D02*
X108019819Y-93706077D01*
X108019819Y-93706077D02*
X108019819Y-93087030D01*
X126091541Y-56369819D02*
X126758207Y-57369819D01*
X126758207Y-56369819D02*
X126091541Y-57369819D01*
X109115057Y-94310839D02*
X109067438Y-94263220D01*
X109067438Y-94263220D02*
X109019819Y-94167982D01*
X109019819Y-94167982D02*
X109019819Y-93929887D01*
X109019819Y-93929887D02*
X109067438Y-93834649D01*
X109067438Y-93834649D02*
X109115057Y-93787030D01*
X109115057Y-93787030D02*
X109210295Y-93739411D01*
X109210295Y-93739411D02*
X109305533Y-93739411D01*
X109305533Y-93739411D02*
X109448390Y-93787030D01*
X109448390Y-93787030D02*
X110019819Y-94358458D01*
X110019819Y-94358458D02*
X110019819Y-93739411D01*
X110567438Y-58439411D02*
X110519819Y-58534649D01*
X110519819Y-58534649D02*
X110519819Y-58677506D01*
X110519819Y-58677506D02*
X110567438Y-58820363D01*
X110567438Y-58820363D02*
X110662676Y-58915601D01*
X110662676Y-58915601D02*
X110757914Y-58963220D01*
X110757914Y-58963220D02*
X110948390Y-59010839D01*
X110948390Y-59010839D02*
X111091247Y-59010839D01*
X111091247Y-59010839D02*
X111281723Y-58963220D01*
X111281723Y-58963220D02*
X111376961Y-58915601D01*
X111376961Y-58915601D02*
X111472200Y-58820363D01*
X111472200Y-58820363D02*
X111519819Y-58677506D01*
X111519819Y-58677506D02*
X111519819Y-58582268D01*
X111519819Y-58582268D02*
X111472200Y-58439411D01*
X111472200Y-58439411D02*
X111424580Y-58391792D01*
X111424580Y-58391792D02*
X111091247Y-58391792D01*
X111091247Y-58391792D02*
X111091247Y-58582268D01*
X133627800Y-89589160D02*
X133580180Y-89732017D01*
X133580180Y-89732017D02*
X133580180Y-89970112D01*
X133580180Y-89970112D02*
X133627800Y-90065350D01*
X133627800Y-90065350D02*
X133675419Y-90112969D01*
X133675419Y-90112969D02*
X133770657Y-90160588D01*
X133770657Y-90160588D02*
X133865895Y-90160588D01*
X133865895Y-90160588D02*
X133961133Y-90112969D01*
X133961133Y-90112969D02*
X134008752Y-90065350D01*
X134008752Y-90065350D02*
X134056371Y-89970112D01*
X134056371Y-89970112D02*
X134103990Y-89779636D01*
X134103990Y-89779636D02*
X134151609Y-89684398D01*
X134151609Y-89684398D02*
X134199228Y-89636779D01*
X134199228Y-89636779D02*
X134294466Y-89589160D01*
X134294466Y-89589160D02*
X134389704Y-89589160D01*
X134389704Y-89589160D02*
X134484942Y-89636779D01*
X134484942Y-89636779D02*
X134532561Y-89684398D01*
X134532561Y-89684398D02*
X134580180Y-89779636D01*
X134580180Y-89779636D02*
X134580180Y-90017731D01*
X134580180Y-90017731D02*
X134532561Y-90160588D01*
X134103990Y-90589160D02*
X134103990Y-90922493D01*
X133580180Y-91065350D02*
X133580180Y-90589160D01*
X133580180Y-90589160D02*
X134580180Y-90589160D01*
X134580180Y-90589160D02*
X134580180Y-91065350D01*
X133580180Y-92065350D02*
X134056371Y-91732017D01*
X133580180Y-91493922D02*
X134580180Y-91493922D01*
X134580180Y-91493922D02*
X134580180Y-91874874D01*
X134580180Y-91874874D02*
X134532561Y-91970112D01*
X134532561Y-91970112D02*
X134484942Y-92017731D01*
X134484942Y-92017731D02*
X134389704Y-92065350D01*
X134389704Y-92065350D02*
X134246847Y-92065350D01*
X134246847Y-92065350D02*
X134151609Y-92017731D01*
X134151609Y-92017731D02*
X134103990Y-91970112D01*
X134103990Y-91970112D02*
X134056371Y-91874874D01*
X134056371Y-91874874D02*
X134056371Y-91493922D01*
X134580180Y-92684398D02*
X134580180Y-92874874D01*
X134580180Y-92874874D02*
X134532561Y-92970112D01*
X134532561Y-92970112D02*
X134437323Y-93065350D01*
X134437323Y-93065350D02*
X134246847Y-93112969D01*
X134246847Y-93112969D02*
X133913514Y-93112969D01*
X133913514Y-93112969D02*
X133723038Y-93065350D01*
X133723038Y-93065350D02*
X133627800Y-92970112D01*
X133627800Y-92970112D02*
X133580180Y-92874874D01*
X133580180Y-92874874D02*
X133580180Y-92684398D01*
X133580180Y-92684398D02*
X133627800Y-92589160D01*
X133627800Y-92589160D02*
X133723038Y-92493922D01*
X133723038Y-92493922D02*
X133913514Y-92446303D01*
X133913514Y-92446303D02*
X134246847Y-92446303D01*
X134246847Y-92446303D02*
X134437323Y-92493922D01*
X134437323Y-92493922D02*
X134532561Y-92589160D01*
X134532561Y-92589160D02*
X134580180Y-92684398D01*
X128380180Y-90058207D02*
X128856371Y-89724874D01*
X128380180Y-89486779D02*
X129380180Y-89486779D01*
X129380180Y-89486779D02*
X129380180Y-89867731D01*
X129380180Y-89867731D02*
X129332561Y-89962969D01*
X129332561Y-89962969D02*
X129284942Y-90010588D01*
X129284942Y-90010588D02*
X129189704Y-90058207D01*
X129189704Y-90058207D02*
X129046847Y-90058207D01*
X129046847Y-90058207D02*
X128951609Y-90010588D01*
X128951609Y-90010588D02*
X128903990Y-89962969D01*
X128903990Y-89962969D02*
X128856371Y-89867731D01*
X128856371Y-89867731D02*
X128856371Y-89486779D01*
X128475419Y-91058207D02*
X128427800Y-91010588D01*
X128427800Y-91010588D02*
X128380180Y-90867731D01*
X128380180Y-90867731D02*
X128380180Y-90772493D01*
X128380180Y-90772493D02*
X128427800Y-90629636D01*
X128427800Y-90629636D02*
X128523038Y-90534398D01*
X128523038Y-90534398D02*
X128618276Y-90486779D01*
X128618276Y-90486779D02*
X128808752Y-90439160D01*
X128808752Y-90439160D02*
X128951609Y-90439160D01*
X128951609Y-90439160D02*
X129142085Y-90486779D01*
X129142085Y-90486779D02*
X129237323Y-90534398D01*
X129237323Y-90534398D02*
X129332561Y-90629636D01*
X129332561Y-90629636D02*
X129380180Y-90772493D01*
X129380180Y-90772493D02*
X129380180Y-90867731D01*
X129380180Y-90867731D02*
X129332561Y-91010588D01*
X129332561Y-91010588D02*
X129284942Y-91058207D01*
X128380180Y-91486779D02*
X129380180Y-91486779D01*
X128380180Y-92058207D02*
X128951609Y-91629636D01*
X129380180Y-92058207D02*
X128808752Y-91486779D01*
X129380180Y-92677255D02*
X129380180Y-92867731D01*
X129380180Y-92867731D02*
X129332561Y-92962969D01*
X129332561Y-92962969D02*
X129237323Y-93058207D01*
X129237323Y-93058207D02*
X129046847Y-93105826D01*
X129046847Y-93105826D02*
X128713514Y-93105826D01*
X128713514Y-93105826D02*
X128523038Y-93058207D01*
X128523038Y-93058207D02*
X128427800Y-92962969D01*
X128427800Y-92962969D02*
X128380180Y-92867731D01*
X128380180Y-92867731D02*
X128380180Y-92677255D01*
X128380180Y-92677255D02*
X128427800Y-92582017D01*
X128427800Y-92582017D02*
X128523038Y-92486779D01*
X128523038Y-92486779D02*
X128713514Y-92439160D01*
X128713514Y-92439160D02*
X129046847Y-92439160D01*
X129046847Y-92439160D02*
X129237323Y-92486779D01*
X129237323Y-92486779D02*
X129332561Y-92582017D01*
X129332561Y-92582017D02*
X129380180Y-92677255D01*
X110019819Y-92189411D02*
X110019819Y-92760839D01*
X110019819Y-92475125D02*
X109019819Y-92475125D01*
X109019819Y-92475125D02*
X109162676Y-92570363D01*
X109162676Y-92570363D02*
X109257914Y-92665601D01*
X109257914Y-92665601D02*
X109305533Y-92760839D01*
X110469819Y-96008458D02*
X110469819Y-95341792D01*
X110469819Y-95341792D02*
X111469819Y-95770363D01*
X131177800Y-56239160D02*
X131130180Y-56382017D01*
X131130180Y-56382017D02*
X131130180Y-56620112D01*
X131130180Y-56620112D02*
X131177800Y-56715350D01*
X131177800Y-56715350D02*
X131225419Y-56762969D01*
X131225419Y-56762969D02*
X131320657Y-56810588D01*
X131320657Y-56810588D02*
X131415895Y-56810588D01*
X131415895Y-56810588D02*
X131511133Y-56762969D01*
X131511133Y-56762969D02*
X131558752Y-56715350D01*
X131558752Y-56715350D02*
X131606371Y-56620112D01*
X131606371Y-56620112D02*
X131653990Y-56429636D01*
X131653990Y-56429636D02*
X131701609Y-56334398D01*
X131701609Y-56334398D02*
X131749228Y-56286779D01*
X131749228Y-56286779D02*
X131844466Y-56239160D01*
X131844466Y-56239160D02*
X131939704Y-56239160D01*
X131939704Y-56239160D02*
X132034942Y-56286779D01*
X132034942Y-56286779D02*
X132082561Y-56334398D01*
X132082561Y-56334398D02*
X132130180Y-56429636D01*
X132130180Y-56429636D02*
X132130180Y-56667731D01*
X132130180Y-56667731D02*
X132082561Y-56810588D01*
X131130180Y-57810588D02*
X131606371Y-57477255D01*
X131130180Y-57239160D02*
X132130180Y-57239160D01*
X132130180Y-57239160D02*
X132130180Y-57620112D01*
X132130180Y-57620112D02*
X132082561Y-57715350D01*
X132082561Y-57715350D02*
X132034942Y-57762969D01*
X132034942Y-57762969D02*
X131939704Y-57810588D01*
X131939704Y-57810588D02*
X131796847Y-57810588D01*
X131796847Y-57810588D02*
X131701609Y-57762969D01*
X131701609Y-57762969D02*
X131653990Y-57715350D01*
X131653990Y-57715350D02*
X131606371Y-57620112D01*
X131606371Y-57620112D02*
X131606371Y-57239160D01*
X131225419Y-58810588D02*
X131177800Y-58762969D01*
X131177800Y-58762969D02*
X131130180Y-58620112D01*
X131130180Y-58620112D02*
X131130180Y-58524874D01*
X131130180Y-58524874D02*
X131177800Y-58382017D01*
X131177800Y-58382017D02*
X131273038Y-58286779D01*
X131273038Y-58286779D02*
X131368276Y-58239160D01*
X131368276Y-58239160D02*
X131558752Y-58191541D01*
X131558752Y-58191541D02*
X131701609Y-58191541D01*
X131701609Y-58191541D02*
X131892085Y-58239160D01*
X131892085Y-58239160D02*
X131987323Y-58286779D01*
X131987323Y-58286779D02*
X132082561Y-58382017D01*
X132082561Y-58382017D02*
X132130180Y-58524874D01*
X132130180Y-58524874D02*
X132130180Y-58620112D01*
X132130180Y-58620112D02*
X132082561Y-58762969D01*
X132082561Y-58762969D02*
X132034942Y-58810588D01*
X131130180Y-59239160D02*
X132130180Y-59239160D01*
X131130180Y-59810588D02*
X131701609Y-59382017D01*
X132130180Y-59810588D02*
X131558752Y-59239160D01*
X110519819Y-55858458D02*
X110519819Y-55191792D01*
X110519819Y-55191792D02*
X111519819Y-55620363D01*
X124382561Y-90960588D02*
X124430180Y-90865350D01*
X124430180Y-90865350D02*
X124430180Y-90722493D01*
X124430180Y-90722493D02*
X124382561Y-90579636D01*
X124382561Y-90579636D02*
X124287323Y-90484398D01*
X124287323Y-90484398D02*
X124192085Y-90436779D01*
X124192085Y-90436779D02*
X124001609Y-90389160D01*
X124001609Y-90389160D02*
X123858752Y-90389160D01*
X123858752Y-90389160D02*
X123668276Y-90436779D01*
X123668276Y-90436779D02*
X123573038Y-90484398D01*
X123573038Y-90484398D02*
X123477800Y-90579636D01*
X123477800Y-90579636D02*
X123430180Y-90722493D01*
X123430180Y-90722493D02*
X123430180Y-90817731D01*
X123430180Y-90817731D02*
X123477800Y-90960588D01*
X123477800Y-90960588D02*
X123525419Y-91008207D01*
X123525419Y-91008207D02*
X123858752Y-91008207D01*
X123858752Y-91008207D02*
X123858752Y-90817731D01*
X123430180Y-91436779D02*
X124430180Y-91436779D01*
X124430180Y-91436779D02*
X123430180Y-92008207D01*
X123430180Y-92008207D02*
X124430180Y-92008207D01*
X123430180Y-92484398D02*
X124430180Y-92484398D01*
X124430180Y-92484398D02*
X124430180Y-92722493D01*
X124430180Y-92722493D02*
X124382561Y-92865350D01*
X124382561Y-92865350D02*
X124287323Y-92960588D01*
X124287323Y-92960588D02*
X124192085Y-93008207D01*
X124192085Y-93008207D02*
X124001609Y-93055826D01*
X124001609Y-93055826D02*
X123858752Y-93055826D01*
X123858752Y-93055826D02*
X123668276Y-93008207D01*
X123668276Y-93008207D02*
X123573038Y-92960588D01*
X123573038Y-92960588D02*
X123477800Y-92865350D01*
X123477800Y-92865350D02*
X123430180Y-92722493D01*
X123430180Y-92722493D02*
X123430180Y-92484398D01*
X110569819Y-53684649D02*
X110569819Y-53875125D01*
X110569819Y-53875125D02*
X110617438Y-53970363D01*
X110617438Y-53970363D02*
X110665057Y-54017982D01*
X110665057Y-54017982D02*
X110807914Y-54113220D01*
X110807914Y-54113220D02*
X110998390Y-54160839D01*
X110998390Y-54160839D02*
X111379342Y-54160839D01*
X111379342Y-54160839D02*
X111474580Y-54113220D01*
X111474580Y-54113220D02*
X111522200Y-54065601D01*
X111522200Y-54065601D02*
X111569819Y-53970363D01*
X111569819Y-53970363D02*
X111569819Y-53779887D01*
X111569819Y-53779887D02*
X111522200Y-53684649D01*
X111522200Y-53684649D02*
X111474580Y-53637030D01*
X111474580Y-53637030D02*
X111379342Y-53589411D01*
X111379342Y-53589411D02*
X111141247Y-53589411D01*
X111141247Y-53589411D02*
X111046009Y-53637030D01*
X111046009Y-53637030D02*
X110998390Y-53684649D01*
X110998390Y-53684649D02*
X110950771Y-53779887D01*
X110950771Y-53779887D02*
X110950771Y-53970363D01*
X110950771Y-53970363D02*
X110998390Y-54065601D01*
X110998390Y-54065601D02*
X111046009Y-54113220D01*
X111046009Y-54113220D02*
X111141247Y-54160839D01*
X128380180Y-56958207D02*
X128856371Y-56624874D01*
X128380180Y-56386779D02*
X129380180Y-56386779D01*
X129380180Y-56386779D02*
X129380180Y-56767731D01*
X129380180Y-56767731D02*
X129332561Y-56862969D01*
X129332561Y-56862969D02*
X129284942Y-56910588D01*
X129284942Y-56910588D02*
X129189704Y-56958207D01*
X129189704Y-56958207D02*
X129046847Y-56958207D01*
X129046847Y-56958207D02*
X128951609Y-56910588D01*
X128951609Y-56910588D02*
X128903990Y-56862969D01*
X128903990Y-56862969D02*
X128856371Y-56767731D01*
X128856371Y-56767731D02*
X128856371Y-56386779D01*
X128475419Y-57958207D02*
X128427800Y-57910588D01*
X128427800Y-57910588D02*
X128380180Y-57767731D01*
X128380180Y-57767731D02*
X128380180Y-57672493D01*
X128380180Y-57672493D02*
X128427800Y-57529636D01*
X128427800Y-57529636D02*
X128523038Y-57434398D01*
X128523038Y-57434398D02*
X128618276Y-57386779D01*
X128618276Y-57386779D02*
X128808752Y-57339160D01*
X128808752Y-57339160D02*
X128951609Y-57339160D01*
X128951609Y-57339160D02*
X129142085Y-57386779D01*
X129142085Y-57386779D02*
X129237323Y-57434398D01*
X129237323Y-57434398D02*
X129332561Y-57529636D01*
X129332561Y-57529636D02*
X129380180Y-57672493D01*
X129380180Y-57672493D02*
X129380180Y-57767731D01*
X129380180Y-57767731D02*
X129332561Y-57910588D01*
X129332561Y-57910588D02*
X129284942Y-57958207D01*
X128380180Y-58386779D02*
X129380180Y-58386779D01*
X128380180Y-58958207D02*
X128951609Y-58529636D01*
X129380180Y-58958207D02*
X128808752Y-58386779D01*
X110569819Y-52087030D02*
X110569819Y-52563220D01*
X110569819Y-52563220D02*
X111046009Y-52610839D01*
X111046009Y-52610839D02*
X110998390Y-52563220D01*
X110998390Y-52563220D02*
X110950771Y-52467982D01*
X110950771Y-52467982D02*
X110950771Y-52229887D01*
X110950771Y-52229887D02*
X110998390Y-52134649D01*
X110998390Y-52134649D02*
X111046009Y-52087030D01*
X111046009Y-52087030D02*
X111141247Y-52039411D01*
X111141247Y-52039411D02*
X111379342Y-52039411D01*
X111379342Y-52039411D02*
X111474580Y-52087030D01*
X111474580Y-52087030D02*
X111522200Y-52134649D01*
X111522200Y-52134649D02*
X111569819Y-52229887D01*
X111569819Y-52229887D02*
X111569819Y-52467982D01*
X111569819Y-52467982D02*
X111522200Y-52563220D01*
X111522200Y-52563220D02*
X111474580Y-52610839D01*
X110519819Y-92237030D02*
X110519819Y-92713220D01*
X110519819Y-92713220D02*
X110996009Y-92760839D01*
X110996009Y-92760839D02*
X110948390Y-92713220D01*
X110948390Y-92713220D02*
X110900771Y-92617982D01*
X110900771Y-92617982D02*
X110900771Y-92379887D01*
X110900771Y-92379887D02*
X110948390Y-92284649D01*
X110948390Y-92284649D02*
X110996009Y-92237030D01*
X110996009Y-92237030D02*
X111091247Y-92189411D01*
X111091247Y-92189411D02*
X111329342Y-92189411D01*
X111329342Y-92189411D02*
X111424580Y-92237030D01*
X111424580Y-92237030D02*
X111472200Y-92284649D01*
X111472200Y-92284649D02*
X111519819Y-92379887D01*
X111519819Y-92379887D02*
X111519819Y-92617982D01*
X111519819Y-92617982D02*
X111472200Y-92713220D01*
X111472200Y-92713220D02*
X111424580Y-92760839D01*
X124532561Y-56860588D02*
X124580180Y-56765350D01*
X124580180Y-56765350D02*
X124580180Y-56622493D01*
X124580180Y-56622493D02*
X124532561Y-56479636D01*
X124532561Y-56479636D02*
X124437323Y-56384398D01*
X124437323Y-56384398D02*
X124342085Y-56336779D01*
X124342085Y-56336779D02*
X124151609Y-56289160D01*
X124151609Y-56289160D02*
X124008752Y-56289160D01*
X124008752Y-56289160D02*
X123818276Y-56336779D01*
X123818276Y-56336779D02*
X123723038Y-56384398D01*
X123723038Y-56384398D02*
X123627800Y-56479636D01*
X123627800Y-56479636D02*
X123580180Y-56622493D01*
X123580180Y-56622493D02*
X123580180Y-56717731D01*
X123580180Y-56717731D02*
X123627800Y-56860588D01*
X123627800Y-56860588D02*
X123675419Y-56908207D01*
X123675419Y-56908207D02*
X124008752Y-56908207D01*
X124008752Y-56908207D02*
X124008752Y-56717731D01*
X123580180Y-57336779D02*
X124580180Y-57336779D01*
X124580180Y-57336779D02*
X123580180Y-57908207D01*
X123580180Y-57908207D02*
X124580180Y-57908207D01*
X123580180Y-58384398D02*
X124580180Y-58384398D01*
X124580180Y-58384398D02*
X124580180Y-58622493D01*
X124580180Y-58622493D02*
X124532561Y-58765350D01*
X124532561Y-58765350D02*
X124437323Y-58860588D01*
X124437323Y-58860588D02*
X124342085Y-58908207D01*
X124342085Y-58908207D02*
X124151609Y-58955826D01*
X124151609Y-58955826D02*
X124008752Y-58955826D01*
X124008752Y-58955826D02*
X123818276Y-58908207D01*
X123818276Y-58908207D02*
X123723038Y-58860588D01*
X123723038Y-58860588D02*
X123627800Y-58765350D01*
X123627800Y-58765350D02*
X123580180Y-58622493D01*
X123580180Y-58622493D02*
X123580180Y-58384398D01*
X110069819Y-52039411D02*
X110069819Y-52610839D01*
X110069819Y-52325125D02*
X109069819Y-52325125D01*
X109069819Y-52325125D02*
X109212676Y-52420363D01*
X109212676Y-52420363D02*
X109307914Y-52515601D01*
X109307914Y-52515601D02*
X109355533Y-52610839D01*
X109067438Y-58439411D02*
X109019819Y-58534649D01*
X109019819Y-58534649D02*
X109019819Y-58677506D01*
X109019819Y-58677506D02*
X109067438Y-58820363D01*
X109067438Y-58820363D02*
X109162676Y-58915601D01*
X109162676Y-58915601D02*
X109257914Y-58963220D01*
X109257914Y-58963220D02*
X109448390Y-59010839D01*
X109448390Y-59010839D02*
X109591247Y-59010839D01*
X109591247Y-59010839D02*
X109781723Y-58963220D01*
X109781723Y-58963220D02*
X109876961Y-58915601D01*
X109876961Y-58915601D02*
X109972200Y-58820363D01*
X109972200Y-58820363D02*
X110019819Y-58677506D01*
X110019819Y-58677506D02*
X110019819Y-58582268D01*
X110019819Y-58582268D02*
X109972200Y-58439411D01*
X109972200Y-58439411D02*
X109924580Y-58391792D01*
X109924580Y-58391792D02*
X109591247Y-58391792D01*
X109591247Y-58391792D02*
X109591247Y-58582268D01*
X109019819Y-60606077D02*
X110019819Y-60272744D01*
X110019819Y-60272744D02*
X109019819Y-59939411D01*
X140119819Y-68363220D02*
X139119819Y-68363220D01*
X139119819Y-68363220D02*
X139119819Y-67982268D01*
X139119819Y-67982268D02*
X139167438Y-67887030D01*
X139167438Y-67887030D02*
X139215057Y-67839411D01*
X139215057Y-67839411D02*
X139310295Y-67791792D01*
X139310295Y-67791792D02*
X139453152Y-67791792D01*
X139453152Y-67791792D02*
X139548390Y-67839411D01*
X139548390Y-67839411D02*
X139596009Y-67887030D01*
X139596009Y-67887030D02*
X139643628Y-67982268D01*
X139643628Y-67982268D02*
X139643628Y-68363220D01*
X140119819Y-67363220D02*
X139119819Y-67363220D01*
X139119819Y-67363220D02*
X139834104Y-67029887D01*
X139834104Y-67029887D02*
X139119819Y-66696554D01*
X139119819Y-66696554D02*
X140119819Y-66696554D01*
X139119819Y-66029887D02*
X139119819Y-65839411D01*
X139119819Y-65839411D02*
X139167438Y-65744173D01*
X139167438Y-65744173D02*
X139262676Y-65648935D01*
X139262676Y-65648935D02*
X139453152Y-65601316D01*
X139453152Y-65601316D02*
X139786485Y-65601316D01*
X139786485Y-65601316D02*
X139976961Y-65648935D01*
X139976961Y-65648935D02*
X140072200Y-65744173D01*
X140072200Y-65744173D02*
X140119819Y-65839411D01*
X140119819Y-65839411D02*
X140119819Y-66029887D01*
X140119819Y-66029887D02*
X140072200Y-66125125D01*
X140072200Y-66125125D02*
X139976961Y-66220363D01*
X139976961Y-66220363D02*
X139786485Y-66267982D01*
X139786485Y-66267982D02*
X139453152Y-66267982D01*
X139453152Y-66267982D02*
X139262676Y-66220363D01*
X139262676Y-66220363D02*
X139167438Y-66125125D01*
X139167438Y-66125125D02*
X139119819Y-66029887D01*
X140119819Y-65172744D02*
X139119819Y-65172744D01*
X139119819Y-65172744D02*
X139119819Y-64934649D01*
X139119819Y-64934649D02*
X139167438Y-64791792D01*
X139167438Y-64791792D02*
X139262676Y-64696554D01*
X139262676Y-64696554D02*
X139357914Y-64648935D01*
X139357914Y-64648935D02*
X139548390Y-64601316D01*
X139548390Y-64601316D02*
X139691247Y-64601316D01*
X139691247Y-64601316D02*
X139881723Y-64648935D01*
X139881723Y-64648935D02*
X139976961Y-64696554D01*
X139976961Y-64696554D02*
X140072200Y-64791792D01*
X140072200Y-64791792D02*
X140119819Y-64934649D01*
X140119819Y-64934649D02*
X140119819Y-65172744D01*
X140119819Y-62887030D02*
X140119819Y-63458458D01*
X140119819Y-63172744D02*
X139119819Y-63172744D01*
X139119819Y-63172744D02*
X139262676Y-63267982D01*
X139262676Y-63267982D02*
X139357914Y-63363220D01*
X139357914Y-63363220D02*
X139405533Y-63458458D01*
X109017438Y-98589411D02*
X108969819Y-98684649D01*
X108969819Y-98684649D02*
X108969819Y-98827506D01*
X108969819Y-98827506D02*
X109017438Y-98970363D01*
X109017438Y-98970363D02*
X109112676Y-99065601D01*
X109112676Y-99065601D02*
X109207914Y-99113220D01*
X109207914Y-99113220D02*
X109398390Y-99160839D01*
X109398390Y-99160839D02*
X109541247Y-99160839D01*
X109541247Y-99160839D02*
X109731723Y-99113220D01*
X109731723Y-99113220D02*
X109826961Y-99065601D01*
X109826961Y-99065601D02*
X109922200Y-98970363D01*
X109922200Y-98970363D02*
X109969819Y-98827506D01*
X109969819Y-98827506D02*
X109969819Y-98732268D01*
X109969819Y-98732268D02*
X109922200Y-98589411D01*
X109922200Y-98589411D02*
X109874580Y-98541792D01*
X109874580Y-98541792D02*
X109541247Y-98541792D01*
X109541247Y-98541792D02*
X109541247Y-98732268D01*
X108069819Y-58413220D02*
X107069819Y-58413220D01*
X107069819Y-58413220D02*
X107069819Y-58032268D01*
X107069819Y-58032268D02*
X107117438Y-57937030D01*
X107117438Y-57937030D02*
X107165057Y-57889411D01*
X107165057Y-57889411D02*
X107260295Y-57841792D01*
X107260295Y-57841792D02*
X107403152Y-57841792D01*
X107403152Y-57841792D02*
X107498390Y-57889411D01*
X107498390Y-57889411D02*
X107546009Y-57937030D01*
X107546009Y-57937030D02*
X107593628Y-58032268D01*
X107593628Y-58032268D02*
X107593628Y-58413220D01*
X108069819Y-57413220D02*
X107069819Y-57413220D01*
X107069819Y-57413220D02*
X107784104Y-57079887D01*
X107784104Y-57079887D02*
X107069819Y-56746554D01*
X107069819Y-56746554D02*
X108069819Y-56746554D01*
X107069819Y-56079887D02*
X107069819Y-55889411D01*
X107069819Y-55889411D02*
X107117438Y-55794173D01*
X107117438Y-55794173D02*
X107212676Y-55698935D01*
X107212676Y-55698935D02*
X107403152Y-55651316D01*
X107403152Y-55651316D02*
X107736485Y-55651316D01*
X107736485Y-55651316D02*
X107926961Y-55698935D01*
X107926961Y-55698935D02*
X108022200Y-55794173D01*
X108022200Y-55794173D02*
X108069819Y-55889411D01*
X108069819Y-55889411D02*
X108069819Y-56079887D01*
X108069819Y-56079887D02*
X108022200Y-56175125D01*
X108022200Y-56175125D02*
X107926961Y-56270363D01*
X107926961Y-56270363D02*
X107736485Y-56317982D01*
X107736485Y-56317982D02*
X107403152Y-56317982D01*
X107403152Y-56317982D02*
X107212676Y-56270363D01*
X107212676Y-56270363D02*
X107117438Y-56175125D01*
X107117438Y-56175125D02*
X107069819Y-56079887D01*
X108069819Y-55222744D02*
X107069819Y-55222744D01*
X107069819Y-55222744D02*
X107069819Y-54984649D01*
X107069819Y-54984649D02*
X107117438Y-54841792D01*
X107117438Y-54841792D02*
X107212676Y-54746554D01*
X107212676Y-54746554D02*
X107307914Y-54698935D01*
X107307914Y-54698935D02*
X107498390Y-54651316D01*
X107498390Y-54651316D02*
X107641247Y-54651316D01*
X107641247Y-54651316D02*
X107831723Y-54698935D01*
X107831723Y-54698935D02*
X107926961Y-54746554D01*
X107926961Y-54746554D02*
X108022200Y-54841792D01*
X108022200Y-54841792D02*
X108069819Y-54984649D01*
X108069819Y-54984649D02*
X108069819Y-55222744D01*
X108069819Y-52937030D02*
X108069819Y-53508458D01*
X108069819Y-53222744D02*
X107069819Y-53222744D01*
X107069819Y-53222744D02*
X107212676Y-53317982D01*
X107212676Y-53317982D02*
X107307914Y-53413220D01*
X107307914Y-53413220D02*
X107355533Y-53508458D01*
X117733333Y-61609580D02*
X117685714Y-61657200D01*
X117685714Y-61657200D02*
X117542857Y-61704819D01*
X117542857Y-61704819D02*
X117447619Y-61704819D01*
X117447619Y-61704819D02*
X117304762Y-61657200D01*
X117304762Y-61657200D02*
X117209524Y-61561961D01*
X117209524Y-61561961D02*
X117161905Y-61466723D01*
X117161905Y-61466723D02*
X117114286Y-61276247D01*
X117114286Y-61276247D02*
X117114286Y-61133390D01*
X117114286Y-61133390D02*
X117161905Y-60942914D01*
X117161905Y-60942914D02*
X117209524Y-60847676D01*
X117209524Y-60847676D02*
X117304762Y-60752438D01*
X117304762Y-60752438D02*
X117447619Y-60704819D01*
X117447619Y-60704819D02*
X117542857Y-60704819D01*
X117542857Y-60704819D02*
X117685714Y-60752438D01*
X117685714Y-60752438D02*
X117733333Y-60800057D01*
X118685714Y-61704819D02*
X118114286Y-61704819D01*
X118400000Y-61704819D02*
X118400000Y-60704819D01*
X118400000Y-60704819D02*
X118304762Y-60847676D01*
X118304762Y-60847676D02*
X118209524Y-60942914D01*
X118209524Y-60942914D02*
X118114286Y-60990533D01*
X115254819Y-73861904D02*
X116064342Y-73861904D01*
X116064342Y-73861904D02*
X116159580Y-73814285D01*
X116159580Y-73814285D02*
X116207200Y-73766666D01*
X116207200Y-73766666D02*
X116254819Y-73671428D01*
X116254819Y-73671428D02*
X116254819Y-73480952D01*
X116254819Y-73480952D02*
X116207200Y-73385714D01*
X116207200Y-73385714D02*
X116159580Y-73338095D01*
X116159580Y-73338095D02*
X116064342Y-73290476D01*
X116064342Y-73290476D02*
X115254819Y-73290476D01*
X116254819Y-72290476D02*
X116254819Y-72861904D01*
X116254819Y-72576190D02*
X115254819Y-72576190D01*
X115254819Y-72576190D02*
X115397676Y-72671428D01*
X115397676Y-72671428D02*
X115492914Y-72766666D01*
X115492914Y-72766666D02*
X115540533Y-72861904D01*
X112554819Y-83661904D02*
X113364342Y-83661904D01*
X113364342Y-83661904D02*
X113459580Y-83614285D01*
X113459580Y-83614285D02*
X113507200Y-83566666D01*
X113507200Y-83566666D02*
X113554819Y-83471428D01*
X113554819Y-83471428D02*
X113554819Y-83280952D01*
X113554819Y-83280952D02*
X113507200Y-83185714D01*
X113507200Y-83185714D02*
X113459580Y-83138095D01*
X113459580Y-83138095D02*
X113364342Y-83090476D01*
X113364342Y-83090476D02*
X112554819Y-83090476D01*
X112554819Y-82709523D02*
X112554819Y-82090476D01*
X112554819Y-82090476D02*
X112935771Y-82423809D01*
X112935771Y-82423809D02*
X112935771Y-82280952D01*
X112935771Y-82280952D02*
X112983390Y-82185714D01*
X112983390Y-82185714D02*
X113031009Y-82138095D01*
X113031009Y-82138095D02*
X113126247Y-82090476D01*
X113126247Y-82090476D02*
X113364342Y-82090476D01*
X113364342Y-82090476D02*
X113459580Y-82138095D01*
X113459580Y-82138095D02*
X113507200Y-82185714D01*
X113507200Y-82185714D02*
X113554819Y-82280952D01*
X113554819Y-82280952D02*
X113554819Y-82566666D01*
X113554819Y-82566666D02*
X113507200Y-82661904D01*
X113507200Y-82661904D02*
X113459580Y-82709523D01*
X118154819Y-99713333D02*
X118869104Y-99713333D01*
X118869104Y-99713333D02*
X119011961Y-99760952D01*
X119011961Y-99760952D02*
X119107200Y-99856190D01*
X119107200Y-99856190D02*
X119154819Y-99999047D01*
X119154819Y-99999047D02*
X119154819Y-100094285D01*
X118488152Y-98808571D02*
X119154819Y-98808571D01*
X118107200Y-99046666D02*
X118821485Y-99284761D01*
X118821485Y-99284761D02*
X118821485Y-98665714D01*
X107433333Y-89659580D02*
X107385714Y-89707200D01*
X107385714Y-89707200D02*
X107242857Y-89754819D01*
X107242857Y-89754819D02*
X107147619Y-89754819D01*
X107147619Y-89754819D02*
X107004762Y-89707200D01*
X107004762Y-89707200D02*
X106909524Y-89611961D01*
X106909524Y-89611961D02*
X106861905Y-89516723D01*
X106861905Y-89516723D02*
X106814286Y-89326247D01*
X106814286Y-89326247D02*
X106814286Y-89183390D01*
X106814286Y-89183390D02*
X106861905Y-88992914D01*
X106861905Y-88992914D02*
X106909524Y-88897676D01*
X106909524Y-88897676D02*
X107004762Y-88802438D01*
X107004762Y-88802438D02*
X107147619Y-88754819D01*
X107147619Y-88754819D02*
X107242857Y-88754819D01*
X107242857Y-88754819D02*
X107385714Y-88802438D01*
X107385714Y-88802438D02*
X107433333Y-88850057D01*
X107766667Y-88754819D02*
X108385714Y-88754819D01*
X108385714Y-88754819D02*
X108052381Y-89135771D01*
X108052381Y-89135771D02*
X108195238Y-89135771D01*
X108195238Y-89135771D02*
X108290476Y-89183390D01*
X108290476Y-89183390D02*
X108338095Y-89231009D01*
X108338095Y-89231009D02*
X108385714Y-89326247D01*
X108385714Y-89326247D02*
X108385714Y-89564342D01*
X108385714Y-89564342D02*
X108338095Y-89659580D01*
X108338095Y-89659580D02*
X108290476Y-89707200D01*
X108290476Y-89707200D02*
X108195238Y-89754819D01*
X108195238Y-89754819D02*
X107909524Y-89754819D01*
X107909524Y-89754819D02*
X107814286Y-89707200D01*
X107814286Y-89707200D02*
X107766667Y-89659580D01*
X114759580Y-64466666D02*
X114807200Y-64514285D01*
X114807200Y-64514285D02*
X114854819Y-64657142D01*
X114854819Y-64657142D02*
X114854819Y-64752380D01*
X114854819Y-64752380D02*
X114807200Y-64895237D01*
X114807200Y-64895237D02*
X114711961Y-64990475D01*
X114711961Y-64990475D02*
X114616723Y-65038094D01*
X114616723Y-65038094D02*
X114426247Y-65085713D01*
X114426247Y-65085713D02*
X114283390Y-65085713D01*
X114283390Y-65085713D02*
X114092914Y-65038094D01*
X114092914Y-65038094D02*
X113997676Y-64990475D01*
X113997676Y-64990475D02*
X113902438Y-64895237D01*
X113902438Y-64895237D02*
X113854819Y-64752380D01*
X113854819Y-64752380D02*
X113854819Y-64657142D01*
X113854819Y-64657142D02*
X113902438Y-64514285D01*
X113902438Y-64514285D02*
X113950057Y-64466666D01*
X113950057Y-64085713D02*
X113902438Y-64038094D01*
X113902438Y-64038094D02*
X113854819Y-63942856D01*
X113854819Y-63942856D02*
X113854819Y-63704761D01*
X113854819Y-63704761D02*
X113902438Y-63609523D01*
X113902438Y-63609523D02*
X113950057Y-63561904D01*
X113950057Y-63561904D02*
X114045295Y-63514285D01*
X114045295Y-63514285D02*
X114140533Y-63514285D01*
X114140533Y-63514285D02*
X114283390Y-63561904D01*
X114283390Y-63561904D02*
X114854819Y-64133332D01*
X114854819Y-64133332D02*
X114854819Y-63514285D01*
X117954819Y-53733333D02*
X118669104Y-53733333D01*
X118669104Y-53733333D02*
X118811961Y-53780952D01*
X118811961Y-53780952D02*
X118907200Y-53876190D01*
X118907200Y-53876190D02*
X118954819Y-54019047D01*
X118954819Y-54019047D02*
X118954819Y-54114285D01*
X117954819Y-53352380D02*
X117954819Y-52733333D01*
X117954819Y-52733333D02*
X118335771Y-53066666D01*
X118335771Y-53066666D02*
X118335771Y-52923809D01*
X118335771Y-52923809D02*
X118383390Y-52828571D01*
X118383390Y-52828571D02*
X118431009Y-52780952D01*
X118431009Y-52780952D02*
X118526247Y-52733333D01*
X118526247Y-52733333D02*
X118764342Y-52733333D01*
X118764342Y-52733333D02*
X118859580Y-52780952D01*
X118859580Y-52780952D02*
X118907200Y-52828571D01*
X118907200Y-52828571D02*
X118954819Y-52923809D01*
X118954819Y-52923809D02*
X118954819Y-53209523D01*
X118954819Y-53209523D02*
X118907200Y-53304761D01*
X118907200Y-53304761D02*
X118859580Y-53352380D01*
D11*
X150004318Y-89273332D02*
X150911461Y-89273332D01*
X150911461Y-89273332D02*
X151092889Y-89333809D01*
X151092889Y-89333809D02*
X151213842Y-89454761D01*
X151213842Y-89454761D02*
X151274318Y-89636190D01*
X151274318Y-89636190D02*
X151274318Y-89757142D01*
X150125270Y-88729047D02*
X150064794Y-88668571D01*
X150064794Y-88668571D02*
X150004318Y-88547618D01*
X150004318Y-88547618D02*
X150004318Y-88245237D01*
X150004318Y-88245237D02*
X150064794Y-88124285D01*
X150064794Y-88124285D02*
X150125270Y-88063809D01*
X150125270Y-88063809D02*
X150246222Y-88003332D01*
X150246222Y-88003332D02*
X150367175Y-88003332D01*
X150367175Y-88003332D02*
X150548603Y-88063809D01*
X150548603Y-88063809D02*
X151274318Y-88789523D01*
X151274318Y-88789523D02*
X151274318Y-88003332D01*
D10*
X115254819Y-86461904D02*
X116064342Y-86461904D01*
X116064342Y-86461904D02*
X116159580Y-86414285D01*
X116159580Y-86414285D02*
X116207200Y-86366666D01*
X116207200Y-86366666D02*
X116254819Y-86271428D01*
X116254819Y-86271428D02*
X116254819Y-86080952D01*
X116254819Y-86080952D02*
X116207200Y-85985714D01*
X116207200Y-85985714D02*
X116159580Y-85938095D01*
X116159580Y-85938095D02*
X116064342Y-85890476D01*
X116064342Y-85890476D02*
X115254819Y-85890476D01*
X115350057Y-85461904D02*
X115302438Y-85414285D01*
X115302438Y-85414285D02*
X115254819Y-85319047D01*
X115254819Y-85319047D02*
X115254819Y-85080952D01*
X115254819Y-85080952D02*
X115302438Y-84985714D01*
X115302438Y-84985714D02*
X115350057Y-84938095D01*
X115350057Y-84938095D02*
X115445295Y-84890476D01*
X115445295Y-84890476D02*
X115540533Y-84890476D01*
X115540533Y-84890476D02*
X115683390Y-84938095D01*
X115683390Y-84938095D02*
X116254819Y-85509523D01*
X116254819Y-85509523D02*
X116254819Y-84890476D01*
D11*
X150004318Y-66413332D02*
X150911461Y-66413332D01*
X150911461Y-66413332D02*
X151092889Y-66473809D01*
X151092889Y-66473809D02*
X151213842Y-66594761D01*
X151213842Y-66594761D02*
X151274318Y-66776190D01*
X151274318Y-66776190D02*
X151274318Y-66897142D01*
X151274318Y-65143332D02*
X151274318Y-65869047D01*
X151274318Y-65506190D02*
X150004318Y-65506190D01*
X150004318Y-65506190D02*
X150185746Y-65627142D01*
X150185746Y-65627142D02*
X150306699Y-65748094D01*
X150306699Y-65748094D02*
X150367175Y-65869047D01*
D12*
%TO.C,C1*%
X120530000Y-60230000D02*
X120530000Y-60245000D01*
X120530000Y-60230000D02*
X125070000Y-60230000D01*
X120530000Y-62355000D02*
X120530000Y-62370000D01*
X120530000Y-62370000D02*
X125070000Y-62370000D01*
X125070000Y-60230000D02*
X125070000Y-60245000D01*
X125070000Y-62355000D02*
X125070000Y-62370000D01*
%TO.C,U1*%
X116395000Y-67065000D02*
X116395000Y-68315000D01*
X116395000Y-70315000D02*
X116395000Y-71565000D01*
X116395000Y-71565000D02*
X136835000Y-71565000D01*
X136835000Y-67065000D02*
X116395000Y-67065000D01*
X136835000Y-71565000D02*
X136835000Y-67065000D01*
X116395000Y-68315000D02*
G75*
G02*
X116395000Y-70315000I0J-1000000D01*
G01*
%TO.C,U3*%
X104840000Y-66210000D02*
X104840000Y-84110000D01*
X104840000Y-84110000D02*
X106490000Y-84110000D01*
X108490000Y-84110000D02*
X110140000Y-84110000D01*
X110140000Y-66210000D02*
X104840000Y-66210000D01*
X110140000Y-84110000D02*
X110140000Y-66210000D01*
X106490000Y-84110000D02*
G75*
G02*
X108490000Y-84110000I1000000J0D01*
G01*
%TO.C,J4*%
X120140000Y-93890000D02*
X121470000Y-93890000D01*
X120140000Y-95000000D02*
X120140000Y-93890000D01*
X120140000Y-96460000D02*
X135500000Y-96460000D01*
X120140000Y-105090000D02*
X120140000Y-96460000D01*
X120140000Y-105090000D02*
X135500000Y-105090000D01*
X120260000Y-105090000D02*
X120260000Y-96460000D01*
X120378095Y-105090000D02*
X120378095Y-96460000D01*
X120496190Y-105090000D02*
X120496190Y-96460000D01*
X120614285Y-105090000D02*
X120614285Y-96460000D01*
X120732380Y-105090000D02*
X120732380Y-96460000D01*
X120850475Y-105090000D02*
X120850475Y-96460000D01*
X120968570Y-105090000D02*
X120968570Y-96460000D01*
X121086665Y-105090000D02*
X121086665Y-96460000D01*
X121110000Y-96460000D02*
X121110000Y-96110000D01*
X121204760Y-105090000D02*
X121204760Y-96460000D01*
X121322855Y-105090000D02*
X121322855Y-96460000D01*
X121440950Y-105090000D02*
X121440950Y-96460000D01*
X121559045Y-105090000D02*
X121559045Y-96460000D01*
X121677140Y-105090000D02*
X121677140Y-96460000D01*
X121795235Y-105090000D02*
X121795235Y-96460000D01*
X121830000Y-96460000D02*
X121830000Y-96110000D01*
X121913330Y-105090000D02*
X121913330Y-96460000D01*
X122031425Y-105090000D02*
X122031425Y-96460000D01*
X122149520Y-105090000D02*
X122149520Y-96460000D01*
X122267615Y-105090000D02*
X122267615Y-96460000D01*
X122385710Y-105090000D02*
X122385710Y-96460000D01*
X122503805Y-105090000D02*
X122503805Y-96460000D01*
X122621900Y-105090000D02*
X122621900Y-96460000D01*
X122740000Y-105090000D02*
X122740000Y-96460000D01*
X123650000Y-96460000D02*
X123650000Y-96050000D01*
X124370000Y-96460000D02*
X124370000Y-96050000D01*
X125280000Y-105090000D02*
X125280000Y-96460000D01*
X126190000Y-96460000D02*
X126190000Y-96050000D01*
X126910000Y-96460000D02*
X126910000Y-96050000D01*
X127820000Y-105090000D02*
X127820000Y-96460000D01*
X128730000Y-96460000D02*
X128730000Y-96050000D01*
X129450000Y-96460000D02*
X129450000Y-96050000D01*
X130360000Y-105090000D02*
X130360000Y-96460000D01*
X131270000Y-96460000D02*
X131270000Y-96050000D01*
X131990000Y-96460000D02*
X131990000Y-96050000D01*
X132900000Y-105090000D02*
X132900000Y-96460000D01*
X133810000Y-96460000D02*
X133810000Y-96050000D01*
X134530000Y-96460000D02*
X134530000Y-96050000D01*
X135500000Y-105090000D02*
X135500000Y-96460000D01*
%TO.C,C3*%
X105530000Y-86030000D02*
X105530000Y-86045000D01*
X105530000Y-86030000D02*
X110070000Y-86030000D01*
X105530000Y-88155000D02*
X105530000Y-88170000D01*
X105530000Y-88170000D02*
X110070000Y-88170000D01*
X110070000Y-86030000D02*
X110070000Y-86045000D01*
X110070000Y-88155000D02*
X110070000Y-88170000D01*
%TO.C,C2*%
X113430000Y-66830000D02*
X113445000Y-66830000D01*
X113430000Y-71370000D02*
X113430000Y-66830000D01*
X113430000Y-71370000D02*
X113445000Y-71370000D01*
X115555000Y-66830000D02*
X115570000Y-66830000D01*
X115555000Y-71370000D02*
X115570000Y-71370000D01*
X115570000Y-71370000D02*
X115570000Y-66830000D01*
%TO.C,J3*%
X120140000Y-49580000D02*
X120140000Y-52240000D01*
X120140000Y-52240000D02*
X135500000Y-52240000D01*
X120200000Y-54950000D02*
X120200000Y-53680000D01*
X121090000Y-43580000D02*
X121850000Y-43580000D01*
X121090000Y-49580000D02*
X121090000Y-43580000D01*
X121090000Y-52570000D02*
X121090000Y-52240000D01*
X121150000Y-49580000D02*
X121150000Y-43580000D01*
X121270000Y-49580000D02*
X121270000Y-43580000D01*
X121390000Y-49580000D02*
X121390000Y-43580000D01*
X121470000Y-54950000D02*
X120200000Y-54950000D01*
X121510000Y-49580000D02*
X121510000Y-43580000D01*
X121630000Y-49580000D02*
X121630000Y-43580000D01*
X121750000Y-49580000D02*
X121750000Y-43580000D01*
X121850000Y-43580000D02*
X121850000Y-49580000D01*
X121850000Y-52570000D02*
X121850000Y-52240000D01*
X122740000Y-52240000D02*
X122740000Y-49580000D01*
X123630000Y-43580000D02*
X124390000Y-43580000D01*
X123630000Y-49580000D02*
X123630000Y-43580000D01*
X123630000Y-52637071D02*
X123630000Y-52240000D01*
X124390000Y-43580000D02*
X124390000Y-49580000D01*
X124390000Y-52637071D02*
X124390000Y-52240000D01*
X125280000Y-52240000D02*
X125280000Y-49580000D01*
X126170000Y-43580000D02*
X126930000Y-43580000D01*
X126170000Y-49580000D02*
X126170000Y-43580000D01*
X126170000Y-52637071D02*
X126170000Y-52240000D01*
X126930000Y-43580000D02*
X126930000Y-49580000D01*
X126930000Y-52637071D02*
X126930000Y-52240000D01*
X127820000Y-52240000D02*
X127820000Y-49580000D01*
X128710000Y-43580000D02*
X129470000Y-43580000D01*
X128710000Y-49580000D02*
X128710000Y-43580000D01*
X128710000Y-52637071D02*
X128710000Y-52240000D01*
X129470000Y-43580000D02*
X129470000Y-49580000D01*
X129470000Y-52637071D02*
X129470000Y-52240000D01*
X130360000Y-52240000D02*
X130360000Y-49580000D01*
X131250000Y-43580000D02*
X132010000Y-43580000D01*
X131250000Y-49580000D02*
X131250000Y-43580000D01*
X131250000Y-52637071D02*
X131250000Y-52240000D01*
X132010000Y-43580000D02*
X132010000Y-49580000D01*
X132010000Y-52637071D02*
X132010000Y-52240000D01*
X132900000Y-52240000D02*
X132900000Y-49580000D01*
X133790000Y-43580000D02*
X134550000Y-43580000D01*
X133790000Y-49580000D02*
X133790000Y-43580000D01*
X133790000Y-52637071D02*
X133790000Y-52240000D01*
X134550000Y-43580000D02*
X134550000Y-49580000D01*
X134550000Y-52637071D02*
X134550000Y-52240000D01*
X135500000Y-49580000D02*
X120140000Y-49580000D01*
X135500000Y-52240000D02*
X135500000Y-49580000D01*
D13*
%TO.C,J2*%
X141770000Y-91700000D02*
X141770000Y-93700000D01*
D14*
X141860000Y-82450000D02*
X141860000Y-82450000D01*
X141860000Y-82550000D02*
X141860000Y-82550000D01*
D13*
X141920000Y-91700000D02*
X141920000Y-93700000D01*
D15*
X144270000Y-91900000D02*
X144270000Y-93550000D01*
D13*
X146620000Y-91700000D02*
X146620000Y-93700000D01*
D16*
X146720000Y-91650000D02*
X141670000Y-91650000D01*
X146720000Y-93750000D02*
X141670000Y-93750000D01*
D17*
X146820000Y-81230000D02*
X146820000Y-96470000D01*
X146820000Y-96470000D02*
X154770000Y-96470000D01*
X154770000Y-81230000D02*
X146820000Y-81230000D01*
X154770000Y-96470015D02*
X154770000Y-81230000D01*
D12*
X141540000Y-91550000D02*
X146820000Y-91550000D01*
X146820000Y-93910000D01*
X141540000Y-93910000D01*
X141540000Y-91550000D01*
D14*
X141860000Y-82450000D02*
G75*
G02*
X141860000Y-82550000I0J-50000D01*
G01*
X141860000Y-82550000D02*
G75*
G02*
X141860000Y-82450000I0J50000D01*
G01*
D12*
%TO.C,U2*%
X116390000Y-79560000D02*
X116390000Y-80810000D01*
X116390000Y-82810000D02*
X116390000Y-84060000D01*
X116390000Y-84060000D02*
X136830000Y-84060000D01*
X136830000Y-79560000D02*
X116390000Y-79560000D01*
X136830000Y-84060000D02*
X136830000Y-79560000D01*
X116390000Y-80810000D02*
G75*
G02*
X116390000Y-82810000I0J-1000000D01*
G01*
D13*
%TO.C,J1*%
X141770000Y-68840000D02*
X141770000Y-70840000D01*
D14*
X141860000Y-59590000D02*
X141860000Y-59590000D01*
X141860000Y-59690000D02*
X141860000Y-59690000D01*
D13*
X141920000Y-68840000D02*
X141920000Y-70840000D01*
D15*
X144270000Y-69040000D02*
X144270000Y-70690000D01*
D13*
X146620000Y-68840000D02*
X146620000Y-70840000D01*
D16*
X146720000Y-68790000D02*
X141670000Y-68790000D01*
X146720000Y-70890000D02*
X141670000Y-70890000D01*
D17*
X146820000Y-58370000D02*
X146820000Y-73610000D01*
X146820000Y-73610000D02*
X154770000Y-73610000D01*
X154770000Y-58370000D02*
X146820000Y-58370000D01*
X154770000Y-73610015D02*
X154770000Y-58370000D01*
D12*
X141540000Y-68690000D02*
X146820000Y-68690000D01*
X146820000Y-71050000D01*
X141540000Y-71050000D01*
X141540000Y-68690000D01*
D14*
X141860000Y-59590000D02*
G75*
G02*
X141860000Y-59690000I0J-50000D01*
G01*
X141860000Y-59690000D02*
G75*
G02*
X141860000Y-59590000I0J50000D01*
G01*
%TD*%
M02*
